<svg width="160" height="160" viewBox="0 0 160 160" fill="none" xmlns="http://www.w3.org/2000/svg">
<path fill-rule="evenodd" clip-rule="evenodd" d="M80 10C70.4487 10 62.6288 17.4126 61.9791 26.7988C67.6901 25.1037 73.7388 24.1935 80 24.1935C86.2612 24.1935 92.3099 25.1037 98.0209 26.7988C97.3712 17.4126 89.5513 10 80 10ZM138.298 62.9046C141.471 70.4433 143.226 78.7264 143.226 87.4194H160C160 73.9664 150.305 63.0442 138.298 62.9046ZM127.052 129.653C122.87 134.309 118.006 138.341 112.619 141.592L116.346 146.364C119.53 150.438 125.413 151.16 129.488 147.977C133.562 144.794 134.284 138.91 131.101 134.836L127.052 129.653ZM47.7213 141.796C42.3131 138.579 37.4257 134.578 33.2158 129.949L29.3979 134.836C26.2146 138.91 26.937 144.794 31.0115 147.977C35.0859 151.16 40.9694 150.438 44.1527 146.364L47.7213 141.796ZM16.7742 87.4194C16.7742 78.7264 18.5285 70.4433 21.7025 62.9046C9.69517 63.0443 0 73.9664 0 87.4194H16.7742Z" fill="#6AC334"/>
<rect x="21.9355" y="29.3549" width="116.129" height="116.129" rx="58.0645" fill="#6AC334"/>
<g clip-path="url(#clip0_2170_4643)">
<rect x="27.0967" y="34.5161" width="105.806" height="105.806" rx="52.9032" fill="black"/>
<rect x="27.0967" y="34.5161" width="105.806" height="105.806" rx="52.9032" fill="black"/>
</g>
<path d="M83.6301 92.776C81.2062 89.1421 77.1305 86.9585 72.763 86.9585H48.5879V72.8566H70.352L64.8606 64.6194C62.4194 60.9599 58.3052 58.759 53.9034 58.759H48.5879C40.8012 58.759 34.4861 65.0742 34.4861 72.8609V86.9627C34.4861 94.7494 40.8012 101.065 48.5879 101.065H89.1559L83.6344 92.7802L83.6301 92.776Z" fill="white"/>
<path d="M110.898 72.8614H70.3301L75.8516 81.1457C78.2754 84.7796 82.3511 86.9632 86.7186 86.9632H110.894V101.065H89.1296L94.621 109.302C97.0622 112.966 101.176 115.167 105.583 115.167H110.898C118.685 115.167 125 108.852 125 101.065V86.9632C125 79.1765 118.685 72.8614 110.898 72.8614Z" fill="white"/>
<defs>
<clipPath id="clip0_2170_4643">
<rect x="27.0967" y="34.5161" width="105.806" height="105.806" rx="52.9032" fill="white"/>
</clipPath>
</defs>
</svg>
