<svg width="160" height="160" viewBox="0 0 160 160" fill="none" xmlns="http://www.w3.org/2000/svg">
<path fill-rule="evenodd" clip-rule="evenodd" d="M80 10C70.4487 10 62.6288 17.4126 61.9791 26.7988C67.6901 25.1037 73.7388 24.1935 80 24.1935C86.2612 24.1935 92.3099 25.1037 98.0209 26.7988C97.3712 17.4126 89.5513 10 80 10ZM138.298 62.9046C141.471 70.4433 143.226 78.7264 143.226 87.4194H160C160 73.9664 150.305 63.0442 138.298 62.9046ZM127.052 129.653C122.87 134.309 118.006 138.341 112.619 141.592L116.346 146.364C119.53 150.438 125.413 151.16 129.488 147.977C133.562 144.794 134.284 138.91 131.101 134.836L127.052 129.653ZM47.7213 141.796C42.3131 138.579 37.4257 134.578 33.2158 129.949L29.3979 134.836C26.2146 138.91 26.937 144.794 31.0115 147.977C35.0859 151.16 40.9694 150.438 44.1527 146.364L47.7213 141.796ZM16.7742 87.4194C16.7742 78.7264 18.5285 70.4433 21.7025 62.9046C9.69517 63.0443 0 73.9664 0 87.4194H16.7742Z" fill="#6AC334"/>
<rect x="21.9354" y="29.3548" width="116.129" height="116.129" rx="58.0645" fill="#6AC334"/>
<g clip-path="url(#clip0_1370_12620)">
<rect x="27.0968" y="34.5161" width="105.806" height="105.806" rx="52.9032" fill="black"/>
<rect x="27.0968" y="34.5161" width="105.806" height="105.806" rx="52.9032" fill="black"/>
</g>
<path d="M129 92.3614L125.491 79.7115C125.378 79.2967 125.038 79.0894 124.698 78.9857L111.001 75.8751C110.888 75.8751 110.775 75.8751 110.662 75.8751C110.322 75.8751 109.982 75.9787 109.756 76.1861L86.437 97.3384L83.3806 86.3475C83.2674 85.9327 82.9278 85.7254 82.5882 85.6217L70.8155 82.9258L94.0214 61.6698C94.1346 61.5662 94.2478 61.3588 94.2478 61.2551C94.3609 61.0477 94.361 60.8403 94.361 60.633L90.6254 47.8794C90.5122 47.4646 90.1726 47.2573 89.833 47.1536L76.1358 44.0429C75.9094 43.9393 75.5698 44.0429 75.3434 44.1466C75.2302 44.1466 75.2302 44.2503 75.117 44.2503C75.117 44.2503 75.0038 44.354 74.8906 44.354L35.384 80.541C35.384 80.541 35.2708 80.6447 35.2708 80.7484C35.0444 81.0594 34.9312 81.3705 35.0444 81.6816L38.8932 93.9167C39.0064 94.2278 39.346 94.5388 39.6856 94.6425L52.5903 98.0642L56.3259 109.781C56.4391 110.092 56.7787 110.403 57.1183 110.507L70.0231 113.928L73.6454 125.749C73.7586 126.06 74.0982 126.371 74.4378 126.475L87.9086 130C88.0218 130 88.135 130 88.2482 130C88.2482 130 88.2482 130 88.3614 130C88.701 130 88.9274 129.896 89.1538 129.689L128.66 93.5019C128.774 93.3983 128.887 93.1909 128.887 93.0872C129 92.8798 129 92.5688 129 92.3614ZM111.228 106.463L108.284 96.0941L114.737 90.2876L125.717 93.1909L111.228 106.463ZM88.8142 126.993L85.9842 116.728L97.5305 106.152L108.511 109.055L88.8142 126.993ZM97.7569 102.938L95.0401 94.1241L105.002 96.4052L97.7569 102.938ZM106.473 97.8568L108.964 106.878L99.3417 104.389L106.473 97.8568ZM106.813 94.6425L95.6061 92.0503L110.096 78.7783L113.265 88.7323L106.813 94.6425ZM92.7762 94.6425L95.9457 104.597L84.3994 115.173L73.1926 112.684C73.0794 112.58 92.7762 94.6425 92.7762 94.6425ZM123.34 80.8521L126.283 91.2208L115.416 88.3176L112.246 78.3636L123.34 80.8521ZM71.3814 111.025L68.5515 100.656L72.7398 96.82L83.7202 99.7232L71.3814 111.025ZM72.9662 93.7093L70.2495 84.8959L80.211 87.177L72.9662 93.7093ZM84.173 97.7531L74.551 95.1609L81.6826 88.6286L84.173 97.7531ZM71.0419 95.472L66.9667 99.2048L55.7599 96.6126L67.9855 85.518L71.0419 95.472ZM58.1371 62.7067L61.3067 72.6607L49.6471 83.3406L38.4404 80.7484C38.3272 80.8521 58.1371 62.7067 58.1371 62.7067ZM75.2302 47.0499L78.3998 57.0039L72.1738 62.7067L60.9671 60.1145L75.2302 47.0499ZM76.5886 74.5271L73.7586 64.262L80.0978 58.4555L91.0782 61.3588C90.965 61.3588 76.5886 74.5271 76.5886 74.5271ZM63.1179 71.0017L60.4011 62.1883L70.3627 64.4694L63.1179 71.0017ZM71.8342 66.0247L74.3246 75.0456L64.7027 72.4534L71.8342 66.0247ZM62.8915 74.2161L73.8718 77.1193L54.0619 95.1609L51.2319 84.8959L62.8915 74.2161ZM88.5878 49.02L91.4178 59.3887L80.5506 56.4855L77.381 46.5315C77.4942 46.5315 88.5878 49.02 88.5878 49.02ZM37.8744 82.8221L47.836 85.1032L40.7044 91.6356L37.8744 82.8221ZM42.176 93.1909L49.3075 86.6586L51.7979 95.6794L42.176 93.1909ZM58.2503 108.64L55.0807 98.6863L66.1743 101.175L69.0043 111.44L58.2503 108.64ZM72.5134 114.654L82.475 116.935L75.3434 123.468L72.5134 114.654ZM76.9282 124.919L84.0598 118.387L86.5502 127.408L76.9282 124.919Z" fill="url(#paint0_linear_1370_12620)"/>
<defs>
<linearGradient id="paint0_linear_1370_12620" x1="41.5727" y1="100.591" x2="121.24" y2="68.9295" gradientUnits="userSpaceOnUse">
<stop stop-color="white"/>
<stop offset="0.43" stop-color="white"/>
<stop offset="1" stop-color="white"/>
</linearGradient>
<clipPath id="clip0_1370_12620">
<rect x="27.0968" y="34.5161" width="105.806" height="105.806" rx="52.9032" fill="white"/>
</clipPath>
</defs>
</svg>
