<svg width="16" height="17" viewBox="0 0 16 17" fill="none" xmlns="http://www.w3.org/2000/svg">
  <path
      d="M13.799 7.754L12.8006 6.7556V5.3436C12.8006 4.5716 12.1726 3.9436 11.4006 3.9436H9.98859L8.98939 2.9444C8.44459 2.4004 7.55659 2.3996 7.01019 2.9444L6.01179 3.9428H4.59979C3.82779 3.9428 3.19979 4.5708 3.19979 5.3428V6.7548L2.20059 7.754C1.65579 8.2996 1.65579 9.1876 2.20059 9.7332L3.19899 10.7316V12.1436C3.19899 12.9156 3.82699 13.5436 4.59899 13.5436H6.01099L7.01019 14.5428C7.28299 14.8148 7.64139 14.9516 7.99979 14.9516C8.35819 14.9516 8.71659 14.8156 8.98939 14.5428L9.98779 13.5444H11.3998C12.1718 13.5444 12.7998 12.9164 12.7998 12.1444V10.7324L13.799 9.7332C14.3438 9.1876 14.3438 8.2996 13.799 7.754ZM10.7718 7.114L7.63339 11.114C7.52459 11.2532 7.35899 11.3372 7.18219 11.3436C7.17499 11.3436 7.16859 11.3436 7.16139 11.3436C6.99179 11.3436 6.83019 11.2724 6.71579 11.146L5.25419 9.5276C5.03259 9.2812 5.05179 8.902 5.29739 8.6796C5.54299 8.458 5.92299 8.4772 6.14539 8.7228L7.12939 9.8124L9.82859 6.3732C10.0334 6.1124 10.4102 6.0668 10.671 6.2716C10.9318 6.4756 10.9766 6.8532 10.7718 7.114Z"
      fill="currentColor"/>
</svg>
