<svg width="16" height="17" viewBox="0 0 16 17" fill="none" xmlns="http://www.w3.org/2000/svg">
  <path fill-rule="evenodd" clip-rule="evenodd"
        d="M12.8006 6.75557L13.799 7.75397C14.3438 8.29957 14.3438 9.18757 13.799 9.73317L12.7998 10.7324V12.1444C12.7998 12.9164 12.1718 13.5444 11.3998 13.5444H9.98779L8.98939 14.5428C8.71659 14.8156 8.35819 14.9516 7.99979 14.9516C7.64139 14.9516 7.28299 14.8148 7.01019 14.5428L6.01099 13.5436H4.59899C3.82699 13.5436 3.19899 12.9156 3.19899 12.1436V10.7316L2.20059 9.73317C1.65579 9.18757 1.65579 8.29957 2.20059 7.75397L3.19979 6.75477V5.34277C3.19979 4.57077 3.82779 3.94277 4.59979 3.94277H6.01179L7.01019 2.94437C7.55659 2.39957 8.44459 2.40037 8.98939 2.94437L9.98859 3.94357H11.4006C12.1726 3.94357 12.8006 4.57157 12.8006 5.34357V6.75557ZM10.3533 6.64639C10.5486 6.84165 10.5486 7.15823 10.3533 7.35349L8.70686 8.99994L10.3533 10.6464C10.5486 10.8416 10.5486 11.1582 10.3533 11.3535C10.158 11.5488 9.84147 11.5488 9.6462 11.3535L7.99976 9.70705L6.35331 11.3535C6.15805 11.5488 5.84146 11.5488 5.6462 11.3535C5.45094 11.1582 5.45094 10.8416 5.6462 10.6464L7.29265 8.99994L5.6462 7.35349C5.45094 7.15823 5.45094 6.84165 5.6462 6.64639C5.84146 6.45112 6.15805 6.45112 6.35331 6.64639L7.99976 8.29283L9.6462 6.64639C9.84147 6.45112 10.158 6.45112 10.3533 6.64639Z"
        fill="currentColor"/>
</svg>
