<svg width="20" height="21" viewBox="0 0 20 21" fill="none" xmlns="http://www.w3.org/2000/svg">
  <path
      d="M13.8838 5.41626L9.99247 9.30758L6.10313 5.41626C6.0187 5.32761 5.91739 5.25674 5.80515 5.20783C5.69292 5.15891 5.57204 5.13295 5.44962 5.13145C5.3272 5.12996 5.20572 5.15297 5.09232 5.19913C4.97893 5.24529 4.87592 5.31367 4.78935 5.40024C4.70278 5.48681 4.6344 5.58982 4.58824 5.70322C4.54208 5.81661 4.51907 5.93809 4.52056 6.06051C4.52205 6.18293 4.54802 6.30381 4.59693 6.41605C4.64584 6.52828 4.71671 6.62959 4.80537 6.71403L8.69866 10.6034L4.80537 14.4947C4.64638 14.6693 4.56081 14.8984 4.56642 15.1345C4.57203 15.3706 4.66841 15.5954 4.83551 15.7623C5.00261 15.9291 5.22759 16.0251 5.46367 16.0304C5.69975 16.0357 5.92877 15.9497 6.10313 15.7905L9.99247 11.9011L13.8838 15.7905C13.9673 15.8822 14.0686 15.9561 14.1815 16.0076C14.2944 16.0591 14.4166 16.0872 14.5407 16.0901C14.6648 16.0931 14.7881 16.0708 14.9034 16.0248C15.0186 15.9787 15.1233 15.9097 15.2111 15.822C15.2989 15.7344 15.368 15.6298 15.4143 15.5146C15.4606 15.3995 15.483 15.2761 15.4802 15.152C15.4775 15.028 15.4496 14.9058 15.3982 14.7928C15.3469 14.6798 15.2732 14.5784 15.1816 14.4947L11.2902 10.6034L15.1816 6.71403C15.3468 6.54054 15.4376 6.30934 15.4347 6.06978C15.4318 5.83022 15.3353 5.6013 15.1659 5.43189C14.9965 5.26249 14.7676 5.16603 14.528 5.16311C14.2885 5.16019 14.0573 5.25104 13.8838 5.41626Z"
      fill="currentColor"/>
</svg>
