<svg width="20" height="20" viewBox="0 0 20 20" fill="none" xmlns="http://www.w3.org/2000/svg">
  <path
      d="M17.3272 13.7454C16.8936 12.9985 16.2491 10.8852 16.2491 8.125C16.2491 6.4674 15.5906 4.87769 14.4185 3.70559C13.2464 2.53347 11.6567 1.875 9.99909 1.875C8.34148 1.875 6.75177 2.53347 5.57967 3.70559C4.40757 4.87769 3.74909 6.4674 3.74909 8.125C3.74909 10.8859 3.10378 12.9985 2.67018 13.7454C2.55946 13.9352 2.50076 14.1509 2.50001 14.3708C2.49925 14.5905 2.55647 14.8066 2.66588 14.9972C2.77531 15.1879 2.93306 15.3462 3.12323 15.4565C3.31341 15.5668 3.52928 15.6249 3.74909 15.625H6.93737C7.08157 16.3306 7.46505 16.9648 8.02295 17.4201C8.58085 17.8755 9.27892 18.1243 9.99909 18.1243C10.7193 18.1243 11.4173 17.8755 11.9752 17.4201C12.5331 16.9648 12.9166 16.3306 13.0609 15.625H16.2491C16.4689 15.6248 16.6846 15.5665 16.8746 15.4562C17.0647 15.346 17.2224 15.1875 17.3317 14.9969C17.441 14.8063 17.4982 14.5903 17.4974 14.3705C17.4966 14.1508 17.4379 13.9351 17.3272 13.7454ZM9.99909 16.875C9.61145 16.8749 9.23337 16.7546 8.9169 16.5308C8.60043 16.3069 8.36112 15.9905 8.23191 15.625H11.7663C11.6371 15.9905 11.3978 16.3069 11.0813 16.5308C10.7648 16.7546 10.3867 16.8749 9.99909 16.875ZM3.74909 14.375C4.35066 13.3406 4.99909 10.9438 4.99909 8.125C4.99909 6.79891 5.52587 5.52715 6.46356 4.58946C7.40123 3.65179 8.67301 3.125 9.99909 3.125C11.3252 3.125 12.597 3.65179 13.5346 4.58946C14.4722 5.52715 14.9991 6.79891 14.9991 8.125C14.9991 10.9414 15.646 13.3383 16.2491 14.375H3.74909Z"
      fill="currentColor"/>
</svg>
