<svg width="20" height="21" viewBox="0 0 20 21" fill="none" xmlns="http://www.w3.org/2000/svg">
  <path
      d="M9.25095 3.11089C12.9769 3.11089 16.0009 6.13489 16.0009 9.86089C16.0009 13.5869 12.9769 16.6109 9.25095 16.6109C5.52495 16.6109 2.50095 13.5869 2.50095 9.86089C2.50095 6.13489 5.52495 3.11089 9.25095 3.11089ZM9.25095 15.1109C12.1512 15.1109 14.5009 12.7611 14.5009 9.86089C14.5009 6.95989 12.1512 4.61089 9.25095 4.61089C6.34995 4.61089 4.00095 6.95989 4.00095 9.86089C4.00095 12.7611 6.34995 15.1109 9.25095 15.1109ZM15.6147 15.1641L17.7364 17.2851L16.6752 18.3464L14.5542 16.2246L15.6147 15.1641V15.1641Z"
      fill="currentColor"/>
</svg>
