<svg width="20" height="20" viewBox="0 0 20 20" fill="none" xmlns="http://www.w3.org/2000/svg">
  <path
      d="M16.6667 7.91667V6C16.6667 5.06658 16.6667 4.59987 16.485 4.24335C16.3252 3.92975 16.0703 3.67478 15.7567 3.51499C15.4001 3.33334 14.9334 3.33333 14 3.33333H4.33334C3.39992 3.33333 2.93321 3.33333 2.57669 3.51499C2.26308 3.67478 2.00812 3.92975 1.84833 4.24335C1.66667 4.59987 1.66667 5.06658 1.66667 6V14C1.66667 14.9334 1.66667 15.4001 1.84833 15.7566C2.00812 16.0703 2.26308 16.3252 2.57669 16.485C2.93321 16.6667 3.39992 16.6667 4.33334 16.6667L14 16.6667C14.9334 16.6667 15.4001 16.6667 15.7567 16.485C16.0703 16.3252 16.3252 16.0703 16.485 15.7567C16.6667 15.4001 16.6667 14.9334 16.6667 14V12.0833M12.5 10C12.5 9.61279 12.5 9.41918 12.532 9.25818C12.6635 8.59703 13.1804 8.0802 13.8415 7.94869C14.0025 7.91667 14.1961 7.91667 14.5833 7.91667H16.25C16.6372 7.91667 16.8308 7.91667 16.9918 7.94869C17.653 8.0802 18.1698 8.59703 18.3013 9.25818C18.3333 9.41918 18.3333 9.61279 18.3333 10C18.3333 10.3872 18.3333 10.5808 18.3013 10.7418C18.1698 11.403 17.653 11.9198 16.9918 12.0513C16.8308 12.0833 16.6372 12.0833 16.25 12.0833H14.5833C14.1961 12.0833 14.0025 12.0833 13.8415 12.0513C13.1804 11.9198 12.6635 11.403 12.532 10.7418C12.5 10.5808 12.5 10.3872 12.5 10Z"
      stroke="currentColor" stroke-width="1.5" stroke-linecap="round" stroke-linejoin="round"/>
</svg>
