<svg width="12" height="13" viewBox="0 0 12 13" fill="none" xmlns="http://www.w3.org/2000/svg">
  <path
      d="M1.49902 3.91022V9.57688C1.49902 10.3136 2.09569 10.9102 2.83236 10.9102H9.83236C10.2004 10.9102 10.499 10.6116 10.499 10.2436V5.91022C10.499 5.54222 10.2004 5.24355 9.83236 5.24355H2.83236C2.09569 5.24355 1.49902 4.64688 1.49902 3.91022Z"
      stroke="currentColor" stroke-width="1.3125" stroke-linecap="round" stroke-linejoin="round"/>
  <path d="M1.49902 3.91024C1.49902 3.17357 2.09569 2.5769 2.83236 2.5769" stroke="currentColor" stroke-width="1.3125"
        stroke-linecap="round" stroke-linejoin="round"/>
  <path
      d="M8.49935 8.9102C8.95959 8.9102 9.33268 8.5371 9.33268 8.07686C9.33268 7.61663 8.95959 7.24353 8.49935 7.24353C8.03911 7.24353 7.66602 7.61663 7.66602 8.07686C7.66602 8.5371 8.03911 8.9102 8.49935 8.9102Z"
      fill="currentColor"/>
  <path d="M4.01855 3.58025L4.82322 1.93625C4.98389 1.60491 5.38255 1.46691 5.71389 1.62758L9.72322 3.57225"
        stroke="currentColor" stroke-width="1.3125" stroke-linecap="round" stroke-linejoin="round"/>
</svg>
