<svg width="20" height="20" viewBox="0 0 20 20" fill="none" xmlns="http://www.w3.org/2000/svg">
<g id="finance and payment/outline/money bag-dollar">
<path id="Vector" d="M11.6667 10.625C11.6667 9.81957 10.9205 9.16666 10 9.16666C9.07957 9.16666 8.33337 9.81957 8.33337 10.625C8.33337 11.4304 9.07957 12.0833 10 12.0833C10.9205 12.0833 11.6667 12.7362 11.6667 13.5417C11.6667 14.3471 10.9205 15 10 15C9.07957 15 8.33337 14.3471 8.33337 13.5417" stroke="#1C1C1C" stroke-width="1.5" stroke-linecap="round"/>
<path id="Vector 2109" d="M10 7.91666V9.16666" stroke="#1C1C1C" stroke-width="1.5" stroke-linecap="round" stroke-linejoin="round"/>
<path id="Vector 2110" d="M10 15V16.25" stroke="#1C1C1C" stroke-width="1.5" stroke-linecap="round" stroke-linejoin="round"/>
<path id="Rectangle 837" d="M4.51568 9.78619C5.30254 7.42559 7.51167 5.83334 9.99996 5.83334V5.83334C12.4883 5.83334 14.6974 7.42559 15.4842 9.78619L15.7008 10.436C16.9959 14.3212 14.0953 18.3333 9.99996 18.3333V18.3333C5.90461 18.3333 3.00402 14.3212 4.29908 10.436L4.51568 9.78619Z" stroke="#1C1C1C" stroke-width="1.5" stroke-linejoin="round"/>
<path id="Rectangle 838" d="M11.7382 5.83332L8.26172 5.83332L7.09415 4.49412C5.94962 3.18135 7.28483 1.21914 8.95585 1.7582L9.72899 2.00761C9.90502 2.06439 10.0949 2.06439 10.2709 2.00761L11.0441 1.7582C12.7151 1.21914 14.0503 3.18135 12.9058 4.49412L11.7382 5.83332Z" stroke="#1C1C1C" stroke-width="1.5" stroke-linejoin="round"/>
</g>
</svg>
