<svg width="20" height="20" viewBox="0 0 20 20" fill="none" xmlns="http://www.w3.org/2000/svg">
<g id="Huge-icon/arrows/solid/exchange">
<g id="exchange">
<path id="Combo shape" fill-rule="evenodd" clip-rule="evenodd" d="M14.6085 2.8914C14.3645 2.64732 13.9687 2.64732 13.7247 2.8914C13.4806 3.13548 13.4806 3.53121 13.7247 3.77529L15.1577 5.20834H7.49994C4.85357 5.20834 2.70827 7.35365 2.70827 10V10.8333C2.70827 11.1785 2.98809 11.4583 3.33327 11.4583C3.67845 11.4583 3.95827 11.1785 3.95827 10.8333V10C3.95827 8.044 5.54393 6.45834 7.49994 6.45834H16.6666C16.9194 6.45834 17.1473 6.30607 17.244 6.07252C17.3408 5.83897 17.2873 5.57015 17.1085 5.3914L14.6085 2.8914ZM5.39133 17.1086C5.63541 17.3527 6.03114 17.3527 6.27521 17.1086C6.51929 16.8645 6.51929 16.4688 6.27521 16.2247L4.84215 14.7917H12.4999C15.1463 14.7917 17.2916 12.6464 17.2916 10V9.16668C17.2916 8.8215 17.0118 8.54168 16.6666 8.54168C16.3214 8.54168 16.0416 8.8215 16.0416 9.16668V10C16.0416 11.956 14.4559 13.5417 12.4999 13.5417H3.33327C3.08048 13.5417 2.85258 13.694 2.75585 13.9275C2.65911 14.161 2.71258 14.4299 2.89133 14.6086L5.39133 17.1086Z" fill="#1C1C1C"/>
</g>
</g>
</svg>
