<svg width="16" height="16" viewBox="0 0 16 16" fill="none" xmlns="http://www.w3.org/2000/svg">
<g id="Frame">
<path id="Vector" d="M3.64175 2.95506C4.81041 1.94457 6.33384 1.33331 8.00004 1.33331C11.6819 1.33331 14.6667 4.31808 14.6667 7.99998C14.6667 9.42405 14.2202 10.7438 13.4595 11.827L11.3334 7.99998H13.3334C13.3334 5.05446 10.9456 2.66665 8.00004 2.66665C6.56659 2.66665 5.26522 3.23216 4.30686 4.15226L3.64175 2.95506ZM12.3583 13.0449C11.1896 14.0554 9.66624 14.6666 8.00004 14.6666C4.31814 14.6666 1.33337 11.6818 1.33337 7.99998C1.33337 6.57589 1.7799 5.25609 2.54057 4.17294L4.66671 7.99998H2.66671C2.66671 10.9455 5.05452 13.3333 8.00004 13.3333C9.43351 13.3333 10.7348 12.7678 11.6932 11.8477L12.3583 13.0449Z" fill="#6649DF"/>
</g>
</svg>
