<svg width="20" height="20" viewBox="0 0 25 25" fill="none" xmlns="http://www.w3.org/2000/svg">
<path d="M21.6444 13.676C21.6938 13.292 21.7308 12.908 21.7308 12.5C21.7308 12.092 21.6938 11.708 21.6444 11.324L24.2475 9.344C24.4819 9.164 24.5435 8.84 24.3955 8.576L21.9282 4.424C21.8171 4.232 21.6074 4.124 21.3854 4.124C21.3113 4.124 21.2373 4.136 21.1756 4.16L18.1038 5.36C17.4623 4.88 16.7715 4.484 16.0189 4.184L15.5501 1.004C15.5131 0.716 15.2541 0.5 14.9456 0.5H10.011C9.70257 0.5 9.4435 0.716 9.40649 1.004L8.93769 4.184C8.18516 4.484 7.49431 4.892 6.8528 5.36L3.78098 4.16C3.70696 4.136 3.63294 4.124 3.55892 4.124C3.3492 4.124 3.13948 4.232 3.02845 4.424L0.561118 8.576C0.400741 8.84 0.474761 9.164 0.709158 9.344L3.31219 11.324C3.26284 11.708 3.22583 12.104 3.22583 12.5C3.22583 12.896 3.26284 13.292 3.31219 13.676L0.709158 15.656C0.474761 15.836 0.413078 16.16 0.561118 16.424L3.02845 20.576C3.13948 20.768 3.3492 20.876 3.57126 20.876C3.64528 20.876 3.7193 20.864 3.78098 20.84L6.8528 19.64C7.49431 20.12 8.18516 20.516 8.93769 20.816L9.40649 23.996C9.4435 24.284 9.70257 24.5 10.011 24.5H14.9456C15.2541 24.5 15.5131 24.284 15.5501 23.996L16.0189 20.816C16.7715 20.516 17.4623 20.108 18.1038 19.64L21.1756 20.84C21.2497 20.864 21.3237 20.876 21.3977 20.876C21.6074 20.876 21.8171 20.768 21.9282 20.576L24.3955 16.424C24.5435 16.16 24.4819 15.836 24.2475 15.656L21.6444 13.676ZM19.2018 11.624C19.2511 11.996 19.2635 12.248 19.2635 12.5C19.2635 12.752 19.2388 13.016 19.2018 13.376L19.0291 14.732L20.127 15.572L21.4594 16.58L20.5958 18.032L19.0291 17.42L17.7461 16.916L16.6358 17.732C16.1053 18.116 15.5995 18.404 15.0937 18.608L13.786 19.124L13.5886 20.48L13.3419 22.1H11.6147L11.3803 20.48L11.183 19.124L9.87528 18.608C9.3448 18.392 8.85134 18.116 8.35787 17.756L7.23524 16.916L5.92756 17.432L4.3608 18.044L3.49724 16.592L4.8296 15.584L5.92756 14.744L5.75484 13.388C5.71783 13.016 5.69316 12.74 5.69316 12.5C5.69316 12.26 5.71783 11.984 5.75484 11.624L5.92756 10.268L4.8296 9.428L3.49724 8.42L4.3608 6.968L5.92756 7.58L7.21057 8.084L8.32086 7.268C8.85134 6.884 9.35714 6.596 9.86294 6.392L11.1706 5.876L11.368 4.52L11.6147 2.9H13.3295L13.5639 4.52L13.7613 5.876L15.069 6.392C15.5995 6.608 16.0929 6.884 16.5864 7.244L17.709 8.084L19.0167 7.568L20.5835 6.956L21.447 8.408L20.127 9.428L19.0291 10.268L19.2018 11.624ZM12.4783 7.7C9.75191 7.7 7.54365 9.848 7.54365 12.5C7.54365 15.152 9.75191 17.3 12.4783 17.3C15.2047 17.3 17.413 15.152 17.413 12.5C17.413 9.848 15.2047 7.7 12.4783 7.7ZM12.4783 14.9C11.1213 14.9 10.011 13.82 10.011 12.5C10.011 11.18 11.1213 10.1 12.4783 10.1C13.8353 10.1 14.9456 11.18 14.9456 12.5C14.9456 13.82 13.8353 14.9 12.4783 14.9Z" fill="#664ADF"/>
</svg>
