<svg width="16" height="16" viewBox="0 0 16 16" fill="none" xmlns="http://www.w3.org/2000/svg">
<path d="M3.55604 3.02993C4.23291 2.42424 5.03428 1.95479 5.91701 1.6647C6.40569 2.27519 7.15718 2.66618 7.99998 2.66618C8.84278 2.66618 9.59425 2.27519 10.083 1.6647C10.9657 1.95479 11.767 2.42424 12.4439 3.02993C12.1603 3.75799 12.1977 4.60353 12.6188 5.33284C13.0401 6.06258 13.7542 6.51785 14.527 6.63594C14.6186 7.07612 14.6666 7.53219 14.6666 7.99952C14.6666 8.46679 14.6186 8.92292 14.527 9.36306C13.7542 9.48119 13.0401 9.93646 12.6188 10.6662C12.1977 11.3955 12.1603 12.2411 12.4439 12.9691C11.767 13.5748 10.9657 14.0443 10.083 14.3343C9.59425 13.7239 8.84278 13.3329 7.99998 13.3329C7.15718 13.3329 6.40569 13.7239 5.91701 14.3343C5.03428 14.0443 4.23291 13.5748 3.55604 12.9691C3.83966 12.2411 3.80225 11.3955 3.38118 10.6662C2.95987 9.93646 2.24573 9.48119 1.47288 9.36306C1.38139 8.92292 1.33331 8.46679 1.33331 7.99952C1.33331 7.53219 1.38139 7.07612 1.47288 6.63594C2.24573 6.51785 2.95987 6.06258 3.38118 5.33284C3.80225 4.60353 3.83966 3.75799 3.55604 3.02993ZM8.99998 9.73159C9.95658 9.17926 10.2843 7.95612 9.73205 6.99952C9.17971 6.04292 7.95658 5.71517 6.99998 6.26746C6.04339 6.81972 5.71565 8.04292 6.26793 8.99952C6.82025 9.95612 8.04338 10.2839 8.99998 9.73159Z" fill="#6649DF"/>
</svg>
