<svg width="25" height="24" viewBox="0 0 25 24" fill="none" xmlns="http://www.w3.org/2000/svg">
<path d="M22 18V21.5C22 21.8978 21.842 22.2794 21.5607 22.5607C21.2794 22.842 20.8978 23 20.5 23H3.25C2.65326 23 2.08097 22.7629 1.65901 22.341C1.23705 21.919 1 21.3467 1 20.75V3.25C1 2.65326 1.23705 2.08097 1.65901 1.65901C2.08097 1.23705 2.65326 1 3.25 1H19C19.3978 1 19.7794 1.15804 20.0607 1.43934C20.342 1.72064 20.5 2.10218 20.5 2.5V5.75" stroke="white" stroke-width="1.5" stroke-linecap="round" stroke-linejoin="round"/>
<path d="M22 18C22.3978 18 22.7794 17.842 23.0607 17.5607C23.342 17.2794 23.5 16.8978 23.5 16.5V12C23.5 11.6022 23.342 11.2206 23.0607 10.9393C22.7794 10.658 22.3978 10.5 22 10.5H17.75C16.7554 10.5 15.8016 10.8951 15.0983 11.5983C14.3951 12.3016 14 13.2554 14 14.25C14 15.2446 14.3951 16.1984 15.0983 16.9017C15.8016 17.6049 16.7554 18 17.75 18H22Z" stroke="white" stroke-width="1.5" stroke-linecap="round" stroke-linejoin="round"/>
<path d="M18.2451 14.6201C18.038 14.6201 17.8701 14.4523 17.8701 14.2451C17.8701 14.038 18.038 13.8701 18.2451 13.8701" stroke="white" stroke-width="1.5"/>
<path d="M18.2451 14.6201C18.4522 14.6201 18.6201 14.4523 18.6201 14.2451C18.6201 14.038 18.4522 13.8701 18.2451 13.8701" stroke="white" stroke-width="1.5"/>
<path d="M22 10.5V7.24998C22 6.85215 21.842 6.47062 21.5607 6.18932C21.2794 5.90801 20.8978 5.74998 20.5 5.74998H5.88C5.55133 5.76738 5.22437 5.69227 4.93624 5.53318C4.64811 5.37409 4.41036 5.1374 4.25 4.84998" stroke="white" stroke-width="1.5" stroke-linecap="round" stroke-linejoin="round"/>
</svg>
