<svg width="80" height="80" viewBox="0 0 90 89" fill="none" xmlns="http://www.w3.org/2000/svg"
     class="relative shrink-0 max-md:size-16">
  <path
      d="M84.7506 43.9638C84.7506 22.0383 66.9765 4.26423 45.0511 4.26423C23.1256 4.26424 5.35156 22.0383 5.35156 43.9638C5.35156 65.8892 23.1257 83.6633 45.0511 83.6633C66.9766 83.6633 84.7506 65.8892 84.7506 43.9638Z"
      fill="url(#paint0_linear_11942_10021)"/>
  <path
      d="M84.7506 43.9638C84.7506 22.0383 66.9765 4.26423 45.0511 4.26423C23.1256 4.26424 5.35156 22.0383 5.35156 43.9638C5.35156 65.8892 23.1257 83.6633 45.0511 83.6633C66.9766 83.6633 84.7506 65.8892 84.7506 43.9638Z"
      fill="url(#paint1_linear_11942_10021)"/>
  <g filter="url(#filter0_d_11942_10021)">
    <mask id="path-2-inside-1_11942_10021" fill="white">
      <path
          d="M51.7879 8.85923C58.4393 10.1224 64.5949 13.2494 69.5378 17.8759C74.4807 22.5025 78.0074 28.4383 79.7072 34.9919C81.4069 41.5455 81.2098 48.4472 79.1387 54.8931C77.0676 61.339 73.2078 67.0638 68.0089 71.4006C62.8099 75.7375 56.4858 78.508 49.7732 79.3893C43.0606 80.2707 36.2357 79.2267 30.0935 76.3789C23.9513 73.5312 18.7445 68.9968 15.0797 63.3041C11.4149 57.6113 9.44291 50.9945 9.39336 44.2242C9.32319 34.7501 13.0191 25.6361 19.6682 18.8869C26.3172 12.1378 35.3748 8.30627 44.8486 8.2352C47.1765 8.21814 49.5005 8.42712 51.7879 8.85923ZM38.6946 77.2867C40.8864 77.7002 43.1131 77.9001 45.3435 77.8838C54.0077 77.8018 62.3088 74.3916 68.5286 68.359C74.7484 62.3264 78.4108 54.1333 78.7577 45.4753C79.1046 36.8174 76.1096 28.3574 70.3924 21.8465C64.6753 15.3355 56.6737 11.272 48.0438 10.497C39.4139 9.72191 30.8164 12.2947 24.0306 17.6828C17.2449 23.0709 12.7905 30.8618 11.5893 39.443C10.3881 48.0243 12.5321 56.7389 17.5776 63.7832C22.623 70.8275 30.1836 75.6622 38.6946 77.2867Z"/>
    </mask>
    <path
        d="M51.7879 8.85923C58.4393 10.1224 64.5949 13.2494 69.5378 17.8759C74.4807 22.5025 78.0074 28.4383 79.7072 34.9919C81.4069 41.5455 81.2098 48.4472 79.1387 54.8931C77.0676 61.339 73.2078 67.0638 68.0089 71.4006C62.8099 75.7375 56.4858 78.508 49.7732 79.3893C43.0606 80.2707 36.2357 79.2267 30.0935 76.3789C23.9513 73.5312 18.7445 68.9968 15.0797 63.3041C11.4149 57.6113 9.44291 50.9945 9.39336 44.2242C9.32319 34.7501 13.0191 25.6361 19.6682 18.8869C26.3172 12.1378 35.3748 8.30627 44.8486 8.2352C47.1765 8.21814 49.5005 8.42712 51.7879 8.85923ZM38.6946 77.2867C40.8864 77.7002 43.1131 77.9001 45.3435 77.8838C54.0077 77.8018 62.3088 74.3916 68.5286 68.359C74.7484 62.3264 78.4108 54.1333 78.7577 45.4753C79.1046 36.8174 76.1096 28.3574 70.3924 21.8465C64.6753 15.3355 56.6737 11.272 48.0438 10.497C39.4139 9.72191 30.8164 12.2947 24.0306 17.6828C17.2449 23.0709 12.7905 30.8618 11.5893 39.443C10.3881 48.0243 12.5321 56.7389 17.5776 63.7832C22.623 70.8275 30.1836 75.6622 38.6946 77.2867Z"
        fill="black"/>
    <path
        d="M51.7879 8.85923L52.4694 5.27099L52.4659 5.27034L51.7879 8.85923ZM9.39336 44.2242L13.0456 44.1974L13.0456 44.1971L9.39336 44.2242ZM44.8486 8.2352L44.8218 4.58294L44.8212 4.58294L44.8486 8.2352ZM38.6946 77.2867L38.0099 80.8743L38.0176 80.8758L38.6946 77.2867ZM45.3435 77.8838L45.3702 81.5361L45.3781 81.536L45.3435 77.8838ZM51.1065 12.4475C57.0779 13.5815 62.6043 16.3888 67.0419 20.5425L72.0337 15.2094C66.5855 10.1099 59.8007 6.66327 52.4694 5.271L51.1065 12.4475ZM67.0419 20.5425C71.4795 24.6961 74.6458 30.0252 76.1718 35.9089L83.2425 34.075C81.369 26.8515 77.4818 20.309 72.0337 15.2094L67.0419 20.5425ZM76.1718 35.9089C77.6978 41.7926 77.5208 47.9888 75.6614 53.7758L82.616 56.0104C84.8988 48.9056 85.1161 41.2985 83.2425 34.075L76.1718 35.9089ZM75.6614 53.7758C73.802 59.5629 70.3368 64.7024 65.6693 68.596L70.3485 74.2053C76.0788 69.4251 80.3332 63.1151 82.616 56.0104L75.6614 53.7758ZM65.6693 68.596C61.0018 72.4895 55.3242 74.9768 49.2977 75.7681L50.2487 83.0106C57.6475 82.0392 64.6181 78.9855 70.3485 74.2053L65.6693 68.596ZM49.2977 75.7681C43.2713 76.5593 37.1441 75.6221 31.6298 73.0654L28.5572 79.6925C35.3273 82.8314 42.8499 83.9821 50.2487 83.0106L49.2977 75.7681ZM31.6298 73.0654C26.1154 70.5087 21.441 66.4379 18.1508 61.3271L12.0087 65.2811C16.0481 71.5558 21.7871 76.5536 28.5572 79.6925L31.6298 73.0654ZM18.1508 61.3271C14.8606 56.2162 13.0901 50.2757 13.0456 44.1974L5.7411 44.2509C5.79572 51.7132 7.96932 59.0064 12.0087 65.2811L18.1508 61.3271ZM13.0456 44.1971C12.9826 35.6916 16.3007 27.5093 22.27 21.4502L17.0663 16.3237C9.73752 23.7628 5.66375 33.8086 5.7411 44.2512L13.0456 44.1971ZM22.27 21.4502C28.2393 15.391 36.3708 11.9513 44.876 11.8875L44.8212 4.58294C34.3788 4.66128 24.3952 8.88453 17.0663 16.3237L22.27 21.4502ZM44.8754 11.8875C46.9668 11.8721 49.0548 12.0599 51.11 12.4481L52.4659 5.27034C49.9461 4.79435 47.3861 4.56414 44.8218 4.58294L44.8754 11.8875ZM38.0176 80.8758C40.4414 81.333 42.9037 81.5541 45.3702 81.5361L45.3168 74.2316C43.3225 74.2461 41.3315 74.0673 39.3717 73.6976L38.0176 80.8758ZM45.3781 81.536C54.9797 81.4452 64.1788 77.666 71.0714 70.9808L65.9857 65.7373C60.4388 71.1173 53.0358 74.1585 45.3089 74.2316L45.3781 81.536ZM71.0714 70.9808C77.9641 64.2956 82.0227 55.2161 82.4071 45.6216L75.1083 45.3291C74.7989 53.0505 71.5327 60.3573 65.9857 65.7373L71.0714 70.9808ZM82.4071 45.6216C82.7916 36.027 79.4725 26.6519 73.1369 19.4366L67.6479 24.2564C72.7466 30.063 75.4177 37.6077 75.1083 45.3291L82.4071 45.6216ZM73.1369 19.4366C66.8012 12.2213 57.934 7.71812 48.3705 6.85923L47.7171 14.1347C55.4133 14.8259 62.5493 18.4498 67.6479 24.2564L73.1369 19.4366ZM48.3705 6.85923C38.8069 6.00034 29.2793 8.85146 21.7595 14.8225L26.3018 20.5431C32.3535 15.7379 40.0208 13.4435 47.7171 14.1347L48.3705 6.85923ZM21.7595 14.8225C14.2396 20.7934 9.30332 29.4272 7.97219 38.9367L15.2064 39.9493C16.2776 32.2964 20.2502 25.3483 26.3018 20.5431L21.7595 14.8225ZM7.97219 38.9367C6.64105 48.4462 9.01698 58.1036 14.6083 65.9099L20.5468 61.6564C16.0472 55.3742 14.1351 47.6023 15.2064 39.9493L7.97219 38.9367ZM14.6083 65.9099C20.1995 73.7163 28.5781 79.0741 38.0099 80.8743L39.3794 73.6991C31.7892 72.2504 25.0465 67.9387 20.5468 61.6564L14.6083 65.9099Z"
        fill="url(#paint4_linear_11942_10021)" mask="url(#path-2-inside-1_11942_10021)"/>
  </g>
  <mask id="mask0_11942_10021" style="mask-type:alpha" maskUnits="userSpaceOnUse" x="11" y="10" width="67" height="68">
    <circle cx="44.4858" cy="43.9634" r="33.3476" fill="#D9D9D9"/>
  </mask>
  <g mask="url(#mask0_11942_10021)"/>
  <path fill-rule="evenodd" clip-rule="evenodd"
        d="M56.8919 55.9601C56.895 55.9822 56.8963 56.0048 56.8969 56.0275C56.8975 56.2037 56.8069 56.3677 56.6568 56.4602L44.6327 63.8745C44.4701 63.9746 44.2656 63.9752 44.1036 63.8751L32.1765 56.5532C32.0264 56.4608 31.935 56.2974 31.9357 56.1211C31.9356 56.106 31.9363 56.0903 31.9382 56.0752C31.9363 56.0589 31.9356 56.0432 31.9356 56.0269L31.9349 46.8789C31.9349 46.8679 31.9356 46.8568 31.9362 46.8464C31.9274 46.7138 31.9712 46.5794 32.065 46.4753C32.2251 46.298 32.4871 46.2572 32.6928 46.377L44.4129 53.179L56.025 46.4427C56.0438 46.4311 56.0638 46.4218 56.0838 46.4131C56.1688 46.3474 56.2751 46.3084 56.3915 46.3084C56.6697 46.3084 56.8962 46.5346 56.8962 46.8132L56.8969 55.8891C56.8969 55.9135 56.895 55.9368 56.8919 55.9601ZM32.9449 55.2285L36.4093 53.1354L32.9444 48.3666L32.9449 55.2285ZM37.0048 53.9554C36.0436 54.5358 33.4109 56.1264 33.4109 56.1264L42.7451 61.8571L37.0048 53.9554ZM46.1521 61.7519L55.4216 56.0357L51.8399 53.8821L46.1521 61.7519ZM52.4333 53.0609L55.8875 55.1377L55.8869 48.2822L52.4333 53.0609ZM44.1597 54.1991L34.2514 48.448L44.4124 62.4352L54.4792 48.5062L44.6663 54.1991C44.5099 54.2898 44.3161 54.2898 44.1597 54.1991ZM32.4225 44.4236C32.1517 44.4143 31.9347 44.1921 31.9347 43.9188L31.9337 32.0281C31.9337 31.9985 31.9363 31.9694 31.9413 31.9414C31.9363 31.9141 31.9337 31.8862 31.9337 31.8577C31.9331 31.6815 32.0244 31.5175 32.1745 31.4256L44.1993 24.0508C44.3606 23.9513 44.5645 23.9514 44.7258 24.0502L56.6529 31.332C56.8036 31.4239 56.895 31.5879 56.895 31.7641C56.895 31.7716 56.8944 31.7786 56.8944 31.7862C56.8944 31.7937 56.895 31.8013 56.895 31.8094L56.8959 43.8566C56.896 44.0694 56.7634 44.252 56.577 44.3259L44.656 50.8836C44.5047 50.9668 44.3208 50.9668 44.1695 50.8836L32.4225 44.4236ZM32.9432 32.7481L32.9439 42.316L37.2322 35.3268L32.9432 32.7481ZM55.8857 32.6574L51.557 35.2727L55.8865 42.3282L55.8857 32.6574ZM51.0292 34.412C52.1392 33.7414 55.4178 31.7606 55.4178 31.7606L45.7985 25.8874L51.0292 34.412ZM42.9555 25.9973L33.4109 31.8513L37.7599 34.4666L42.9555 25.9973ZM33.2599 43.7321L44.4127 49.8653L55.5633 43.7315L44.4108 25.5559L33.2599 43.7321Z"
        fill="white"/>
  <path fill-rule="evenodd" clip-rule="evenodd"
        d="M56.8919 55.9601C56.895 55.9822 56.8963 56.0048 56.8969 56.0275C56.8975 56.2037 56.8069 56.3677 56.6568 56.4602L44.6327 63.8745C44.4701 63.9746 44.2656 63.9752 44.1036 63.8751L32.1765 56.5532C32.0264 56.4608 31.935 56.2974 31.9357 56.1211C31.9356 56.106 31.9363 56.0903 31.9382 56.0752C31.9363 56.0589 31.9356 56.0432 31.9356 56.0269L31.9349 46.8789C31.9349 46.8679 31.9356 46.8568 31.9362 46.8464C31.9274 46.7138 31.9712 46.5794 32.065 46.4753C32.2251 46.298 32.4871 46.2572 32.6928 46.377L44.4129 53.179L56.025 46.4427C56.0438 46.4311 56.0638 46.4218 56.0838 46.4131C56.1688 46.3474 56.2751 46.3084 56.3915 46.3084C56.6697 46.3084 56.8962 46.5346 56.8962 46.8132L56.8969 55.8891C56.8969 55.9135 56.895 55.9368 56.8919 55.9601ZM32.9449 55.2285L36.4093 53.1354L32.9444 48.3666L32.9449 55.2285ZM37.0048 53.9554C36.0436 54.5358 33.4109 56.1264 33.4109 56.1264L42.7451 61.8571L37.0048 53.9554ZM46.1521 61.7519L55.4216 56.0357L51.8399 53.8821L46.1521 61.7519ZM52.4333 53.0609L55.8875 55.1377L55.8869 48.2822L52.4333 53.0609ZM44.1597 54.1991L34.2514 48.448L44.4124 62.4352L54.4792 48.5062L44.6663 54.1991C44.5099 54.2898 44.3161 54.2898 44.1597 54.1991ZM32.4225 44.4236C32.1517 44.4143 31.9347 44.1921 31.9347 43.9188L31.9337 32.0281C31.9337 31.9985 31.9363 31.9694 31.9413 31.9414C31.9363 31.9141 31.9337 31.8862 31.9337 31.8577C31.9331 31.6815 32.0244 31.5175 32.1745 31.4256L44.1993 24.0508C44.3606 23.9513 44.5645 23.9514 44.7258 24.0502L56.6529 31.332C56.8036 31.4239 56.895 31.5879 56.895 31.7641C56.895 31.7716 56.8944 31.7786 56.8944 31.7862C56.8944 31.7937 56.895 31.8013 56.895 31.8094L56.8959 43.8566C56.896 44.0694 56.7634 44.252 56.577 44.3259L44.656 50.8836C44.5047 50.9668 44.3208 50.9668 44.1695 50.8836L32.4225 44.4236ZM32.9432 32.7481L32.9439 42.316L37.2322 35.3268L32.9432 32.7481ZM55.8857 32.6574L51.557 35.2727L55.8865 42.3282L55.8857 32.6574ZM51.0292 34.412C52.1392 33.7414 55.4178 31.7606 55.4178 31.7606L45.7985 25.8874L51.0292 34.412ZM42.9555 25.9973L33.4109 31.8513L37.7599 34.4666L42.9555 25.9973ZM33.2599 43.7321L44.4127 49.8653L55.5633 43.7315L44.4108 25.5559L33.2599 43.7321Z"
        fill="white" fill-opacity="0.2"/>
  <defs>
    <filter id="filter0_d_11942_10021" x="0.707047" y="0.075118" width="88.83" height="88.8302"
            filterUnits="userSpaceOnUse" color-interpolation-filters="sRGB">
      <feFlood flood-opacity="0" result="BackgroundImageFix"/>
      <feColorMatrix in="SourceAlpha" type="matrix" values="0 0 0 0 0 0 0 0 0 0 0 0 0 0 0 0 0 0 127 0"
                     result="hardAlpha"/>
      <feOffset dy="0.526396"/>
      <feGaussianBlur stdDeviation="4.34277"/>
      <feComposite in2="hardAlpha" operator="out"/>
      <feColorMatrix type="matrix" values="0 0 0 0 0 0 0 0 0 0 0 0 0 0 0 0 0 0 0.31 0"/>
      <feBlend mode="normal" in2="BackgroundImageFix" result="effect1_dropShadow_11942_10021"/>
      <feBlend mode="normal" in="SourceGraphic" in2="effect1_dropShadow_11942_10021" result="shape"/>
    </filter>
    <linearGradient id="paint0_linear_11942_10021" x1="73.7645" y1="15.6853" x2="71.9495" y2="74.6954"
                    gradientUnits="userSpaceOnUse">
      <stop stop-color="#AF5BF9"/>
      <stop offset="1" stop-color="#557AE9"/>
    </linearGradient>
    <linearGradient id="paint1_linear_11942_10021" x1="84.551" y1="-8.58434" x2="5.44988" y2="81.528"
                    gradientUnits="userSpaceOnUse">
      <stop stop-color="#542ACA"/>
      <stop offset="1" stop-color="#170745"/>
    </linearGradient>
    <linearGradient id="paint2_linear_11942_10021" x1="55.0108" y1="79.2612" x2="-25.6178" y2="-30.6658"
                    gradientUnits="userSpaceOnUse">
      <stop stop-color="#E1E1E1"/>
      <stop offset="0.172016" stop-color="#B9BEBE"/>
      <stop offset="0.294206" stop-color="#AEC4C0"/>
      <stop offset="0.318708" stop-color="#CBC4CD"/>
      <stop offset="0.471876" stop-color="#C2CBCE"/>
      <stop offset="0.522327" stop-color="#B5B5B5"/>
      <stop offset="1" stop-color="#7C8486"/>
    </linearGradient>
    <linearGradient id="paint3_linear_11942_10021" x1="35.3787" y1="61.9115" x2="67.4143" y2="57.8707"
                    gradientUnits="userSpaceOnUse">
      <stop offset="0.489583" stop-color="#8F00FF"/>
      <stop offset="0.78125" stop-color="#FF39EB"/>
    </linearGradient>
    <linearGradient id="paint4_linear_11942_10021" x1="75.9003" y1="32.7466" x2="14.0091" y2="55.2535"
                    gradientUnits="userSpaceOnUse">
      <stop stop-color="#29BCFA"/>
      <stop offset="0.43" stop-color="#6464E4"/>
      <stop offset="1" stop-color="#B45AFA"/>
    </linearGradient>
  </defs>
</svg>
