<svg width="1000" height="1000" viewBox="0 0 1000 1000" fill="none" xmlns="http://www.w3.org/2000/svg">
<g clip-path="url(#clip0_1400_1439)">
<path d="M0 500C0 776.142 223.858 1000 500 1000C776.142 1000 1000 776.142 1000 500C1000 223.858 776.142 0 500 0C223.858 0 0 223.858 0 500Z" fill="white"/>
<path fill-rule="evenodd" clip-rule="evenodd" d="M387.5 500V200H237.5V500V800H387.5H462.5H537.5H612.5H687.5V650H612.5H537.5V500H612.5H687.5V575H762.5V425H687.5V350H612.5V200H540.5H537.5H465.5V275H537.5V500H462.5V650H387.5V500Z" fill="#1A0C6D"/>
</g>
<defs>
<clipPath id="clip0_1400_1439">
<rect width="1000" height="1000" fill="white"/>
</clipPath>
</defs>
</svg>
