<svg width="604" height="606" viewBox="0 0 604 606" fill="none" xmlns="http://www.w3.org/2000/svg">
<g clip-path="url(#clip0_26_1780)">
<path d="M422.94 28.2258L405.179 20.38L375.839 11.8234L362.26 8.22548L334.513 3.74069L304.693 2L274.656 3.10219L246.27 6.98392L221.736 13.3209L221.327 13.4273L203.488 18.2047L179.017 28.8111L158.004 38.1633L138.612 49.9757L115.894 67.1801L95.552 83.3759L77.3823 101.565L61.5361 121.542L48.1375 143.089L32.2165 170.697L20.4548 195.234L11.5118 220.641L5.44087 246.655L2.27241 273.015L2 299.464L3.72805 334.358L6.36188 360.88L11.8437 386.625L20.0848 411.35L30.9687 434.823L44.3558 456.833L64.7615 488.373L79.4815 507.099L96.1905 523.656L114.693 537.916L145.181 560.744L162.172 570.253L199.985 586.512L213.269 591.254L252.922 600.561L296.289 604.212L340.046 601.897L380.832 593.813L392.822 589.452L432.69 574.344L448.746 565.311L482.158 543.381L500.123 529.618L516.352 513.492L539.63 484.092L555.215 464.108L568.481 442.386L579.266 419.116L587.428 394.508L592.853 368.794L599.399 333.606L602 307.27L601.707 280.691L598.489 254.126L592.345 227.839L583.303 202.097L570.662 172.36L559.711 149.511L559.523 149.115L545.782 127.165L529.544 106.744L510.937 88.0723L488.382 68.1885L470.035 53.6345L449.844 41.3583L422.94 28.2258Z" fill="#E3ECEF"/>
<path d="M386.167 15.1984L405.179 20.38L427.984 31.5184" fill="#E3ECEF"/>
<path d="M427.984 31.5184L449.844 41.3583L467.281 56.808" fill="#E3ECEF"/>
<path d="M323.372 16.5578L301.198 22.8074L323.372 16.5578Z" fill="#E3ECEF"/>
<path d="M301.198 22.8074L328.066 18.9117L301.198 22.8074Z" fill="#E3ECEF"/>
<path d="M328.066 18.9117L323.372 16.5578L328.066 18.9117Z" fill="#E3ECEF"/>
<path d="M345.069 13.2234L323.372 16.5578L317.194 14.7297" fill="#E3ECEF"/>
<path d="M330.948 21.6355L328.066 18.9117L354.443 17.8766" fill="#E3ECEF"/>
<path d="M354.443 17.8766L345.069 13.2234L354.443 17.8766Z" fill="#E3ECEF"/>
<path d="M366.068 12.7863L345.069 13.2234L332.802 9.61906" fill="#E3ECEF"/>
<path d="M360.27 23.2799L354.443 17.8766L380.057 19.6769" fill="#E3ECEF"/>
<path d="M380.057 19.6769L366.068 12.7863L380.057 19.6769Z" fill="#E3ECEF"/>
<path d="M386.167 15.1984L366.068 12.7863L347.871 7.46535" fill="#E3ECEF"/>
<path d="M388.853 27.7051L380.057 19.6769L404.649 24.2529" fill="#E3ECEF"/>
<path d="M404.649 24.2529L386.167 15.1984L362.26 8.22549L347.871 7.46535" fill="#E3ECEF"/>
<path d="M416.397 34.839L404.649 24.2529L427.984 31.5184L442.627 44.5826" fill="#E3ECEF"/>
<path d="M301.198 22.8074L330.948 21.6355L301.198 22.8074Z" fill="#E3ECEF"/>
<path d="M331.816 24.5455L330.948 21.6355L360.27 23.2799" fill="#E3ECEF"/>
<path d="M362.118 29.0771L360.27 23.2799L388.853 27.7051" fill="#E3ECEF"/>
<path d="M391.778 36.3516L388.853 27.7051L416.397 34.839" fill="#E3ECEF"/>
<path d="M420.477 46.284L416.397 34.839L442.627 44.5826" fill="#E3ECEF"/>
<path d="M447.909 58.7578L442.627 44.5826L467.281 56.808" fill="#E3ECEF"/>
<path d="M473.786 73.6298L467.281 56.808L490.121 71.3633" fill="#E3ECEF"/>
<path d="M490.121 71.3633L470.035 53.6345L490.121 71.3633Z" fill="#E3ECEF"/>
<path d="M497.843 90.7264L490.121 71.3633L510.937 88.0723L519.836 109.853" fill="#E3ECEF"/>
<path d="M362.118 29.0771L391.778 36.3516L362.118 29.0771Z" fill="#E3ECEF"/>
<path d="M388.525 45.0399L391.778 36.3516L420.477 46.284" fill="#E3ECEF"/>
<path d="M416.419 57.8279L420.477 46.284L447.909 58.7578" fill="#E3ECEF"/>
<path d="M443.187 73.1104L447.909 58.7578L473.786 73.6298" fill="#E3ECEF"/>
<path d="M468.531 90.7201L473.786 73.6298L497.843 90.7264" fill="#E3ECEF"/>
<path d="M492.172 110.464L497.843 90.7264L519.836 109.853" fill="#E3ECEF"/>
<path d="M513.855 132.122L519.836 109.853L539.55 130.793" fill="#E3ECEF"/>
<path d="M539.55 130.793L529.544 106.744L539.55 130.793Z" fill="#E3ECEF"/>
<path d="M533.348 155.449L539.55 130.793L556.798 153.313" fill="#E3ECEF"/>
<path d="M556.798 153.313L545.782 127.165L556.798 153.313Z" fill="#E3ECEF"/>
<path d="M550.445 180.185L556.798 153.313L571.422 177.167" fill="#E3ECEF"/>
<path d="M571.422 177.167L559.523 149.115L571.422 177.167Z" fill="#E3ECEF"/>
<path d="M564.975 206.054L571.422 177.167L583.303 202.097L576.8 232.767" fill="#E3ECEF"/>
<path d="M301.198 22.8074L331.816 24.5455L301.198 22.8074Z" fill="#E3ECEF"/>
<path d="M330.595 27.4454L331.816 24.5455L362.118 29.0771L359.811 34.8782" fill="#E3ECEF"/>
<path d="M416.419 57.8279L443.187 73.1104L416.419 57.8279Z" fill="#E3ECEF"/>
<path d="M428.495 86.6331L443.187 73.1104L468.531 90.7201" fill="#E3ECEF"/>
<path d="M451.47 106.88L468.531 90.7201L492.172 110.464" fill="#E3ECEF"/>
<path d="M472.973 129.188L492.172 110.464L513.855 132.122" fill="#E3ECEF"/>
<path d="M492.754 153.308L513.855 132.122L533.348 155.449" fill="#E3ECEF"/>
<path d="M510.584 178.97L533.348 155.449L550.445 180.185" fill="#E3ECEF"/>
<path d="M526.263 205.879L550.445 180.185L564.975 206.054" fill="#E3ECEF"/>
<path d="M539.617 233.729L564.975 206.054L576.8 232.767" fill="#E3ECEF"/>
<path d="M550.502 262.2L576.8 232.767L585.813 260.034" fill="#E3ECEF"/>
<path d="M585.813 260.034L592.345 227.839L585.813 260.034Z" fill="#E3ECEF"/>
<path d="M558.813 290.968L585.813 260.034L591.945 287.559" fill="#E3ECEF"/>
<path d="M591.945 287.559L598.489 254.126L591.945 287.559Z" fill="#E3ECEF"/>
<path d="M301.198 22.8074L330.595 27.4454L301.198 22.8074Z" fill="#E3ECEF"/>
<path d="M564.471 319.709L591.945 287.559L595.158 315.049" fill="#E3ECEF"/>
<path d="M595.158 315.049L601.707 280.691L595.158 315.049Z" fill="#E3ECEF"/>
<path d="M327.357 30.1363L330.595 27.4454L359.811 34.8782" fill="#E3ECEF"/>
<path d="M567.439 348.103L595.158 315.049L595.45 342.22" fill="#E3ECEF"/>
<path d="M595.45 342.22L602 307.27L595.45 342.22Z" fill="#E3ECEF"/>
<path d="M353.456 40.2815L359.811 34.8782L388.525 45.0399" fill="#E3ECEF"/>
<path d="M567.71 375.843L595.45 342.22L592.853 368.794L565.313 402.634" fill="#E3ECEF"/>
<path d="M379.204 53.1645L388.525 45.0399L416.419 57.8279L404.314 68.6661" fill="#E3ECEF"/>
<path d="M579.266 419.116L552.78 452.287L579.266 419.116Z" fill="#E3ECEF"/>
<path d="M552.78 452.287L542.85 474.663L552.78 452.287Z" fill="#E3ECEF"/>
<path d="M542.85 474.663L568.481 442.386L542.85 474.663Z" fill="#E3ECEF"/>
<path d="M451.47 106.88L472.973 129.188L451.47 106.88Z" fill="#E3ECEF"/>
<path d="M498.982 503.009L542.85 474.663L530.654 495.123" fill="#E3ECEF"/>
<path d="M530.654 495.123L555.215 464.108L530.654 495.123Z" fill="#E3ECEF"/>
<path d="M441.15 145.475L472.973 129.188L492.754 153.308" fill="#E3ECEF"/>
<path d="M488.856 522.317L530.654 495.123L516.352 513.492L477.003 539.217" fill="#E3ECEF"/>
<path d="M457.463 171.788L492.754 153.308L510.584 178.97" fill="#E3ECEF"/>
<path d="M472.205 199.535L510.584 178.97L526.263 205.879" fill="#E3ECEF"/>
<path d="M485.196 228.394L526.263 205.879L539.617 233.729" fill="#E3ECEF"/>
<path d="M496.281 258.025L539.617 233.729L550.502 262.2" fill="#E3ECEF"/>
<path d="M505.332 288.076L550.502 262.2L558.813 290.968" fill="#E3ECEF"/>
<path d="M512.249 318.195L558.813 290.968L564.471 319.709" fill="#E3ECEF"/>
<path d="M301.198 22.8074L327.357 30.1363L301.198 22.8074Z" fill="#E3ECEF"/>
<path d="M516.964 348.027L564.471 319.709L567.439 348.103" fill="#E3ECEF"/>
<path d="M322.315 32.4306L327.357 30.1363L353.456 40.2815" fill="#E3ECEF"/>
<path d="M519.44 377.23L567.439 348.103L567.71 375.843" fill="#E3ECEF"/>
<path d="M343.451 44.9057L353.456 40.2815L379.204 53.1645" fill="#E3ECEF"/>
<path d="M519.668 405.474L567.71 375.843L565.313 402.634" fill="#E3ECEF"/>
<path d="M364.374 60.1412L379.204 53.1645L404.314 68.6661" fill="#E3ECEF"/>
<path d="M517.671 432.446L565.313 402.634L560.307 428.2" fill="#E3ECEF"/>
<path d="M560.307 428.2L587.428 394.508L560.307 428.2Z" fill="#E3ECEF"/>
<path d="M384.843 78.0043L404.314 68.6661L428.495 86.6331" fill="#E3ECEF"/>
<path d="M513.502 457.861L560.307 428.2L552.78 452.287L507.238 481.458" fill="#E3ECEF"/>
<path d="M404.618 98.3252L428.495 86.6331L451.47 106.88L423.463 120.896" fill="#E3ECEF"/>
<path d="M488.856 522.317L477.003 539.217L488.856 522.317Z" fill="#E3ECEF"/>
<path d="M457.463 171.788L472.205 199.535L457.463 171.788Z" fill="#E3ECEF"/>
<path d="M423.999 559.111L477.003 539.217L463.576 553.581" fill="#E3ECEF"/>
<path d="M463.576 553.581L500.123 529.618L463.576 553.581Z" fill="#E3ECEF"/>
<path d="M420.579 215.429L472.205 199.535L485.196 228.394" fill="#E3ECEF"/>
<path d="M414.536 572.077L463.576 553.581L448.746 565.311L404.101 582.204" fill="#E3ECEF"/>
<path d="M429.749 245.825L485.196 228.394L496.281 258.025" fill="#E3ECEF"/>
<path d="M437.586 276.862L496.281 258.025L505.332 288.076" fill="#E3ECEF"/>
<path d="M443.993 308.165L505.332 288.076L512.249 318.195" fill="#E3ECEF"/>
<path d="M448.896 339.352L512.249 318.195L516.964 348.027" fill="#E3ECEF"/>
<path d="M301.198 22.8074L322.315 32.4306L301.198 22.8074Z" fill="#E3ECEF"/>
<path d="M452.24 370.047L516.964 348.027L519.44 377.23" fill="#E3ECEF"/>
<path d="M315.808 34.1675L322.315 32.4306L343.451 44.9057" fill="#E3ECEF"/>
<path d="M453.999 399.886L519.44 377.23L519.668 405.474" fill="#E3ECEF"/>
<path d="M330.468 48.4175L343.451 44.9057L364.374 60.1412" fill="#E3ECEF"/>
<path d="M454.163 428.521L519.668 405.474L517.671 432.446" fill="#E3ECEF"/>
<path d="M345.017 65.4546L364.374 60.1412L384.843 78.0043" fill="#E3ECEF"/>
<path d="M452.751 455.628L517.671 432.446L513.569 457.45L513.502 457.861" fill="#E3ECEF"/>
<path d="M359.285 85.1369L384.843 78.0043L404.618 98.3252" fill="#E3ECEF"/>
<path d="M449.799 480.912L513.502 457.861L507.238 481.458" fill="#E3ECEF"/>
<path d="M373.103 107.278L404.618 98.3252L423.463 120.896" fill="#E3ECEF"/>
<path d="M445.363 504.11L507.238 481.458L498.982 503.009" fill="#E3ECEF"/>
<path d="M386.303 131.656L422.809 121.086L423.463 120.896L441.15 145.475" fill="#E3ECEF"/>
<path d="M439.523 524.996L498.982 503.009L488.856 522.317L432.366 543.379" fill="#E3ECEF"/>
<path d="M398.717 158.008L441.15 145.475L457.463 171.788L410.192 186.041" fill="#E3ECEF"/>
<path d="M414.536 572.077L404.101 582.204L414.536 572.077Z" fill="#E3ECEF"/>
<path d="M429.749 245.825L437.586 276.862L429.749 245.825Z" fill="#E3ECEF"/>
<path d="M351.425 592.606L404.101 582.204L392.822 589.452L345.907 598.74" fill="#E3ECEF"/>
<path d="M367.8 288.515L437.586 276.862L443.993 308.165" fill="#E3ECEF"/>
<path d="M370.955 320.602L443.993 308.165L448.896 339.352" fill="#E3ECEF"/>
<path d="M373.373 352.46L448.896 339.352L452.24 370.047" fill="#E3ECEF"/>
<path d="M301.198 22.8074L315.808 34.1675L301.198 22.8074Z" fill="#E3ECEF"/>
<path d="M375.023 383.696L452.24 370.047L453.999 399.886" fill="#E3ECEF"/>
<path d="M308.284 35.2241L315.808 34.1675L330.468 48.4175" fill="#E3ECEF"/>
<path d="M375.895 413.933L453.999 399.886L454.163 428.521" fill="#E3ECEF"/>
<path d="M315.406 50.5572L330.468 48.4175L345.017 65.4546" fill="#E3ECEF"/>
<path d="M375.981 442.811L454.163 428.521L452.751 455.628" fill="#E3ECEF"/>
<path d="M322.486 68.7003L345.017 65.4546L359.285 85.1369" fill="#E3ECEF"/>
<path d="M375.291 469.999L452.751 455.628L449.799 480.912" fill="#E3ECEF"/>
<path d="M329.44 89.5013L359.285 85.1369L373.103 107.278" fill="#E3ECEF"/>
<path d="M373.841 495.196L449.799 480.912L445.363 504.11" fill="#E3ECEF"/>
<path d="M336.184 112.768L373.103 107.278L386.303 131.656" fill="#E3ECEF"/>
<path d="M371.664 518.138L445.363 504.11L439.523 524.996" fill="#E3ECEF"/>
<path d="M342.637 138.265L386.303 131.656L398.717 158.008" fill="#E3ECEF"/>
<path d="M368.795 538.6L439.523 524.996L432.366 543.379" fill="#E3ECEF"/>
<path d="M348.714 165.721L398.717 158.008L410.192 186.041" fill="#E3ECEF"/>
<path d="M365.282 556.4L432.366 543.379L423.999 559.111" fill="#E3ECEF"/>
<path d="M354.339 194.825L410.192 186.041L420.579 215.429" fill="#E3ECEF"/>
<path d="M361.178 571.395L423.999 559.111L414.536 572.077L356.537 583.483" fill="#E3ECEF"/>
<path d="M359.438 225.238L420.579 215.429L429.749 245.825L363.944 256.596" fill="#E3ECEF"/>
<path d="M345.907 598.74L340.046 601.897L345.907 598.74Z" fill="#E3ECEF"/>
<path d="M370.955 320.602L373.373 352.46L370.955 320.602Z" fill="#E3ECEF"/>
<path d="M291.774 356.23L373.373 352.46L375.023 383.696" fill="#E3ECEF"/>
<path d="M301.198 22.8074L308.284 35.2241L301.198 22.8074Z" fill="#E3ECEF"/>
<path d="M291.567 387.624L375.023 383.696L375.895 413.933" fill="#E3ECEF"/>
<path d="M300.267 35.5244L308.284 35.2241L315.406 50.5572" fill="#E3ECEF"/>
<path d="M291.463 417.976L375.895 413.933L375.981 442.811" fill="#E3ECEF"/>
<path d="M299.332 51.1679L315.406 50.5572L322.486 68.7003" fill="#E3ECEF"/>
<path d="M291.463 446.924L375.981 442.811L375.291 469.999" fill="#E3ECEF"/>
<path d="M298.402 69.6276L322.486 68.7003L329.44 89.5013" fill="#E3ECEF"/>
<path d="M291.566 474.134L375.291 469.999L373.841 495.196" fill="#E3ECEF"/>
<path d="M297.491 90.7492L329.44 89.5013L336.184 112.768" fill="#E3ECEF"/>
<path d="M291.769 499.306L373.841 495.196L371.664 518.138" fill="#E3ECEF"/>
<path d="M296.607 114.339L336.184 112.768L342.637 138.265" fill="#E3ECEF"/>
<path d="M292.066 522.172L371.664 518.138L368.795 538.6" fill="#E3ECEF"/>
<path d="M295.763 140.159L342.637 138.265L348.714 165.721" fill="#E3ECEF"/>
<path d="M292.454 542.512L368.795 538.6L365.282 556.4" fill="#E3ECEF"/>
<path d="M294.969 167.932L348.714 165.721L354.339 194.825" fill="#E3ECEF"/>
<path d="M292.928 560.141L365.282 556.4L361.178 571.395" fill="#E3ECEF"/>
<path d="M294.235 197.345L354.339 194.825L359.438 225.238" fill="#E3ECEF"/>
<path d="M293.478 574.922L361.178 571.395L356.638 583.222L356.537 583.483" fill="#E3ECEF"/>
<path d="M293.571 228.056L359.438 225.238L363.944 256.596" fill="#E3ECEF"/>
<path d="M294.097 586.757L356.537 583.483L351.425 592.606" fill="#E3ECEF"/>
<path d="M292.987 259.691L363.944 256.596L367.8 288.515" fill="#E3ECEF"/>
<path d="M294.779 595.59L351.425 592.606L345.907 598.74L295.512 601.403" fill="#E3ECEF"/>
<path d="M292.488 291.865L367.8 288.515L370.955 320.602L292.083 324.179" fill="#E3ECEF"/>
<path d="M301.198 22.8074L300.267 35.5244L301.198 22.8074Z" fill="#E3ECEF"/>
<path d="M291.567 387.624L291.463 417.976L291.567 387.624Z" fill="#E3ECEF"/>
<path d="M292.315 35.0493L300.267 35.5244L299.332 51.1679" fill="#E3ECEF"/>
<path d="M207.869 411.602L291.463 417.976V446.924" fill="#E3ECEF"/>
<path d="M283.389 50.2038L299.332 51.1679L298.402 69.6276" fill="#E3ECEF"/>
<path d="M207.783 440.44L291.463 446.924L291.566 474.134" fill="#E3ECEF"/>
<path d="M274.524 68.1644L298.402 69.6276L297.491 90.7492" fill="#E3ECEF"/>
<path d="M208.67 467.615L291.566 474.134L291.769 499.306" fill="#E3ECEF"/>
<path d="M265.819 88.7792L297.491 90.7492L296.607 114.339" fill="#E3ECEF"/>
<path d="M210.503 492.826L291.769 499.306L292.066 522.172" fill="#E3ECEF"/>
<path d="M257.381 111.859L296.607 114.339L295.763 140.159" fill="#E3ECEF"/>
<path d="M213.247 515.811L292.066 522.172L292.454 542.512" fill="#E3ECEF"/>
<path d="M249.314 137.172L295.763 140.159L294.969 167.932" fill="#E3ECEF"/>
<path d="M216.854 536.345L292.454 542.512L292.928 560.141" fill="#E3ECEF"/>
<path d="M241.718 164.444L294.969 167.932L294.235 197.345" fill="#E3ECEF"/>
<path d="M221.268 554.241L292.928 560.141L293.478 574.922" fill="#E3ECEF"/>
<path d="M234.693 193.371L294.235 197.345L293.571 228.056" fill="#E3ECEF"/>
<path d="M226.421 569.359L293.478 574.922L294.097 586.757" fill="#E3ECEF"/>
<path d="M228.329 223.614L293.571 228.056L292.987 259.691" fill="#E3ECEF"/>
<path d="M232.243 581.594L294.097 586.757L294.779 595.59" fill="#E3ECEF"/>
<path d="M222.709 254.811L292.987 259.691L292.488 291.865" fill="#E3ECEF"/>
<path d="M238.654 590.884L294.779 595.59L295.512 601.403" fill="#E3ECEF"/>
<path d="M217.907 286.583L292.488 291.865L292.083 324.179" fill="#E3ECEF"/>
<path d="M245.575 597.204L295.512 601.403L296.289 604.212" fill="#E3ECEF"/>
<path d="M213.98 318.539L292.083 324.179L291.774 356.23" fill="#E3ECEF"/>
<path d="M210.979 350.285L291.774 356.23L291.567 387.624L208.936 381.431" fill="#E3ECEF"/>
<path d="M283.389 50.2038L274.524 68.1644L283.389 50.2038Z" fill="#E3ECEF"/>
<path d="M207.783 440.44L208.67 467.615L207.783 440.44Z" fill="#E3ECEF"/>
<path d="M252.588 64.4246L274.524 68.1644L265.819 88.7792" fill="#E3ECEF"/>
<path d="M133.581 451.1L208.67 467.615L210.503 492.826" fill="#E3ECEF"/>
<path d="M236.778 83.7522L265.819 88.7792L257.381 111.859" fill="#E3ECEF"/>
<path d="M136.863 476.411L210.503 492.826L213.247 515.811" fill="#E3ECEF"/>
<path d="M221.478 105.539L257.381 111.859L249.314 137.172" fill="#E3ECEF"/>
<path d="M141.782 499.688L213.247 515.811L216.854 536.345" fill="#E3ECEF"/>
<path d="M206.872 129.563L249.314 137.172L241.718 164.444" fill="#E3ECEF"/>
<path d="M148.256 520.705L216.854 536.345L221.268 554.241" fill="#E3ECEF"/>
<path d="M193.142 155.569L241.718 164.444L234.693 193.371" fill="#E3ECEF"/>
<path d="M156.184 539.27L221.268 554.241L226.421 569.359" fill="#E3ECEF"/>
<path d="M180.459 183.265L234.693 193.371L228.329 223.614" fill="#E3ECEF"/>
<path d="M165.451 555.233L226.421 569.359L232.243 581.594" fill="#E3ECEF"/>
<path d="M168.983 212.331L228.329 223.614L222.709 254.811" fill="#E3ECEF"/>
<path d="M175.932 568.473L232.243 581.594L238.654 590.884" fill="#E3ECEF"/>
<path d="M158.861 242.426L222.709 254.811L217.907 286.583" fill="#E3ECEF"/>
<path d="M187.491 578.915L238.654 590.884L245.575 597.204" fill="#E3ECEF"/>
<path d="M150.216 273.186L217.907 286.583L213.98 318.539" fill="#E3ECEF"/>
<path d="M187.491 578.915L199.985 586.512L245.575 597.204L252.922 600.561" fill="#E3ECEF"/>
<path d="M143.154 304.242L213.98 318.539L210.979 350.285" fill="#E3ECEF"/>
<path d="M137.757 335.22L210.979 350.285L208.936 381.431" fill="#E3ECEF"/>
<path d="M301.198 22.8074L292.315 35.0493L301.198 22.8074Z" fill="#E3ECEF"/>
<path d="M134.083 365.746L208.936 381.431L207.869 411.602" fill="#E3ECEF"/>
<path d="M284.981 33.8305L292.315 35.0493L283.389 50.2038L268.716 47.7371" fill="#E3ECEF"/>
<path d="M132.161 395.461L207.869 411.602L207.783 440.44L132 424.019" fill="#E3ECEF"/>
<path d="M236.778 83.7522L221.478 105.539L236.778 83.7522Z" fill="#E3ECEF"/>
<path d="M136.863 476.411L141.782 499.688L136.863 476.411Z" fill="#E3ECEF"/>
<path d="M191.547 95.8966L221.478 105.539L206.872 129.563" fill="#E3ECEF"/>
<path d="M83.324 475.361L141.782 499.688L148.256 520.705" fill="#E3ECEF"/>
<path d="M171.612 117.981L206.872 129.563L193.142 155.569" fill="#E3ECEF"/>
<path d="M92.0552 497.088L148.256 520.705L156.184 539.27" fill="#E3ECEF"/>
<path d="M152.915 142.085L193.142 155.569L180.459 183.265" fill="#E3ECEF"/>
<path d="M102.762 516.638L156.184 539.27L165.451 555.233" fill="#E3ECEF"/>
<path d="M135.683 167.937L180.459 183.265L168.983 212.331" fill="#E3ECEF"/>
<path d="M115.295 533.85L165.451 555.233L175.932 568.473" fill="#E3ECEF"/>
<path d="M120.122 195.246L168.983 212.331L158.861 242.426" fill="#E3ECEF"/>
<path d="M129.494 548.586L175.932 568.473L187.491 578.915L145.181 560.744L129.494 548.586Z" fill="#E3ECEF"/>
<path d="M106.418 223.695L158.861 242.426L150.216 273.186" fill="#E3ECEF"/>
<path d="M94.7336 252.95L150.216 273.186L143.154 304.242" fill="#E3ECEF"/>
<path d="M85.199 282.669L143.154 304.242L137.757 335.22" fill="#E3ECEF"/>
<path d="M77.9194 312.502L137.14 334.985L137.757 335.22L134.083 365.746" fill="#E3ECEF"/>
<path d="M301.198 22.8074L284.981 33.8305L301.198 22.8074Z" fill="#E3ECEF"/>
<path d="M72.9646 342.105L134.083 365.746L132.161 395.461" fill="#E3ECEF"/>
<path d="M278.775 31.9555L284.981 33.8305L268.716 47.7371" fill="#E3ECEF"/>
<path d="M70.3738 371.138L132.161 395.461L132 424.019" fill="#E3ECEF"/>
<path d="M256.348 43.9491L268.462 47.6586L268.716 47.7371L252.588 64.4246" fill="#E3ECEF"/>
<path d="M70.1536 399.275L132 424.019L133.581 451.1" fill="#E3ECEF"/>
<path d="M234.166 58.6957L252.588 64.4246L236.778 83.7522L212.481 76.0672" fill="#E3ECEF"/>
<path d="M72.2793 426.211L133.581 451.1L136.863 476.411L76.6969 451.659" fill="#E3ECEF"/>
<path d="M171.612 117.981L152.915 142.085L171.612 117.981Z" fill="#E3ECEF"/>
<path d="M92.0552 497.088L102.762 516.638L92.0552 497.088Z" fill="#E3ECEF"/>
<path d="M123.862 125.126L152.915 142.085L135.683 167.937" fill="#E3ECEF"/>
<path d="M52.2104 467.633L64.7614 488.373L102.762 516.638L115.295 533.85" fill="#E3ECEF"/>
<path d="M103.511 148.708L135.683 167.937L120.122 195.246" fill="#E3ECEF"/>
<path d="M79.4814 507.099L115.295 533.85L129.494 548.586L96.1904 523.656" fill="#E3ECEF"/>
<path d="M85.1799 173.857L120.122 195.246L106.418 223.695" fill="#E3ECEF"/>
<path d="M69.0728 200.289L106.418 223.695L94.7336 252.95" fill="#E3ECEF"/>
<path d="M55.3638 227.703L94.7336 252.95L85.199 282.669" fill="#E3ECEF"/>
<path d="M44.1975 255.788L85.1991 282.669L77.9196 312.502" fill="#E3ECEF"/>
<path d="M35.6814 284.224L77.9195 312.502L72.9647 342.105" fill="#E3ECEF"/>
<path d="M301.198 22.8074L278.775 31.9555L301.198 22.8074Z" fill="#E3ECEF"/>
<path d="M29.8892 312.698L72.9647 342.105L70.3738 371.138" fill="#E3ECEF"/>
<path d="M274.123 29.5573L278.775 31.9555L256.348 43.9491" fill="#E3ECEF"/>
<path d="M26.8613 340.895L70.3737 371.138L70.1534 399.275" fill="#E3ECEF"/>
<path d="M247.135 39.1172L256.348 43.9491L234.166 58.6957" fill="#E3ECEF"/>
<path d="M26.6018 368.51L70.1536 399.275L72.2794 426.211" fill="#E3ECEF"/>
<path d="M220.533 51.4111L234.166 58.6957L212.481 76.0672" fill="#E3ECEF"/>
<path d="M29.0823 395.256L72.2793 426.211L76.612 451.176L76.6969 451.659" fill="#E3ECEF"/>
<path d="M194.615 66.3249L212.481 76.0672L191.547 95.8966" fill="#E3ECEF"/>
<path d="M34.2422 420.856L76.6968 451.659L83.3239 475.361" fill="#E3ECEF"/>
<path d="M169.676 83.7078L191.547 95.8966L171.612 117.981L146.001 103.379" fill="#E3ECEF"/>
<path d="M41.9905 445.058L82.8603 475.02L83.324 475.361L92.0553 497.088L52.2105 467.633" fill="#E3ECEF"/>
<path d="M103.511 148.708L85.1799 173.857L103.511 148.708Z" fill="#E3ECEF"/>
<path d="M66.1982 149.922L85.18 173.857L69.0728 200.289" fill="#E3ECEF"/>
<path d="M48.9685 174.156L69.0728 200.289L55.3638 227.703" fill="#E3ECEF"/>
<path d="M34.3374 199.567L55.3639 227.703L44.1975 255.788" fill="#E3ECEF"/>
<path d="M22.4387 225.875L44.1974 255.788L35.6814 284.224" fill="#E3ECEF"/>
<path d="M13.3767 252.795L35.3724 283.791L35.6815 284.224L29.8893 312.698" fill="#E3ECEF"/>
<path d="M301.198 22.8074L274.123 29.5573L301.198 22.8074Z" fill="#E3ECEF"/>
<path d="M7.2207 280.04L29.8891 312.698L26.8613 340.895" fill="#E3ECEF"/>
<path d="M271.336 26.8018L274.123 29.5573L247.135 39.1172" fill="#E3ECEF"/>
<path d="M4.00415 307.321L26.8614 340.895L26.6017 368.51" fill="#E3ECEF"/>
<path d="M241.689 33.5898L247.135 39.1172L220.533 51.4111" fill="#E3ECEF"/>
<path d="M4.00416 307.321L3.72803 334.358L26.6017 368.51L29.0823 395.256" fill="#E3ECEF"/>
<path d="M212.578 43.1079L220.533 51.4111L194.615 66.3249" fill="#E3ECEF"/>
<path d="M6.36182 360.88L29.0822 395.256L34.2422 420.856" fill="#E3ECEF"/>
<path d="M184.325 55.2574L194.615 66.3249L169.676 83.7078" fill="#E3ECEF"/>
<path d="M11.8438 386.625L34.2423 420.856L41.9906 445.058" fill="#E3ECEF"/>
<path d="M157.24 69.9089L169.676 83.7078L146.001 103.379" fill="#E3ECEF"/>
<path d="M20.0847 411.35L41.9904 445.058L52.2104 467.633L30.9686 434.823" fill="#E3ECEF"/>
<path d="M131.618 86.9029L146.001 103.379L123.862 125.126" fill="#E3ECEF"/>
<path d="M107.738 106.049L123.862 125.126L103.511 148.708L85.8552 127.134" fill="#E3ECEF"/>
<path d="M48.9686 174.156L34.3374 199.567L48.9686 174.156Z" fill="#E3ECEF"/>
<path d="M46.7059 147.288L32.2165 170.697L34.3373 199.567L22.4387 225.875" fill="#E3ECEF"/>
<path d="M20.4549 195.234L22.4388 225.875L13.3767 252.795" fill="#E3ECEF"/>
<path d="M11.5117 220.641L13.3765 252.795L7.2207 280.04" fill="#E3ECEF"/>
<path d="M301.198 22.8074L271.336 26.8018L301.198 22.8074Z" fill="#E3ECEF"/>
<path d="M5.44092 246.655L7.22085 280.04L4.00423 307.321L2.27246 273.015" fill="#E3ECEF"/>
<path d="M270.595 23.8829L271.336 26.8018L241.689 33.5898" fill="#E3ECEF"/>
<path d="M240.339 27.7546L241.689 33.5898L212.578 43.1079" fill="#E3ECEF"/>
<path d="M210.755 34.3766L212.578 43.1079L184.325 55.2574" fill="#E3ECEF"/>
<path d="M182.158 43.6654L184.325 55.2574L157.24 69.9089" fill="#E3ECEF"/>
<path d="M154.847 55.5095L157.24 69.9089L131.618 86.9029" fill="#E3ECEF"/>
<path d="M129.108 69.7696L131.618 86.9029L107.738 106.049" fill="#E3ECEF"/>
<path d="M105.202 86.2771L107.738 106.049L85.8552 127.134" fill="#E3ECEF"/>
<path d="M83.3645 104.843L85.8552 127.134L66.1982 149.922" fill="#E3ECEF"/>
<path d="M63.8049 125.255L66.1981 149.922L48.9684 174.156L46.7058 147.288" fill="#E3ECEF"/>
<path d="M301.198 22.8074L270.595 23.8829L301.198 22.8074Z" fill="#E3ECEF"/>
<path d="M271.939 20.9982L270.595 23.8829L240.339 27.7546" fill="#E3ECEF"/>
<path d="M243.13 22.013L240.339 27.7546L210.755 34.3766" fill="#E3ECEF"/>
<path d="M215.076 25.82L210.755 34.3766L182.158 43.6654" fill="#E3ECEF"/>
<path d="M188.064 32.3495L182.158 43.6654L154.847 55.5095" fill="#E3ECEF"/>
<path d="M162.366 41.5066L154.847 55.5095L129.108 69.7696" fill="#E3ECEF"/>
<path d="M138.235 53.1657L129.108 69.7696L105.202 86.2771" fill="#E3ECEF"/>
<path d="M138.235 53.1657L115.894 67.1801L105.202 86.2771L83.3645 104.843" fill="#E3ECEF"/>
<path d="M95.5519 83.3759L83.3644 104.843L63.8049 125.255" fill="#E3ECEF"/>
<path d="M77.3822 101.565L63.8049 125.255L46.7058 147.288L61.536 121.542" fill="#E3ECEF"/>
<path d="M271.939 20.9982L243.13 22.013L271.939 20.9982Z" fill="#E3ECEF"/>
<path d="M249.823 16.7504L243.13 22.013L215.076 25.82" fill="#E3ECEF"/>
<path d="M225.143 18.0058L215.076 25.82L188.064 32.3495" fill="#E3ECEF"/>
<path d="M201.465 22.0548L188.064 32.3495L162.366 41.5066" fill="#E3ECEF"/>
<path d="M201.465 22.0548L179.017 28.8111L162.366 41.5066L138.235 53.1657L158.004 38.1633" fill="#E3ECEF"/>
<path d="M301.198 22.8074L271.939 20.9982L275.262 18.3428" fill="#E3ECEF"/>
<path d="M225.143 18.0058L201.465 22.0548L221.327 13.4273L240.199 11.4358" fill="#E3ECEF"/>
<path d="M301.198 22.8074L275.262 18.3428L301.198 22.8074Z" fill="#E3ECEF"/>
<path d="M280.331 16.0941L275.262 18.3428L249.823 16.7504" fill="#E3ECEF"/>
<path d="M259.929 12.3086L249.823 16.7504L225.143 18.0058L240.199 11.4358" fill="#E3ECEF"/>
<path d="M301.198 22.8074L280.331 16.0941L301.198 22.8074Z" fill="#E3ECEF"/>
<path d="M286.796 14.4028L280.331 16.0941L259.929 12.3086" fill="#E3ECEF"/>
<path d="M272.751 8.97545L259.929 12.3086L240.199 11.4358L259.201 6.51773" fill="#E3ECEF"/>
<path d="M301.198 22.8074L286.796 14.4028L301.198 22.8074Z" fill="#E3ECEF"/>
<path d="M294.224 13.3767L286.796 14.4028L272.751 8.97545" fill="#E3ECEF"/>
<path d="M287.432 6.95987L272.751 8.97545L259.201 6.51773" fill="#E3ECEF"/>
<path d="M280.89 3.54813L259.201 6.51774L246.54 6.97508L246.27 6.98393" fill="#E3ECEF"/>
<path d="M301.198 22.8074L294.224 13.3767L301.198 22.8074Z" fill="#E3ECEF"/>
<path d="M302.115 13.0853L294.224 13.3767L287.432 6.95987" fill="#E3ECEF"/>
<path d="M303.008 6.38598L287.432 6.95988L280.89 3.54813" fill="#E3ECEF"/>
<path d="M303.871 2.70566L280.89 3.54812L274.656 3.10219" fill="#E3ECEF"/>
<path d="M301.198 22.8074L302.115 13.0853L301.198 22.8074Z" fill="#E3ECEF"/>
<path d="M309.946 13.5451L302.115 13.0853L303.008 6.38597" fill="#E3ECEF"/>
<path d="M318.468 7.29179L303.008 6.38597L303.871 2.70566" fill="#E3ECEF"/>
<path d="M326.682 4.03716L303.871 2.70566L304.693 2" fill="#E3ECEF"/>
<path d="M317.194 14.7297L301.198 22.8074L309.946 13.5451" fill="#E3ECEF"/>
<path d="M332.802 9.61907L317.194 14.7297L309.946 13.5451L318.468 7.29179" fill="#E3ECEF"/>
<path d="M334.513 3.74069L326.682 4.03716L347.871 7.46534L332.802 9.61907L318.468 7.29179L326.682 4.03716" fill="#E3ECEF"/>
<path d="M405.179 20.38L422.94 28.2258L449.844 41.3583M405.179 20.38L375.839 11.8234L362.26 8.22548M405.179 20.38L386.167 15.1984M405.179 20.38L427.984 31.5184M362.26 8.22548L334.513 3.74069M362.26 8.22548L386.167 15.1984M362.26 8.22548L347.871 7.46534M334.513 3.74069L326.682 4.03716M334.513 3.74069L304.693 2M304.693 2L303.871 2.70566M304.693 2L274.656 3.10219M274.656 3.10219L280.89 3.54812M274.656 3.10219L246.27 6.98392M246.27 6.98392L246.54 6.97507L259.201 6.51773M246.27 6.98392L221.736 13.3209L221.327 13.4273M221.327 13.4273L203.488 18.2047L179.017 28.8111M221.327 13.4273L201.465 22.0548M221.327 13.4273L240.199 11.4358M179.017 28.8111L158.004 38.1633M179.017 28.8111L201.465 22.0548M179.017 28.8111L162.366 41.5066M158.004 38.1633L138.612 49.9757L115.894 67.1801M158.004 38.1633L138.235 53.1657M115.894 67.1801L95.552 83.3759M115.894 67.1801L138.235 53.1657M115.894 67.1801L105.202 86.2771M95.552 83.3759L77.3823 101.565M95.552 83.3759L83.3645 104.843M77.3823 101.565L61.5361 121.542M77.3823 101.565L63.805 125.255M61.5361 121.542L48.1375 143.089L32.2165 170.697M61.5361 121.542L46.7059 147.288M32.2165 170.697L20.4548 195.234M32.2165 170.697L46.7059 147.288M32.2165 170.697L34.3373 199.567M20.4548 195.234L11.5118 220.641M20.4548 195.234L22.4387 225.875M11.5118 220.641L5.44087 246.655M11.5118 220.641L13.3766 252.795M5.44087 246.655L2.27241 273.015M5.44087 246.655L7.2208 280.04M2.27241 273.015L2 299.464L3.72805 334.358M2.27241 273.015L4.00418 307.321M3.72805 334.358L6.36188 360.88M3.72805 334.358L4.00418 307.321M3.72805 334.358L26.6017 368.51M6.36188 360.88L11.8437 386.625M6.36188 360.88L29.0823 395.256M11.8437 386.625L20.0848 411.35M11.8437 386.625L34.2423 420.856M20.0848 411.35L30.9687 434.823M20.0848 411.35L41.9905 445.058M30.9687 434.823L44.3558 456.833L64.7615 488.373M30.9687 434.823L52.2105 467.633M64.7615 488.373L79.4815 507.099M64.7615 488.373L52.2105 467.633M64.7615 488.373L102.762 516.638M79.4815 507.099L96.1905 523.656M79.4815 507.099L115.295 533.85M96.1905 523.656L114.693 537.916L145.181 560.744M96.1905 523.656L129.494 548.586M145.181 560.744L162.172 570.253L199.985 586.512M145.181 560.744L187.491 578.915M145.181 560.744L129.494 548.586M199.985 586.512L213.269 591.254L252.922 600.561M199.985 586.512L187.491 578.915M199.985 586.512L245.575 597.204M252.922 600.561L245.575 597.204M252.922 600.561L296.289 604.212M296.289 604.212L295.512 601.403M296.289 604.212L340.046 601.897M340.046 601.897L345.907 598.74M340.046 601.897L380.832 593.813L392.822 589.452M392.822 589.452L432.69 574.344L448.746 565.311M392.822 589.452L404.101 582.204M392.822 589.452L345.907 598.74M448.746 565.311L482.158 543.381L500.123 529.618M448.746 565.311L463.576 553.581M448.746 565.311L404.101 582.204M500.123 529.618L516.352 513.492M500.123 529.618L463.576 553.581M516.352 513.492L539.63 484.092L555.215 464.108M516.352 513.492L530.654 495.123M516.352 513.492L477.003 539.217M555.215 464.108L568.481 442.386M555.215 464.108L530.654 495.123M568.481 442.386L579.266 419.116M568.481 442.386L542.85 474.663M579.266 419.116L587.428 394.508M579.266 419.116L552.78 452.287M587.428 394.508L592.853 368.794M587.428 394.508L560.307 428.2M592.853 368.794L599.399 333.606L602 307.27M592.853 368.794L595.45 342.22M592.853 368.794L565.313 402.634M602 307.27L601.707 280.691M602 307.27L595.45 342.22M601.707 280.691L598.489 254.126M601.707 280.691L595.158 315.049M598.489 254.126L592.345 227.839M598.489 254.126L591.945 287.559M592.345 227.839L583.303 202.097M592.345 227.839L585.813 260.034M583.303 202.097L570.662 172.36L559.711 149.511L559.523 149.115M583.303 202.097L571.422 177.167M583.303 202.097L576.8 232.767M559.523 149.115L545.782 127.165M559.523 149.115L571.422 177.167M545.782 127.165L529.544 106.744M545.782 127.165L556.798 153.313M529.544 106.744L510.937 88.0723M529.544 106.744L539.55 130.793M510.937 88.0723L488.382 68.1885L470.035 53.6345M510.937 88.0723L490.121 71.3633M510.937 88.0723L519.836 109.853M470.035 53.6345L449.844 41.3583M470.035 53.6345L490.121 71.3633M449.844 41.3583L427.984 31.5184M449.844 41.3583L467.281 56.808M386.167 15.1984L366.068 12.7863M386.167 15.1984L404.649 24.2529M427.984 31.5184L404.649 24.2529M427.984 31.5184L442.627 44.5826M467.281 56.808L442.627 44.5826M467.281 56.808L473.786 73.6298M467.281 56.808L490.121 71.3633M323.372 16.5578L328.066 18.9117M323.372 16.5578L317.194 14.7297M323.372 16.5578L301.198 22.8074M323.372 16.5578L345.069 13.2234M301.198 22.8074L300.267 35.5244M301.198 22.8074L294.224 13.3767M301.198 22.8074L302.115 13.0853M301.198 22.8074L309.946 13.5451M301.198 22.8074L328.066 18.9117M301.198 22.8074L330.948 21.6355M301.198 22.8074L331.816 24.5455M301.198 22.8074L330.595 27.4454M301.198 22.8074L327.357 30.1363M301.198 22.8074L322.315 32.4306M301.198 22.8074L315.808 34.1675M301.198 22.8074L308.284 35.2241M301.198 22.8074L292.315 35.0493M301.198 22.8074L284.981 33.8305M301.198 22.8074L278.775 31.9555M301.198 22.8074L274.123 29.5573M301.198 22.8074L271.336 26.8018M301.198 22.8074L270.595 23.8829M301.198 22.8074L271.939 20.9982M301.198 22.8074L275.262 18.3428M301.198 22.8074L280.331 16.0941M301.198 22.8074L286.796 14.4028M301.198 22.8074L317.194 14.7297M328.066 18.9117L330.948 21.6355M328.066 18.9117L354.443 17.8766M345.069 13.2234L354.443 17.8766M345.069 13.2234L332.802 9.61907M345.069 13.2234L366.068 12.7863M317.194 14.7297L309.946 13.5451M317.194 14.7297L332.802 9.61907M330.948 21.6355L331.816 24.5455M330.948 21.6355L360.27 23.2799M354.443 17.8766L360.27 23.2799M354.443 17.8766L380.057 19.6769M366.068 12.7863L380.057 19.6769M366.068 12.7863L347.871 7.46534M332.802 9.61907L347.871 7.46534M332.802 9.61907L318.468 7.29179M360.27 23.2799L362.118 29.0771M360.27 23.2799L388.853 27.7051M380.057 19.6769L388.853 27.7051M380.057 19.6769L404.649 24.2529M347.871 7.46534L326.682 4.03716M388.853 27.7051L391.778 36.3516M388.853 27.7051L416.397 34.839M404.649 24.2529L416.397 34.839M416.397 34.839L420.477 46.284M416.397 34.839L442.627 44.5826M442.627 44.5826L447.909 58.7578M331.816 24.5455L330.595 27.4454M331.816 24.5455L362.118 29.0771M362.118 29.0771L359.811 34.8782M362.118 29.0771L391.778 36.3516M391.778 36.3516L388.525 45.0399M391.778 36.3516L420.477 46.284M420.477 46.284L416.419 57.8279M420.477 46.284L447.909 58.7578M447.909 58.7578L443.187 73.1104M447.909 58.7578L473.786 73.6298M473.786 73.6298L468.531 90.7201M473.786 73.6298L497.843 90.7264M490.121 71.3633L497.843 90.7264M497.843 90.7264L492.172 110.464M497.843 90.7264L519.836 109.853M519.836 109.853L513.855 132.122M519.836 109.853L539.55 130.793M388.525 45.0399L379.204 53.1645M388.525 45.0399L359.811 34.8782M388.525 45.0399L416.419 57.8279M416.419 57.8279L443.187 73.1104M416.419 57.8279L404.314 68.6661M443.187 73.1104L428.495 86.6331M443.187 73.1104L468.531 90.7201M468.531 90.7201L451.47 106.88M468.531 90.7201L492.172 110.464M492.172 110.464L472.973 129.188M492.172 110.464L513.855 132.122M513.855 132.122L492.754 153.308M513.855 132.122L533.348 155.449M539.55 130.793L533.348 155.449M539.55 130.793L556.798 153.313M533.348 155.449L510.584 178.97M533.348 155.449L550.445 180.185M556.798 153.313L550.445 180.185M556.798 153.313L571.422 177.167M550.445 180.185L526.263 205.879M550.445 180.185L564.975 206.054M571.422 177.167L564.975 206.054M564.975 206.054L539.617 233.729M564.975 206.054L576.8 232.767M576.8 232.767L550.502 262.2M576.8 232.767L585.813 260.034M330.595 27.4454L327.357 30.1363M330.595 27.4454L359.811 34.8782M359.811 34.8782L353.456 40.2815M428.495 86.6331L404.314 68.6661M428.495 86.6331L404.618 98.3252M428.495 86.6331L451.47 106.88M451.47 106.88L472.973 129.188M451.47 106.88L423.463 120.896M472.973 129.188L441.15 145.475M472.973 129.188L492.754 153.308M492.754 153.308L457.463 171.788M492.754 153.308L510.584 178.97M510.584 178.97L472.205 199.535M510.584 178.97L526.263 205.879M526.263 205.879L485.196 228.394M526.263 205.879L539.617 233.729M539.617 233.729L496.281 258.025M539.617 233.729L550.502 262.2M550.502 262.2L505.332 288.076M550.502 262.2L558.813 290.968M585.813 260.034L558.813 290.968M585.813 260.034L591.945 287.559M558.813 290.968L512.249 318.195M558.813 290.968L564.471 319.709M591.945 287.559L564.471 319.709M591.945 287.559L595.158 315.049M564.471 319.709L516.964 348.027M564.471 319.709L567.439 348.103M595.158 315.049L567.439 348.103M595.158 315.049L595.45 342.22M327.357 30.1363L322.315 32.4306M327.357 30.1363L353.456 40.2815M567.439 348.103L519.44 377.23M567.439 348.103L567.71 375.843M595.45 342.22L567.71 375.843M353.456 40.2815L343.451 44.9057M353.456 40.2815L379.204 53.1645M567.71 375.843L519.668 405.474M567.71 375.843L565.313 402.634M565.313 402.634L517.671 432.446M565.313 402.634L560.307 428.2M379.204 53.1645L364.374 60.1412M379.204 53.1645L404.314 68.6661M404.314 68.6661L384.843 78.0043M552.78 452.287L542.85 474.663M552.78 452.287L560.307 428.2M552.78 452.287L507.238 481.458M542.85 474.663L498.982 503.009M542.85 474.663L530.654 495.123M498.982 503.009L507.238 481.458M498.982 503.009L439.523 524.996M498.982 503.009L488.856 522.317M530.654 495.123L488.856 522.317M441.15 145.475L423.463 120.896M441.15 145.475L398.717 158.008M441.15 145.475L457.463 171.788M488.856 522.317L477.003 539.217M488.856 522.317L432.366 543.379M477.003 539.217L423.999 559.111M477.003 539.217L463.576 553.581M457.463 171.788L472.205 199.535M457.463 171.788L410.192 186.041M472.205 199.535L420.579 215.429M472.205 199.535L485.196 228.394M485.196 228.394L429.749 245.825M485.196 228.394L496.281 258.025M496.281 258.025L437.586 276.862M496.281 258.025L505.332 288.076M505.332 288.076L443.993 308.165M505.332 288.076L512.249 318.195M512.249 318.195L448.896 339.352M512.249 318.195L516.964 348.027M516.964 348.027L452.24 370.047M516.964 348.027L519.44 377.23M322.315 32.4306L315.808 34.1675M322.315 32.4306L343.451 44.9057M519.44 377.23L453.999 399.886M519.44 377.23L519.668 405.474M343.451 44.9057L330.468 48.4175M343.451 44.9057L364.374 60.1412M519.668 405.474L454.163 428.521M519.668 405.474L517.671 432.446M364.374 60.1412L345.017 65.4546M364.374 60.1412L384.843 78.0043M517.671 432.446L452.751 455.628M517.671 432.446L513.569 457.45L513.502 457.861M560.307 428.2L513.502 457.861M384.843 78.0043L359.285 85.1369M384.843 78.0043L404.618 98.3252M513.502 457.861L449.799 480.912M513.502 457.861L507.238 481.458M507.238 481.458L445.363 504.11M404.618 98.3252L373.103 107.278M404.618 98.3252L423.463 120.896M423.463 120.896L422.809 121.086L386.303 131.656M423.999 559.111L432.366 543.379M423.999 559.111L361.178 571.395M423.999 559.111L414.536 572.077M463.576 553.581L414.536 572.077M420.579 215.429L410.192 186.041M420.579 215.429L359.438 225.238M420.579 215.429L429.749 245.825M414.536 572.077L404.101 582.204M414.536 572.077L356.537 583.483M404.101 582.204L351.425 592.606M429.749 245.825L437.586 276.862M429.749 245.825L363.944 256.596M437.586 276.862L367.8 288.515M437.586 276.862L443.993 308.165M443.993 308.165L370.955 320.602M443.993 308.165L448.896 339.352M448.896 339.352L373.373 352.46M448.896 339.352L452.24 370.047M452.24 370.047L375.023 383.696M452.24 370.047L453.999 399.886M315.808 34.1675L308.284 35.2241M315.808 34.1675L330.468 48.4175M453.999 399.886L375.895 413.933M453.999 399.886L454.163 428.521M330.468 48.4175L315.406 50.5572M330.468 48.4175L345.017 65.4546M454.163 428.521L375.981 442.811M454.163 428.521L452.751 455.628M345.017 65.4546L322.486 68.7003M345.017 65.4546L359.285 85.1369M452.751 455.628L375.291 469.999M452.751 455.628L449.799 480.912M359.285 85.1369L329.44 89.5013M359.285 85.1369L373.103 107.278M449.799 480.912L373.841 495.196M449.799 480.912L445.363 504.11M373.103 107.278L336.184 112.768M373.103 107.278L386.303 131.656M445.363 504.11L371.664 518.138M445.363 504.11L439.523 524.996M386.303 131.656L342.637 138.265M386.303 131.656L398.717 158.008M439.523 524.996L368.795 538.6M439.523 524.996L432.366 543.379M432.366 543.379L365.282 556.4M398.717 158.008L348.714 165.721M398.717 158.008L410.192 186.041M410.192 186.041L354.339 194.825M351.425 592.606L356.537 583.483M351.425 592.606L345.907 598.74M351.425 592.606L294.779 595.59M345.907 598.74L295.512 601.403M367.8 288.515L363.944 256.596M367.8 288.515L292.488 291.865M367.8 288.515L370.955 320.602M370.955 320.602L373.373 352.46M370.955 320.602L292.083 324.179M373.373 352.46L291.774 356.23M373.373 352.46L375.023 383.696M375.023 383.696L291.567 387.624M375.023 383.696L375.895 413.933M308.284 35.2241L300.267 35.5244M308.284 35.2241L315.406 50.5572M375.895 413.933L291.463 417.976M375.895 413.933L375.981 442.811M315.406 50.5572L299.332 51.1679M315.406 50.5572L322.486 68.7003M375.981 442.811L291.463 446.924M375.981 442.811L375.291 469.999M322.486 68.7003L298.402 69.6276M322.486 68.7003L329.44 89.5013M375.291 469.999L291.566 474.134M375.291 469.999L373.841 495.196M329.44 89.5013L297.491 90.7492M329.44 89.5013L336.184 112.768M373.841 495.196L291.769 499.306M373.841 495.196L371.664 518.138M336.184 112.768L296.607 114.339M336.184 112.768L342.637 138.265M371.664 518.138L292.066 522.172M371.664 518.138L368.795 538.6M342.637 138.265L295.763 140.159M342.637 138.265L348.714 165.721M368.795 538.6L292.454 542.512M368.795 538.6L365.282 556.4M348.714 165.721L294.969 167.932M348.714 165.721L354.339 194.825M365.282 556.4L292.928 560.141M365.282 556.4L361.178 571.395M354.339 194.825L294.235 197.345M354.339 194.825L359.438 225.238M361.178 571.395L356.638 583.222L356.537 583.483M361.178 571.395L293.478 574.922M356.537 583.483L294.097 586.757M359.438 225.238L293.571 228.056M359.438 225.238L363.944 256.596M363.944 256.596L292.987 259.691M291.774 356.23L292.083 324.179M291.774 356.23L210.979 350.285M291.774 356.23L291.567 387.624M291.567 387.624L291.463 417.976M291.567 387.624L208.936 381.431M300.267 35.5244L292.315 35.0493M300.267 35.5244L299.332 51.1679M291.463 417.976L207.869 411.602M291.463 417.976V446.924M299.332 51.1679L283.389 50.2038M299.332 51.1679L298.402 69.6276M291.463 446.924L207.783 440.44M291.463 446.924L291.566 474.134M298.402 69.6276L274.524 68.1644M298.402 69.6276L297.491 90.7492M291.566 474.134L208.67 467.615M291.566 474.134L291.769 499.306M297.491 90.7492L265.819 88.7792M297.491 90.7492L296.607 114.339M291.769 499.306L210.503 492.826M291.769 499.306L292.066 522.172M296.607 114.339L257.381 111.859M296.607 114.339L295.763 140.159M292.066 522.172L213.247 515.811M292.066 522.172L292.454 542.512M295.763 140.159L249.314 137.172M295.763 140.159L294.969 167.932M292.454 542.512L216.854 536.345M292.454 542.512L292.928 560.141M294.969 167.932L241.718 164.444M294.969 167.932L294.235 197.345M292.928 560.141L221.268 554.241M292.928 560.141L293.478 574.922M294.235 197.345L234.693 193.371M294.235 197.345L293.571 228.056M293.478 574.922L294.097 586.757M293.478 574.922L226.421 569.359M293.571 228.056L228.329 223.614M293.571 228.056L292.987 259.691M294.097 586.757L294.779 595.59M294.097 586.757L232.243 581.594M292.987 259.691L222.709 254.811M292.987 259.691L292.488 291.865M294.779 595.59L295.512 601.403M294.779 595.59L238.654 590.884M295.512 601.403L245.575 597.204M292.488 291.865L217.907 286.583M292.488 291.865L292.083 324.179M292.083 324.179L213.98 318.539M292.315 35.0493L284.981 33.8305M292.315 35.0493L283.389 50.2038M207.869 411.602L208.936 381.431M207.869 411.602L132.161 395.461M207.869 411.602L207.783 440.44M283.389 50.2038L274.524 68.1644M283.389 50.2038L268.716 47.7371M207.783 440.44L208.67 467.615M207.783 440.44L132 424.019M274.524 68.1644L252.588 64.4246M274.524 68.1644L265.819 88.7792M208.67 467.615L133.581 451.1M208.67 467.615L210.503 492.826M265.819 88.7792L236.778 83.7522M265.819 88.7792L257.381 111.859M210.503 492.826L136.863 476.411M210.503 492.826L213.247 515.811M257.381 111.859L221.478 105.539M257.381 111.859L249.314 137.172M213.247 515.811L141.782 499.688M213.247 515.811L216.854 536.345M249.314 137.172L206.872 129.563M249.314 137.172L241.718 164.444M216.854 536.345L148.256 520.705M216.854 536.345L221.268 554.241M241.718 164.444L193.142 155.569M241.718 164.444L234.693 193.371M221.268 554.241L156.184 539.27M221.268 554.241L226.421 569.359M234.693 193.371L180.459 183.265M234.693 193.371L228.329 223.614M226.421 569.359L165.451 555.233M226.421 569.359L232.243 581.594M228.329 223.614L168.983 212.331M228.329 223.614L222.709 254.811M232.243 581.594L238.654 590.884M232.243 581.594L175.932 568.473M222.709 254.811L158.861 242.426M222.709 254.811L217.907 286.583M238.654 590.884L245.575 597.204M238.654 590.884L187.491 578.915M217.907 286.583L150.216 273.186M217.907 286.583L213.98 318.539M213.98 318.539L143.154 304.242M213.98 318.539L210.979 350.285M210.979 350.285L137.757 335.22M210.979 350.285L208.936 381.431M208.936 381.431L134.083 365.746M252.588 64.4246L268.716 47.7371M252.588 64.4246L234.166 58.6957M252.588 64.4246L236.778 83.7522M133.581 451.1L132 424.019M133.581 451.1L72.2793 426.211M133.581 451.1L136.863 476.411M236.778 83.7522L221.478 105.539M236.778 83.7522L212.481 76.0672M136.863 476.411L141.782 499.688M136.863 476.411L76.6969 451.659M221.478 105.539L191.547 95.8966M221.478 105.539L206.872 129.563M141.782 499.688L83.324 475.361M141.782 499.688L148.256 520.705M206.872 129.563L171.612 117.981M206.872 129.563L193.142 155.569M148.256 520.705L92.0553 497.088M148.256 520.705L156.184 539.27M193.142 155.569L152.915 142.085M193.142 155.569L180.459 183.265M156.184 539.27L102.762 516.638M156.184 539.27L165.451 555.233M180.459 183.265L135.683 167.937M180.459 183.265L168.983 212.331M165.451 555.233L115.295 533.85M165.451 555.233L175.932 568.473M168.983 212.331L120.122 195.246M168.983 212.331L158.861 242.426M175.932 568.473L129.494 548.586M175.932 568.473L187.491 578.915M158.861 242.426L106.418 223.695M158.861 242.426L150.216 273.186M150.216 273.186L94.7336 252.95M150.216 273.186L143.154 304.242M143.154 304.242L85.199 282.669M143.154 304.242L137.757 335.22M137.757 335.22L137.14 334.985L77.9195 312.502M137.757 335.22L134.083 365.746M134.083 365.746L72.9647 342.105M134.083 365.746L132.161 395.461M284.981 33.8305L278.775 31.9555M284.981 33.8305L268.716 47.7371M268.716 47.7371L268.462 47.6586L256.348 43.9491M132.161 395.461L70.3738 371.138M132.161 395.461L132 424.019M132 424.019L70.1535 399.275M191.547 95.8966L212.481 76.0672M191.547 95.8966L169.676 83.7078M191.547 95.8966L171.612 117.981M83.324 475.361L82.8603 475.02L41.9905 445.058M83.324 475.361L76.6969 451.659M83.324 475.361L92.0553 497.088M171.612 117.981L152.915 142.085M171.612 117.981L146.001 103.379M92.0553 497.088L102.762 516.638M92.0553 497.088L52.2105 467.633M152.915 142.085L123.862 125.126M152.915 142.085L135.683 167.937M102.762 516.638L115.295 533.85M135.683 167.937L103.511 148.708M135.683 167.937L120.122 195.246M115.295 533.85L129.494 548.586M120.122 195.246L85.18 173.857M120.122 195.246L106.418 223.695M106.418 223.695L69.0728 200.289M106.418 223.695L94.7336 252.95M94.7336 252.95L55.3638 227.703M94.7336 252.95L85.199 282.669M85.199 282.669L44.1974 255.788M85.199 282.669L77.9195 312.502M77.9195 312.502L35.6814 284.224M77.9195 312.502L72.9647 342.105M72.9647 342.105L29.8892 312.698M72.9647 342.105L70.3738 371.138M278.775 31.9555L274.123 29.5573M278.775 31.9555L256.348 43.9491M70.3738 371.138L26.8614 340.895M70.3738 371.138L70.1535 399.275M256.348 43.9491L247.135 39.1172M256.348 43.9491L234.166 58.6957M70.1535 399.275L26.6017 368.51M70.1535 399.275L72.2793 426.211M234.166 58.6957L220.533 51.4111M234.166 58.6957L212.481 76.0672M212.481 76.0672L194.615 66.3249M72.2793 426.211L29.0823 395.256M72.2793 426.211L76.612 451.176L76.6969 451.659M76.6969 451.659L34.2423 420.856M123.862 125.126L146.001 103.379M123.862 125.126L107.738 106.049M123.862 125.126L103.511 148.708M52.2105 467.633L41.9905 445.058M103.511 148.708L85.18 173.857M103.511 148.708L85.8552 127.134M85.18 173.857L66.1982 149.922M85.18 173.857L69.0728 200.289M69.0728 200.289L48.9685 174.156M69.0728 200.289L55.3638 227.703M55.3638 227.703L34.3373 199.567M55.3638 227.703L44.1974 255.788M44.1974 255.788L22.4387 225.875M44.1974 255.788L35.6814 284.224M35.6814 284.224L35.3723 283.791L13.3766 252.795M35.6814 284.224L29.8892 312.698M29.8892 312.698L7.2208 280.04M29.8892 312.698L26.8614 340.895M274.123 29.5573L271.336 26.8018M274.123 29.5573L247.135 39.1172M26.8614 340.895L4.00418 307.321M26.8614 340.895L26.6017 368.51M247.135 39.1172L241.689 33.5898M247.135 39.1172L220.533 51.4111M26.6017 368.51L29.0823 395.256M220.533 51.4111L212.578 43.1079M220.533 51.4111L194.615 66.3249M29.0823 395.256L34.2423 420.856M194.615 66.3249L184.325 55.2574M194.615 66.3249L169.676 83.7078M34.2423 420.856L41.9905 445.058M169.676 83.7078L157.24 69.9089M169.676 83.7078L146.001 103.379M146.001 103.379L131.618 86.9029M66.1982 149.922L85.8552 127.134M66.1982 149.922L63.805 125.255M66.1982 149.922L48.9685 174.156M48.9685 174.156L34.3373 199.567M48.9685 174.156L46.7059 147.288M34.3373 199.567L22.4387 225.875M22.4387 225.875L13.3766 252.795M13.3766 252.795L7.2208 280.04M7.2208 280.04L4.00418 307.321M271.336 26.8018L270.595 23.8829M271.336 26.8018L241.689 33.5898M241.689 33.5898L240.339 27.7546M241.689 33.5898L212.578 43.1079M212.578 43.1079L210.755 34.3766M212.578 43.1079L184.325 55.2574M184.325 55.2574L182.158 43.6654M184.325 55.2574L157.24 69.9089M157.24 69.9089L154.847 55.5095M157.24 69.9089L131.618 86.9029M131.618 86.9029L129.108 69.7696M131.618 86.9029L107.738 106.049M107.738 106.049L105.202 86.2771M107.738 106.049L85.8552 127.134M85.8552 127.134L83.3645 104.843M46.7059 147.288L63.805 125.255M270.595 23.8829L271.939 20.9982M270.595 23.8829L240.339 27.7546M240.339 27.7546L243.13 22.013M240.339 27.7546L210.755 34.3766M210.755 34.3766L215.076 25.82M210.755 34.3766L182.158 43.6654M182.158 43.6654L188.064 32.3495M182.158 43.6654L154.847 55.5095M154.847 55.5095L162.366 41.5066M154.847 55.5095L129.108 69.7696M129.108 69.7696L138.235 53.1657M129.108 69.7696L105.202 86.2771M105.202 86.2771L83.3645 104.843M83.3645 104.843L63.805 125.255M271.939 20.9982L275.262 18.3428M271.939 20.9982L243.13 22.013M243.13 22.013L249.823 16.7504M243.13 22.013L215.076 25.82M215.076 25.82L225.143 18.0058M215.076 25.82L188.064 32.3495M188.064 32.3495L201.465 22.0548M188.064 32.3495L162.366 41.5066M162.366 41.5066L138.235 53.1657M249.823 16.7504L259.929 12.3086M249.823 16.7504L275.262 18.3428M249.823 16.7504L225.143 18.0058M225.143 18.0058L201.465 22.0548M225.143 18.0058L240.199 11.4358M275.262 18.3428L280.331 16.0941M240.199 11.4358L259.929 12.3086M240.199 11.4358L259.201 6.51773M280.331 16.0941L286.796 14.4028M280.331 16.0941L259.929 12.3086M259.929 12.3086L272.751 8.97545M286.796 14.4028L294.224 13.3767M286.796 14.4028L272.751 8.97545M272.751 8.97545L287.432 6.95987M272.751 8.97545L259.201 6.51773M259.201 6.51773L280.89 3.54812M294.224 13.3767L302.115 13.0853M294.224 13.3767L287.432 6.95987M287.432 6.95987L280.89 3.54812M287.432 6.95987L303.008 6.38597M280.89 3.54812L303.871 2.70566M302.115 13.0853L309.946 13.5451M302.115 13.0853L303.008 6.38597M303.008 6.38597L303.871 2.70566M303.008 6.38597L318.468 7.29179M303.871 2.70566L326.682 4.03716M309.946 13.5451L318.468 7.29179M318.468 7.29179L326.682 4.03716" stroke="#181818" stroke-width="3" stroke-linecap="round" stroke-linejoin="round"/>
</g>
<defs>
<clipPath id="clip0_26_1780">
<rect width="604" height="606" fill="white"/>
</clipPath>
</defs>
</svg>
