<svg width="604" height="693" viewBox="0 0 604 693" fill="none" xmlns="http://www.w3.org/2000/svg">
<path d="M303.032 2.25516L302.991 2.23558M303.24 2.35157L303.243 2.35404M303.248 2.35392L303.421 2.48247L303.424 2.48315L303.429 2.48927M303.248 2.35392L303.039 2.25471M303.248 2.35392L303.251 2.35516M303.527 2.62541L303.532 2.62788M601.991 528.964L599.228 559.268M601.991 528.964L597.81 514.757M601.991 528.964L593.29 499.444L566.647 453.764M601.991 528.964L574.156 479.872M539.513 407.241L545.887 430.039M539.513 407.241L566.647 453.764M539.513 407.241L511.899 359.896M365.891 109.558L303.527 2.62866M365.891 109.558L396.201 161.526M365.891 109.558L366.988 114.613M303.527 2.62866L303.422 2.49028M303.527 2.62866L303.55 2.77227M303.553 2.77373V2.7725L303.521 2.86188L303.502 2.91943L303.386 3.04436L303.373 3.05904M303.373 3.05904L303.172 3.18763M303.373 3.05904L332.656 64.0941M303.172 3.18763L303.121 3.20844L302.908 3.29783L302.905 3.2985M303.172 3.18763L329.368 66.3221M302.589 3.38845L302.715 3.35291L302.905 3.2985M302.589 3.38845L302.586 3.38961L302.23 3.45818M302.589 3.38845L319.697 69.8414M303.498 2.91958L334.728 61.6693M329.368 66.3221L332.656 64.0941M329.368 66.3221L324.994 68.2637L346.997 132.994M329.368 66.3221L355.395 129.065L361.665 124.571L390.411 184.495M302.905 3.29746V3.2985M324.989 68.2628L319.694 69.842M324.989 68.2628L319.697 69.8414M324.989 68.2628L302.905 3.2985M302.226 3.45411L302.227 3.45777M299.828 2.3145L299.623 2.44432M299.623 2.44432L299.495 2.58389L299.442 2.73083M299.623 2.44432L299.629 2.44365M299.442 2.73083L299.443 2.72825L299.438 2.73068L267.528 58.3738L268.431 55.8814M299.442 2.73083L299.47 2.87672M299.754 3.15329L300 3.27085M299.754 3.15329L299.58 3.01946M299.754 3.15329L299.757 3.15403M300 3.27085L300.305 3.3676M300 3.27085L299.757 3.15403M300 3.27085L300.002 3.27122M300.305 3.3676L300.655 3.44107M300.305 3.3676L300.002 3.27122M300.305 3.3676L300.307 3.36812M300.655 3.44107L301.037 3.48883M300.655 3.44107L300.307 3.36812M300.655 3.44107H300.659M301.037 3.48883L301.438 3.50717M301.037 3.48883L301.034 3.4889M301.438 3.50717L301.841 3.49738M301.438 3.50717L301.439 3.50314M301.438 3.50717L300.485 71.8481M301.841 3.49738L302.23 3.45818M301.841 3.49738L301.844 3.49727M302.23 3.45818L302.226 3.45889M301.843 3.49238L301.844 3.49727M301.844 3.49727L307.202 71.6708M301.844 3.49727L302.226 3.45889M307.202 71.6708L313.69 70.9925M307.202 71.6708L312.563 139.913M307.202 71.6708L313.684 70.9933M300.485 71.8481L307.198 71.6717M300.485 71.8481L299.528 140.276M301.034 3.484V3.4889M301.034 3.4889L293.807 71.5192M301.034 3.4889L300.659 3.44107M293.807 71.5192L300.482 71.8492M293.807 71.5192L286.581 139.603M293.807 71.5192L287.847 70.7458M300.66 3.43737L300.659 3.44107M300.659 3.44107L287.446 70.6938L287.847 70.7458M300.308 3.36442L300.307 3.36812M300.307 3.36812L281.629 69.4098L276.597 67.7149M300.006 3.26756L300.002 3.27122M300.002 3.27122L276.597 67.7149M276.597 67.7149L272.541 65.6789M276.597 67.7149L281.631 69.4095M276.597 67.7149L253.293 131.882M299.761 3.15037L299.757 3.15403M299.757 3.15403L272.541 65.6789M272.541 65.6789L245.516 127.765M299.581 3.01764L299.58 3.01946M269.614 63.3812V63.3802M299.471 2.87534L299.47 2.87672M299.499 2.58236L299.496 2.58359L268.431 55.8814M178.951 209.405L174.943 219.82M178.951 209.405L150.279 258.597M178.951 209.405L268.431 55.8814M150.279 258.597L145.086 271.881M150.279 258.597L122.141 306.875M299.825 2.31435L300.054 2.21883L300.087 2.20572L300.09 2.20448L300.409 2.11386L300.77 2.04776L301.159 2.00979L301.56 2L301.96 2.01835L302.34 2.06487L302.689 2.13838L302.993 2.23509M300.095 2.20448L300.092 2.20572M474.633 662.546L520.205 642.568L557.977 617.375M557.977 617.375L584.537 589.169L599.228 559.268M557.977 617.375L520.207 642.566L520.206 642.563M599.228 559.268L600.351 546.981M599.228 559.268L584.532 589.168M599.228 559.268L571.237 506.599L574.156 479.872M168.725 674.943L228.517 686.137M168.725 674.943L115.248 657.704M168.725 674.943L181.897 607.898M168.725 674.943L228.516 686.136M228.517 686.137L228.516 686.136M228.517 686.137L256.459 688.128M286.817 690.291L256.459 688.128M355.645 688.218L416.832 678.981L472.513 663.475L472.512 663.473M35.9731 609.145L13.0111 580.292L13.0129 580.288M35.9731 609.145L35.9754 609.147M35.9731 609.145L13.0145 580.293M35.9731 609.145L40.6271 612.69M70.4174 635.383L115.248 657.704M70.4174 635.383L40.6271 612.69M70.4174 635.383H70.4197M115.248 657.704L133.582 592.878M115.248 657.704L70.4197 635.383M2.82167 519.952L2.83251 519.934L30.3761 471.904M2.82167 519.952L14.8957 490.883L40.9553 446.165M2.82167 519.952L2 550.138M2 550.138L2.00247 550.133L30.0377 498.556M2 550.138L13.0129 580.288M13.0145 580.293L35.9754 609.147M13.0145 580.293L13.0129 580.288M35.9754 609.147L40.6271 612.69M69.4082 634.612L40.6271 612.69M268.44 55.8571L268.431 55.8814M236.15 113.089L236.169 113.056M236.8 118.178L236.157 113.089M236.8 118.178L267.926 60.9154L269.614 63.3802M236.8 118.178L236.798 118.182M269.615 63.3815L269.614 63.3802M239.948 123.135L269.609 63.3811L272.536 65.6783M239.948 123.135L210.585 182.289L206.083 174.682M239.948 123.135L236.798 118.182M245.516 127.765L253.293 131.882M245.516 127.765L239.952 123.135M245.516 127.765L218.68 189.416L210.588 182.289M253.293 131.882V131.883M262.984 135.316V135.315M287.438 70.6937L281.624 69.4092L262.984 135.315M274.234 137.927L286.581 139.603M274.234 137.927L262.988 135.316M274.234 137.927L287.443 70.6935L287.847 70.7458M274.234 137.927L261.031 205.137M293.812 71.5188L287.847 70.7458M286.581 139.603L299.531 140.276M286.581 139.603L279.343 207.74M299.528 140.276L312.56 139.913M299.528 140.276H299.531M313.684 70.9933L302.226 3.45889M313.684 70.9933L313.686 70.9931M312.563 139.913H312.56M312.563 139.913L324.729 138.579M313.69 70.9925L313.686 70.9931M313.69 70.9925L319.694 69.842M319.697 69.8414L313.686 70.9931M319.697 69.8414L319.694 69.842M325.144 138.534L324.729 138.579M325.144 138.534L313.686 70.9931M325.144 138.534L336.602 206.077L317.928 208.222M319.694 69.842L336.775 136.195L336.78 136.194M346.997 132.994L355.398 129.065L381.267 191.42M346.997 132.994L336.78 136.194M346.997 132.994L368.919 197.491M332.656 64.0941L334.734 61.6687M332.656 64.0941L361.665 124.568M361.667 124.571L361.665 124.568M334.734 61.6687L365.575 119.692L366.994 114.621L397.972 169.239M334.734 61.6687L335.526 59.1412M335.528 59.1393L303.556 2.7725M335.526 59.1396V59.1412M366.992 114.621L366.988 114.613M335.01 56.6056L335.525 59.1392L335.526 59.1412M584.532 589.168L557.537 532.895L571.229 506.599L542.9 453.304M584.532 589.168L557.975 617.371M416.829 678.98L355.642 688.217M416.829 678.98L355.644 688.218M416.829 678.98L416.833 678.979M355.642 688.217L291.84 690.65M355.642 688.217L291.846 690.65M355.642 688.217L355.644 688.218M291.84 690.65L256.459 688.128M291.84 690.65H291.846M228.516 686.136V686.135L235.796 617.641M228.516 686.136L256.459 688.128M533.19 557.63L533.191 557.632M557.974 617.374L557.975 617.373V617.371M455.634 597.909L405.372 611.415M455.634 597.909L455.637 597.908M455.634 597.909H455.637M455.634 597.909L472.512 663.473M566.644 453.755L566.647 453.764M574.15 479.869L574.144 479.847M574.154 479.869L574.156 479.872M545.894 430.038L574.144 479.847M511.895 359.881L511.899 359.896M517.201 379.455L511.899 359.896M517.201 379.455L517.2 379.463M517.201 379.455L488.077 328.105M517.195 379.455L517.2 379.463M542.899 453.304L545.885 430.038L517.2 379.463M542.899 453.304L514.229 399.369M542.899 453.304L530.302 476.119M483.769 311.652L483.776 311.677M488.077 328.101L458.504 275.959M488.077 328.101V328.105M488.077 328.101L483.776 311.677M488.074 328.101L488.077 328.105M514.235 399.369L517.2 379.463M455.118 262.531L455.122 262.549M458.502 275.959L455.122 262.549M485.223 344.782L488.077 328.105M425.93 212.493L425.932 212.501M428.468 223.012L425.932 212.501M428.465 223.011L458.497 275.959L455.851 289.526M428.465 223.011L426.125 233.609M428.465 223.011L397.97 169.245M455.849 289.536L455.851 289.526M396.198 161.51L396.201 161.526M397.972 169.239L397.97 169.245M397.972 169.239L396.201 161.526M397.967 169.239L397.97 169.245M426.124 233.612L426.125 233.609M366.989 114.621L366.988 114.613M396.037 177.001L397.97 169.245M514.229 399.369L502.825 418.835M514.229 399.369L485.217 344.789M485.214 344.782L485.217 344.789M502.823 418.84L502.825 418.835M455.854 289.536L455.855 289.537M475.104 361.044L475.103 361.045M475.104 361.044L475.105 361.043M475.104 361.044L485.217 344.789M426.131 233.612L455.851 289.526M396.035 177.001L426.125 233.609M418.897 243.879L419.077 243.625L426.126 233.612L426.125 233.609M418.897 243.879L390.409 184.497M418.897 243.879L406.974 253.395M361.663 124.572L361.665 124.568M390.409 184.497L390.411 184.495M390.409 184.497L381.267 191.42M390.409 184.497L390.411 184.496M533.186 557.631L533.192 557.624M508.253 497.523L530.302 476.124M475.102 361.043L475.103 361.045M502.828 418.84L483.167 437.047M502.828 418.84H502.826L530.302 476.119M502.828 418.84L502.825 418.835M475.105 361.043L447.13 302.726L455.855 289.537M475.105 361.043L475.103 361.045M475.105 361.043L485.217 344.789M457.927 376.204L432.53 314.988M457.927 376.204L457.921 376.207M457.927 376.204L475.103 361.045M418.899 243.88L447.128 302.726L432.53 314.988M432.53 314.988H432.532M406.974 253.395L381.264 191.422M406.974 253.395L390.762 261.758M390.411 184.496L381.267 191.42M390.411 184.496V184.495M381.266 191.421L381.267 191.42M508.258 497.522L533.192 557.624M483.162 437.048L508.249 497.523L477.364 516.532M483.162 437.048L455.826 453.18M483.162 437.048L457.921 376.207M477.36 516.535L477.364 516.532M457.92 376.204L457.921 376.207M455.826 453.18L434.214 389.602M455.826 453.18L421.798 466.479M434.221 389.601L457.921 376.207M406.979 253.395L432.532 314.988M432.532 314.988L412.533 325.794M381.264 191.422L368.919 197.491M381.264 191.422L381.268 191.421M381.268 191.421L368.919 197.491M381.268 191.421L381.267 191.42M368.919 197.491L353.835 202.447M368.919 197.491L368.914 197.492M477.365 516.535L498.823 579.663L455.637 597.908M477.365 516.535L438.735 532.241M477.365 516.535L477.364 516.532M455.829 453.181L477.364 516.532M438.73 532.242L438.735 532.241M421.798 466.479L404.843 400.619M421.798 466.479L382.445 476.288M412.528 325.794L434.217 389.601L404.846 400.618M390.76 261.757L412.527 325.794L387.865 334.66M390.76 261.757L368.914 197.492M390.76 261.757L370.86 268.604M387.865 334.66L404.843 400.619M387.865 334.66L370.86 268.604M387.865 334.66L359.526 341.177M368.914 197.492L353.835 202.447M370.86 268.604L353.829 202.448M370.86 268.604L348.062 273.627M370.86 268.604L348.064 273.625M336.78 136.194L325.147 138.533M336.78 136.194L353.835 202.447M353.835 202.447L336.606 206.077M353.835 202.447L353.829 202.448M455.637 597.909L405.372 611.415M455.637 597.909V597.908M405.372 611.415L416.833 678.979M421.807 466.479L438.735 532.241M438.736 532.243L393.911 543.85M438.736 532.243H438.734L455.637 597.908M438.736 532.243L438.735 532.241M404.843 400.619L370.986 408.729M382.441 476.289L382.445 476.288M353.829 202.448L336.606 206.077M348.062 273.627L323.307 276.596M348.062 273.627L348.064 273.625M348.062 273.627H348.066M336.606 206.077L348.064 273.625M416.833 678.98V678.979M393.906 543.85L405.369 611.414L350.24 619.45L355.644 688.215V688.218M382.448 476.288L393.91 543.85L345.407 550.668L344.845 550.746M370.986 408.729L334.063 413.54M370.986 408.729L382.445 476.288M370.986 408.729L359.526 341.177M370.986 408.729L359.526 341.178M339.451 482.11L382.445 476.289V476.288M339.451 482.11L344.84 550.746M339.451 482.11L334.063 413.54M339.451 482.11L294.735 483.64M359.526 341.177L348.066 273.627M359.526 341.177V341.178M334.063 413.54L328.685 345.035M334.063 413.54L295.692 414.803M348.066 273.627L348.064 273.625M359.526 341.178L328.685 345.035M328.685 345.035L323.307 276.596M328.685 345.035L296.658 346.047M348.064 273.625L323.307 276.596M323.307 276.596L317.928 208.222M323.307 276.596L297.615 277.375M312.558 139.913L324.729 138.579M312.558 139.913L299.531 140.276M312.558 139.913H312.56M317.928 208.222L312.56 139.913M317.928 208.222L298.573 208.783M344.837 550.746L350.236 619.45M344.837 550.746H344.84M344.837 550.746L319.153 551.659M350.236 619.45L292.803 621.564M350.236 619.45L292.811 621.564M292.803 621.564L292.809 621.565M292.803 621.564L235.796 617.641M344.84 550.746L319.153 551.659M293.773 552.561L292.809 621.565M293.773 552.561L294.735 483.64M293.773 552.561L243.066 549.195M293.773 552.561L319.153 551.659M294.735 483.64L295.692 414.803M294.735 483.64L250.327 480.801M295.692 414.803L296.658 346.047M295.692 414.803L257.588 412.458M296.658 346.047L297.615 277.375M296.658 346.047L264.849 344.167M297.615 277.375L298.573 208.783M297.615 277.375L272.093 275.927M298.573 208.783L299.531 140.276M298.573 208.783L279.343 207.74M292.811 621.564L291.846 690.648V690.65M292.811 621.564L292.809 621.565M291.846 690.65L355.648 688.218M292.809 621.565L235.796 617.641M235.796 617.641L243.066 549.195M235.796 617.641L181.897 607.898M243.066 549.195L250.327 480.801M243.066 549.195L195.068 540.83M250.327 480.801L257.588 412.458M250.327 480.801L208.254 473.738L195.068 540.83M257.588 412.458L264.849 344.167M257.588 412.458L221.437 406.622M257.588 412.458L221.443 406.623M264.849 344.167L272.093 275.927M264.849 344.167L234.629 339.483M264.849 344.167L234.634 339.484L221.443 406.623M272.093 275.927L279.343 207.74M272.093 275.927L247.831 272.321M279.343 207.74L261.031 205.137M181.897 607.898L195.068 540.83M181.897 607.898L133.582 592.878M195.068 540.83L151.958 527.915M234.629 339.483L247.825 272.321M234.629 339.483L207.297 332.223M247.831 272.321L225.828 266.722M247.831 272.321L261.031 205.137M133.582 592.878L151.958 527.915M133.582 592.878L92.9392 573.386M151.958 527.915L170.361 462.818M151.958 527.915L115.545 511.123M170.361 462.818L208.251 473.737L221.438 406.622L221.443 406.623M170.361 462.818L188.809 397.588M170.361 462.818L138.259 448.595M221.443 406.623L188.815 397.589M262.988 135.316L244.388 201.087M262.988 135.316L262.984 135.315M261.031 205.137L244.387 201.088M261.031 205.137L244.388 201.087M92.9392 573.386L70.4197 635.383M92.9392 573.386L115.545 511.123M92.9392 573.386L61.5386 550.428M115.545 511.123L87.2759 491.292M115.545 511.123L138.259 448.595M138.256 448.593L138.259 448.595M207.303 332.223L188.817 397.589L161.072 385.795M225.823 266.722L207.299 332.223M225.823 266.722L206.982 259.385M225.823 266.722L225.826 266.723M207.299 332.223L183.974 322.726M207.299 332.223L183.976 322.727M183.974 322.726L161.068 385.795M183.974 322.726L183.976 322.727M244.388 201.087L225.826 266.723M244.388 201.087L230.085 195.772M225.826 266.723L206.982 259.385M206.982 259.385L183.976 322.727M253.29 131.882L253.293 131.883M61.5324 550.423L87.2716 491.292M61.5324 550.423L40.4095 525.097L13.0129 580.288M61.5324 550.423L61.5386 550.428M138.26 448.593L161.068 385.795M138.26 448.593L138.259 448.595M138.26 448.593L113.195 431.755M161.068 385.795L139.289 371.8L113.192 431.752M113.192 431.752L103.93 421.681L103.929 421.679L96.0197 413.078M113.192 431.752L113.195 431.755M183.976 322.727L165.568 311.43M230.083 195.772L206.979 259.385L192.029 250.636M218.681 189.417L230.088 195.772L253.293 131.883M61.5408 550.423L61.5386 550.428M35.9802 609.146L35.9814 609.143L61.5386 550.428M113.196 431.753L113.195 431.755M68.0854 469.362L87.2809 491.292L113.195 431.755M165.571 311.43L139.293 371.801L124.241 356.237M192.026 250.636L165.563 311.429L152.73 298.83M152.73 298.83L124.234 356.237M152.73 298.83L181.512 240.851M152.73 298.83L145.861 285.467M218.678 189.416L192.03 250.636L181.516 240.851M181.516 240.851L175.776 230.44M181.516 240.851L210.586 182.289M40.4108 525.097L13.0129 580.288M68.0826 469.362L40.416 525.097L30.0394 498.556M30.0394 498.556L57.0534 448.856L57.0546 448.855L58.4351 446.315M30.0394 498.556L30.3761 471.904M96.0168 413.078L87.5175 430.201L87.5163 430.204L68.0772 469.363L58.4351 446.315M96.0168 413.078L124.234 356.237M96.0168 413.078L87.1999 393.39M58.4328 446.31L58.4351 446.315M124.234 356.237L116.339 339.78M87.1993 393.389L87.1999 393.39M116.339 339.78L87.2007 393.389M116.339 339.78L145.86 285.468M116.339 339.78L115.708 323.102M175.776 230.44L174.943 219.82M175.776 230.44L145.865 285.467L145.086 271.881M175.776 230.44L206.083 174.682M236.796 118.178L236.798 118.182M206.082 174.681L206.083 174.682M58.4383 446.309L58.4351 446.315M30.3761 471.904L58.3659 423.095M30.3761 471.904L40.9553 446.165M87.2007 393.389L86.8071 373.496M87.2007 393.389L87.1999 393.39M58.3659 423.092L86.8071 373.496M58.3659 423.092V423.095M58.3659 423.092L67.4981 400.63M86.8071 373.496L94.5718 354.169M86.8071 373.496L115.708 323.102M115.708 323.099L145.081 271.882M115.708 323.099L122.141 306.875M115.708 323.099V323.102M145.086 271.881L174.943 219.82M206.084 174.68L206.083 174.682M174.943 219.82L205.294 166.897M236.157 113.089L205.698 166.2L205.298 166.896M236.157 113.089L236.169 113.056M205.298 166.896L206.088 174.681L236.798 118.182M205.298 166.896L208.194 159.238M58.3679 423.091L58.3659 423.095M40.9553 446.165L67.4981 400.63M67.5093 400.602L67.4981 400.63M115.709 323.099L115.708 323.102M122.153 306.844L122.141 306.875M238.019 108.065L236.169 113.056M253.293 131.883L262.984 135.315M299.58 3.01946L269.614 63.3802M299.58 3.01946L299.579 3.01861V3.01738L299.577 3.01491L299.47 2.879V2.87672M122.141 306.875L67.4981 400.63M236.169 113.056L267.529 58.3742L267.92 60.9148L299.467 2.879L299.47 2.87672M390.411 184.495L396.033 177.002L365.571 119.692L361.665 124.568M335.526 59.1412L366.988 114.613M396.201 161.526L425.932 212.501M475.103 361.045L502.825 418.835M455.855 289.537L455.856 289.536L455.851 289.526M455.855 289.537L485.221 344.783L485.217 344.789M87.1999 393.39L58.4344 446.31L58.3659 423.095M416.833 678.979L472.51 663.474L472.512 663.473M472.512 663.473L474.628 662.545L520.201 642.566L520.206 642.563M520.206 642.563L498.827 579.663L533.191 557.632M520.206 642.563L557.974 617.373L557.975 617.371M533.191 557.632L533.194 557.63L533.192 557.624M533.191 557.632L557.975 617.371M533.192 557.624L557.535 532.896L530.302 476.124M530.302 476.124L530.301 476.121L530.302 476.119M530.302 476.124L530.304 476.122L530.302 476.119M574.156 479.872V479.868L574.144 479.847M574.144 479.847L566.647 453.764M511.899 359.896L483.776 311.677M483.776 311.677L455.122 262.549M455.122 262.549L425.932 212.501" stroke="black" stroke-opacity="0.5" stroke-width="3" stroke-miterlimit="10" stroke-linecap="round" stroke-linejoin="round"/>
</svg>
