<svg width="504" height="646" viewBox="0 0 504 646" fill="none" xmlns="http://www.w3.org/2000/svg">
<g clip-path="url(#clip0_26_1747)">
<path d="M440.002 33.1514L423.883 27.0169L406.385 21.4878L387.671 16.5974L367.904 12.376L347.247 8.84797L325.87 6.03339L303.937 3.94747L281.617 2.6003L259.078 2L236.486 2.14855L214.01 3.048L191.819 4.69026L170.078 7.06827L148.958 10.1699L129.09 13.8889L128.622 13.9759L109.238 18.4671L90.9711 23.6152L73.9835 29.3909L58.4331 35.7558L44.4784 42.6684L32.2661 50.0823L21.9416 57.9419L13.6373 66.1886L7.47656 74.7546L3.56645 83.5693L2 92.5537L21.2867 524.913L22.2175 536.55L25.4232 548.169L30.9219 559.651L38.7078 570.872L48.7463 581.708L60.9748 592.033L75.3014 601.723L91.6027 610.658L109.726 618.723L129.488 625.811L150.68 631.828L173.067 636.692L196.394 640.332L220.389 642.699L244.765 643.758L269.233 643.494L293.496 641.911L317.264 639.032L340.258 634.897L362.212 629.565L382.876 623.11L401.7 615.748L402.026 615.62L419.463 607.195L435.017 597.946L448.544 587.989L459.935 577.445L469.108 566.44L476.012 555.1L480.624 543.55L482.947 531.909L502 98.006L501.912 88.9589L499.434 80.0331L494.646 71.3074L487.647 62.8606L478.552 54.7605L467.485 47.0717L454.588 39.8518L440.002 33.1514Z" fill="#E3ECEF"/>
<path d="M502 98.006L499.637 107.086L494.852 115.987L494.787 116.107L487.442 124.975L477.62 133.59L465.37 141.855L450.778 149.668L433.96 156.935L415.067 163.558L394.285 169.452L371.831 174.536L347.952 178.738L322.92 181.997L297.03 184.269L270.592 185.517L243.928 185.725L217.363 184.89L191.224 183.023L165.824 180.152L141.465 176.32L118.429 171.579L96.9732 165.999L77.738 159.789L77.3267 159.655L59.6863 152.635L44.2187 145.028L31.0533 136.931L20.2862 128.443L11.9809 119.664L6.16881 110.692L2.84994 101.625L2 92.5537" fill="#E3ECEF"/>
<path d="M499.634 107.087L480.622 543.55L499.634 107.087Z" fill="#E3ECEF"/>
<path d="M494.787 116.107L476.012 555.1L494.787 116.107Z" fill="#E3ECEF"/>
<path d="M487.437 124.975L469.104 566.44L487.437 124.975Z" fill="#E3ECEF"/>
<path d="M477.62 133.59L459.935 577.445L477.62 133.59Z" fill="#E3ECEF"/>
<path d="M465.372 141.856L448.546 587.988L465.372 141.856Z" fill="#E3ECEF"/>
<path d="M450.78 149.669L435.019 597.947L450.78 149.669Z" fill="#E3ECEF"/>
<path d="M433.963 156.935L419.467 607.195L433.963 156.935Z" fill="#E3ECEF"/>
<path d="M415.063 163.559L402.022 615.62L415.063 163.559Z" fill="#E3ECEF"/>
<path d="M394.285 169.453L382.876 623.11L394.285 169.453Z" fill="#E3ECEF"/>
<path d="M371.837 174.536L362.218 629.565L371.837 174.536Z" fill="#E3ECEF"/>
<path d="M347.953 178.738L340.259 634.896L347.953 178.738Z" fill="#E3ECEF"/>
<path d="M322.923 181.998L317.268 639.032L322.923 181.998Z" fill="#E3ECEF"/>
<path d="M297.03 184.269L293.496 641.911L297.03 184.269Z" fill="#E3ECEF"/>
<path d="M270.592 185.517L269.233 643.494L270.592 185.517Z" fill="#E3ECEF"/>
<path d="M243.925 185.726L244.763 643.757L243.925 185.726Z" fill="#E3ECEF"/>
<path d="M217.363 184.89L220.389 642.699L217.363 184.89Z" fill="#E3ECEF"/>
<path d="M191.224 183.023L196.394 640.332L191.224 183.023Z" fill="#E3ECEF"/>
<path d="M165.823 180.153L173.066 636.692L165.823 180.153Z" fill="#E3ECEF"/>
<path d="M141.464 176.321L150.68 631.828L141.464 176.321Z" fill="#E3ECEF"/>
<path d="M118.429 171.579L129.488 625.811L118.429 171.579Z" fill="#E3ECEF"/>
<path d="M96.9722 166L109.725 618.723L96.9722 166Z" fill="#E3ECEF"/>
<path d="M77.3237 159.656L91.5997 610.658L77.3237 159.656Z" fill="#E3ECEF"/>
<path d="M59.6841 152.635L75.2992 601.723L59.6841 152.635Z" fill="#E3ECEF"/>
<path d="M44.2153 145.029L60.9714 592.034L44.2153 145.029Z" fill="#E3ECEF"/>
<path d="M31.0569 136.931L48.7499 581.707L31.0569 136.931Z" fill="#E3ECEF"/>
<path d="M20.2869 128.444L38.7079 570.872L20.2869 128.444Z" fill="#E3ECEF"/>
<path d="M11.9778 119.665L30.9188 559.651L11.9778 119.665Z" fill="#E3ECEF"/>
<path d="M6.1687 110.692L25.4231 548.169L6.1687 110.692Z" fill="#E3ECEF"/>
<path d="M2.85376 101.625L22.2213 536.55L2.85376 101.625Z" fill="#E3ECEF"/>
<path d="M2 92.5537L3.56645 83.5693L7.47656 74.7546L13.6373 66.1886L21.9416 57.9419L32.2661 50.0823L44.4784 42.6684L58.4331 35.7558L73.9835 29.3909L90.9711 23.6152L109.238 18.4671L128.622 13.9759L129.09 13.8889L148.958 10.1699L170.078 7.06827L191.819 4.69026L214.01 3.048L236.486 2.14855L259.078 2L281.617 2.6003L303.937 3.94747L325.87 6.03339L347.247 8.84797L367.904 12.376L387.671 16.5974L406.385 21.4878L423.883 27.0169L440.002 33.1514L454.588 39.8518L467.485 47.0717L478.552 54.7605L487.647 62.8606L494.646 71.3074L499.434 80.0331L501.912 88.9589L502 98.006M2 92.5537L2.84994 101.625L6.16881 110.692M2 92.5537L21.2867 524.913L22.2175 536.55L25.4232 548.169M25.4232 548.169L30.9219 559.651L38.7078 570.872M25.4232 548.169L6.16881 110.692M38.7078 570.872L48.7463 581.708L60.9748 592.033L75.3014 601.723L91.6027 610.658L109.726 618.723L129.488 625.811M38.7078 570.872L20.2868 128.444M129.488 625.811L150.68 631.828M129.488 625.811L118.429 171.579M150.68 631.828L173.067 636.692L196.394 640.332M150.68 631.828L141.464 176.321M196.394 640.332L220.389 642.699M196.394 640.332L191.224 183.023M220.389 642.699L244.765 643.758L269.233 643.494M220.389 642.699L217.363 184.89M269.233 643.494L293.496 641.911M269.233 643.494L270.592 185.517M293.496 641.911L317.264 639.032L340.258 634.897L362.212 629.565L382.876 623.11M293.496 641.911L297.03 184.269M382.876 623.11L401.7 615.748L402.026 615.62L419.463 607.195L435.017 597.946L448.544 587.989L459.935 577.445M382.876 623.11L394.285 169.453M459.935 577.445L469.108 566.44L476.012 555.1M459.935 577.445L477.62 133.59M476.012 555.1L480.624 543.55L482.947 531.909L502 98.006M476.012 555.1L494.787 116.107M502 98.006L499.637 107.086L494.852 115.987L494.787 116.107M494.787 116.107L487.442 124.975L477.62 133.59M477.62 133.59L465.37 141.855L450.778 149.668L433.96 156.935L415.067 163.558L394.285 169.452L371.831 174.536L347.952 178.738L322.92 181.997L297.03 184.269M297.03 184.269L270.592 185.517M270.592 185.517L243.928 185.725L217.363 184.89M217.363 184.89L191.224 183.023M191.224 183.023L165.824 180.152L141.465 176.32L118.429 171.579M118.429 171.579L96.9732 165.999L77.738 159.789L77.3267 159.655L59.6863 152.635L44.2187 145.028L31.0533 136.931L20.2862 128.443L11.9809 119.664L6.16881 110.692M499.634 107.087L480.622 543.55M487.437 124.975L469.104 566.44M465.372 141.856L448.546 587.988M450.78 149.669L435.019 597.947M433.963 156.935L419.467 607.195M415.063 163.559L402.022 615.62M371.837 174.536L362.218 629.565M347.953 178.738L340.259 634.896M322.923 181.998L317.268 639.032M243.925 185.726L244.763 643.757M165.823 180.153L173.066 636.692M96.9721 166L109.725 618.723M77.3237 159.656L91.5997 610.658M59.6841 152.635L75.2992 601.723M44.2154 145.029L60.9715 592.034M31.0569 136.931L48.7499 581.707M11.9777 119.665L30.9187 559.651M2.85379 101.625L22.2213 536.55" stroke="#181818" stroke-width="3" stroke-miterlimit="10" stroke-linecap="round" stroke-linejoin="round"/>
</g>
<defs>
<clipPath id="clip0_26_1747">
<rect width="504" height="646" fill="white"/>
</clipPath>
</defs>
</svg>
