<svg width="604" height="627" viewBox="0 0 604 627" fill="none" xmlns="http://www.w3.org/2000/svg">
<g clip-path="url(#clip0_26_53502)">
<path d="M76.5478 97.9035L44.1338 84.0488L76.5478 97.9035Z" fill="#E3ECEF"/>
<path d="M44.1338 84.0486L2 97.0971L5.0544 146.051L8.04593 194.022L10.979 241.036L13.8535 287.124L16.6721 332.313L19.4365 376.627L22.1475 420.093L24.8079 462.735L54.8851 481.036L85.8218 499.86L117.654 519.229L150.422 539.166L184.167 559.698L218.933 580.853L254.769 602.657L291.722 625.142L331.296 603.929L369.212 583.604L369.74 583.322L407.1 563.296L443.421 543.825L478.747 524.89L513.117 506.466L546.571 488.533L579.144 471.072L581.808 428.236L584.524 384.564L587.293 340.035L590.118 294.623L593 248.3L595.939 201.038L598.939 152.811L602 103.587L561.566 89.5645L522.319 75.9532L484.208 62.7369L447.183 49.8966L411.198 37.4176L376.213 25.2845L342.183 13.4827L309.071 2L274.147 12.8159L238.312 23.9131L201.53 35.3045L163.762 47.0005L124.969 59.0149L85.1077 71.3597L44.1338 84.0486Z" fill="#E3ECEF"/>
<path d="M2 97.0972L34.2376 111.35L67.4725 126.044L101.753 141.2L137.128 156.84L173.652 172.988L211.382 189.669L250.378 206.91L290.705 224.739" fill="#E3ECEF"/>
<path d="M37.0046 160.896L34.2375 111.35L76.5477 97.9033" fill="#E3ECEF"/>
<path d="M5.05444 146.051L37.0046 160.896L5.05444 146.051Z" fill="#E3ECEF"/>
<path d="M333.573 261.351L333.928 207.917L333.573 261.351Z" fill="#E3ECEF"/>
<path d="M602 103.587L567.026 117.198L531.026 131.209L493.954 145.636L455.762 160.501L416.397 175.821L376.307 191.424L375.805 191.619L333.928 207.917L290.705 224.739L290.841 278.829L290.976 331.684L291.107 383.35L291.236 433.863L291.362 483.264L291.484 531.588L291.604 578.87L291.722 625.142" fill="#E3ECEF"/>
<path d="M250.97 260.304L290.841 278.829L333.573 261.351" fill="#E3ECEF"/>
<path d="M332.23 463.484L332.554 414.614L332.23 463.484Z" fill="#E3ECEF"/>
<path d="M332.554 414.614L291.236 433.863L252.67 413.461" fill="#E3ECEF"/>
<path d="M253.211 462.299L290.913 483.018L291.362 483.264L332.23 463.484" fill="#E3ECEF"/>
<path d="M484.158 389.952L486.035 343.112L484.158 389.952Z" fill="#E3ECEF"/>
<path d="M486.035 343.112L449.332 360.211L486.035 343.112Z" fill="#E3ECEF"/>
<path d="M449.332 360.211L447.808 407.545L449.332 360.211Z" fill="#E3ECEF"/>
<path d="M447.808 407.545L484.158 389.952L447.808 407.545Z" fill="#E3ECEF"/>
<path d="M491.911 196.587L493.954 145.636L453.422 130.344" fill="#E3ECEF"/>
<path d="M415.23 144.746L455.762 160.501L454.102 212.052" fill="#E3ECEF"/>
<path d="M454.102 212.052L491.911 196.587L454.102 212.052Z" fill="#E3ECEF"/>
<path d="M47.5253 349.267L44.9742 303.588L47.5253 349.267Z" fill="#E3ECEF"/>
<path d="M44.9743 303.588L13.8535 287.124L44.9743 303.588Z" fill="#E3ECEF"/>
<path d="M16.6721 332.313L47.5254 349.267L16.6721 332.313Z" fill="#E3ECEF"/>
<path d="M180.431 422.304L179.133 374.56L180.431 422.304Z" fill="#E3ECEF"/>
<path d="M179.133 374.56L144.053 356.001L179.133 374.56Z" fill="#E3ECEF"/>
<path d="M144.053 356.001L145.695 403.215L144.053 356.001Z" fill="#E3ECEF"/>
<path d="M145.695 403.215L180.431 422.304L145.695 403.215Z" fill="#E3ECEF"/>
<path d="M175.068 225.04L173.652 172.988L216.567 157.753" fill="#E3ECEF"/>
<path d="M179.91 142.084L137.128 156.84L138.916 208.244" fill="#E3ECEF"/>
<path d="M138.916 208.244L175.068 225.04L138.916 208.244Z" fill="#E3ECEF"/>
<path d="M216.567 157.753L179.91 142.084L216.567 157.753Z" fill="#E3ECEF"/>
<path d="M376.027 101.143L339.054 87.1924L376.027 101.143Z" fill="#E3ECEF"/>
<path d="M339.054 87.1924L300.963 100.33L339.054 87.1924Z" fill="#E3ECEF"/>
<path d="M300.963 100.33L337.886 114.683L300.963 100.33Z" fill="#E3ECEF"/>
<path d="M337.886 114.683L376.027 101.143L337.886 114.683Z" fill="#E3ECEF"/>
<path d="M234.444 47.7235L201.53 35.3047L234.444 47.7235Z" fill="#E3ECEF"/>
<path d="M163.762 47.0005L196.579 59.7566L163.762 47.0005Z" fill="#E3ECEF"/>
<path d="M196.579 59.7564L234.444 47.7231L196.579 59.7564Z" fill="#E3ECEF"/>
<path d="M303.163 73.651L268.308 60.5L303.163 73.651Z" fill="#E3ECEF"/>
<path d="M268.308 60.5L230.356 72.8861L268.308 60.5Z" fill="#E3ECEF"/>
<path d="M230.356 72.8862L265.135 86.4045L230.356 72.8862Z" fill="#E3ECEF"/>
<path d="M265.135 86.4043L303.163 73.6509L265.135 86.4043Z" fill="#E3ECEF"/>
<path d="M376.154 49.1711L341.197 36.7119L376.154 49.1711Z" fill="#E3ECEF"/>
<path d="M341.197 36.7119L305.241 48.4466L341.197 36.7119Z" fill="#E3ECEF"/>
<path d="M305.241 48.4468L340.155 61.2442L305.241 48.4468Z" fill="#E3ECEF"/>
<path d="M340.155 61.2443L376.154 49.1714L340.155 61.2443Z" fill="#E3ECEF"/>
<path d="M307.208 24.5979L274.147 12.8159L307.208 24.5979Z" fill="#E3ECEF"/>
<path d="M238.312 23.9131L271.307 36.0074L238.312 23.9131Z" fill="#E3ECEF"/>
<path d="M271.307 36.0072L307.208 24.5977L271.307 36.0072Z" fill="#E3ECEF"/>
<path d="M453.422 130.344L414.132 115.52L453.422 130.344Z" fill="#E3ECEF"/>
<path d="M414.132 115.52L375.957 129.481L414.132 115.52Z" fill="#E3ECEF"/>
<path d="M375.957 129.481L415.23 144.746L375.957 129.481Z" fill="#E3ECEF"/>
<path d="M375.884 159.583L415.23 144.746L453.422 130.344L490.512 116.358" fill="#E3ECEF"/>
<path d="M526.545 102.77L487.269 88.772L526.545 102.77Z" fill="#E3ECEF"/>
<path d="M487.269 88.772L451.221 101.956L487.269 88.772Z" fill="#E3ECEF"/>
<path d="M451.221 101.956L490.512 116.358L451.221 101.956Z" fill="#E3ECEF"/>
<path d="M528.622 181.571L531.026 131.209L490.512 116.358L526.545 102.77" fill="#E3ECEF"/>
<path d="M449.145 75.185L412.122 61.9902L449.145 75.185Z" fill="#E3ECEF"/>
<path d="M412.122 61.9902L376.092 74.4176L412.122 61.9902Z" fill="#E3ECEF"/>
<path d="M376.092 74.4175L413.098 87.9814L376.092 74.4175Z" fill="#E3ECEF"/>
<path d="M413.098 87.9816L449.145 75.1851L413.098 87.9816Z" fill="#E3ECEF"/>
<path d="M293.515 190.643L254.416 173.931L293.515 190.643Z" fill="#E3ECEF"/>
<path d="M254.416 173.931L211.382 189.669L212.399 242.385" fill="#E3ECEF"/>
<path d="M250.97 260.304L250.378 206.91L293.515 190.643" fill="#E3ECEF"/>
<path d="M375.884 159.583L336.648 143.857L375.884 159.583Z" fill="#E3ECEF"/>
<path d="M336.648 143.857L296.152 158.667L336.648 143.857Z" fill="#E3ECEF"/>
<path d="M296.152 158.667L335.331 174.875L296.152 158.667Z" fill="#E3ECEF"/>
<path d="M335.331 174.875L375.884 159.583L416.397 175.821L415.145 227.986" fill="#E3ECEF"/>
<path d="M298.63 128.62L261.774 113.847L298.63 128.62Z" fill="#E3ECEF"/>
<path d="M261.774 113.847L221.44 127.759L261.774 113.847Z" fill="#E3ECEF"/>
<path d="M221.44 127.759L258.208 142.97L221.44 127.759Z" fill="#E3ECEF"/>
<path d="M258.208 142.97L298.63 128.62L258.208 142.97Z" fill="#E3ECEF"/>
<path d="M177.807 325.79L176.452 275.962L177.807 325.79Z" fill="#E3ECEF"/>
<path d="M176.452 275.962L140.665 258.549L176.452 275.962Z" fill="#E3ECEF"/>
<path d="M140.665 258.549L142.377 307.79L140.665 258.549Z" fill="#E3ECEF"/>
<path d="M142.377 307.79L177.807 325.79L142.377 307.79Z" fill="#E3ECEF"/>
<path d="M252.116 363.541L251.549 312.501L252.116 363.541Z" fill="#E3ECEF"/>
<path d="M251.549 312.501L213.395 293.937L251.549 312.501Z" fill="#E3ECEF"/>
<path d="M213.395 293.937L214.368 344.364L213.395 293.937Z" fill="#E3ECEF"/>
<path d="M214.368 344.364L252.116 363.541L214.368 344.364Z" fill="#E3ECEF"/>
<path d="M212.399 242.385L250.97 260.304L251.549 312.501L290.976 331.684L333.226 313.585" fill="#E3ECEF"/>
<path d="M182.948 514.843L181.703 469.055L182.948 514.843Z" fill="#E3ECEF"/>
<path d="M181.703 469.055L147.303 449.46L181.703 469.055Z" fill="#E3ECEF"/>
<path d="M147.303 449.46L148.878 494.769L147.303 449.46Z" fill="#E3ECEF"/>
<path d="M148.878 494.769L182.948 514.843L148.878 494.769Z" fill="#E3ECEF"/>
<path d="M254.26 556.864L253.742 510.089L254.26 556.864Z" fill="#E3ECEF"/>
<path d="M253.742 510.089L217.165 489.255L253.742 510.089Z" fill="#E3ECEF"/>
<path d="M217.165 489.255L218.058 535.533L217.165 489.255Z" fill="#E3ECEF"/>
<path d="M218.058 535.533L254.26 556.864L218.058 535.533Z" fill="#E3ECEF"/>
<path d="M253.211 462.299L252.67 413.461L253.211 462.299Z" fill="#E3ECEF"/>
<path d="M332.886 364.66L291.107 383.35L252.116 363.541L252.67 413.461L215.32 393.703" fill="#E3ECEF"/>
<path d="M215.32 393.703L216.253 441.989L215.32 393.703Z" fill="#E3ECEF"/>
<path d="M216.253 441.989L253.211 462.299L253.742 510.089L291.484 531.588L331.912 511.305" fill="#E3ECEF"/>
<path d="M52.4794 437.967L50.0273 394.052L52.4794 437.967Z" fill="#E3ECEF"/>
<path d="M50.0274 394.052L19.4365 376.627L50.0274 394.052Z" fill="#E3ECEF"/>
<path d="M22.1475 420.093L52.4795 437.967L22.1475 420.093Z" fill="#E3ECEF"/>
<path d="M115.806 475.28L113.92 430.445L115.806 475.28Z" fill="#E3ECEF"/>
<path d="M113.92 430.445L81.5087 411.984L113.92 430.445Z" fill="#E3ECEF"/>
<path d="M81.5087 411.984L83.6864 456.355L81.5087 411.984Z" fill="#E3ECEF"/>
<path d="M83.6864 456.355L115.806 475.28L83.6864 456.355Z" fill="#E3ECEF"/>
<path d="M111.996 384.696L110.031 338.004L111.996 384.696Z" fill="#E3ECEF"/>
<path d="M110.031 338.004L77.0201 320.54L110.031 338.004Z" fill="#E3ECEF"/>
<path d="M77.0201 320.54L79.2864 366.721L77.0201 320.54Z" fill="#E3ECEF"/>
<path d="M79.2864 366.721L111.996 384.696L79.2864 366.721Z" fill="#E3ECEF"/>
<path d="M487.953 295.291L489.911 246.461L487.953 295.291Z" fill="#E3ECEF"/>
<path d="M489.911 246.461L452.478 262.497L489.911 246.461Z" fill="#E3ECEF"/>
<path d="M452.478 262.497L450.889 311.872L452.478 262.497Z" fill="#E3ECEF"/>
<path d="M450.889 311.872L487.953 295.291L450.889 311.872Z" fill="#E3ECEF"/>
<path d="M558.965 263.524L561.597 215.751L558.965 263.524Z" fill="#E3ECEF"/>
<path d="M561.597 215.751L526.269 230.885L561.597 215.751Z" fill="#E3ECEF"/>
<path d="M526.269 230.885L523.964 279.182L526.269 230.885Z" fill="#E3ECEF"/>
<path d="M523.964 279.182L558.965 263.524L523.964 279.182Z" fill="#E3ECEF"/>
<path d="M564.284 166.985L567.026 117.198L526.545 102.77L561.566 89.5645" fill="#E3ECEF"/>
<path d="M528.622 181.571L564.284 166.985L528.622 181.571Z" fill="#E3ECEF"/>
<path d="M480.514 480.814L482.317 435.843L480.514 480.814Z" fill="#E3ECEF"/>
<path d="M482.317 435.843L446.316 453.906L482.317 435.843Z" fill="#E3ECEF"/>
<path d="M446.316 453.906L444.854 499.324L446.316 453.906Z" fill="#E3ECEF"/>
<path d="M444.854 499.324L480.514 480.814L444.854 499.324Z" fill="#E3ECEF"/>
<path d="M548.953 445.289L551.382 401.192L548.953 445.289Z" fill="#E3ECEF"/>
<path d="M551.382 401.192L517.326 418.279L551.382 401.192Z" fill="#E3ECEF"/>
<path d="M517.326 418.279L515.2 462.808L517.326 418.279Z" fill="#E3ECEF"/>
<path d="M515.2 462.808L548.953 445.289L515.2 462.808Z" fill="#E3ECEF"/>
<path d="M553.86 356.217L556.387 310.337L553.86 356.217Z" fill="#E3ECEF"/>
<path d="M556.387 310.337L521.707 326.494L556.387 310.337Z" fill="#E3ECEF"/>
<path d="M521.707 326.494L519.494 372.849L521.707 326.494Z" fill="#E3ECEF"/>
<path d="M519.494 372.849L553.86 356.217L519.494 372.849Z" fill="#E3ECEF"/>
<path d="M331.601 558.109L331.912 511.305L331.601 558.109Z" fill="#E3ECEF"/>
<path d="M254.769 602.657L254.26 556.864L291.604 578.87L331.601 558.109" fill="#E3ECEF"/>
<path d="M408.178 518.361L409.278 472.488L408.178 518.361Z" fill="#E3ECEF"/>
<path d="M409.278 472.488L371.16 491.613L409.278 472.488Z" fill="#E3ECEF"/>
<path d="M371.16 491.613L370.442 537.947L371.16 491.613Z" fill="#E3ECEF"/>
<path d="M370.442 537.947L408.178 518.361L370.442 537.947Z" fill="#E3ECEF"/>
<path d="M410.403 425.649L411.55 377.813L410.403 425.649Z" fill="#E3ECEF"/>
<path d="M411.55 377.813L372.641 395.94L411.55 377.813Z" fill="#E3ECEF"/>
<path d="M372.641 395.94L371.893 444.288L372.641 395.94Z" fill="#E3ECEF"/>
<path d="M371.893 444.288L410.403 425.649L371.893 444.288Z" fill="#E3ECEF"/>
<path d="M332.886 364.66L333.226 313.585L332.886 364.66Z" fill="#E3ECEF"/>
<path d="M412.723 328.946L413.921 279.015L412.723 328.946Z" fill="#E3ECEF"/>
<path d="M413.921 279.015L374.188 296.036L413.921 279.015Z" fill="#E3ECEF"/>
<path d="M374.188 296.036L373.406 346.534L374.188 296.036Z" fill="#E3ECEF"/>
<path d="M373.406 346.534L412.723 328.946L373.406 346.534Z" fill="#E3ECEF"/>
<path d="M333.928 207.917L293.515 190.643L335.331 174.875L375.805 191.619L374.988 244.411" fill="#E3ECEF"/>
<path d="M374.988 244.411L415.145 227.986L374.988 244.411Z" fill="#E3ECEF"/>
<path d="M42.3717 256.984L39.7157 209.43L42.3717 256.984Z" fill="#E3ECEF"/>
<path d="M39.7157 209.43L8.0459 194.022L39.7157 209.43Z" fill="#E3ECEF"/>
<path d="M10.979 241.036L42.3717 256.984L10.979 241.036Z" fill="#E3ECEF"/>
<path d="M108.027 290.339L105.979 241.672L108.027 290.339Z" fill="#E3ECEF"/>
<path d="M105.979 241.672L72.3448 225.307L105.979 241.672Z" fill="#E3ECEF"/>
<path d="M72.3448 225.307L74.7066 273.412L72.3448 225.307Z" fill="#E3ECEF"/>
<path d="M74.7065 273.412L108.027 290.339L74.7065 273.412Z" fill="#E3ECEF"/>
<path d="M103.888 191.97L101.753 141.2L144.388 126.901" fill="#E3ECEF"/>
<path d="M109.95 112.181L67.4725 126.044L69.934 176.195" fill="#E3ECEF"/>
<path d="M69.934 176.195L103.888 191.97L69.934 176.195Z" fill="#E3ECEF"/>
<path d="M144.388 126.901L109.95 112.181L144.388 126.901Z" fill="#E3ECEF"/>
<path d="M226.029 99.5198L191.342 85.6177L226.029 99.5198Z" fill="#E3ECEF"/>
<path d="M191.342 85.6177L151.224 98.711L191.342 85.6177Z" fill="#E3ECEF"/>
<path d="M151.224 98.7114L185.796 113.013L151.224 98.7114Z" fill="#E3ECEF"/>
<path d="M185.796 113.013L226.029 99.52L185.796 113.013Z" fill="#E3ECEF"/>
<path d="M157.671 72.1222L124.969 59.0151L157.671 72.1222Z" fill="#E3ECEF"/>
<path d="M85.1077 71.3599L117.676 84.8326L85.1077 71.3599Z" fill="#E3ECEF"/>
<path d="M117.676 84.8325L157.671 72.1221L117.676 84.8325Z" fill="#E3ECEF"/>
<path d="M191.342 85.6181L157.671 72.1222L196.579 59.7568L230.356 72.8862L191.342 85.6181Z" fill="#E3ECEF"/>
<path d="M117.676 84.8325L151.224 98.7113L109.95 112.181L76.5479 97.9034L117.676 84.8325Z" fill="#E3ECEF"/>
<path d="M261.774 113.847L226.029 99.52L265.135 86.4043L300.963 100.33L261.774 113.847Z" fill="#E3ECEF"/>
<path d="M185.796 113.013L221.44 127.759L179.91 142.084L144.388 126.901L185.796 113.013Z" fill="#E3ECEF"/>
<path d="M105.979 241.672L103.888 191.97L138.916 208.244L140.665 258.549L105.979 241.672Z" fill="#E3ECEF"/>
<path d="M69.934 176.195L72.3448 225.307L39.7157 209.43L37.0046 160.896L69.934 176.195Z" fill="#E3ECEF"/>
<path d="M110.031 338.004L108.027 290.339L142.377 307.79L144.053 356.001L110.031 338.004Z" fill="#E3ECEF"/>
<path d="M74.7066 273.412L77.0201 320.54L44.9743 303.588L42.3717 256.984L74.7066 273.412Z" fill="#E3ECEF"/>
<path d="M413.921 279.015L415.145 227.986L454.102 212.052L452.478 262.497L413.921 279.015Z" fill="#E3ECEF"/>
<path d="M374.988 244.411L374.188 296.036L333.226 313.585L333.57 261.963L333.573 261.351L374.988 244.411Z" fill="#E3ECEF"/>
<path d="M411.55 377.813L412.723 328.946L450.889 311.872L449.332 360.211L411.55 377.813Z" fill="#E3ECEF"/>
<path d="M373.406 346.534L372.641 395.94L332.554 414.614L332.886 364.66L373.406 346.534Z" fill="#E3ECEF"/>
<path d="M409.278 472.488L410.403 425.649L447.808 407.545L446.316 453.906L409.278 472.488Z" fill="#E3ECEF"/>
<path d="M371.893 444.288L371.16 491.613L331.912 511.305L332.23 463.484L371.893 444.288Z" fill="#E3ECEF"/>
<path d="M407.1 563.296L408.178 518.361L444.854 499.324L443.421 543.825" fill="#E3ECEF"/>
<path d="M331.296 603.929L331.601 558.109L370.442 537.947L369.74 583.322" fill="#E3ECEF"/>
<path d="M584.524 384.564L551.382 401.192L553.86 356.217L587.293 340.035" fill="#E3ECEF"/>
<path d="M519.494 372.849L517.326 418.279L482.317 435.843L484.158 389.952L519.494 372.849Z" fill="#E3ECEF"/>
<path d="M590.118 294.623L556.387 310.337L558.965 263.524L593 248.3" fill="#E3ECEF"/>
<path d="M546.571 488.533L548.953 445.289L581.808 428.236" fill="#E3ECEF"/>
<path d="M478.747 524.89L480.514 480.814L515.2 462.808L513.117 506.466" fill="#E3ECEF"/>
<path d="M595.939 201.038L561.597 215.751L564.284 166.985L598.939 152.811" fill="#E3ECEF"/>
<path d="M528.622 181.571L526.269 230.885L489.911 246.461L491.911 196.587L528.622 181.571Z" fill="#E3ECEF"/>
<path d="M523.964 279.182L521.707 326.494L486.035 343.112L487.953 295.291L523.964 279.182Z" fill="#E3ECEF"/>
<path d="M113.92 430.445L111.996 384.696L145.695 403.215L147.303 449.46L113.92 430.445Z" fill="#E3ECEF"/>
<path d="M79.2864 366.721L81.5087 411.984L50.0274 394.052L47.5254 349.267L79.2864 366.721Z" fill="#E3ECEF"/>
<path d="M117.654 519.229L115.806 475.28L148.878 494.769L150.422 539.166" fill="#E3ECEF"/>
<path d="M54.8851 481.036L52.4795 437.967L83.6864 456.355L85.8218 499.86" fill="#E3ECEF"/>
<path d="M216.253 441.989L217.165 489.255L181.703 469.055L180.431 422.304L216.253 441.989Z" fill="#E3ECEF"/>
<path d="M184.167 559.698L182.948 514.843L218.058 535.533L218.933 580.853" fill="#E3ECEF"/>
<path d="M212.399 242.385L213.395 293.937L176.452 275.962L175.068 225.04L212.399 242.385Z" fill="#E3ECEF"/>
<path d="M214.368 344.364L215.32 393.703L179.133 374.56L177.807 325.79L214.368 344.364Z" fill="#E3ECEF"/>
<path d="M336.648 143.857L298.63 128.62L337.886 114.683L375.957 129.481L336.648 143.857Z" fill="#E3ECEF"/>
<path d="M258.208 142.97L296.152 158.667L254.416 173.931L216.567 157.753L258.208 142.97Z" fill="#E3ECEF"/>
<path d="M522.319 75.9531L487.269 88.772L449.145 75.1848L484.208 62.7368" fill="#E3ECEF"/>
<path d="M413.098 87.9814L451.221 101.956L414.132 115.52L376.027 101.143L413.098 87.9814Z" fill="#E3ECEF"/>
<path d="M447.183 49.8965L412.122 61.99L376.154 49.1712L411.198 37.4175" fill="#E3ECEF"/>
<path d="M376.213 25.2847L341.197 36.7123L307.208 24.5981L342.183 13.4829" fill="#E3ECEF"/>
<path d="M271.307 36.0073L305.241 48.4467L268.308 60.4998L234.444 47.7232L271.307 36.0073Z" fill="#E3ECEF"/>
<path d="M340.155 61.2441L376.092 74.4174L339.054 87.1923L303.163 73.6508L340.155 61.2441Z" fill="#E3ECEF"/>
<path d="M76.5478 97.9033L44.1338 84.0486M76.5478 97.9033L34.2376 111.35M76.5478 97.9033L109.95 112.181M76.5478 97.9033L117.676 84.8324M44.1338 84.0486L2 97.0971M44.1338 84.0486L85.1077 71.3597M2 97.0971L5.0544 146.051M2 97.0971L34.2376 111.35M5.0544 146.051L8.04593 194.022M5.0544 146.051L37.0046 160.896M8.04593 194.022L10.979 241.036M8.04593 194.022L39.7157 209.43M10.979 241.036L13.8535 287.124M10.979 241.036L42.3717 256.984M13.8535 287.124L16.6721 332.313M13.8535 287.124L44.9743 303.588M16.6721 332.313L19.4365 376.627M16.6721 332.313L47.5254 349.267M19.4365 376.627L22.1475 420.093M19.4365 376.627L50.0274 394.052M22.1475 420.093L24.8079 462.735L54.8851 481.036M22.1475 420.093L52.4795 437.967M54.8851 481.036L85.8218 499.86M54.8851 481.036L52.4795 437.967M85.8218 499.86L117.654 519.229M85.8218 499.86L83.6864 456.355M117.654 519.229L150.422 539.166M117.654 519.229L115.806 475.28M150.422 539.166L184.167 559.698M150.422 539.166L148.878 494.769M184.167 559.698L218.933 580.853M184.167 559.698L182.948 514.843M218.933 580.853L254.769 602.657M218.933 580.853L218.058 535.533M254.769 602.657L291.722 625.142M254.769 602.657L254.26 556.864M291.722 625.142L331.296 603.929M291.722 625.142L291.604 578.87M331.296 603.929L369.212 583.604L369.74 583.322M331.296 603.929L331.601 558.109M369.74 583.322L407.1 563.296M369.74 583.322L370.442 537.947M407.1 563.296L443.421 543.825M407.1 563.296L408.178 518.361M443.421 543.825L478.747 524.89M443.421 543.825L444.854 499.324M478.747 524.89L513.117 506.466M478.747 524.89L480.514 480.814M513.117 506.466L546.571 488.533M513.117 506.466L515.2 462.808M546.571 488.533L579.144 471.072L581.808 428.236M546.571 488.533L548.953 445.289M581.808 428.236L584.524 384.564M581.808 428.236L548.953 445.289M584.524 384.564L587.293 340.035M584.524 384.564L551.382 401.192M587.293 340.035L590.118 294.623M587.293 340.035L553.86 356.217M590.118 294.623L593 248.3M590.118 294.623L556.387 310.337M593 248.3L595.939 201.038M593 248.3L558.965 263.524M595.939 201.038L598.939 152.811M595.939 201.038L561.597 215.751M598.939 152.811L602 103.587M598.939 152.811L564.284 166.985M602 103.587L561.566 89.5645M602 103.587L567.026 117.198M561.566 89.5645L522.319 75.9532M561.566 89.5645L526.545 102.77M522.319 75.9532L484.208 62.7369M522.319 75.9532L487.269 88.7721M484.208 62.7369L447.183 49.8966M484.208 62.7369L449.145 75.1849M447.183 49.8966L411.198 37.4176M447.183 49.8966L412.122 61.9901M411.198 37.4176L376.213 25.2845M411.198 37.4176L376.154 49.1713M376.213 25.2845L342.183 13.4827M376.213 25.2845L341.197 36.7121M342.183 13.4827L309.071 2L274.147 12.8159M342.183 13.4827L307.208 24.5979M274.147 12.8159L238.312 23.9131M274.147 12.8159L307.208 24.5979M238.312 23.9131L201.53 35.3045M238.312 23.9131L271.307 36.0074M201.53 35.3045L163.762 47.0005M201.53 35.3045L234.444 47.7233M163.762 47.0005L124.969 59.0149M163.762 47.0005L196.579 59.7566M124.969 59.0149L85.1077 71.3597M124.969 59.0149L157.671 72.122M85.1077 71.3597L117.676 84.8324M34.2376 111.35L67.4725 126.044M34.2376 111.35L37.0046 160.896M67.4725 126.044L101.753 141.2M67.4725 126.044L109.95 112.181M67.4725 126.044L69.934 176.195M101.753 141.2L137.128 156.84M101.753 141.2L103.888 191.97M101.753 141.2L144.388 126.901M137.128 156.84L173.652 172.988M137.128 156.84L179.91 142.084M137.128 156.84L138.916 208.244M173.652 172.988L211.382 189.669M173.652 172.988L175.068 225.04M173.652 172.988L216.567 157.753M211.382 189.669L250.378 206.91M211.382 189.669L254.416 173.931M211.382 189.669L212.399 242.385M250.378 206.91L290.705 224.739M250.378 206.91L250.97 260.304M250.378 206.91L293.515 190.643M290.705 224.739L333.928 207.917M290.705 224.739L290.841 278.829M37.0046 160.896L39.7157 209.43M37.0046 160.896L69.934 176.195M333.573 261.351L333.57 261.963L333.226 313.585M333.573 261.351L333.928 207.917M333.573 261.351L290.841 278.829M333.573 261.351L374.988 244.411M333.928 207.917L375.805 191.619M333.928 207.917L293.515 190.643M567.026 117.198L531.026 131.209M567.026 117.198L564.284 166.985M567.026 117.198L526.545 102.77M531.026 131.209L493.954 145.636M531.026 131.209L528.622 181.571M531.026 131.209L490.512 116.358M493.954 145.636L455.762 160.501M493.954 145.636L491.911 196.587M493.954 145.636L453.422 130.344M455.762 160.501L416.397 175.821M455.762 160.501L415.23 144.746M455.762 160.501L454.102 212.052M416.397 175.821L376.307 191.424L375.805 191.619M416.397 175.821L375.884 159.583M416.397 175.821L415.145 227.986M375.805 191.619L335.331 174.875M375.805 191.619L374.988 244.411M290.841 278.829L290.976 331.684M290.841 278.829L250.97 260.304M290.976 331.684L291.107 383.35M290.976 331.684L251.549 312.501M290.976 331.684L333.226 313.585M291.107 383.35L291.236 433.863M291.107 383.35L332.886 364.66M291.107 383.35L252.116 363.541M291.236 433.863L291.362 483.264M291.236 433.863L332.554 414.614M291.236 433.863L252.67 413.461M291.362 483.264L290.913 483.018L253.211 462.299M291.362 483.264L291.484 531.588M291.362 483.264L332.23 463.484M291.484 531.588L291.604 578.87M291.484 531.588L253.742 510.089M291.484 531.588L331.912 511.305M291.604 578.87L254.26 556.864M291.604 578.87L331.601 558.109M250.97 260.304L212.399 242.385M250.97 260.304L251.549 312.501M332.23 463.484L332.554 414.614M332.23 463.484L331.912 511.305M332.23 463.484L371.893 444.288M332.554 414.614L372.641 395.94M332.554 414.614L332.886 364.66M252.67 413.461L253.211 462.299M252.67 413.461L252.116 363.541M252.67 413.461L215.32 393.703M253.211 462.299L216.253 441.989M253.211 462.299L253.742 510.089M484.158 389.952L486.035 343.112M484.158 389.952L447.808 407.545M484.158 389.952L482.317 435.843M484.158 389.952L519.494 372.849M486.035 343.112L449.332 360.211M486.035 343.112L521.707 326.494M486.035 343.112L487.953 295.291M449.332 360.211L447.808 407.545M449.332 360.211L450.889 311.872M449.332 360.211L411.55 377.813M447.808 407.545L410.403 425.649M447.808 407.545L446.316 453.906M491.911 196.587L454.102 212.052M491.911 196.587L489.911 246.461M491.911 196.587L528.622 181.571M453.422 130.344L414.132 115.52M453.422 130.344L415.23 144.746M453.422 130.344L490.512 116.358M415.23 144.746L375.957 129.481M415.23 144.746L375.884 159.583M454.102 212.052L415.145 227.986M454.102 212.052L452.478 262.497M47.5254 349.267L44.9743 303.588M47.5254 349.267L50.0274 394.052M47.5254 349.267L79.2864 366.721M44.9743 303.588L77.0201 320.54M44.9743 303.588L42.3717 256.984M180.431 422.304L179.133 374.56M180.431 422.304L145.695 403.215M180.431 422.304L181.703 469.055M180.431 422.304L216.253 441.989M179.133 374.56L144.053 356.001M179.133 374.56L215.32 393.703M179.133 374.56L177.807 325.79M144.053 356.001L145.695 403.215M144.053 356.001L142.377 307.79M144.053 356.001L110.031 338.004M145.695 403.215L111.996 384.696M145.695 403.215L147.303 449.46M175.068 225.04L138.916 208.244M175.068 225.04L176.452 275.962M175.068 225.04L212.399 242.385M216.567 157.753L179.91 142.084M216.567 157.753L254.416 173.931M216.567 157.753L258.208 142.97M179.91 142.084L221.44 127.759M179.91 142.084L144.388 126.901M138.916 208.244L103.888 191.97M138.916 208.244L140.665 258.549M376.027 101.143L339.054 87.1924M376.027 101.143L337.886 114.683M376.027 101.143L414.132 115.52M376.027 101.143L413.098 87.9814M339.054 87.1924L300.963 100.33M339.054 87.1924L376.092 74.4175M339.054 87.1924L303.163 73.6509M300.963 100.33L337.886 114.683M300.963 100.33L265.135 86.4043M300.963 100.33L261.774 113.847M337.886 114.683L298.63 128.62M337.886 114.683L375.957 129.481M234.444 47.7233L196.579 59.7566M234.444 47.7233L268.308 60.4999M234.444 47.7233L271.307 36.0074M196.579 59.7566L157.671 72.122M196.579 59.7566L230.356 72.886M303.163 73.6509L268.308 60.4999M303.163 73.6509L265.135 86.4043M303.163 73.6509L340.155 61.2442M268.308 60.4999L230.356 72.886M268.308 60.4999L305.241 48.4468M230.356 72.886L265.135 86.4043M230.356 72.886L191.342 85.6179M265.135 86.4043L226.029 99.52M376.154 49.1713L341.197 36.7121M376.154 49.1713L340.155 61.2442M376.154 49.1713L412.122 61.9901M341.197 36.7121L305.241 48.4468M341.197 36.7121L307.208 24.5979M305.241 48.4468L340.155 61.2442M305.241 48.4468L271.307 36.0074M340.155 61.2442L376.092 74.4175M307.208 24.5979L271.307 36.0074M414.132 115.52L375.957 129.481M414.132 115.52L451.221 101.956M375.957 129.481L336.648 143.857M375.884 159.583L336.648 143.857M375.884 159.583L335.331 174.875M490.512 116.358L451.221 101.956M490.512 116.358L526.545 102.77M526.545 102.77L487.269 88.7721M487.269 88.7721L451.221 101.956M487.269 88.7721L449.145 75.1849M451.221 101.956L413.098 87.9814M528.622 181.571L564.284 166.985M528.622 181.571L526.269 230.885M449.145 75.1849L412.122 61.9901M449.145 75.1849L413.098 87.9814M412.122 61.9901L376.092 74.4175M376.092 74.4175L413.098 87.9814M293.515 190.643L254.416 173.931M293.515 190.643L335.331 174.875M254.416 173.931L296.152 158.667M212.399 242.385L213.395 293.937M336.648 143.857L296.152 158.667M336.648 143.857L298.63 128.62M296.152 158.667L335.331 174.875M296.152 158.667L258.208 142.97M415.145 227.986L374.988 244.411M415.145 227.986L413.921 279.015M298.63 128.62L261.774 113.847M298.63 128.62L258.208 142.97M261.774 113.847L221.44 127.759M261.774 113.847L226.029 99.52M221.44 127.759L258.208 142.97M221.44 127.759L185.796 113.013M177.807 325.79L176.452 275.962M177.807 325.79L142.377 307.79M177.807 325.79L214.368 344.364M176.452 275.962L140.665 258.549M176.452 275.962L213.395 293.937M140.665 258.549L142.377 307.79M140.665 258.549L105.979 241.672M142.377 307.79L108.027 290.339M252.116 363.541L251.549 312.501M252.116 363.541L214.368 344.364M251.549 312.501L213.395 293.937M213.395 293.937L214.368 344.364M214.368 344.364L215.32 393.703M333.226 313.585L332.886 364.66M333.226 313.585L374.188 296.036M182.948 514.843L181.703 469.055M182.948 514.843L148.878 494.769M182.948 514.843L218.058 535.533M181.703 469.055L147.303 449.46M181.703 469.055L217.165 489.255M147.303 449.46L148.878 494.769M147.303 449.46L113.92 430.445M148.878 494.769L115.806 475.28M254.26 556.864L253.742 510.089M254.26 556.864L218.058 535.533M253.742 510.089L217.165 489.255M217.165 489.255L218.058 535.533M217.165 489.255L216.253 441.989M332.886 364.66L373.406 346.534M215.32 393.703L216.253 441.989M331.912 511.305L331.601 558.109M331.912 511.305L371.16 491.613M52.4795 437.967L50.0274 394.052M52.4795 437.967L83.6864 456.355M50.0274 394.052L81.5087 411.984M115.806 475.28L113.92 430.445M115.806 475.28L83.6864 456.355M113.92 430.445L81.5087 411.984M113.92 430.445L111.996 384.696M81.5087 411.984L83.6864 456.355M81.5087 411.984L79.2864 366.721M111.996 384.696L110.031 338.004M111.996 384.696L79.2864 366.721M110.031 338.004L77.0201 320.54M110.031 338.004L108.027 290.339M77.0201 320.54L79.2864 366.721M77.0201 320.54L74.7066 273.412M487.953 295.291L489.911 246.461M487.953 295.291L450.889 311.872M487.953 295.291L523.964 279.182M489.911 246.461L452.478 262.497M489.911 246.461L526.269 230.885M452.478 262.497L450.889 311.872M452.478 262.497L413.921 279.015M450.889 311.872L412.723 328.946M558.965 263.524L561.597 215.751M558.965 263.524L523.964 279.182M558.965 263.524L556.387 310.337M561.597 215.751L526.269 230.885M561.597 215.751L564.284 166.985M526.269 230.885L523.964 279.182M523.964 279.182L521.707 326.494M480.514 480.814L482.317 435.843M480.514 480.814L444.854 499.324M480.514 480.814L515.2 462.808M482.317 435.843L446.316 453.906M482.317 435.843L517.326 418.279M446.316 453.906L444.854 499.324M446.316 453.906L409.278 472.488M444.854 499.324L408.178 518.361M548.953 445.289L551.382 401.192M548.953 445.289L515.2 462.808M551.382 401.192L517.326 418.279M551.382 401.192L553.86 356.217M517.326 418.279L515.2 462.808M517.326 418.279L519.494 372.849M553.86 356.217L556.387 310.337M553.86 356.217L519.494 372.849M556.387 310.337L521.707 326.494M521.707 326.494L519.494 372.849M331.601 558.109L370.442 537.947M408.178 518.361L409.278 472.488M408.178 518.361L370.442 537.947M409.278 472.488L371.16 491.613M409.278 472.488L410.403 425.649M371.16 491.613L370.442 537.947M371.16 491.613L371.893 444.288M410.403 425.649L411.55 377.813M410.403 425.649L371.893 444.288M411.55 377.813L372.641 395.94M411.55 377.813L412.723 328.946M372.641 395.94L371.893 444.288M372.641 395.94L373.406 346.534M412.723 328.946L413.921 279.015M412.723 328.946L373.406 346.534M413.921 279.015L374.188 296.036M374.188 296.036L373.406 346.534M374.188 296.036L374.988 244.411M42.3717 256.984L39.7157 209.43M42.3717 256.984L74.7066 273.412M39.7157 209.43L72.3448 225.307M108.027 290.339L105.979 241.672M108.027 290.339L74.7066 273.412M105.979 241.672L72.3448 225.307M105.979 241.672L103.888 191.97M72.3448 225.307L74.7066 273.412M72.3448 225.307L69.934 176.195M103.888 191.97L69.934 176.195M144.388 126.901L109.95 112.181M144.388 126.901L185.796 113.013M109.95 112.181L151.224 98.7112M226.029 99.52L191.342 85.6179M226.029 99.52L185.796 113.013M191.342 85.6179L151.224 98.7112M191.342 85.6179L157.671 72.122M151.224 98.7112L185.796 113.013M151.224 98.7112L117.676 84.8324M157.671 72.122L117.676 84.8324" stroke="#181818" stroke-width="3" stroke-miterlimit="10" stroke-linecap="round" stroke-linejoin="round"/>
</g>
<defs>
<clipPath id="clip0_26_53502">
<rect width="604" height="627" fill="white"/>
</clipPath>
</defs>
</svg>
