<svg width="509" height="619" viewBox="0 0 509 619" fill="none" xmlns="http://www.w3.org/2000/svg">
<path d="M40.6202 163.013L38.775 161.897L37.0899 160.906L35.5399 160.07L34.1009 159.421L32.747 158.993L31.4541 158.816L30.1978 158.922L28.9549 159.344M40.6202 163.013L38.2976 164.325L36.1672 165.495L34.1961 166.581L32.3548 167.64L30.6103 168.728L28.9306 169.903L27.2846 171.222L25.6394 172.742M40.6202 163.013L42.6436 164.224L44.8311 165.511L47.1599 166.861L49.6083 168.258L52.1544 169.686L54.7738 171.13L57.4464 172.575L60.1471 174.005M40.6202 163.013L43.1553 161.51L45.8826 159.789L48.77 157.831L51.7864 155.616L54.9019 153.125L58.0862 150.337L61.3088 147.233L64.5408 143.793M28.9549 159.344L31.5017 158.211L35.4883 156.493L38.4016 155.211L41.4538 153.892L45.8529 151.945L49.0872 150.425L53.6293 148.157L57.7808 145.837M28.9549 159.344L26.6284 160.442L24.5057 161.528M25.6394 172.742L23.8105 171.826L22.1472 171.011L20.6285 170.314L19.234 169.75L17.945 169.335L16.7419 169.086L15.6052 169.018L14.5154 169.146M25.6394 172.742L27.6455 173.745L29.8158 174.824L32.1275 175.969L45.0405 182.345M25.6394 172.742L23.9737 174.504L22.3105 176.482L20.6832 178.632L19.1246 180.911L17.6692 183.275L16.3489 185.681L15.199 188.084L14.2521 190.442M68.0289 138.228L72.4039 133.808L72.4351 133.773M68.0289 138.228L67.6118 138.651L67.311 138.895M68.0289 138.228L67.311 138.895M67.311 138.895L63.8611 141.709M63.8611 141.709L62.8885 142.503L62.3017 142.891M63.8611 141.709L62.3017 142.891M62.3017 142.891L59.2042 144.942M59.2042 144.942L58.2316 145.585M59.2042 144.942L57.7808 145.837M58.2316 145.585L57.7808 145.837M58.2316 145.585L59.619 144.929L61.1151 144.409L62.7463 144.03L64.5408 143.793M24.5057 161.528L23.2605 162.202L21.3207 163.263L19.5379 164.356L17.8848 165.505L16.6997 166.326L15.1888 167.478L13.799 168.689M24.5057 161.528L22.5597 162.624L20.7621 163.757L19.0871 164.951L17.5067 166.23L15.9919 167.62L14.5154 169.146M13.799 168.689L13.7732 168.712M13.799 168.689L12.7092 169.599L11.4327 170.822M14.5154 169.146L13.0568 170.825L11.6264 172.64L10.2428 174.566L8.92488 176.576L7.69133 178.645L6.57179 180.747L5.59606 182.851L4.79371 184.933M14.5154 169.146L13.4568 169.486L12.4287 170.043L11.4327 170.822M271.784 604.751L272.53 603.413L273.092 601.967L273.498 600.393L273.774 598.67L273.946 596.778L274.039 594.694L274.08 592.4L274.098 589.871M271.784 604.751L269.574 605.987L267.53 607.102L265.603 608.095L263.744 608.968L261.904 609.719L260.033 610.349L258.082 610.858L256.001 611.245M271.784 604.751L270.841 605.995L269.721 607.135L268.456 608.153L267.079 609.03M271.784 604.751L294.716 591.883M274.098 589.871L271.876 591.1L269.813 592.211L267.849 593.203L265.927 594.081L263.987 594.843L261.972 595.493L259.823 596.031L257.481 596.459M274.098 589.871L274.225 563.102M274.098 589.871L297.126 577.076M256.001 611.245L256.487 609.949L256.853 608.534L257.115 606.98L257.292 605.268L257.4 603.38L257.455 601.295L257.477 598.995L257.481 596.459M256.001 611.245L255.379 612.434L254.606 613.503L253.669 614.432L252.554 615.201L251.261 615.794L249.834 616.203L248.333 616.424M256.001 611.245L253.757 611.513L251.379 611.675L248.916 611.744L246.414 611.734L243.92 611.656L241.481 611.501L239.141 611.257L236.947 610.911M257.481 596.459L254.907 596.779L252.146 596.992L249.261 597.098L246.319 597.099L243.382 596.996L240.516 596.789L237.786 596.481L235.255 596.073M257.481 596.459L257.493 569.606M233.789 318.454L233.777 315.444L233.786 312.656L233.837 310.046L233.949 307.568L234.145 305.179L234.442 302.834L234.863 300.488L235.427 298.097M233.789 318.454L231.338 318.023L229.106 317.503L227.033 316.891L225.055 316.186L223.11 315.386L221.135 314.486L219.068 313.487L216.848 312.386M233.789 318.454L236.502 318.799L239.429 319.057L242.501 319.229L245.648 319.313L248.804 319.311L251.895 319.221L254.855 319.044L257.614 318.781M233.789 318.454L233.951 349.073M235.427 298.097L233.242 297.539L231.208 296.928L229.274 296.257L227.387 295.518L225.493 294.703L223.539 293.803L221.475 292.813L219.246 291.724M235.427 298.097L236.152 295.633L237.054 293.135L238.144 290.658L239.435 288.257L240.927 285.982L242.569 283.849L244.296 281.872L246.044 280.061M235.427 298.097L237.801 298.602L240.331 299.02L242.969 299.309L245.665 299.426L248.371 299.346L251.034 299.099L253.605 298.73L256.032 298.285M216.848 312.386L216.826 309.401L216.835 306.635L216.907 304.034L217.07 301.548L217.356 299.125L217.794 296.714L218.414 294.264L219.246 291.724M216.848 312.386L193.874 300.966M216.848 312.386L217.133 342.844M219.246 291.724L220.308 289.056L221.576 286.282L223.015 283.44L224.588 280.567L226.259 277.698L227.993 274.872L229.754 272.124L231.507 269.491M219.246 291.724L216.815 290.532L214.197 289.243L211.42 287.868L208.515 286.415L205.507 284.895L202.427 283.315L199.3 281.686L196.155 280.016M505.585 209.195L505.745 206.42L505.866 203.855L505.928 201.465L505.905 199.212L505.777 197.06L505.519 194.973L505.108 192.914L504.521 190.845M505.585 209.195L504.991 210.089L504.204 210.898L503.224 211.651L502.051 212.373L500.683 213.091L499.119 213.833L497.359 214.626L495.4 215.497M505.585 209.195L503.92 237.485M505.585 209.195L505.931 208.346M504.521 190.845L503.835 191.393L502.981 191.899L501.954 192.389L500.749 192.888L499.362 193.422L497.787 194.019L496.021 194.703L494.057 195.503M504.521 190.845L503.745 188.743L502.802 186.628L501.721 184.532L500.535 182.488L499.273 180.529L497.951 178.683L496.585 176.98L495.19 175.45M504.521 190.845L504.927 190.364M495.4 215.497L495.559 212.603L495.678 209.896L495.732 207.339L495.691 204.895L495.53 202.526L495.222 200.196L494.739 197.867L494.057 195.503M495.4 215.497L493.246 216.467L490.914 217.528L488.431 218.668L480.304 222.416L477.449 223.728L474.563 225.049M495.4 215.497L493.778 244.178M494.057 195.503L493.155 193.078L492.057 190.624L490.796 188.185L489.404 185.807L487.912 183.532L486.353 181.406L484.758 179.472L483.159 177.773M494.057 195.503L491.894 196.435L489.553 197.492L487.057 198.653L484.43 199.902L481.697 201.221L478.883 202.591L473.107 205.409M261.545 268.504L259.925 266.295L258.315 264.349L256.68 262.588L254.989 260.929L253.207 259.292L249.247 255.767L247.002 253.717M261.545 268.504L259.15 270.034L256.954 271.459L254.924 272.819L253.024 274.155L251.222 275.506L249.48 276.914L247.766 278.419L246.044 280.061M261.545 268.504L263.195 271.033L264.853 273.835L266.485 276.84L268.059 279.976L269.541 283.172L270.897 286.355L272.093 289.456L273.096 292.401M261.545 268.504L264.162 266.844L266.981 265.081L269.973 263.261L273.104 261.424L276.345 259.614L279.665 257.873L283.036 256.243L286.424 254.764M247.002 253.717L244.606 255.178L242.41 256.783L240.38 258.533L238.482 260.429L236.681 262.472L234.941 264.663L233.228 267.002L231.507 269.491M247.002 253.717L249.621 252.398L252.442 251.207L255.434 250.129L258.566 249.149L261.806 248.251L265.125 247.42L268.492 246.64L271.878 245.896M247.002 253.717L244.549 251.398L241.905 248.867L239.1 246.206L236.163 243.501L233.121 240.833L230.006 238.287L226.844 235.945L223.665 233.89M246.044 280.061L244.419 278.501L242.804 277.108L241.168 275.832L239.477 274.624L237.698 273.435L235.798 272.216L233.745 270.916L231.507 269.491M246.044 280.061L247.698 281.825L249.333 283.787L250.886 285.931L252.293 288.239L253.504 290.685L254.521 293.216L255.359 295.771L256.032 298.285M231.507 269.491L229.062 267.901L226.428 266.159L223.633 264.288L220.708 262.312L217.68 260.255L208.259 253.826M27.551 467.924L25.8417 466.841L24.3065 465.838L22.9495 464.887L21.7707 463.96L20.7731 463.026L19.9582 462.06L19.3293 461.032L18.8879 459.914M27.551 467.924L27.6916 470.299L27.8486 472.458L28.0502 474.423L28.3268 476.216L28.7072 477.862L29.2213 479.38L29.897 480.793L30.765 482.122M27.551 467.924L26.1136 442.8M27.551 467.924L45.7279 479.386M26.1136 442.8L24.394 441.732L22.8511 440.744L21.4863 439.806L20.3012 438.891L19.2989 437.972L18.4801 437.019L17.8481 436.006L17.4051 434.904M26.1136 442.8L44.3928 454.101M26.1136 442.8L24.5105 414.772M18.8879 459.914L18.634 458.69M18.8879 459.914L19.0324 462.279L19.1879 464.43L19.3801 466.389L19.6356 468.182L19.9785 469.831M18.8879 459.914L17.4051 434.904M17.4051 434.904L17.152 433.696M17.4051 434.904L15.7521 407.005M490.386 467.306L489.811 468.414L489.057 469.427L488.124 470.372L487.009 471.277L485.712 472.171L484.232 473.083L482.566 474.041L480.715 475.073M490.386 467.306L490.243 469.681L490.088 471.839L489.898 473.805L489.647 475.601L489.312 477.248L488.867 478.773M490.386 467.306L490.783 466.085L491.007 464.77M490.386 467.306L491.865 442.191M491.865 442.191L491.288 443.284L490.531 444.282L489.593 445.213L488.472 446.105L487.167 446.987L485.679 447.886L484.004 448.83L482.142 449.849M491.865 442.191L492.263 440.987L492.486 439.691M491.865 442.191L493.515 414.173M480.715 475.073L480.576 477.458L480.422 479.624L480.225 481.594L479.956 483.39L479.588 485.033L479.093 486.543L478.443 487.943L477.609 489.254M480.715 475.073L482.142 449.849M480.715 475.073L461.053 485.998M482.142 449.849L483.734 421.707M482.142 449.849L462.367 460.621M492.486 439.691L491.007 464.77M492.486 439.691L494.137 411.714M493.515 414.173L492.936 415.247L492.175 416.229L491.23 417.146L490.103 418.024L488.791 418.891L487.293 419.775L485.608 420.704L483.734 421.707M493.515 414.173L493.914 412.988L494.137 411.714M493.515 414.173L495.188 385.761M483.734 421.707L485.349 393.166M483.734 421.707L463.833 432.305M462.367 460.621L461.053 485.998M462.367 460.621L463.833 432.305M462.367 460.621L440.188 472.702M494.137 411.714L495.811 383.343M495.188 385.761L494.606 386.817L493.841 387.782L492.892 388.682L491.757 389.546L490.437 390.398L488.93 391.267L487.234 392.181L485.349 393.166M495.188 385.761L495.589 384.596L495.811 383.343M495.188 385.761L496.885 356.946M485.349 393.166L486.986 364.218M485.349 393.166L465.32 403.584M463.833 432.305L465.32 403.584M463.833 432.305L441.51 444.192M495.811 383.343L497.509 354.572M496.885 356.946L496.3 357.983L495.532 358.931L494.577 359.815L493.436 360.663L492.107 361.499L490.59 362.353L488.884 363.25L486.986 364.218M496.885 356.946L497.286 355.802L497.509 354.572M496.885 356.946L498.606 327.72M486.986 364.218L488.648 334.855M486.986 364.218L466.828 374.451M465.32 403.584L466.828 374.451M465.32 403.584L442.851 415.272M497.509 354.572L499.231 325.391M498.606 327.72L498.019 328.737L497.246 329.667L496.285 330.535L495.138 331.367L493.801 332.188L492.275 333.025L490.557 333.906L488.648 334.855M498.606 327.72L499.009 326.598L499.231 325.391M498.606 327.72L500.352 298.074M488.648 334.855L490.333 305.066M488.648 334.855L468.358 344.894M466.828 374.451L468.358 344.894M466.828 374.451L444.211 385.931M499.231 325.391L500.977 295.792M500.352 298.074L499.762 299.071L498.985 299.982L498.019 300.833L496.864 301.648L495.519 302.452L493.983 303.273L492.255 304.136L490.333 305.066M500.352 298.074L500.756 296.974L500.977 295.792M500.352 298.074L502.123 267.999M490.333 305.066L492.043 274.844M490.333 305.066L469.911 314.908M468.358 344.894L469.911 314.908M468.358 344.894L445.591 356.161M500.977 295.792L502.749 265.765M502.123 267.999L501.531 268.975L500.749 269.867L499.777 270.699L498.616 271.497L497.262 272.285L495.717 273.089L493.977 273.934L492.043 274.844M502.123 267.999L502.527 266.922L502.749 265.765M502.123 267.999L503.92 237.485M492.043 274.844L493.778 244.178M492.043 274.844L471.486 284.479M469.911 314.908L471.486 284.479M469.911 314.908L446.991 325.952M502.749 265.765L504.546 235.301M503.92 237.485L503.324 238.44L502.539 239.312L501.562 240.126L500.393 240.906L499.031 241.676L497.475 242.462L495.724 243.288L493.778 244.178M503.92 237.485L504.325 236.433L504.546 235.301M493.778 244.178L473.084 253.6M471.486 284.479L473.084 253.6M471.486 284.479L448.413 295.294M504.546 235.301L506.209 207.123M506.209 207.123L505.99 208.201L505.931 208.346M506.209 207.123L506.367 204.381L506.491 201.859L506.529 200.752L506.601 198.441L506.602 196.294L506.512 194.281L506.313 192.373L506.2 191.347L505.889 189.57L505.438 187.85M474.563 225.049L474.702 222.271L474.802 219.697L474.835 217.27L474.778 214.935L474.602 212.637L474.283 210.32L473.793 207.929L473.107 205.409M474.563 225.049L471.666 226.364L468.762 227.667L465.853 228.951L462.936 230.21L460.014 231.436L457.086 232.624L454.153 233.767L451.215 234.86M474.563 225.049L473.084 253.6M473.084 253.6L449.855 264.177M271.878 245.896L275.259 245.157L278.63 244.329L281.99 243.303L285.345 241.973L288.693 240.228L292.036 237.963L295.378 235.07L298.721 231.441M271.878 245.896L269.429 243.865L266.792 241.304L263.993 238.237L261.063 234.688L258.027 230.679L254.913 226.233L251.748 221.372L248.559 216.118M271.878 245.896L274.121 247.403L276.178 248.502L278.083 249.34L279.866 250.064L281.56 250.821L283.197 251.757L284.808 253.023L286.424 254.764M223.665 233.89L221.277 236.217L219.09 238.522L217.069 240.838L215.182 243.201L213.391 245.647L211.664 248.209L209.965 250.924L208.259 253.826M223.665 233.89L226.277 231.516L229.093 229.117L232.083 226.729L235.215 224.385L238.459 222.119L241.784 219.964L245.161 217.953L248.559 216.118M223.665 233.89L220.493 232.181L217.333 230.796L214.185 229.69L211.049 228.818L207.925 228.136L204.813 227.6L201.713 227.166L198.624 226.789M208.259 253.826L205.095 251.675L201.939 249.561L198.792 247.515L195.656 245.563L192.528 243.734L189.413 242.055L186.309 240.554L183.217 239.259M208.259 253.826L206.523 256.937L204.78 260.213L203.066 263.593L201.416 267.021L199.864 270.436L198.447 273.78L197.199 276.993L196.155 280.016M196.155 280.016L195.341 282.811L194.736 285.423L194.313 287.919L194.04 290.364L193.889 292.826L193.831 295.37L193.836 298.061L193.874 300.966M196.155 280.016L193.014 278.315L189.882 276.596L186.758 274.874L183.644 273.162L180.539 271.476L177.443 269.829L174.357 268.234L171.281 266.707M256.103 614.605L257.773 613.908L259.527 613.069L260.975 612.355L262.853 611.374L264.876 610.265L267.079 609.03M256.103 614.605L254.616 615.117L253.011 615.643M256.103 614.605L254.482 615.155L253.011 615.643M267.079 609.03L289.964 596.174M289.964 596.174L291.353 595.29L292.629 594.269L293.76 593.128L294.716 591.883M289.964 596.174L314.67 582.294M314.67 582.294L316.071 581.404L317.359 580.38L318.504 579.236L319.471 577.992M314.67 582.294L338.88 568.692M338.88 568.692L340.291 567.798L341.591 566.77L342.748 565.624L343.726 564.381M338.88 568.692L362.608 555.361M362.608 555.361L364.03 554.462L365.341 553.431L366.507 552.285L367.303 551.286M362.608 555.361L385.868 542.294M385.868 542.294L387.3 541.39L388.267 540.633M385.868 542.294L408.675 529.481M408.675 529.481L410.116 528.573L411.447 527.536L412.633 526.389L413.642 525.149M408.675 529.481L431.041 516.915M431.041 516.915L432.491 516.003L433.83 514.965L435.025 513.816L436.043 512.578M431.041 516.915L452.979 504.59M452.979 504.59L454.437 503.674L455.784 502.634L456.988 501.486L458.014 500.249M452.979 504.59L472.545 493.597M472.545 493.597L474.39 492.557L476.06 491.594L477.569 490.679L479.024 489.764L480.371 488.875L481.572 487.982L482.885 486.943L483.919 486.02L485.067 484.863L485.925 483.877L486.877 482.618M472.545 493.597L474.01 492.679L475.364 491.637L476.575 490.489L477.609 489.254M486.877 482.618L487.55 481.534L488.287 480.194L488.867 478.773M486.877 482.618L486.051 483.612L485.066 484.545L483.919 485.444L482.605 486.337L481.118 487.251L479.454 488.214L477.609 489.254M488.867 478.773L489.315 477.562L489.739 476.031L489.993 474.727L490.06 474.379L490.299 473.067L490.531 471.266L490.712 469.299L490.863 467.142L491.007 464.77M505.438 187.85L505.134 186.845L504.536 185.229L503.822 183.733L503.267 182.697L502.444 181.396L501.63 180.271L500.691 179.154L499.651 177.99M505.438 187.85L505.516 188.746L505.377 189.535L505.04 190.231L504.927 190.364M499.651 177.99L498.51 176.905L497.385 175.906L496.088 174.862L494.68 173.887L493.412 173.019L491.849 172.078L490.15 171.166L488.802 170.477L486.936 169.568L484.897 168.631L482.664 167.634M499.651 177.99L498.592 177.044L497.492 176.313L496.356 175.786L495.981 175.678M482.664 167.634L480.222 166.547L477.591 165.364L474.803 164.085L471.885 162.707L468.867 161.229L465.777 159.65L462.645 157.969L459.497 156.183M482.664 167.634L481.294 167.168M459.497 156.183L456.357 154.296L453.228 152.332L450.109 150.319L443.894 146.256L440.795 144.262L437.702 142.331L433.238 139.673M459.497 156.183L458.125 155.579M433.238 139.673L430.149 137.931L427.064 136.319L423.98 134.845L420.898 133.518L417.818 132.346L414.741 131.337L411.666 130.498L408.594 129.838M433.238 139.673L431.861 139.506L430.466 139.915L429.028 140.784L427.525 141.999L425.932 143.445L424.225 145.008L422.38 146.572L420.372 148.023M433.238 139.673L436.329 141.533L439.423 143.488L442.522 145.507L448.737 149.626L451.857 151.67L454.986 153.664L458.125 155.579M408.594 129.838L405.523 129.355L402.458 129.003L398.015 128.591L394.965 128.315L391.925 127.991L388.898 127.56L385.885 126.965L385.061 126.732M408.594 129.838L407.21 129.712L405.813 130.148L404.375 131.026L402.875 132.225L401.288 133.625L399.588 135.104L397.751 136.541L395.751 137.815M385.061 126.732L384.638 126.049M385.061 126.732L385.132 126.846M395.751 137.815L392.721 136.194L389.789 134.533M395.751 137.815L393.571 138.805L392.332 139.114M395.751 137.815L398.792 139.351L401.843 140.805L404.905 142.181L407.977 143.483L411.059 144.715L414.153 145.879L417.257 146.981L420.372 148.023M389.789 134.533L387.519 130.7L385.161 126.893L385.132 126.846M389.789 134.533L390.616 135.931L392.332 139.114M420.372 148.023L418.183 149.265L415.829 150.282L413.331 151.076L410.714 151.649L407.999 152.003L405.211 152.14L402.373 152.062L399.509 151.771M420.372 148.023L423.497 149.013L426.632 149.973L429.777 150.93L432.928 151.909L436.088 152.936L439.252 154.039L442.421 155.244L445.593 156.578M458.125 155.579L456.761 155.33L455.386 155.369L453.979 155.606L452.515 155.95L450.969 156.31L449.316 156.596L447.533 156.716L445.593 156.578M458.125 155.579L461.273 157.393L464.406 159.1L467.495 160.703L470.513 162.202L473.431 163.597L476.22 164.889L478.851 166.079L481.294 167.168M392.332 139.114L395.433 144.866M445.593 156.578L443.477 156.127L441.195 155.458L438.764 154.703L436.201 153.997L433.524 153.472L430.752 153.266L427.904 153.513L425 154.35M445.593 156.578L448.762 158.055L451.907 159.644L455 161.301L458.015 162.983L460.926 164.645L463.705 166.245L466.325 167.734L468.759 169.072M399.509 151.771L402.637 152.786L405.793 153.238L408.973 153.308L412.17 153.179L415.379 153.033L418.592 153.056L421.801 153.432L425 154.35M399.509 151.771L399.092 151.54M399.509 151.771L399.186 151.711M481.294 167.168L479.935 166.929L478.57 166.893L477.173 167.026L475.716 167.295L474.173 167.667L470.723 168.589L468.759 169.072M481.294 167.168L483.529 168.163L485.572 169.094L487.446 169.998L489.178 170.915L490.793 171.88L492.316 172.933L493.258 173.694M468.759 169.072L470.991 170.229L473.039 171.247L474.934 172.186L476.705 173.105L478.383 174.062L479.997 175.12L481.58 176.337L483.159 177.773M468.759 169.072L466.61 169.535L461.81 170.494L459.203 171.05L456.488 171.698L453.686 172.469L450.822 173.394L447.915 174.504M425 154.35L428.176 155.938L431.309 158.101L434.375 160.685L437.352 163.537L440.216 166.5L442.948 169.419L445.521 172.139L447.915 174.504M425 154.35L422.058 155.838L419.094 157.728L416.121 159.698L413.151 161.418L410.194 162.564L407.262 162.806L405.867 162.327M235.255 596.073L232.967 595.565L230.885 594.953L228.949 594.235L227.103 593.408L225.286 592.466L223.442 591.407L221.511 590.229L219.437 588.926M235.255 596.073L235.271 598.609L235.306 600.909L235.377 602.995L235.503 604.888L235.706 606.605L236 608.168L236.408 609.597L236.947 610.911M235.255 596.073L235.113 569.225M235.113 569.225L232.809 568.723L230.713 568.12L228.764 567.411L226.905 566.594L225.076 565.664L223.218 564.619L221.275 563.456L219.186 562.17M235.113 569.225L237.662 569.628L240.411 569.932L243.297 570.135L246.254 570.237L249.217 570.236L252.122 570.131L254.902 569.921L257.493 569.606M235.113 569.225L234.955 539.231M219.437 588.926L219.465 591.454L219.52 593.75L219.629 595.835L219.82 597.732L220.122 599.463L220.563 601.052L221.172 602.516L221.974 603.881M219.437 588.926L219.186 562.17M219.437 588.926L197.954 575.38M219.186 562.17L218.907 532.281M219.186 562.17L197.559 548.798M257.493 569.606L259.853 569.183L262.017 568.652L264.046 568.011L265.999 567.258L267.934 566.392L269.911 565.412L271.989 564.315L274.225 563.102M257.493 569.606L257.508 539.607M234.955 539.231L232.634 538.737L230.52 538.142L228.557 537.445L226.684 536.639L224.84 535.724L222.969 534.695L221.011 533.548L218.907 532.281M234.955 539.231L237.523 539.629L240.294 539.928L243.201 540.128L246.182 540.229L249.168 540.228L252.094 540.124L254.897 539.918L257.508 539.607M234.955 539.231L234.794 508.771M218.907 532.281L218.623 501.931M218.907 532.281L197.117 519.11M197.559 548.798L197.954 575.38M197.559 548.798L197.117 519.11M197.559 548.798L174.244 534.384M257.508 539.607L259.885 539.191L262.066 538.667L264.11 538.035L266.078 537.294L268.029 536.441L270.021 535.475L272.115 534.395L274.368 533.2M257.508 539.607L257.523 509.141M234.794 508.771L232.455 508.284L230.326 507.699L228.347 507.012L226.459 506.22L224.602 505.319L222.716 504.306L220.743 503.177L218.623 501.931M234.794 508.771L237.382 509.162L240.174 509.457L243.105 509.655L246.108 509.753L249.117 509.752L252.067 509.651L254.891 509.447L257.523 509.141M234.794 508.771L234.631 477.833M218.623 501.931L218.334 471.106M218.623 501.931L196.669 488.967M197.117 519.11L196.669 488.967M197.117 519.11L173.633 504.914M257.523 509.141L259.918 508.731L262.116 508.216L264.177 507.594L266.16 506.864L268.125 506.024L270.133 505.073L272.242 504.01L274.513 502.834M257.523 509.141L257.538 478.197M234.631 477.833L232.273 477.355L230.128 476.78L228.134 476.104L226.231 475.324L224.359 474.437L222.459 473.441L220.471 472.332L218.334 471.106M234.631 477.833L237.239 478.218L240.053 478.508L243.007 478.702L246.033 478.799L249.066 478.798L252.039 478.698L254.885 478.498L257.538 478.197M234.631 477.833L234.465 446.407M218.334 471.106L218.041 439.797M218.334 471.106L196.214 458.359M196.669 488.967L196.214 458.359M196.669 488.967L173.012 474.998M257.538 478.197L259.952 477.794L262.167 477.287L264.243 476.676L266.242 475.958L268.223 475.132L270.246 474.197L272.373 473.152L274.661 471.995M257.538 478.197L257.553 446.764M234.465 446.407L232.088 445.937L229.926 445.371L227.917 444.707L225.999 443.941L224.113 443.07L222.198 442.091L220.194 441.001L218.041 439.797M234.465 446.407L237.094 446.784L239.93 447.069L242.907 447.26L245.958 447.355L249.015 447.354L252.011 447.256L254.879 447.06L257.553 446.764M234.465 446.407L234.296 414.479M218.041 439.797L217.743 407.991M218.041 439.797L195.752 427.274M196.214 458.359L195.752 427.274M196.214 458.359L172.38 444.624M257.553 446.764L259.986 446.368L262.219 445.87L264.312 445.269L266.326 444.563L268.322 443.752L270.362 442.834L272.504 441.806L274.811 440.67M257.553 446.764L257.568 414.829M234.296 414.479L231.901 414.018L229.721 413.462L227.696 412.811L225.764 412.059L223.862 411.205L221.932 410.244L219.913 409.173L217.743 407.991M234.296 414.479L236.946 414.85L239.805 415.129L242.805 415.316L245.88 415.41L248.961 415.409L251.982 415.313L254.873 415.12L257.568 414.829M234.296 414.479L234.125 382.039M217.743 407.991L217.441 375.678M217.743 407.991L195.282 395.702M195.752 427.274L195.282 395.702M195.752 427.274L171.741 413.784M257.568 414.829L260.021 414.44L262.271 413.952L264.381 413.362L266.411 412.67L268.424 411.873L270.479 410.972L272.638 409.964L274.963 408.848M257.568 414.829L257.584 382.383M234.125 382.039L231.711 381.586L229.513 381.042L227.472 380.403L225.524 379.666L223.608 378.828L221.663 377.886L219.628 376.837L217.441 375.678M234.125 382.039L236.796 382.402L239.678 382.676L242.703 382.86L245.802 382.951H248.908L251.953 382.856L254.868 382.667L257.584 382.383M234.125 382.039L233.951 349.073M217.441 375.678L217.133 342.844M217.441 375.678L194.806 363.631M195.282 395.702L194.806 363.631M195.282 395.702L171.091 382.465M257.584 382.383L260.057 382.001L262.324 381.522L264.451 380.944L266.498 380.265L268.526 379.484L270.598 378.6L272.774 377.612L275.117 376.519M257.584 382.383L257.6 349.409M233.951 349.073L231.517 348.629L229.303 348.097L227.245 347.471L225.281 346.75L223.35 345.929L221.389 345.006L219.337 343.98L217.133 342.844M233.951 349.073L236.644 349.429L239.548 349.697L242.598 349.877L245.722 349.967L248.854 349.966L251.923 349.873L254.861 349.688L257.6 349.409M217.133 342.844L194.321 331.049M194.806 363.631L194.321 331.049M194.806 363.631L170.43 350.658M461.053 485.998L460.924 488.396L460.78 490.576L460.592 492.557L460.332 494.362L459.972 496.013L459.484 497.53L458.841 498.935L458.014 500.249M461.053 485.998L439.004 498.249M477.609 489.254L458.014 500.249M439.004 498.249L438.888 500.663L438.755 502.856L438.577 504.85L438.326 506.666L437.975 508.326L437.496 509.85L436.861 511.261L436.043 512.578M439.004 498.249L440.188 472.702M439.004 498.249L416.521 510.741M458.014 500.249L436.043 512.578M440.188 472.702L441.51 444.192M440.188 472.702L417.571 485.022M416.521 510.741L416.418 513.171L416.296 515.378L416.129 517.385L415.888 519.211L415.547 520.88L415.077 522.412L414.451 523.828L413.642 525.149M416.521 510.741L417.571 485.022M416.521 510.741L393.591 523.48M436.043 512.578L413.642 525.149M441.51 444.192L442.851 415.272M441.51 444.192L418.742 456.317M417.571 485.022L418.742 456.317M417.571 485.022L394.5 497.588M393.591 523.48L393.501 525.927L393.392 528.149L393.235 530.167L393.006 532.006L392.674 533.684L392.214 535.222L391.597 536.643L390.797 537.967M393.591 523.48L394.5 497.588M393.591 523.48L370.202 536.476M413.642 525.149L390.797 537.967M418.742 456.317L419.93 427.194M418.742 456.317L395.515 468.686M394.5 497.588L395.515 468.686M394.5 497.588L370.963 510.409M370.202 536.476L370.125 538.938L370.028 541.175L369.884 543.207L369.665 545.056L369.344 546.743L368.893 548.289L368.287 549.715L367.497 551.043M370.202 536.476L370.963 510.409M370.202 536.476L346.337 549.735M390.797 537.967L389.798 539.209L388.622 540.355L388.267 540.633M390.797 537.967L367.497 551.043M395.515 468.686L396.544 439.359M395.515 468.686L371.815 481.307M370.963 510.409L371.815 481.307M370.963 510.409L346.947 523.491M346.337 549.735L346.275 552.214L346.191 554.465L346.059 556.51L345.851 558.371L345.541 560.067L345.101 561.62L344.505 563.051L343.726 564.381M346.337 549.735L346.947 523.491M346.337 549.735L321.983 563.265M367.497 551.043L343.726 564.381M367.497 551.043L367.303 551.286M371.815 481.307L372.679 451.772M371.815 481.307L347.627 494.187M346.947 523.491L347.627 494.187M346.947 523.491L322.434 536.843M321.983 563.265L321.936 565.761L321.867 568.027L321.747 570.086L321.552 571.957L321.253 573.662L320.824 575.223L320.239 576.659L319.471 577.992M321.983 563.265L322.434 536.843M321.983 563.265L297.126 577.076M343.726 564.381L319.471 577.992M347.627 494.187L348.319 464.444M347.627 494.187L322.938 507.335M322.434 536.843L322.938 507.335M322.434 536.843L297.411 550.473M297.126 577.076L297.095 579.589L297.039 581.87L296.934 583.941L296.75 585.824L296.464 587.538L296.046 589.106L295.472 590.547L294.716 591.883M297.126 577.076L297.411 550.473M319.471 577.992L294.716 591.883M322.938 507.335L323.449 477.38M322.938 507.335L297.729 520.76M297.411 550.473L297.729 520.76M297.411 550.473L274.225 563.102M274.225 563.102L274.368 533.2M297.729 520.76L298.052 490.59M297.729 520.76L274.368 533.2M442.851 415.272L444.211 385.931M442.851 415.272L419.93 427.194M419.93 427.194L421.136 397.644M419.93 427.194L396.544 439.359M396.544 439.359L397.589 409.596M396.544 439.359L372.679 451.772M372.679 451.772L373.555 421.796M372.679 451.772L348.319 464.444M348.319 464.444L349.02 434.25M348.319 464.444L323.449 477.38M323.449 477.38L323.967 446.967M323.449 477.38L298.052 490.59M298.052 490.59L298.38 459.955M298.052 490.59L274.513 502.834M274.368 533.2L274.513 502.834M444.211 385.931L445.591 356.161M444.211 385.931L421.136 397.644M421.136 397.644L422.36 367.656M421.136 397.644L397.589 409.596M397.589 409.596L398.649 379.39M397.589 409.596L373.555 421.796M373.555 421.796L374.445 391.367M373.555 421.796L349.02 434.25M349.02 434.25L349.733 403.595M349.02 434.25L323.967 446.967M323.967 446.967L324.494 416.085M323.967 446.967L298.38 459.955M298.38 459.955L298.713 428.842M298.38 459.955L274.661 471.995M274.513 502.834L274.661 471.995M445.591 356.161L446.991 325.952M445.591 356.161L422.36 367.656M422.36 367.656L423.601 337.223M422.36 367.656L398.649 379.39M398.649 379.39L399.725 348.728M398.649 379.39L374.445 391.367M374.445 391.367L375.349 360.474M374.445 391.367L349.733 403.595M349.733 403.595L350.455 372.47M349.733 403.595L324.494 416.085M324.494 416.085L325.029 384.723M324.494 416.085L298.713 428.842M298.713 428.842L299.052 397.241M298.713 428.842L274.811 440.67M274.661 471.995L274.811 440.67M446.991 325.952L448.413 295.294M446.991 325.952L423.601 337.223M423.601 337.223L424.862 306.332M423.601 337.223L399.725 348.728M399.725 348.728L400.818 317.601M399.725 348.728L375.349 360.474M375.349 360.474L376.266 329.109M375.349 360.474L350.455 372.47M350.455 372.47L351.19 340.862M350.455 372.47L325.029 384.723M325.029 384.723L325.572 352.87M325.029 384.723L299.052 397.241M299.052 397.241L299.395 365.139M299.052 397.241L274.963 408.848M274.811 440.67L274.963 408.848M448.413 295.294L449.855 264.177M448.413 295.294L424.862 306.332M424.862 306.332L426.141 274.974M424.862 306.332L400.818 317.601M400.818 317.601L401.927 286M400.818 317.601L376.266 329.109M376.266 329.109L377.198 297.26M376.266 329.109L351.19 340.862M351.19 340.862L351.936 308.762M351.19 340.862L325.572 352.87M325.572 352.87L326.124 320.514M325.572 352.87L299.395 365.139M299.395 365.139L299.744 332.526M299.395 365.139L275.117 376.519M274.963 408.848L275.117 376.519M449.855 264.177L451.215 234.86M449.855 264.177L426.141 274.974M426.141 274.974L427.439 243.151M426.141 274.974L401.927 286M401.927 286L403.018 254.929M401.927 286L377.198 297.26M377.198 297.26L378.066 267.576M377.198 297.26L351.936 308.762M351.936 308.762L352.623 279.166M351.936 308.762L326.124 320.514M326.124 320.514L326.633 290.679M326.124 320.514L299.744 332.526M299.744 332.526L300.067 302.448M299.744 332.526L275.274 343.667M275.117 376.519L275.274 343.667M451.215 234.86L451.35 231.835L451.448 228.988L451.482 226.288L451.423 223.703L451.245 221.204L450.919 218.76L450.418 216.339L449.715 213.911M451.215 234.86L448.27 235.898L445.32 236.898L442.363 237.879L439.398 238.858L436.424 239.855L433.44 240.891L430.446 241.983L427.439 243.151M427.439 243.151L427.598 239.15L427.726 235.194L427.792 231.332L427.765 227.617L427.614 224.1L427.308 220.835L426.815 217.873L426.106 215.268M427.439 243.151L424.422 244.409L421.394 245.751L418.355 247.167L415.306 248.643L412.247 250.17L409.179 251.734L406.102 253.325L403.018 254.929M403.018 254.929L403.14 251.318L403.23 247.811L403.257 244.426L403.193 241.176L403.008 238.08L402.673 235.153L402.157 232.412L401.432 229.874M403.018 254.929L399.926 256.539L396.825 258.146L393.717 259.75L390.602 261.346L387.479 262.931L384.349 264.499L381.211 266.049L378.066 267.576M378.066 267.576L378.148 264.618L378.195 261.854L378.18 259.234L378.077 256.707L377.858 254.22L377.494 251.724L376.959 249.168L376.227 246.499M378.066 267.576L374.913 269.077L371.753 270.557L368.585 272.017L365.41 273.462L362.226 274.896L359.033 276.322L352.623 279.166M352.623 279.166L352.685 276.316L352.714 273.652L352.682 271.083L352.565 268.516L352.335 265.86L351.965 263.022L351.43 259.908L350.701 256.427M352.623 279.166L326.633 290.679M326.633 290.679L326.677 287.809L326.689 285.144L326.642 282.611L326.508 280.136L326.26 277.643L325.87 275.058L325.31 272.305L324.556 269.309M326.633 290.679L300.067 302.448M300.067 302.448L300.092 299.553L300.088 296.865L300.025 294.308L299.877 291.804L299.614 289.279L299.21 286.654L298.636 283.853L297.865 280.799M300.067 302.448L280.808 310.96L278.014 312.187L275.419 313.32M275.274 343.667L272.912 344.738L270.719 345.706L268.63 346.572L266.585 347.336L264.522 348.001L262.379 348.567L260.092 349.036L257.6 349.409M275.274 343.667L275.419 313.32M473.107 205.409L472.209 202.725L471.118 199.931L469.866 197.099L468.484 194.306L467.002 191.624L465.453 189.128L463.864 186.893L462.268 184.99M473.107 205.409L470.193 206.819L467.273 208.192L464.349 209.498L461.422 210.706L458.495 211.783L455.567 212.697L452.64 213.417L449.715 213.911M449.715 213.911L448.792 211.456L447.673 209.002L446.388 206.587L444.972 204.249L443.458 202.026L441.877 199.954L440.264 198.073L438.65 196.42M449.715 213.911L446.793 214.163L443.869 214.234L440.941 214.202L438.004 214.146L435.055 214.144L432.091 214.277L429.109 214.625L426.106 215.268M426.106 215.268L425.158 213.056L424 211.206L422.668 209.669L421.197 208.398L419.626 207.342L417.989 206.453L416.324 205.681L414.667 204.978M426.106 215.268L423.079 216.267L420.033 217.595L416.966 219.207L413.884 221.056L410.787 223.094L407.679 225.274L404.559 227.551L401.432 229.874M401.432 229.874L400.48 227.55L399.324 225.428L397.999 223.489L396.542 221.714L394.988 220.086L393.371 218.585L391.725 217.191L390.087 215.886M401.432 229.874L398.299 232.202L395.158 234.505L392.013 236.761L388.863 238.946L385.709 241.037L382.551 243.008L379.39 244.837L376.227 246.499M376.227 246.499L375.278 243.681L374.137 240.734L372.837 237.692L371.41 234.59L369.892 231.461L368.313 228.338L366.707 225.257L365.108 222.251M376.227 246.499L373.059 247.98L369.888 249.311L366.712 250.533L363.528 251.686L360.336 252.81L357.136 253.947L353.924 255.139L350.701 256.427M350.701 256.427L349.763 252.518L348.636 248.251L347.352 243.731L345.944 239.063L344.441 234.352L342.876 229.703L341.281 225.221L339.688 221.011M350.701 256.427L347.467 257.841L344.222 259.366L340.966 260.974L337.702 262.638L331.145 266.027L327.854 267.695L324.556 269.309M324.556 269.309L323.586 266.027L322.425 262.528L321.104 258.917L319.657 255.298L318.115 251.772L316.51 248.443L314.876 245.414L313.244 242.787M324.556 269.309L321.25 270.85L317.936 272.326L314.613 273.754L311.283 275.153L304.593 277.93L301.234 279.344L297.865 280.799M297.865 280.799L296.879 277.447L295.701 273.886L294.363 270.232L292.897 266.606L291.338 263.126L289.718 259.913L288.068 257.086L286.424 254.764M297.865 280.799L294.491 282.304L291.136 283.843L287.831 285.392L284.605 286.925L278.51 289.844L275.702 291.18L273.096 292.401M275.419 313.32L275.429 310.387L275.409 307.672L275.331 305.111L275.168 302.641L274.891 300.198L274.473 297.72L273.884 295.142L273.096 292.401M275.419 313.32L273.041 314.351L270.831 315.278L268.727 316.102L266.667 316.827L264.588 317.455L262.429 317.989L260.125 318.429L257.614 318.781M257.6 349.409L257.614 318.781M462.268 184.99L460.686 183.464L459.1 182.229L457.481 181.171L454.033 179.124L452.148 177.905L450.119 176.403L447.915 174.504M462.268 184.99L459.346 186.316L456.413 187.731L453.469 189.205L450.517 190.709L447.558 192.212L444.593 193.685L441.623 195.098L438.65 196.42M462.268 184.99L465.174 183.776L468.042 182.671L470.849 181.665L473.573 180.747L476.188 179.91L478.673 179.141L481.004 178.433L483.159 177.773M447.915 174.504L444.99 175.812L442.051 177.255L439.102 178.756L436.148 180.234L433.19 181.61L430.233 182.801L427.278 183.729L424.33 184.311M438.65 196.42L437.058 195.008L435.467 193.763L433.851 192.585L432.177 191.379L430.418 190.046L428.543 188.489L426.524 186.61L424.33 184.311M438.65 196.42L435.674 197.63L432.695 198.746L429.71 199.795L426.718 200.803L423.72 201.798L420.712 202.808L417.695 203.859L414.667 204.978M424.33 184.311L421.942 181.537L419.374 178.386L416.649 174.994L413.791 171.499L410.824 168.041L406.473 163.16L406.38 163.056L405.867 162.327M424.33 184.311L421.388 184.503L418.448 184.399L415.505 184.132L412.553 183.84L409.587 183.652L406.604 183.708L403.597 184.143L400.563 185.093M414.667 204.978L413.043 204.273L411.434 203.41L409.814 202.215L408.155 200.512L406.428 198.124L404.605 194.877L402.66 190.592L400.563 185.093M414.667 204.978L411.628 206.187L408.578 207.475L405.517 208.824L402.448 210.218L399.37 211.639L396.283 213.069L393.189 214.49L390.087 215.886M400.563 185.093L398.294 178.291L398.179 177.924L395.857 170.465L393.271 161.983L390.779 153.964L390.778 153.961L390.721 153.776L390.715 153.759L390.708 153.736L390.548 153.221L387.707 144.557L386.44 141.029L386.4 140.921L386.396 140.908L386.385 140.878L386.258 140.523L386.212 140.398L386.175 140.293L386.133 140.176L386.086 140.048L386.076 140.019L385.925 139.597L385.912 139.562L385.81 139.277L384.765 136.368L381.74 129.038L379.668 124.957L379.662 124.946L379.615 124.853L378.651 122.953M400.563 185.093L397.502 186.65L394.417 188.718L391.312 191.15L388.195 193.804L385.069 196.534L381.94 199.194L378.81 201.639L375.684 203.723M390.087 215.886L388.479 214.643L386.88 213.422L385.258 212.169L383.581 210.837L381.816 209.375L379.933 207.734L377.9 205.867L375.684 203.723M390.087 215.886L386.979 217.233L383.865 218.499L380.747 219.646L377.625 220.635L374.499 221.428L371.371 221.989L368.241 222.275L365.108 222.251M378.651 122.953L381.686 123.247L382.006 123.551M378.651 122.953L377.75 123.714L377.712 123.746L377.647 123.801L377.559 123.876L377.555 123.879L377.533 123.898L375.523 125.598L375.287 125.975L375.28 125.988L375.23 126.069L372.322 130.741L369.07 137.716L365.788 145.852L362.496 154.486L359.211 162.955L355.947 170.605L352.718 176.788M378.651 122.953L375.518 118.335L375.482 118.294L375.434 118.239L372.361 114.782L371.088 113.553L371.079 113.544L370.591 113.073L369.197 111.727L366.04 108.608L362.906 104.859L359.804 99.9165L356.747 93.2127L353.744 84.1731M375.684 203.723L373.266 201.266L370.662 198.507L367.901 195.467L365.011 192.166L362.021 188.627L358.957 184.87L355.847 180.917L352.718 176.788M375.684 203.723L372.565 205.327L369.451 206.439L366.341 207.074L363.234 207.246L360.128 206.97L357.021 206.26L353.912 205.13M365.108 222.251L363.538 219.35L361.972 216.574L360.378 213.943L358.721 211.473L356.968 209.186L355.086 207.098L353.041 205.228L350.801 203.595M365.108 222.251L361.974 221.904L358.833 221.34L355.683 220.693L352.52 220.1L349.342 219.697L346.145 219.622L342.928 220.013L339.688 221.011M352.718 176.788L349.593 172.501L346.476 168.06L343.365 163.47L340.262 158.73L337.166 153.843L334.075 148.814L330.99 143.642L327.911 138.33M352.718 176.788L349.531 181.012L346.378 183.414L343.251 184.283L340.139 183.908L337.034 182.576L333.931 180.576L330.82 178.197L327.697 175.733M353.912 205.13L350.801 203.595M353.912 205.13L349.635 202.854M350.801 203.595L349.415 202.752L349.374 202.727L347.685 201.7M350.801 203.595L349.841 202.984L349.818 202.97L349.635 202.854M325.382 195.473L328.644 194.081L331.876 193.817L335.081 194.459L338.262 195.787L340.619 197.126L340.666 197.153L341.42 197.581L344.56 199.624L347.685 201.7M325.382 195.473L327.613 198.434L329.653 201.335L331.536 204.241L333.292 207.213L334.952 210.314L336.551 213.605L338.119 217.15L339.688 221.011M325.382 195.473L322.94 192.409L320.306 189.26L317.507 186.066L314.572 182.86L311.531 179.679L308.411 176.56L305.241 173.537L302.047 170.647M325.382 195.473L322.093 198.131L318.78 201.865L315.451 206.398L312.111 211.457L308.765 216.765L305.416 222.046L302.067 227.03L298.721 231.441M347.685 201.7L346.577 200.91M339.688 221.011L336.427 222.704L333.145 224.995L329.849 227.73L326.54 230.759L323.223 233.931L319.9 237.094L316.573 240.097L313.244 242.787M313.244 242.787L311.637 240.633L310.034 238.885L308.403 237.446L306.712 236.217L304.93 235.101L303.026 233.998L300.967 232.81L298.721 231.441M313.244 242.787L309.913 245.052L306.58 246.933L303.241 248.514L299.895 249.875L296.542 251.097L293.179 252.264L289.807 253.46L286.424 254.764M302.047 170.647L305.32 169.016L308.575 168.209L311.81 168.138L315.026 168.713L318.222 169.848L321.4 171.455L324.557 173.446L327.697 175.733M302.047 170.647L298.854 167.933L295.667 165.48L292.483 163.379L289.304 161.722L286.129 160.6L282.961 160.105L279.798 160.325L276.643 161.349M302.047 170.647L298.757 173.142L295.453 176.36L292.139 180.112L288.818 184.208L285.49 188.46L282.158 192.676L278.823 196.67L275.485 200.251M298.721 231.441L296.27 229.788L293.632 227.737L290.836 225.164L287.912 221.951L284.888 217.975L281.791 213.116L278.647 207.25L275.485 200.251M275.485 200.251L272.144 203.279L268.798 205.807L265.445 207.935L262.085 209.764L258.717 211.396L251.954 214.471L248.559 216.118M275.485 200.251L272.323 192.094L269.163 183.161L266 173.939L262.835 164.919L259.668 156.599L256.499 149.478L253.332 144.058L250.17 140.838M248.559 216.118L245.369 210.53L242.18 204.816L238.996 199.224L235.816 194L232.643 189.393L229.48 185.652L226.33 183.022L223.197 181.751M273.096 292.401L270.707 293.486L268.498 294.444L266.415 295.288L264.405 296.031L262.416 296.688L260.392 297.274L258.282 297.802L256.032 298.285M48.8849 493.661L48.0224 492.328L47.3521 490.909L46.8443 489.383L46.4701 487.729L46.2006 485.925L46.0068 483.948L45.8592 481.776L45.7279 479.386M48.8849 493.661L49.9575 494.926L51.2153 496.107L52.6238 497.187M48.8849 493.661L30.765 482.122M48.8849 493.661L69.2243 506.612M45.7279 479.386L66.1321 492.253M45.7279 479.386L44.3928 454.101M30.765 482.122L29.0596 481.033L27.5252 480.024L26.1589 479.07L24.9596 478.143L23.9237 477.215L23.0511 476.257M30.765 482.122L31.8423 483.385L33.104 484.565L34.5157 485.647M69.2243 506.612L68.3673 505.274L67.7032 503.849L67.2017 502.316L66.8353 500.653L66.5743 498.837L66.39 496.847L66.2524 494.66L66.1321 492.253M69.2243 506.612L70.2906 507.88L71.5437 509.062L72.9468 510.141M69.2243 506.612L89.9832 519.832M66.1321 492.253L86.9606 505.388M66.1321 492.253L64.9142 466.789M52.6238 497.187L34.5157 485.647M52.6238 497.187L72.9468 510.141M44.3928 454.101L64.9142 466.789M44.3928 454.101L42.903 425.89M89.9832 519.832L89.1332 518.49L88.4753 517.058L87.9816 515.518L87.623 513.844L87.3715 512.017L87.1957 510.013L87.0691 507.811L86.9606 505.388M89.9832 519.832L91.0441 521.101L92.2909 522.284L93.6901 523.361M89.9832 519.832L111.177 533.327M86.9606 505.388L108.226 518.797M86.9606 505.388L85.8652 479.742M72.9468 510.141L93.6901 523.361M64.9142 466.789L85.8652 479.742M64.9142 466.789L63.5557 438.374M111.177 533.327L110.333 531.981L109.683 530.544L109.198 528.995L108.847 527.312L108.604 525.473L108.439 523.456L108.323 521.239L108.226 518.797M111.177 533.327L112.231 534.599L113.472 535.781L114.865 536.857M111.177 533.327L132.818 547.108M108.226 518.797L129.944 532.492M108.226 518.797L107.259 492.969M93.6901 523.361L114.865 536.857M85.8652 479.742L107.259 492.969M85.8652 479.742L84.6427 451.121M132.818 547.108L131.982 545.758L131.339 544.315L130.862 542.759L130.52 541.066L130.287 539.215L130.132 537.184L130.028 534.951L129.944 532.492M132.818 547.108L133.866 548.381L135.1 549.564L136.487 550.638M132.818 547.108L154.921 561.183M129.944 532.492L152.128 546.481M129.944 532.492L129.11 506.479M114.865 536.857L136.487 550.638M107.259 492.969L129.11 506.479M107.259 492.969L106.18 464.139M154.921 561.183L154.093 559.829L153.458 558.381L152.989 556.815L152.657 555.113L152.434 553.25L152.29 551.206L152.198 548.957L152.128 546.481M154.921 561.183L155.961 562.458L157.189 563.64L158.568 564.712M154.921 561.183L177.502 575.562M152.128 546.481L174.792 560.774M152.128 546.481L151.433 520.281M136.487 550.638L158.568 564.712M129.11 506.479L151.433 520.281M129.11 506.479L128.18 477.438M177.502 575.562L176.682 574.205L176.056 572.75L175.596 571.177L175.274 569.464L175.061 567.59L174.929 565.531L174.848 563.267L174.792 560.774M177.502 575.562L178.533 576.838L179.753 578.02L181.126 579.089M177.502 575.562L200.575 590.255M174.792 560.774L197.954 575.38M174.792 560.774L174.244 534.384M158.568 564.712L181.126 579.089M151.433 520.281L174.244 534.384M151.433 520.281L150.659 491.027M200.575 590.255L199.764 588.893L199.147 587.433L198.697 585.853L198.385 584.13L198.183 582.244L198.063 580.171L197.996 577.891L197.954 575.38M200.575 590.255L201.598 591.532L202.809 592.713L204.173 593.778M200.575 590.255L221.974 603.881M181.126 579.089L204.173 593.778M174.244 534.384L173.633 504.914M221.974 603.881L222.988 605.159L224.191 606.339L225.548 607.402M221.974 603.881L224.038 605.191L225.95 606.374L227.758 607.433L229.511 608.368L231.257 609.182L233.046 609.876L234.927 610.451L236.947 610.911M204.173 593.778L225.548 607.402M64.5408 143.793L66.5181 143.707L68.6649 143.801L70.9633 144.108L73.3906 144.664L75.928 145.501L78.5529 146.656L81.2451 148.161L83.9817 150.052M64.5408 143.793L67.7579 140.018L70.9601 136.007L74.1538 131.881M60.1471 174.005L62.8564 175.394L65.5689 176.68L68.2805 177.792L70.989 178.657L73.6914 179.201L76.3858 179.353L79.0701 179.036L80.6271 178.536M60.1471 174.005L62.7103 172.92L65.4634 171.578L68.3704 169.832L71.3953 167.541L74.5031 164.563L77.6592 160.751L80.8294 155.963L83.9817 150.052M60.1471 174.005L57.7995 174.956L55.648 175.839L53.6606 176.701L51.8036 177.588L50.0458 178.548L48.3544 179.629L46.6967 180.879L45.0405 182.345M11.4327 170.822L10.4701 171.827L9.34988 173.022L8.36943 174.236L7.5788 175.288L6.88273 176.338L6.13979 177.619L5.72337 178.51L5.02029 180.055L4.42965 181.712M4.42965 181.712L3.98592 183.419L3.73749 184.4L3.41096 186.221L3.2125 188.117L3.11409 189.155L3.00938 191.193L3.00156 193.355L3.06874 195.673L3.19143 198.179L3.24998 199.263L3.40781 201.996M4.42965 181.712L4.21012 182.625L4.20702 183.459L4.40624 184.225L4.79371 184.933M3.40781 201.996L3.66091 203.015M3.40781 201.996L5.07341 230.066M5.07341 230.066L5.32732 231.12M5.07341 230.066L6.87334 260.41M6.87334 260.41L7.12725 261.488M6.87334 260.41L8.64756 290.321M8.64756 290.321L8.90142 291.422M8.64756 290.321L10.3959 319.808M10.3959 319.808L10.6506 320.932M10.3959 319.808L12.1209 348.881M12.1209 348.881L12.3748 350.027M12.1209 348.881L13.8208 377.548M13.8208 377.548L14.0747 378.715M13.8208 377.548L15.4982 405.817M15.4982 405.817L15.7521 407.005M15.4982 405.817L17.152 433.696M17.152 433.696L18.634 458.69M18.634 458.69L18.7778 461.053L18.9317 463.203L19.1192 465.163L19.3645 466.957L19.6902 468.61L19.9785 469.831M19.9785 469.831L20.434 471.36L21.0285 472.791L21.5449 473.897L22.3394 475.244L23.0511 476.257M23.0511 476.257L24.0706 477.533L24.9683 478.483L26.1901 479.669L27.2619 480.591L28.651 481.669L29.8861 482.594L31.2704 483.547L32.8111 484.556L34.5157 485.647M24.5105 414.772L22.78 413.721L21.2277 412.749L19.8543 411.826L18.6621 410.926L17.6544 410.022L16.8309 409.085L16.1966 408.088L15.7521 407.005M24.5105 414.772L42.903 425.89M24.5105 414.772L22.8839 386.349M15.7521 407.005L14.0747 378.715M42.903 425.89L63.5557 438.374M42.903 425.89L41.3921 397.278M22.8839 386.349L21.1434 385.316L19.5809 384.361L18.1997 383.454L17.0005 382.57L15.9864 381.681L15.1591 380.759L14.5216 379.78L14.0747 378.715M22.8839 386.349L41.3921 397.278M22.8839 386.349L21.2348 357.524M14.0747 378.715L12.3748 350.027M41.3921 397.278L62.1768 409.551M41.3921 397.278L39.8593 368.256M21.2348 357.524L19.4832 356.51L17.9114 355.571L16.5216 354.681L15.3154 353.812L14.295 352.94L13.4631 352.035L12.8225 351.072L12.3748 350.027M21.2348 357.524L39.8593 368.256M21.2348 357.524L19.5613 328.287M12.3748 350.027L10.6506 320.932M39.8593 368.256L60.7783 380.312M39.8593 368.256L38.3047 338.817M19.5613 328.287L17.7997 327.292L16.2177 326.371L14.8193 325.498L13.606 324.646L12.5795 323.789L11.7435 322.902L11.0998 321.958L10.6506 320.932M19.5613 328.287L38.3047 338.817M19.5613 328.287L17.8645 298.629M10.6506 320.932L8.90142 291.422M38.3047 338.817L59.3596 350.646M38.3047 338.817L36.7274 308.95M17.8645 298.629L16.0911 297.654L14.4997 296.752L13.0928 295.896L11.8717 295.061L10.8397 294.222L9.99907 293.353L9.35221 292.428L8.90142 291.422M17.8645 298.629L36.7274 308.95M17.8645 298.629L16.1435 268.542M8.90142 291.422L7.12725 261.488M36.7274 308.95L57.9198 320.545M36.7274 308.95L35.1274 278.647M16.1435 268.542L14.3584 267.588L12.7568 266.705L11.3412 265.867L10.1131 265.05L9.07489 264.228L8.22957 263.378L7.57961 262.472L7.12725 261.488M16.1435 268.542L35.1274 278.647M16.1435 268.542L14.3966 238.017M7.12725 261.488L5.32732 231.12M35.1274 278.647L56.4589 290M35.1274 278.647L33.5032 247.897M14.3966 238.017L12.6006 237.084L10.9889 236.22L9.56392 235.402L8.3288 234.602L7.28427 233.799L6.43432 232.967L5.78121 232.082L5.32732 231.12M14.3966 238.017L33.5032 247.897M14.3966 238.017L12.7732 209.644M5.32732 231.12L3.66091 203.015M33.5032 247.897L54.9762 258.999M33.5032 247.897L31.9923 219.275M12.7732 209.644L10.9678 208.746L9.34754 207.916L7.91553 207.13L6.67336 206.364L5.62415 205.593L4.77106 204.794L4.11561 203.942L3.66091 203.015M12.7732 209.644L14.7599 210.628L16.9083 211.695L19.198 212.836L21.6066 214.039L24.1128 215.294L26.694 216.593L29.3275 217.923L31.9923 219.275M12.7732 209.644L12.6178 206.836L12.5037 204.227L12.4592 201.775L12.5115 199.441L12.6889 197.181L13.0201 194.956L13.5318 192.723L14.2521 190.442M3.66091 203.015L3.50313 200.273L3.38283 197.743L3.32499 195.389L3.35312 193.173L3.48983 191.057L3.76014 189.003L4.18671 186.975L4.79371 184.933M257.614 318.781L257.613 315.768L257.593 312.976L257.535 310.358L257.421 307.87L257.232 305.464L256.95 303.095L256.557 300.717L256.032 298.285M193.874 300.966L194.321 331.049M193.874 300.966L169.141 288.558M194.321 331.049L169.759 318.349M31.9923 219.275L31.847 216.432L31.7423 213.786L31.7072 211.3L31.7681 208.932L31.9548 206.644L32.2947 204.394L32.8165 202.143L33.5477 199.851M31.9923 219.275L42.7397 224.767L45.4443 226.142L48.156 227.509L50.8739 228.867L53.5989 230.21M14.2521 190.442L12.4412 189.607L10.8123 188.85L9.36547 188.152L8.09754 187.495L7.00775 186.862L6.09449 186.236L5.35698 185.598L4.79371 184.933M14.2521 190.442L16.2443 191.366L18.4004 192.377L20.6972 193.468L23.1152 194.631L25.6315 195.858L28.2237 197.142L30.8697 198.476L33.5477 199.851M83.9817 150.052L87.0918 142.971L90.1714 135.073L93.2401 126.818L96.3142 118.668L99.0032 112.086L99.0064 112.078L99.0978 111.854L99.1267 111.785L99.24 111.507L99.2564 111.467L99.4118 111.087L102.547 104.545L105.734 99.5149L108.986 96.4642M83.9817 150.052L86.7441 152.339L89.5246 154.936L92.3182 157.733L95.1205 160.62L97.9275 163.487L100.735 166.224L101.691 167.075M74.1538 131.881L76.2194 129.138M74.1538 131.881L72.4351 133.773M130.592 110.569L125.306 105.569L121.893 102.223L119.096 99.6868L115.684 96.9345M130.592 110.569L131.863 111.685M130.592 110.569L128.114 108.394M115.684 96.9345L112.93 95.4994L109.551 94.2025L106.877 94.2432L104.815 94.7105M115.684 96.9345L112.308 95.7064L111.99 95.7789M103.558 94.9955L100.991 96.4525L97.7439 99.3563L95.2979 101.852L89.787 109.255L84.438 117.368L80.0888 123.858L79.9521 124.061M103.558 94.9955L105.495 94.9258M103.558 94.9955L104.815 94.7105M79.9521 124.061L79.2295 125.139L78.6342 125.93M79.9521 124.061L78.6342 125.93M78.6342 125.93L76.2194 129.138M76.2194 129.138L72.4351 133.773M154.492 112.394L153.794 112.641M153.794 112.641L155.488 111.919M153.794 112.641L152.283 113.175M143.488 115.443L146.929 114.821L150.037 113.967L152.283 113.175M143.488 115.443L143.806 115.421M143.488 115.443L140.21 115.683M140.21 115.683L140.666 115.701M140.21 115.683L137.357 115.565M137.357 115.565L137.377 115.575M137.357 115.565L137.296 115.529M137.508 115.598L137.377 115.575M137.377 115.575L137.405 115.592L137.497 115.644M236.947 610.911L237.634 612.123L238.482 613.219L239.502 614.183L240.705 614.993L242.089 615.633L243.608 616.093L245.204 616.369M173.633 504.914L173.012 474.998M173.633 504.914L150.659 491.027M150.659 491.027L149.872 461.334M150.659 491.027L128.18 477.438M128.18 477.438L127.235 447.967M128.18 477.438L106.18 464.139M106.18 464.139L105.084 434.887M106.18 464.139L84.6427 451.121M84.6427 451.121L83.4028 422.085M84.6427 451.121L63.5557 438.374M63.5557 438.374L62.1768 409.551M173.012 474.998L172.38 444.624M173.012 474.998L149.872 461.334M149.872 461.334L149.074 431.193M149.872 461.334L127.235 447.967M127.235 447.967L126.277 418.056M127.235 447.967L105.084 434.887M105.084 434.887L103.972 405.202M105.084 434.887L83.4028 422.085M83.4028 422.085L82.1442 392.624M83.4028 422.085L62.1768 409.551M62.1768 409.551L60.7783 380.312M172.38 444.624L171.741 413.784M172.38 444.624L149.074 431.193M149.074 431.193L148.264 400.594M149.074 431.193L126.277 418.056M126.277 418.056L125.303 387.695M126.277 418.056L103.972 405.202M103.972 405.202L102.844 375.076M103.972 405.202L82.1442 392.624M82.1442 392.624L80.867 362.729M82.1442 392.624L60.7783 380.312M60.7783 380.312L59.3596 350.646M171.741 413.784L171.091 382.465M171.741 413.784L148.264 400.594M148.264 400.594L147.44 369.526M148.264 400.594L125.303 387.695M125.303 387.695L124.316 356.873M125.303 387.695L102.844 375.076M102.844 375.076L101.698 344.498M102.844 375.076L80.867 362.729M80.867 362.729L79.5717 332.392M80.867 362.729L59.3596 350.646M59.3596 350.646L57.9198 320.545M171.091 382.465L170.43 350.658M171.091 382.465L147.44 369.526M147.44 369.526L146.605 337.977M147.44 369.526L124.316 356.873M124.316 356.873L123.313 325.581M124.316 356.873L101.698 344.498M101.698 344.498L100.535 313.458M101.698 344.498L79.5717 332.392M79.5717 332.392L78.2561 301.601M79.5717 332.392L57.9198 320.545M57.9198 320.545L56.4589 290M170.43 350.658L169.759 318.349M170.43 350.658L146.605 337.977M146.605 337.977L145.757 305.938M146.605 337.977L123.313 325.581M123.313 325.581L122.295 293.806M123.313 325.581L100.535 313.458M100.535 313.458L99.3556 281.946M100.535 313.458L78.2561 301.601M78.2561 301.601L76.9209 270.346M78.2561 301.601L56.4589 290M56.4589 290L54.9762 258.999M169.759 318.349L169.141 288.558M169.759 318.349L145.757 305.938M145.757 305.938L144.963 275.994M145.757 305.938L122.295 293.806M122.295 293.806L121.304 262.907M122.295 293.806L99.3556 281.946M99.3556 281.946L98.2462 252.337M99.3556 281.946L76.9209 270.346M76.9209 270.346L75.6624 240.884M76.9209 270.346L54.9762 258.999M54.9762 258.999L53.5989 230.21M169.141 288.558L169.086 285.69L169.066 283.023L169.109 280.476L169.245 277.966L169.5 275.416L169.906 272.744L170.49 269.868L171.281 266.707M169.141 288.558L166.089 287.022L163.046 285.486L160.012 283.944L156.986 282.393L153.969 280.827L150.959 279.242L147.958 277.633L144.963 275.994M144.963 275.994L144.889 272.984L144.85 270.166L144.875 267.49L144.994 264.908L145.236 262.372L145.629 259.834L146.204 257.244L146.99 254.555M144.963 275.994L141.976 274.326L138.998 272.638L136.027 270.945L133.063 269.263L130.11 267.603L127.165 265.981L124.229 264.411L121.304 262.907M121.304 262.907L121.197 259.417L121.125 256.034L121.115 252.747L121.2 249.54L121.408 246.401L121.771 243.317L122.318 240.273L123.079 237.258M121.304 262.907L118.39 261.478L115.486 260.111L112.591 258.792L109.706 257.504L106.83 256.231L103.961 254.956L101.1 253.663L98.2462 252.337M98.2462 252.337L98.1377 249.299L98.0634 246.38L98.0509 243.482L98.1267 240.502L98.3166 237.341L98.6486 233.898L99.1493 230.07L99.8454 225.758M98.2462 252.337L95.3986 250.966L92.5573 249.557L89.723 248.12L86.895 246.665L81.2623 243.746L78.4584 242.302L75.6624 240.884M75.6624 240.884L75.5374 237.837L75.4499 234.954L75.4272 232.19L75.4999 229.499L75.6944 226.837L76.0405 224.158L76.5663 221.419L77.2998 218.574M75.6624 240.884L72.8757 239.497L70.0985 238.137L67.329 236.801L59.069 232.854L56.3308 231.538L53.5989 230.21M53.5989 230.21L53.4683 227.371L53.3778 224.738L53.3551 222.265L53.4293 219.912L53.6278 217.635L53.9801 215.392L54.5136 213.14L55.2574 210.835M171.281 266.707L172.298 263.216L173.518 259.485L174.908 255.644L176.433 251.82L178.06 248.141L179.756 244.736L181.486 241.732L183.217 239.259M171.281 266.707L168.216 265.253L165.16 263.847L162.113 262.455L159.075 261.043L156.045 259.581L153.022 258.034L150.004 256.37L146.99 254.555M146.99 254.555L148.004 251.737L149.223 248.834L150.613 245.91L152.139 243.03L153.766 240.255L155.46 237.652L157.186 235.282L158.91 233.209M146.99 254.555L143.98 252.572L140.973 250.45L137.972 248.233L134.977 245.966L131.988 243.691L129.009 241.453L126.038 239.294L123.079 237.258M123.079 237.258L124.073 234.267L125.277 231.343L126.656 228.537L128.174 225.9L129.799 223.485L131.493 221.341L133.224 219.522L134.955 218.075M123.079 237.258L120.132 235.377L117.198 233.65L114.276 232.062L111.367 230.6L108.469 229.252L105.584 228.004L102.709 226.844L99.8454 225.758M99.8454 225.758L100.756 220.912L101.86 215.697L103.132 210.336L104.545 205.049L106.068 200.061L107.674 195.595L109.334 191.876L111.019 189.128M99.8454 225.758L96.9931 224.735L94.151 223.766L91.319 222.84L88.4965 221.95L85.684 221.088L82.881 220.243L77.2998 218.574M77.2998 218.574L78.2592 215.586L79.4201 212.451L80.7467 209.174L82.2021 205.759L85.3582 198.533L86.9879 194.729L88.6059 190.803M77.2998 218.574L74.5218 217.732L71.7508 216.873L68.9876 215.988L66.2306 215.067L63.4798 214.101L60.7338 213.079L57.9933 211.994L55.2574 210.835M55.2574 210.835L56.2277 208.447L57.4019 205.991L58.7432 203.493L60.219 200.981L61.794 198.481L63.4322 196.019L65.1001 193.621L66.7634 191.315M55.2574 210.835L52.5247 209.598L49.7966 208.292L47.0732 206.934L44.3545 205.537L41.6421 204.116L36.2383 201.258L33.5477 199.851M33.5477 199.851L34.5063 197.492L35.6696 195.095L37.0024 192.703L38.4726 190.361L40.0445 188.111L41.6858 185.996L43.3624 184.06L45.0405 182.345M225.548 607.402L227.607 608.71L229.083 609.637L230.975 610.815L232.734 611.859L234.392 612.768L235.931 613.524L237.502 614.278L239.031 614.883L240.605 615.425L242.1 615.843L243.708 616.163L245.204 616.369M198.624 226.789L196.254 229.365L194.076 231.273L192.057 232.699L190.165 233.835L188.367 234.87L186.631 235.991L184.925 237.391L183.217 239.259M198.624 226.789L201.207 223.399L203.987 219.224L206.934 214.337L210.021 208.812L213.219 202.718L216.5 196.129L219.835 189.116L223.197 181.751M198.624 226.789L195.546 226.426L192.477 226.021L189.418 225.521L186.365 224.87L183.32 224.014L180.279 222.898L177.242 221.468L174.206 219.671M183.217 239.259L180.139 238.184L177.073 237.295L174.02 236.544L170.978 235.883L167.948 235.265L164.927 234.645L161.914 233.975L158.91 233.209M223.197 181.751L223.4 181.29L226.563 174.147L229.93 166.59L233.299 159.412L236.672 152.943L240.048 147.519L243.424 143.473L246.8 141.137L250.17 140.838M223.197 181.751L220.086 181.958L216.997 183.28L213.926 185.236L210.87 187.347L207.825 189.141L204.784 190.15L201.739 189.908L198.682 187.953M174.206 219.671L171.851 222.117L169.688 224.118L167.684 225.789L165.806 227.245L164.023 228.599L162.301 229.968L160.607 231.467L158.91 233.209M174.206 219.671L176.776 216.7L179.543 213.262L182.477 209.448L185.552 205.352L188.738 201.062L192.007 196.671L195.331 192.271L198.682 187.953M174.206 219.671L171.17 217.479L168.136 214.983L165.104 212.298L162.078 209.539L159.059 206.822L156.05 204.262L153.055 201.974L150.076 200.074M158.91 233.209L155.911 232.302L152.918 231.206L149.927 229.876L146.937 228.264L143.948 226.324L140.955 224.011L137.959 221.277L134.955 218.075M198.682 187.953L202.035 183.8L205.387 179.868L208.736 176.202L212.083 172.849L215.427 169.858L219.462 166.57L220.805 165.059L221.456 164.185M198.682 187.953L195.604 183.99L192.507 178.39L189.396 171.698L183.19 157.277L183.158 157.201L180.048 150.49L176.96 144.868L173.905 140.888M150.076 200.074L147.8 205.277L145.694 209.128L143.726 211.883L141.868 213.794L140.091 215.116L138.366 216.101L136.663 217.004L134.955 218.075M150.076 200.074L152.544 193.381L155.196 185.543L158.014 177.027L160.979 168.303L164.072 159.848L167.273 152.139L170.559 145.658L173.905 140.888M150.076 200.074L147.117 198.63L144.175 197.535L141.246 196.638L138.328 195.79L135.416 194.84L132.506 193.639L129.592 192.04L126.668 189.895M134.955 218.075L131.943 214.398L128.927 210.383L125.91 206.209L122.897 202.051L119.897 198.087L116.911 194.494L113.951 191.45L111.019 189.128M173.905 140.888L177.29 138.135L180.696 137.009L184.11 136.941L187.522 137.368L190.92 137.728L194.299 137.463L197.65 136.019L200.972 132.84M173.905 140.888L170.895 138.952L167.931 138.866L165.007 140.287L162.121 142.869L159.267 146.273L156.439 150.158L153.629 154.189L150.831 158.036M126.668 189.895L124.257 189.711L122.028 189.087L119.959 188.254L118.019 187.446L116.183 186.894L114.422 186.834L112.709 187.5L111.019 189.128M126.668 189.895L129.284 189.429L132.077 188.182L135.019 186.043L138.074 182.902L141.214 178.647L144.406 173.162L147.622 166.331L150.831 158.036M126.668 189.895L123.733 187.118L120.789 183.875L117.843 180.394L114.901 176.899L111.971 173.619L109.062 170.78L106.182 168.609L103.34 167.331M111.019 189.128L108.124 187.656L105.264 186.942L102.435 186.847L99.6329 187.233L96.8541 187.959L94.0924 188.887L91.3448 189.881L88.6059 190.803M150.831 158.036L148.036 161.435L145.243 164.362L142.452 166.857L139.664 168.957L136.877 170.701L134.095 172.123L133.979 172.166L133.57 172.316L133.552 172.323L132.6 172.676L132.54 172.698L132.535 172.7L131.759 172.987L131.585 173.051M150.831 158.036L154.012 148.275L157.176 137.531L160.338 126.42L160.853 124.659L160.856 124.644L163.512 115.56L166.709 105.583L169.942 97.1228L173.218 90.8214M103.34 167.331L100.959 168.166L98.8095 169.89L96.8557 172.358L95.2494 175.096L95.2463 175.101L95.1776 175.219L95.0557 175.426L93.3721 178.948L91.7628 182.781L88.6059 190.803M103.34 167.331L105.979 167.455M103.34 167.331L100.544 167.094M88.6059 190.803L85.8692 191.542L83.1348 192.081L80.4029 192.422L77.6725 192.571L74.9436 192.53L72.2156 192.304L69.4891 191.898L66.7634 191.315M109.728 168.726L111.896 169.69L115.493 171.417L119.416 173.032L122.854 173.992M109.728 168.726L108.844 168.334L105.979 167.455M109.728 168.726L112.939 166.318L116.212 163.532L119.472 160.5L122.721 157.295L125.961 153.988L129.196 150.651L132.427 147.357M105.979 167.455L103.176 167.05L101.691 167.075M101.691 167.075L100.544 167.094M100.544 167.094L97.79 167.751L95.4228 168.886L92.7081 170.27L90.0206 172.059L87.3528 174.047L84.3856 176.233L81.7982 177.933L80.6271 178.536M66.7634 191.315L68.3985 189.123L70.0305 187.061L71.6945 185.143L73.4265 183.383L75.2624 181.792L77.2366 180.385L79.3849 179.176L80.5662 178.567L80.6271 178.536M66.7634 191.315L64.0377 190.562L61.3135 189.658L58.5917 188.628L55.8722 187.492L53.1567 186.273L50.4458 184.995L47.7396 183.678L45.0405 182.345M483.159 177.773L485.125 177.158L486.914 176.601L488.549 176.119L490.053 175.73L491.448 175.451L492.755 175.3L493.995 175.294L495.19 175.45M495.19 175.45L493.773 174.11L493.258 173.694M495.19 175.45L495.981 175.678M405.867 162.327L403.768 159.339L399.382 152.065L399.186 151.711M399.186 151.711L399.092 151.54M399.092 151.54L398.699 150.829M398.699 150.829L396.505 146.854L395.433 144.866M398.699 150.829L395.433 144.866M384.638 126.049L381.506 121.718L378.352 118.321L375.401 115.193L374.017 113.854M384.638 126.049L382.006 123.551M374.017 113.854L373.971 113.809L373.566 113.417M374.017 113.854L371.004 104.716M373.566 113.417L373.565 113.415M373.566 113.417L371.004 104.716M373.565 113.415L372.696 112.575M373.565 113.415L371.004 104.716M371.877 111.768L372.238 112.132L372.696 112.575M371.877 111.768L371.389 111.276L369.387 108.755L368.443 105.955L365.622 98.1282L362.754 91.3854L359.826 86.3746L356.825 83.7528L353.744 84.1731M371.877 111.768L371.016 108.352L370.275 105.231M353.744 84.1731L350.579 88.0214L347.351 94.6088L344.088 102.977L343.647 104.216L343.644 104.225L343.643 104.227L343.63 104.261L343.626 104.273L343.602 104.34L343.601 104.344L343.594 104.361L343.587 104.384L343.582 104.397L343.578 104.408L343.573 104.42L343.529 104.546L343.525 104.555L342.264 108.094L342.253 108.124L341.384 110.56L341.378 110.577L341.374 110.589L340.81 112.17L337.538 121.239L334.289 129.242L331.076 135.251L327.911 138.33M353.744 84.1731L350.795 72.4984L347.877 59.0229L344.965 44.881L342.032 31.2274L339.059 19.2355L336.027 10.0959L332.923 4.99994L329.735 5.12493M327.911 138.33L324.836 132.924L321.762 127.642L318.685 122.744L315.603 118.493L313.622 116.351M327.911 138.33L324.797 137.857L323.193 136.085L321.799 133.181L318.729 126.641L315.628 120.163L314.058 117.18L313.911 116.899L313.622 116.351M327.697 175.733L324.629 166.388L321.578 155.753L318.529 144.553L315.473 133.52L312.4 123.398L309.302 114.936L306.174 108.89L303.014 106.009M327.697 175.733L330.791 183.24L333.887 189.031L336.958 193.392L338.082 194.591L342.109 197.727L346.577 200.91M349.635 202.854L346.577 200.91M303.014 106.009L299.824 106.779L296.568 110.029L293.363 114.22L292.992 114.925L292.942 115.018L290.084 120.443L286.89 126.551L284.387 131.94L284.326 132.072M303.014 106.009L299.76 108.79L296.471 114.573L293.163 122.443L289.846 131.487L286.531 140.795L283.224 149.468L279.927 156.615L279.666 156.992L279.604 157.082L279.449 157.305L276.643 161.349M303.014 106.009L304.834 106.468M276.643 161.349L275.751 161.81L275.739 161.805M276.643 161.349L275.739 161.805M250.17 140.838L253.531 142.723L256.48 145.339L256.486 145.344L256.553 145.404M250.17 140.838L247.019 140.138L244.541 140.312M329.735 5.12493L332.915 2L335.156 2.01813M329.735 5.12493L326.463 11.1506L323.222 18.2879L316.654 38.3023L310.219 60.8385L310.108 61.226L305.08 78.581M329.735 5.12493L326.481 12.499L323.174 23.4519L319.833 37.0578L316.479 52.3949L309.786 84.6465L306.471 99.8024L304.834 106.468M313.622 116.351L312.521 114.258L309.372 110.174L306.22 106.817L304.834 106.468M284.326 132.072L281.621 130.923L278.632 126.442M284.326 132.072L281.157 138.896M281.157 138.896L280.446 140.427L279.702 141.858M281.157 138.896L279.702 141.858M279.702 141.858L276.523 147.979L272.901 153.704L270.301 156.539M275.739 161.805L273.689 160.955L273.287 160.673L273.277 160.665L272.981 160.458L272.97 160.45L269.822 158.241L269.781 158.204L269.429 157.876L269.404 157.853L269.324 157.778L269.256 157.715L269.238 157.699M269.238 157.699L269.218 157.68L269.115 157.584L269.022 157.498L268.906 157.389M269.238 157.699L269.274 157.66L269.631 157.27L269.719 157.175L269.972 156.898M268.906 157.389L268.735 157.231M268.906 157.389L269.324 157.197M268.735 157.231L265.235 153.979L262.21 150.789M268.735 157.231L269.324 157.197M262.21 150.789L260.032 148.491L256.731 145.562M262.21 150.789L262.874 150.507L266.027 147.513L269.177 143.238L272.329 138.054L275.48 132.332L278.632 126.442M256.731 145.562L256.614 145.458L256.553 145.404M256.731 145.562L256.351 144.963M256.553 145.404L256.141 144.632M244.541 140.312L243.649 140.374L243.239 140.567L243.204 140.584L240.517 141.844L237.148 144.255L234.04 147.406L230.678 151.543L227.599 155.608L224.469 160.141L221.456 164.185M244.541 140.312L242.618 133.538L239.534 122.282L236.445 111.425L233.358 101.795L230.28 94.2283L227.726 90.3316L227.721 90.3237L227.693 90.2816L227.221 89.5605M371.004 104.716L368.793 97.2095M368.793 97.2095L368.032 94.626L367.913 94.1822M368.793 97.2095L367.913 94.1822M367.913 94.1822L365.063 83.5754M365.063 83.5754L365.297 84.4981L366.287 88.5886L366.306 88.6699L368.163 96.3384L370.275 105.231M365.063 83.5754L361.739 70.4515M362.554 73.746L361.739 70.4515M361.739 70.4515L356.889 50.8504L354.082 40.1288L351.112 30.2603L348.239 20.7847L345.36 13.5224L345.301 13.3755L342.225 7.52253L339.202 3.07733L336.103 2.02578L335.156 2.01813M305.08 78.581L304.912 79.1623L304.858 79.3474L304.848 79.3818L304.307 81.2474L304.245 81.4614L303.543 83.4037M305.08 78.581L304.901 79.142M278.632 126.442L281.781 120.716L284.926 115.302L288.067 110.308L291.201 105.841L294.326 102.006L298.278 97.8611L298.78 96.9205L298.852 96.7853M278.632 126.442L275.663 118.333L275.547 117.904L272.704 107.369L269.745 94.626L266.78 81.1958L263.806 68.1867L260.821 56.7253L257.83 47.9528L254.837 43.0139M254.837 43.0139L251.851 42.6787L248.88 46.263L245.93 52.709L243.004 60.9666L242.262 63.2744L242.243 63.3329L240.183 69.7398L240.1 69.9984M254.837 43.0139L258.012 34.4477L261.187 28.0424L264.358 23.6722L267.52 21.2027L270.67 20.4972L273.805 21.4152L276.922 23.812L278.285 25.454M254.837 43.0139L251.667 53.7324L248.505 66.0813L245.354 79.4162L242.212 93.101L239.081 106.513L238.991 106.872M255.2 142.793L255.482 143.396L256.141 144.632M255.2 142.793L256.351 144.963M255.2 142.793L249.56 130.711L243.25 115.932L239.531 108.019L239.515 107.984L239.512 107.978L239.013 106.917L238.991 106.872M238.991 106.872L236.989 102.61L236.903 102.428L233.592 96.8705L233.149 96.2673L232.637 95.5728L230.871 93.1744M230.871 93.1744L230.541 92.7252L230.424 92.6143M230.871 93.1744L231.488 91.7018M230.424 92.6143L231.488 91.7018M230.424 92.6143L228.02 90.3222L228.01 90.3128L227.979 90.2831L227.221 89.5605M227.221 89.5605L224.19 88.3816L220.873 87.78L218.986 88.2238M227.221 89.5605L223.91 89.848L223.505 90.2487L223.477 90.2769L223.474 90.28L220.614 93.1104L217.332 98.5954L214.061 105.542L210.798 113.192L207.534 120.791L204.263 127.589L200.972 132.84M218.986 88.2238L214.551 89.2667L209.43 90.8862L209.326 90.919L208.241 91.262L206.78 91.3971L206.763 91.3979L201.921 91.844L195.575 90.3792L189.207 87.6605L186.84 86.9386M218.986 88.2238L217.139 86.0637L214.273 82.9333L211.421 80.7044L211.163 80.6232M186.84 86.9386L182.846 85.7199L180.062 86.3918M186.84 86.9386L186.093 85.6504L183.238 83.0903M180.062 86.3918L179.476 86.5332M180.062 86.3918L180.079 86.3715L183.238 83.0903M179.476 86.5332L182.469 88.6535L185.507 93.1549L187.705 97.7048L187.713 97.7204L188.577 99.5095L191.668 107.185L194.77 115.65L197.874 124.376L200.972 132.84M179.476 86.5332L176.544 87.3152L173.218 90.8214M173.218 90.8214L170.359 94.6408L167.092 100.913L164.306 107.087L161.566 114.05M161.566 114.05L161.088 115.263L159.137 120.456M161.566 114.05L161.204 114.617L158.048 119.29M159.137 120.456L158.048 119.29M159.137 120.456L158.357 122.535L157.224 125.606L157.12 125.889L157.111 125.912L152.645 138.025M152.645 138.025L155.169 131.401M152.645 138.025L152.385 138.707M200.972 132.84L204.06 140.591L207.138 147.45L210.206 153.304L213.265 158.041L216.316 161.548L219.361 163.707L221.456 164.185M304.901 79.142L304.844 79.3224L304.833 79.3552L304.248 81.1888L304.196 81.3544L301.384 90.1784L300.152 93.3932L300.104 93.5182L299.821 94.2564M304.901 79.142L304.256 77.8605M294.182 56.3831L295.117 58.5292M294.182 56.3831L298.102 65.0196L301.185 71.7585L304.256 77.8605M294.182 56.3831L289.175 44.8865L286.145 38.3015L283.093 32.4438M283.093 32.4438L280.126 27.019L277.044 22.0761M283.093 32.4438L280.019 27.5416M277.044 22.0761L273.941 18.5949M277.044 22.0761L280.019 27.5416M273.941 18.5949L270.817 16.6918L267.823 15.5263M273.941 18.5949L270.951 16.7153L267.823 15.5263M280.019 27.5416L280.736 29.6645M280.019 27.5416L278.285 25.454M299.821 94.2564L297.615 90.7714L294.674 82.4364L291.753 71.639L288.836 59.5526L285.911 47.3669L282.974 36.2891L280.736 29.6645M299.821 94.2564L298.852 96.7853M240.1 69.9984L238.28 75.5092M240.1 69.9984L240.177 69.7555L242.037 63.9384L242.205 63.4087L242.233 63.3251L242.411 62.7666M261.528 18.6145L264.681 16.1622L267.42 15.6078M261.528 18.6145L258.539 22.4144L255.386 27.6494M261.528 18.6145L258.367 22.8698L255.386 27.6494M267.823 15.5263L267.42 15.6078M252.23 34.5219L255.386 27.6494M252.23 34.5219L249.077 42.9147L246.137 51.1059M252.23 34.5219L249.277 42.2694L246.137 51.1059M238.28 75.5092L237.064 79.1927L234.349 86.3496L232.396 90.0011L232.373 90.0456L232.37 90.0495L231.488 91.7018M238.28 75.5092L240.058 70.0258M242.411 62.7666L242.226 63.3353M242.411 62.7666L246.137 51.1059M231.488 91.7018L232.116 90.0745L232.12 90.0644L232.131 90.037L234.579 83.702L237.673 75.4553L240.769 67.4047L241.473 65.6602M152.385 138.707L149.281 146.852L147.065 151.641L146.995 151.793M152.385 138.707L146.998 151.785M146.995 151.793L146.212 153.487M146.995 151.793L146.998 151.785M146.212 153.487L146.169 153.568M146.212 153.487L143.369 159.63L141.072 163.051M141.072 163.051L140.148 164.426M141.072 163.051L141.951 161.414M140.148 164.426L139.39 165.317M140.148 164.426L137.389 168.534L136.038 169.586L135.566 169.952L135.204 170.234M135.204 170.234L133.725 171.385M135.204 170.234L136.262 168.992M133.725 171.385L133.164 171.684M133.725 171.385L132.126 172.63L132.089 172.659L131.585 173.051M131.585 173.051L130.759 173.356L130.682 173.384M128.064 174.351L128.009 174.374H128.003M128.064 174.351L129.077 173.978L130.066 173.612L130.682 173.384M128.064 174.351L128.003 174.374M128.003 174.374L127.784 174.38M127.784 174.38L127.628 174.369L126.206 174.256M127.784 174.38L125.246 174.453L125.188 174.455L125.121 174.457L124.575 174.473L124.457 174.44L123.664 174.218L122.854 173.992M122.854 173.992L126.206 174.256M130.682 173.384L130.336 173.451L130.195 173.48L129.567 173.601M239.762 67.6414L236.37 72.507M239.762 67.6414L242.226 63.3353M239.762 67.6414L238.116 70.5164M236.37 72.507L235.257 74.1038L232.686 76.6498M236.37 72.507L232.686 76.6498M232.686 76.6498L232.29 77.0428L227.595 80.199M227.595 80.199L226.47 80.9544L225.075 81.2419M227.595 80.199L225.075 81.2419M225.075 81.2419L221.666 81.9442M221.666 81.9442L220.523 82.1794L219.591 82.0559M221.666 81.9442L219.591 82.0559M219.591 82.0559L214.561 81.388L211.163 80.6232M211.163 80.6232L205.436 78.8302L202.272 77.924L199.102 77.3982L195.928 77.3287L192.753 77.7889M192.753 77.7889L189.949 78.2107L186.775 79.2295L183.604 80.9388L180.438 83.3958M192.753 77.7889L189.578 78.8529L186.405 80.5958L183.238 83.0903M180.438 83.3958L174.89 88.8956L174.537 89.2456L171.388 92.8963L168.242 96.9376L162.738 103.957L159.239 108.065L155.488 111.919M180.438 83.3958L183.238 83.0903M158.048 119.29L155.232 117.452L152.447 116.674L149.69 116.706L147.462 117.052M158.048 119.29L154.88 123.575L152.068 127.049L152.026 127.101L151.985 127.152L151.958 127.185L151.924 127.228L151.7 127.504L148.508 131.143L145.307 134.561L142.096 137.823L138.878 140.999L135.654 144.155L132.427 147.357M132.427 147.357L135.343 153.113L138.23 157.727L141.087 161.054L141.851 161.567M132.427 147.357L129.483 140.64L129.441 140.534L126.521 133.288L123.55 125.667L123.45 125.41L120.582 118.143L117.629 111.089L117.608 111.046L117.605 111.04L117.604 111.038L117.597 111.021L115.869 107.355L115.867 107.349L115.857 107.327L114.701 104.875L111.816 99.8758L108.986 96.4642M141.851 161.567L141.951 161.414M141.851 161.567L139.39 165.317M108.986 96.4642L108.458 96.1647M108.986 96.4642L111.99 95.7789M155.488 111.919L155.47 111.937L151.361 115.153L147.476 117.045M147.476 117.045L147.462 117.052M147.476 117.045L147.453 117.054M147.462 117.052L147.453 117.054M147.453 117.054L145.815 117.308M145.815 117.308L143.7 117.637L142.717 117.335M145.815 117.308L142.717 117.335M142.717 117.335L137.816 115.826L137.497 115.644M137.296 115.529L134.298 113.821L131.863 111.685M137.296 115.529L131.863 111.685M248.333 616.424L246.816 616.452L245.204 616.369M248.333 616.424L249.918 616.272L251.428 616.008L253.011 615.643M126.206 174.256L129.258 173.662M129.567 173.601L129.258 173.662M129.567 173.601L129.774 173.491M129.258 173.662L129.774 173.491M129.774 173.491L133.164 171.684M133.164 171.684L136.262 168.992M136.262 168.992L139.39 165.317M141.951 161.414L146.169 153.568M146.169 153.568L146.998 151.785M242.226 63.3353L242.197 63.4267M242.197 63.4267L241.03 65.8227L240.987 65.9118M242.197 63.4267L241.473 65.6602M241.473 65.6602L241.386 65.929L240.058 70.0258M240.058 70.0258L237.447 77.5358M256.141 144.632L256.351 144.963M269.972 156.898L269.583 157.078M269.972 156.898L270.301 156.539M269.583 157.078L269.324 157.197M269.583 157.078L270.301 156.539M298.852 96.7853L298.793 96.9392M152.283 113.175L150.2 114.8L146.3 116.7L144.7 116.9L142.6 117.2L141.6 116.9L137.497 115.644M152.283 113.175L154.3 111.6L158.1 107.7L161.6 103.6L167.1 96.6L170.2 92.6L173.4 88.9L173.8 88.6L179.3 83.1L182.5 80.6L185.7 78.9L188.9 77.9L191.7 77.5L194.9 77L198.1 77.1L201.3 77.6L204.5 78.5L210.2 80.3L213.6 81.1L218.6 81.8L219.5 81.9L220.6 81.7L224 81L226.5 80L231.2 76.9L231.6 76.5L235.3 72.4L238.7 67.5L241.2 63.2L241.4 62.6L245.1 50.9L248 42.7L251.2 34.3L254.4 27.4L257.6 22.2L260.6 18.4L263.8 16L266.9 15.4L267.42 15.6078M137.497 115.644L136.7 115.4L136.3 115.2H136.2L133.2 113.5L130.8 111.4L129.5 110.3L124.2 105.3L120.8 102L118 99.5L114.6 96.7L111.99 95.7789M304.256 77.8605L304.1 78.4L303.9 79L300.2 71.6L297.1 64.9L293.2 56.3L288.2 44.8L285.2 38.2L282.2 32.3L280.736 29.6645M304.256 77.8605L309.1 61.1L309.2 60.7L315.6 38.2L322.2 18.2L325.4 11.1L328.7 5.1L331.9 2H335.1L335.156 2.01813M280.736 29.6645L279.2 26.9L278.285 25.454M267.42 15.6078L269.9 16.6L273 18.5L276.1 22L278.285 25.454M335.156 2.01813L338.2 3L341.2 7.5L344.3 13.3L344.4 13.5L347.3 20.8L350.2 30.3L353.2 40.2L356 50.9L360.8 70.5L364.1 83.6L367 94.2L367.1 94.6L367.9 97.2L370.1 104.7L370.275 105.231M370.275 105.231L372.696 112.575M372.696 112.575L373.1 113.8L374.5 115.1L377.5 118.2L380.6 121.6L382.006 123.551M382.006 123.551L383.7 125.9L384.1 126.6L384.9 126.8L385.132 126.846M385.132 126.846L387.9 127.4L390.9 127.8L396.9 128.4L401.3 128.8L404.4 129.2L407.5 129.7L410.6 130.4L413.7 131.2L416.8 132.2L419.9 133.4L423 134.7L426.1 136.2L429.2 137.8L432.3 139.6L436.8 142.3L439.9 144.2L443 146.2L449.2 150.3L455.4 154.3L458.5 156.2L461.7 158L464.8 159.7L467.9 161.3L470.9 162.8L473.8 164.2L476.6 165.5L479.2 166.7L481.6 167.8L483.8 168.8L485.8 169.7L487.7 170.6L489.1 171.3L490.8 172.2L492.4 173.1L493.258 173.694M493.258 173.694L493.7 174L495.1 175L495.981 175.678M495.981 175.678L496.4 176L497.5 177L498.6 178.1L499.6 179.3L500.5 180.4L501.3 181.5L502.1 182.8L502.7 183.8L503.4 185.3L504 186.9L504.3 187.9L504.8 189.6L504.927 190.364M504.927 190.364L505.1 191.4L505.2 192.4L505.4 194.3L506.3 196.4V198.5L506.2 200.8V201.9L506.1 204.4L506 207.2L505.931 208.346M505.931 208.346L504.3 235.4L500.7 295.9L490.7 465L490.6 467.4L490.5 469.6L490.3 471.6L490.1 473.4L489.9 474.7L489.8 475.1L489.5 476.4L489.1 477.9L488.6 479.1L488 480.5L487.3 481.8L486.6 482.9L485.6 484.2L484.7 485.2L483.6 486.4L482.6 487.3L481.3 488.3L480.1 489.2L478.8 490.1L475.8 491.9L474.1 492.9L472.2 493.9L385.5 542.6L386.9 541.7L388.2 540.7L388.267 540.633M388.267 540.633L389.4 539.5L390.4 538.3L367.303 551.286M367.303 551.286L367.1 551.4L366.1 552.6L364.9 553.7L363.6 554.7L362.2 555.6L266.7 609.3L264.5 610.5L262.5 611.6L260.6 612.6L259.1 613.3L257.3 614.1L255.6 614.8L254 615.3L252.5 615.8L250.9 616.2L249.4 616.5L247.8 616.6H246.3L244.7 616.5L243.2 616.3L241.6 616L240.1 615.6L238.5 615.1L237 614.5L235.4 613.7L233.9 612.9L232.2 612L230.4 611L228.5 609.8L227 608.9L224.9 607.6L203.5 594L180.5 579.3L114.2 537L93 523.5L72.2 510.3L51.9 497.3L50.5 496.2L49.2 495L48.1 493.7L30 482.2L28.3 481.1L26.8 480.1L25.4 479.1L24.2 478.2L23.2 477.3L22.3 476.3L21.6 475.3L20.8 474L20.3 472.9L19.7 471.5L19.2 470L18.9 468.8L18.6 467.1L18.4 465.3L18.2 463.3L18 461.1L17.9 458.7L9.6 319.7L9.9 320.8L8.1 291.3L7.8 290.2L4.2 230L2.5 201.9L2.3 199.2L2.2 198.1L2.1 195.6L2 193.3V191.1L2.1 189.1L2.2 188.1L2.4 186.2L2.7 184.4L2.9 183.4L3.3 181.8L3.9 180.1L4.7 178.4L5.1 177.5L5.8 176.2L6.5 175.2L7.3 174.2L8.3 173L9.5 171.7L10.5 170.7L11.8 169.5L12.9 168.6L14.3 167.4L15.8 166.2L17 165.4L18.7 164.3L20.5 163.2L22.4 162.1L23.6 161.4L25.7 160.3L28 159.2L30.5 158.1L34.5 156.4L37.4 155.1L40.4 153.8L44.8 151.8L48 150.3L52.5 148L56.7 145.7L57.1 145.5L58.1 144.9L61.2 142.8L61.8 142.4L66.3 138.8L66.6 138.6L71.4 133.8L73.1 131.9L75.2 129.2L77.6 126L78.9 124.1L79 123.9L83.3 117.4L88.7 109.3L94.2 101.9L96.7 99.4L99.9 96.5L102.4 94.8L104.815 94.7105M104.815 94.7105L105.1 94.7L105.495 94.9258M105.495 94.9258L106.228 94.8994L108.458 96.1647M105.495 94.9258L107.9 96.3L108.458 96.1647M108.458 96.1647L111.2 95.5L111.99 95.7789" stroke="black" stroke-opacity="0.5" stroke-width="3" stroke-linecap="round" stroke-linejoin="round"/>
</svg>
