<svg width="640" height="656" viewBox="0 0 640 656" fill="none" xmlns="http://www.w3.org/2000/svg">
<path d="M611.53 73.8617C649.937 112.376 639.495 176.979 624.109 224.539C589.452 327.504 513.173 424.271 436.65 496.777C375.124 554.125 305.982 604.723 228.526 635.01C190.717 649.102 149.323 659.509 109.304 650.826C92.3967 646.969 75.9781 638.524 64.2235 624.956C50.7119 609.017 38.2329 591.84 28.7513 572.902C-67.885 377.711 116.721 147.291 272.882 55.0853C323.406 25.1974 379.87 3.66936 438.271 2.10783C495.804 0.355879 554.994 19.951 597.937 60.9601C592.497 56.2553 586.747 51.96 580.731 48.1061M599.531 232.004C604.965 237.098 610.398 242.697 615.597 248.076M628.275 210.876C623.104 205.563 617.679 200.031 612.228 195.032C608.608 207.592 604.355 219.939 599.486 232.023M581.727 216.874C587.777 221.568 593.88 226.758 599.495 232.013C588.411 259.569 574.501 286.153 559.187 311.346C553.626 305.853 547.641 300.321 541.763 295.208M619.744 160.745C617.951 172.332 615.437 183.782 612.219 195.022C606.521 189.813 600.569 184.918 594.387 180.359M594.387 180.359C590.78 192.758 586.547 204.948 581.709 216.874M594.387 180.359C597.603 169.264 600.117 157.956 601.913 146.51M594.387 180.359C588.13 175.741 581.347 171.266 574.682 167.324M562.175 203.078C568.777 207.315 575.497 212.047 581.718 216.884C576.493 229.814 570.389 243.02 564.077 255.398M574.673 167.324C571.111 179.463 566.939 191.395 562.175 203.068M544.842 240.764C551.055 228.643 557.059 215.713 562.202 203.049C555.483 198.736 548.274 194.537 541.229 190.833C545.882 179.484 549.965 167.887 553.463 156.089C560.6 159.412 567.908 163.24 574.709 167.267C577.88 156.402 580.373 145.331 582.171 134.123M519.196 180.436C526.558 183.53 534.129 187.101 541.229 190.843C536.194 203.135 530.362 215.684 524.276 227.462M560.808 123.964C559.024 134.845 556.567 145.592 553.454 156.137C546.21 152.785 538.548 149.662 531.059 147.034C527.665 158.381 523.702 169.531 519.187 180.436M496.547 172.019C504.099 174.456 511.942 177.341 519.232 180.426C514.36 192.252 508.691 204.344 502.832 215.656M538.277 116.032C536.531 126.511 534.134 136.857 531.104 147.006C523.606 144.368 515.655 142.016 507.957 140.131C504.682 150.956 500.87 161.593 496.538 171.999M496.538 171.999C489.094 169.61 481.215 167.458 473.599 165.744M496.538 171.999C491.856 183.273 486.422 194.851 480.816 205.61M514.903 110.576C513.191 120.562 510.871 130.421 507.957 140.093C500.314 138.236 492.254 136.675 484.475 135.589C481.353 145.82 477.726 155.873 473.608 165.706M450.841 161.707C458.376 162.659 466.236 164.04 473.617 165.706C469.17 176.36 464 187.253 458.684 197.469M450.841 161.707C443.578 160.793 435.953 160.202 428.636 160.031M450.841 161.707C446.648 171.685 441.785 181.883 436.795 191.433M491.14 107.653C489.487 117.108 487.26 126.443 484.475 135.599C476.832 134.523 468.799 133.799 461.083 133.523C458.128 143.101 454.703 152.511 450.823 161.716M467.414 107.339C465.837 116.195 463.72 124.935 461.074 133.504C453.445 133.233 445.807 133.366 438.19 133.904C435.431 142.785 432.236 151.508 428.618 160.041M407.4 160.707C414.46 160.095 421.545 159.872 428.627 160.041C424.724 169.276 420.205 178.722 415.559 187.577M444.131 109.643C442.644 117.855 440.662 125.957 438.199 133.904C430.829 134.441 423.492 135.395 416.22 136.76C413.664 144.898 410.717 152.894 407.391 160.717M407.391 160.717C400.7 161.31 394.048 162.311 387.467 163.716M407.391 160.717C403.768 169.181 399.639 177.855 395.364 185.948M421.735 114.537C420.351 122.07 418.511 129.502 416.229 136.789C409.25 138.117 402.35 139.868 395.564 142.035C393.234 149.412 390.547 156.658 387.513 163.744M376.582 186.605C380.458 179.264 384.244 171.419 387.513 163.754C381.342 165.084 375.261 166.84 369.31 169.01C372.032 162.664 374.45 156.178 376.555 149.576C382.736 146.643 389.088 144.124 395.573 142.035C397.651 135.427 399.335 128.688 400.617 121.859M353.109 176.417C358.329 173.525 363.748 171.045 369.319 169C366.385 175.865 362.98 182.873 359.512 189.452M381.128 131.495C379.973 137.617 378.461 143.659 376.6 149.586C370.717 152.396 365.028 155.634 359.575 159.279C357.71 165.101 355.571 170.821 353.163 176.417M353.163 176.417C348.275 179.14 343.616 182.293 339.235 185.844M353.163 176.417C350.573 182.473 347.567 188.653 344.488 194.451M363.65 143.283C362.61 148.688 361.255 154.02 359.593 159.25C354.354 162.743 349.38 166.655 344.714 170.952C343.12 175.96 341.173 181.073 339.109 185.882M327.689 197.127C331.157 193.01 334.984 189.242 339.118 185.872C336.854 191.138 334.246 196.517 331.556 201.554M348.282 157.041C347.369 161.748 346.179 166.39 344.723 170.943C340.301 175.05 336.212 179.538 332.498 184.358C331.139 188.634 329.455 193.013 327.698 197.127M318.941 210.019C321.44 205.427 324.374 201.11 327.698 197.136C325.751 201.63 323.523 206.239 321.223 210.552M335.559 172.466C334.774 176.503 333.752 180.484 332.498 184.387C328.917 189.056 325.732 194.046 322.98 199.298C321.821 202.897 320.417 206.582 318.932 210.047M316.65 214.522L316.523 214.827C316.36 215.237 316.161 215.713 315.989 216.122M316.849 213.97L316.396 215.141M316.967 213.589L316.586 214.656M317.012 213.37C317.012 213.37 316.659 214.465 316.641 214.503M316.378 215.237C316.413 215.17 316.444 215.099 316.469 215.027C317.148 213.523 318.153 211.495 318.941 210.038C318.117 211.942 317.13 214.123 316.224 215.979C315.409 217.655 314.413 219.664 313.507 221.311M325.579 189.252C324.912 192.649 324.045 195.997 322.98 199.279C320.639 203.804 318.64 208.515 317.003 213.37M635.773 176.36C630.62 171.114 625.223 165.639 619.771 160.726M622.026 129.696C622.094 140.083 621.343 150.459 619.78 160.717C614.084 155.621 608.116 150.87 601.904 146.491M604.204 115.88C604.237 126.134 603.464 136.372 601.895 146.491C595.522 141.994 588.923 137.862 582.126 134.113M584.489 104.149C584.489 114.189 583.701 124.211 582.135 134.113C575.187 130.324 568.056 126.917 560.772 123.906M563.153 94.828C563.119 104.577 562.317 114.307 560.754 123.916C553.367 120.88 545.837 118.242 538.195 116.013M538.195 116.013C539.73 106.765 540.536 97.3986 540.604 88.0106M538.195 116.013C530.497 113.784 522.695 111.967 514.822 110.567M517.231 83.8307C517.125 92.7936 516.322 101.732 514.831 110.557C506.961 109.182 499.03 108.229 491.068 107.701M493.422 82.4215C493.292 90.905 492.501 99.3629 491.059 107.71C483.16 107.186 475.241 107.084 467.332 107.406M469.65 83.7069C469.488 91.6559 468.717 99.5781 467.341 107.396C459.55 107.735 451.781 108.505 444.067 109.7M446.286 87.7345C446.106 95.1107 445.361 102.459 444.058 109.71C436.514 110.894 429.037 112.515 421.663 114.566M423.764 94.3996C423.577 101.174 422.872 107.921 421.654 114.575C414.482 116.583 407.429 119.024 400.526 121.888M402.518 103.569C402.323 109.718 401.663 115.84 400.544 121.878C393.864 124.667 387.352 127.885 381.047 131.514M382.858 115.118C382.671 120.629 382.066 126.114 381.047 131.524C374.968 135.049 369.115 138.986 363.523 143.311M365.163 128.81C364.976 133.685 364.425 138.537 363.514 143.321C358.134 147.517 353.038 152.101 348.264 157.041M349.731 144.387C349.558 148.636 349.071 152.863 348.273 157.032C343.669 161.826 339.413 166.975 335.541 172.437M336.817 161.583C336.667 165.231 336.243 168.86 335.55 172.437C331.814 177.755 328.483 183.375 325.588 189.243M325.588 189.243C326.168 186.229 326.529 183.174 326.666 180.102M325.588 189.243C322.746 195.001 320.359 200.993 318.452 207.162C317.981 209.687 317.376 212.183 316.641 214.637M316.641 214.475L316.55 214.789M319.376 199.65C319.28 201.855 319.037 204.051 318.651 206.22C318.026 209.171 316.84 212.494 316.278 215.465M637.938 145.13C632.812 139.941 627.442 134.532 621.999 129.705M618.992 102.483C620.899 111.428 621.904 120.559 621.99 129.724C616.342 124.735 610.405 120.117 604.213 115.899M584.498 104.187C591.288 107.677 597.874 111.588 604.222 115.899C604.161 106.862 603.198 97.8557 601.351 89.0294C607.512 93.0941 613.409 97.5853 619.002 102.474C617.24 94.4622 614.501 86.7237 610.851 79.4508M581.781 77.8893C583.568 86.5268 584.478 95.3391 584.498 104.178C577.568 100.641 570.451 97.5253 563.181 94.8471M560.645 69.32C562.34 77.7116 563.188 86.2682 563.171 94.8471C555.782 92.1353 548.254 89.8624 540.622 88.0392M538.286 63.4642C539.878 71.551 540.661 79.7907 540.622 88.0487C532.906 86.209 525.1 84.8136 517.24 83.8688M515.12 60.3888C516.607 68.1128 517.32 75.9792 517.249 83.8593C509.346 82.9266 501.402 82.4404 493.45 82.4025M491.53 60.2174C492.903 67.5282 493.544 74.9703 493.44 82.4215C485.497 82.4022 477.559 82.8312 469.659 83.7069M467.966 62.8834C469.228 69.746 469.804 76.7282 469.687 83.7164C461.838 84.6116 454.042 85.9529 446.331 87.7345M444.837 68.4059C445.965 74.7777 446.463 81.255 446.322 87.7345C438.706 89.5177 431.191 91.7428 423.809 94.3996M423.809 94.3996C423.966 88.4527 423.535 82.5048 422.523 76.6515M423.809 94.3996C416.56 97.0311 409.46 100.099 402.546 103.588M402.546 103.588C402.703 98.1861 402.334 92.7809 401.441 87.4584M402.546 103.588C395.781 107.016 389.218 110.87 382.894 115.128M382.894 115.128C383.06 110.287 382.757 105.441 381.989 100.665M382.894 115.128C376.731 119.301 370.821 123.874 365.199 128.82M364.411 116.013C365.087 120.246 365.347 124.541 365.19 128.829C359.74 133.663 354.597 138.867 349.795 144.406M349.795 144.406C349.939 140.667 349.723 136.922 349.152 133.228M349.795 144.406C345.118 149.822 340.803 155.571 336.881 161.612M336.356 152.004C336.836 155.177 337.016 158.392 336.89 161.602C333.076 167.509 329.674 173.698 326.711 180.121M326.267 172.028C326.674 174.704 326.82 177.415 326.702 180.121C326.159 181.312 325.108 183.711 324.61 184.882C322.601 189.689 320.847 194.61 319.357 199.621M319.357 199.621C319.453 197.393 319.338 195.161 319.013 192.956M319.357 199.621C319.004 200.859 318.325 203.363 318.008 204.611C317.003 208.638 316.079 213.18 315.445 217.303M634.84 117.698C629.751 112.566 624.417 107.225 619.002 102.464M593.428 66.3207C596.993 73.4945 599.656 81.1247 601.351 89.0199C595.057 84.8868 588.521 81.1756 581.781 77.9083M574.12 55.6947C577.581 62.7185 580.16 70.1857 581.791 77.9083C574.913 74.6032 567.853 71.7416 560.645 69.339M560.645 69.339C559.091 61.8462 556.619 54.597 553.291 47.7728M560.645 69.339C553.312 66.9198 545.848 64.9612 538.295 63.4738M538.295 63.4738C536.833 56.2628 534.486 49.2821 531.313 42.7074M538.295 63.4738C530.633 61.9796 522.895 60.959 515.12 60.4174M515.12 60.4174C513.757 53.5357 511.55 46.869 508.555 40.5841M515.12 60.4174C507.282 59.8841 499.42 59.8206 491.575 60.2269M485.471 41.4506C488.272 47.401 490.324 53.7098 491.575 60.2174C483.684 60.6466 475.824 61.543 468.029 62.9025M462.397 45.2973C464.988 50.8884 466.878 56.8094 468.02 62.912C460.213 64.2922 452.486 66.1296 444.873 68.4154M422.568 76.6515C429.852 73.462 437.302 70.7091 444.882 68.4059C443.853 62.7423 442.127 57.2436 439.748 52.048C447.162 49.3336 454.722 47.0795 462.388 45.2973C459.935 40.1172 456.761 35.3515 452.969 31.1578M417.923 61.6266C420.076 66.4137 421.631 71.4735 422.55 76.6801C415.33 79.8507 408.291 83.4591 401.468 87.487M401.468 87.487C400.655 82.7577 399.264 78.1588 397.329 73.8046M401.468 87.487C394.734 91.4804 388.23 95.8866 381.989 100.684M381.989 100.684C381.288 96.4398 380.071 92.3085 378.366 88.3915M381.989 100.684C375.852 105.423 369.995 110.55 364.447 116.032M361.269 105.14C362.763 108.618 363.831 112.281 364.447 116.042C359.006 121.437 353.895 127.186 349.143 133.257M349.143 133.257C348.623 129.975 347.71 126.776 346.426 123.735M349.143 133.257C344.493 139.217 340.219 145.489 336.347 152.033M336.347 152.033C335.899 149.216 335.12 146.469 334.028 143.854M336.347 152.033C332.562 158.453 329.192 165.134 326.258 172.028M326.258 172.028C325.894 169.648 325.246 167.325 324.329 165.115M326.258 172.028C323.386 178.826 320.965 185.826 319.013 192.975M317.447 187.262C318.202 189.089 318.734 191.008 319.031 192.975C318.678 194.289 318.008 196.955 317.7 198.288C316.47 203.594 315.515 208.966 314.839 214.38C315.022 215.599 315.118 216.83 315.128 218.064M313.553 209.733C314.081 211.026 314.474 212.377 314.721 213.761C314.938 215.417 314.286 218.179 314.25 219.864M626.627 94.5519C621.628 89.5246 616.23 84.1354 610.906 79.4984M597.919 61.0172C603.071 66.4633 607.446 72.666 610.906 79.4318C605.377 74.638 599.539 70.2509 593.437 66.3017M593.437 66.3017C590.051 59.6135 585.755 53.4805 580.686 48.0966M593.437 66.3017C587.233 62.3083 580.779 58.7614 574.12 55.6852M580.686 48.0966C576.869 44.1159 572.658 40.576 568.125 37.5372M580.686 48.0966C574.582 44.2271 568.227 40.8132 561.668 37.88M561.704 37.8895C566.651 43.1502 570.832 49.1499 574.111 55.6947C567.339 52.5808 560.381 49.9345 553.282 47.7728M561.704 37.8895C556.72 32.6687 551.044 28.2334 544.851 24.7214M561.704 37.8895C555.081 34.9369 548.273 32.465 541.328 30.4913M541.319 30.5009C546.089 35.6129 550.117 41.4359 553.273 47.7824C546.057 45.6058 538.715 43.914 531.294 42.7169M519.875 26.1115C524.426 31.0325 528.265 36.6308 531.267 42.7264C523.731 41.5212 516.13 40.8089 508.51 40.5936M497.706 24.6928C502.035 29.4047 505.678 34.7629 508.519 40.5936C500.799 40.3918 493.076 40.6811 485.39 41.4601M475.256 26.3877C479.326 30.8544 482.744 35.9305 485.399 41.4506C477.637 42.2429 469.926 43.5146 462.306 45.2592M431 38.8702C434.482 42.783 437.394 47.2175 439.639 52.0289C432.2 54.7548 424.918 57.934 417.832 61.5504M409.981 49.4391C413.157 53.0408 415.806 57.1194 417.841 61.5409C410.762 65.1806 403.89 69.2466 397.257 73.7189M390.184 62.7025C393.048 65.9876 395.429 69.7039 397.248 73.7284C390.644 78.1985 384.295 83.069 378.23 88.3153M378.23 88.3153C376.62 84.7 374.508 81.3563 371.964 78.3939M378.23 88.3153C372.247 93.5648 366.564 99.183 361.214 105.14M361.214 105.14C359.81 101.932 357.957 98.963 355.717 96.3322M361.214 105.14C355.911 111.017 350.951 117.227 346.362 123.735M333.992 143.844C337.719 136.876 341.853 130.156 346.371 123.726C345.155 120.923 343.553 118.325 341.617 116.013C345.949 109.162 350.66 102.584 355.726 96.3132M329.935 137.179C331.585 139.183 332.949 141.428 333.983 143.844C330.321 150.713 327.08 157.821 324.284 165.125M324.284 165.125C323.418 163.09 322.278 161.198 320.897 159.507M324.284 165.125C321.546 172.324 319.26 179.703 317.438 187.215M314.657 182.54C315.797 183.944 316.733 185.515 317.438 187.205C315.668 194.603 314.37 202.116 313.553 209.695M313.553 209.695C312.983 208.318 312.227 207.035 311.307 205.886M313.553 209.695C313.118 213.885 312.783 218.617 312.647 222.825M613.459 75.8707C608.46 70.8434 603.226 65.6161 597.883 60.9791M541.328 30.4913C536.511 25.4285 531.02 21.1275 525.028 17.723M541.328 30.4913C534.283 28.5124 527.118 27.0332 519.884 26.0639M504.271 13.7335C510.024 17.0381 515.286 21.2081 519.893 26.1115C512.552 25.1317 505.159 24.6547 497.76 24.6832M482.926 12.9433C488.391 16.0753 493.389 20.0341 497.76 24.6928C490.25 24.7606 482.752 25.3299 475.31 26.3971M461.364 15.257C466.503 18.2333 471.199 21.9867 475.301 26.3971C467.759 27.4975 460.288 29.0875 452.933 31.1578M439.974 20.6842C444.767 23.4832 449.14 27.0127 452.951 31.1578C445.513 33.2707 438.204 35.8557 431.063 38.8988M419.082 29.1679C423.509 31.7774 427.544 35.0632 431.054 38.9179C423.851 42.0061 416.83 45.5418 410.026 49.5057M410.026 49.5057C406.845 45.9617 403.183 42.9327 399.159 40.5175M410.026 49.5057C403.189 53.5155 396.581 57.9443 390.239 62.7692M380.386 54.5712C384.041 56.7679 387.359 59.5316 390.23 62.7692C383.877 67.6266 377.799 72.8691 372.027 78.4701M363.261 71.0624C366.517 73.0554 369.471 75.5491 372.027 78.4606C366.27 84.0755 360.828 90.0364 355.726 96.3132M355.726 96.3132C353.48 93.7329 350.883 91.5158 348.02 89.734M334.943 110.224C337.429 111.79 339.678 113.738 341.617 116.004C337.328 122.816 333.433 129.895 329.953 137.198M324.257 132.2C326.381 133.555 328.301 135.237 329.953 137.189C326.505 144.425 323.482 151.875 320.897 159.498M324.257 132.2C327.411 124.662 330.983 117.324 334.952 110.224M324.257 132.2C321.112 139.712 318.39 147.412 316.106 155.261M324.257 132.2C321.989 130.778 319.553 129.676 317.012 128.924C319.759 121.253 322.915 113.751 326.466 106.454C323.155 105.513 319.758 104.945 316.333 104.759M316.106 155.27C317.892 156.424 319.504 157.852 320.888 159.507C318.357 167.042 316.273 174.734 314.648 182.54M310.709 179.017C312.178 179.979 313.503 181.167 314.639 182.54C313.057 190.244 311.938 198.045 311.289 205.896M308.128 203.04C309.316 203.82 310.388 204.784 311.307 205.896C310.772 212.644 310.6 219.418 310.791 226.186M611.521 73.8427C605.87 68.1298 599.948 62.3312 593.935 57.0658M554.297 29.3012C551.39 27.7492 547.858 26.0353 544.851 24.7023M544.851 24.7023C542.705 23.493 539.698 21.9506 537.453 20.9984M544.851 24.7023C538.41 21.8772 531.785 19.5386 525.028 17.7041M507.459 10.3629C513.548 12.1273 519.434 14.5924 525.01 17.7135C518.185 15.8835 511.246 14.563 504.244 13.7621M484.783 5.94499C491.561 7.6798 498.106 10.3028 504.262 13.7526C497.171 12.9594 490.036 12.6795 482.908 12.9148M464.371 5.45939C470.821 7.11675 477.046 9.6249 482.899 12.9242C475.671 13.1852 468.467 13.9581 461.337 15.2379M464.371 5.45939C457.198 3.6554 449.871 2.61548 442.501 2.35537M464.371 5.45939C457.487 5.84669 450.639 6.74717 443.877 8.15399C449.957 9.73392 455.824 12.114 461.337 15.2379M461.337 15.2379C454.096 16.5578 446.944 18.3739 439.929 20.6748M439.929 20.6748C434.787 17.7332 429.309 15.4935 423.628 14.0097M439.929 20.6748C432.806 23.0265 425.834 25.8538 419.055 29.1393M423.628 14.0097C417.305 12.3896 410.842 11.4485 404.339 11.2008M423.628 14.0097C416.9 16.5095 410.341 19.4837 403.995 22.9123C409.243 24.3038 414.302 26.3964 419.046 29.1393C412.188 32.4878 405.535 36.2782 399.123 40.4889M399.123 40.4889C394.79 37.9574 390.167 36.0214 385.366 34.7284M399.123 40.4889C392.619 44.7715 386.367 49.4647 380.404 54.5426M380.404 54.5426C376.493 52.2277 372.313 50.4547 367.97 49.2677M380.404 54.5426C374.388 59.6827 368.666 65.1926 363.27 71.0434M367.97 49.2677C363.131 47.9745 358.179 47.2087 353.191 46.9826M367.97 49.2677C362.387 54.5962 357.113 60.2717 352.176 66.2636M352.185 66.2826C356.063 67.359 359.792 68.9593 363.279 71.0434C357.859 76.952 352.77 83.1863 348.038 89.715M334.952 110.224C338.925 103.128 343.292 96.2827 348.029 89.7245C344.963 87.8566 341.678 86.4193 338.257 85.4494C342.534 78.777 347.178 72.3739 352.167 66.2731C347.844 65.0954 343.416 64.3934 338.955 64.1784M334.952 110.224C332.296 108.566 329.442 107.286 326.466 106.415M310.066 152.471C312.202 153.113 314.248 154.048 316.152 155.251C313.899 163.048 312.084 170.977 310.718 178.998M308.119 203.011C308.519 194.962 309.384 186.946 310.709 179.007C309.141 178.001 307.454 177.216 305.692 176.675C306.699 168.527 308.144 160.447 310.021 152.471C307.655 151.776 305.227 151.343 302.776 151.176M304.107 201.097C305.533 201.543 306.896 202.183 308.164 203.001C307.784 210.934 307.869 218.884 308.418 226.805C308.891 227.157 309.34 227.545 309.758 227.967M305.167 225.377C306.297 225.739 307.377 226.254 308.382 226.91L308.608 229.852M502.288 8.97282C496.528 7.56535 490.687 6.55394 484.801 5.94499M470.828 3.37418C475.53 3.91565 480.194 4.77437 484.792 5.94499C478.015 5.25643 471.198 5.09092 464.398 5.44985M430.465 2.4125C434.242 2.23159 438.751 2.19353 442.528 2.34587C436.046 2.77796 429.608 3.73292 423.266 5.20232C430.223 5.4584 437.137 6.45045 443.904 8.16349C437.036 9.61543 430.273 11.5689 423.664 14.0097M386.172 20.2843C392.192 20.5224 398.173 21.4062 404.022 22.9218C397.562 26.4339 391.324 30.3808 385.348 34.7379M369.048 32.2909C374.546 32.5244 380.008 33.3475 385.348 34.7474C379.269 39.2074 373.462 44.0634 367.961 49.2868M326.602 83.5451C330.537 83.7489 334.44 84.3871 338.248 85.4494C333.94 92.2056 330.01 99.2191 326.475 106.454M326.602 83.5451C330.342 76.8438 334.465 70.386 338.946 64.2069C333.906 63.9782 328.857 64.1788 323.849 64.8068M326.602 83.5451C322.153 83.326 317.696 83.4884 313.272 84.0307M326.602 83.5451C322.792 90.3986 319.363 97.4786 316.333 104.749M308.364 127.401C311.295 127.574 314.2 128.076 317.03 128.896C314.29 136.6 311.967 144.461 310.075 152.442M299.697 175.599C301.733 175.74 303.748 176.106 305.71 176.694C304.719 184.798 304.175 192.955 304.08 201.126M304.08 201.126C302.498 200.632 300.871 200.313 299.226 200.174M304.08 201.126C303.999 209.219 304.369 217.31 305.185 225.358M301.336 224.606C302.637 224.715 303.923 224.964 305.176 225.348C305.438 227.805 305.846 231.195 306.199 233.632M452.191 2.17446C449.157 2.11733 445.543 2.17448 442.519 2.403M404.357 11.2579C410.503 8.7666 416.818 6.75839 423.248 5.24991C415.419 4.99841 407.583 5.38679 399.811 6.41154C403.352 5.54508 407.354 4.79289 410.959 4.3073M382.423 12.3149C389.696 11.3508 397.031 10.9942 404.357 11.2485C398.097 13.8132 392.02 16.8456 386.172 20.3225M386.172 20.3225C379.389 20.0776 372.597 20.396 365.86 21.2746M386.172 20.3225C380.183 23.9026 374.433 27.911 368.966 32.3195M368.966 32.3195C362.746 32.0793 356.516 32.3595 350.338 33.1574M368.966 32.3195C363.384 36.8512 358.093 41.7654 353.127 47.0302M353.127 47.0302C347.494 46.7997 341.853 47.0417 336.256 47.7538M353.127 47.0302C348.062 52.434 343.325 58.1677 338.946 64.1974M304.75 105.13C308.597 104.665 312.474 104.538 316.342 104.749C313.274 112.143 310.604 119.711 308.345 127.42M308.345 127.42C306.074 135.222 304.215 143.149 302.776 151.166M308.345 127.42C305.023 127.23 301.691 127.329 298.384 127.715C300.1 120.07 302.215 112.53 304.723 105.13C300.394 105.652 296.102 106.466 291.873 107.568M294.399 151.366C297.172 151.054 299.965 150.984 302.749 151.157C301.312 159.225 300.293 167.367 299.697 175.551M299.697 175.551C297.399 175.399 295.095 175.446 292.805 175.694M299.697 175.551C299.116 183.74 298.955 191.957 299.217 200.164M299.217 200.164C297.361 200.03 295.498 200.061 293.648 200.259M299.217 200.164C299.499 208.33 300.203 216.473 301.327 224.558M296.899 224.615C298.368 224.482 299.847 224.482 301.318 224.615C301.907 228.757 302.704 233.508 303.537 237.603M380.657 9.92493C386.825 8.4777 393.553 7.21135 399.82 6.3925C393.883 7.87034 388.068 9.84761 382.432 12.3053M382.432 12.3053C376.695 14.8349 371.154 17.8305 365.86 21.265M382.432 12.3053C374.281 13.4006 366.202 15.0287 358.244 17.1803C362.695 15.1256 367.291 13.4384 371.991 12.1339M343.428 25.7688C350.806 23.7823 358.295 22.2813 365.851 21.2746C360.421 24.8215 355.25 28.7903 350.383 33.1479M329.799 37.2611C336.57 35.4469 343.442 34.0764 350.374 33.1574C345.359 37.6716 340.651 42.549 336.283 47.7538M317.637 51.4386C323.775 49.7978 330.006 48.567 336.292 47.7538C331.807 53.1405 327.662 58.8307 323.885 64.7877M307.186 68.0441C312.685 66.5894 318.265 65.4986 323.895 64.7782C319.991 70.9611 316.451 77.3907 313.299 84.0307M298.529 86.8871C303.386 85.608 308.317 84.6539 313.29 84.0307C310.061 90.8843 307.212 97.929 304.759 105.13M287.435 129.753C291.06 128.821 294.739 128.135 298.447 127.696C296.723 135.505 295.39 143.402 294.454 151.357M285.171 153.071C288.224 152.294 291.322 151.724 294.445 151.366C293.518 159.442 292.989 167.562 292.86 175.694M285.189 177.084C287.711 176.448 290.271 175.987 292.851 175.703C292.728 183.902 293.009 192.101 293.693 200.269M287.499 201.354C289.542 200.847 291.614 200.481 293.702 200.259C294.39 208.431 295.475 216.56 296.953 224.615M292.036 225.472C293.654 225.071 295.298 224.789 296.953 224.625C297.985 230.176 299.299 236.165 300.729 241.621M343.464 25.7401C348.156 22.4415 353.11 19.5744 358.271 17.1708C349.595 19.5035 340.666 22.4933 332.253 25.7401C333.756 25.0165 335.876 24.1215 337.397 23.5121M319.285 33.7001C327.204 30.634 335.265 27.9869 343.437 25.7688C338.619 29.2003 334.075 33.0408 329.853 37.2516M307.684 44.4974C314.857 41.7457 322.464 39.2035 329.853 37.2326C325.467 41.6311 321.401 46.3703 317.691 51.41M297.551 57.9989C304.15 55.4494 310.869 53.2566 317.682 51.4291C313.812 56.7115 310.298 62.273 307.168 68.0727M289.147 73.9188C295.061 71.6459 301.083 69.6914 307.186 68.0631C303.924 74.1393 301.039 80.4302 298.547 86.8966M282.59 92.0477C287.817 90.0425 293.14 88.3231 298.538 86.8966C295.948 93.6511 293.737 100.56 291.918 107.587M277.999 112.052C282.527 110.357 287.263 108.805 291.9 107.596C290.011 114.907 288.499 122.318 287.372 129.8M275.472 133.609C279.376 132.123 283.351 130.851 287.381 129.8C286.252 137.524 285.503 145.304 285.135 153.109M275.083 156.28C278.373 155.042 281.722 153.987 285.117 153.118C284.755 160.993 284.764 169.248 285.117 177.122M276.84 179.702C279.556 178.688 282.323 177.824 285.126 177.113C285.515 185.12 286.303 193.461 287.426 201.392M280.707 203.478C282.907 202.662 285.147 201.969 287.417 201.402C288.549 209.39 290.134 217.674 291.945 225.52M286.638 227.138C288.383 226.492 290.161 225.948 291.963 225.51C293.548 232.175 295.495 239.24 297.605 245.791M311.723 34.4809C318.271 31.415 325.452 28.3395 332.181 25.7401C327.631 27.9453 323.297 30.6112 319.24 33.7001M307.612 44.507C311.166 40.536 315.061 36.9184 319.249 33.7001C310.727 36.985 301.997 40.8698 293.774 44.9069C297.168 42.1111 300.853 39.7312 304.759 37.8134M284.202 54.7997C291.755 51.0958 299.778 47.5253 307.603 44.5165C303.877 48.7066 300.49 53.2164 297.478 57.9989M276.233 67.3109C283.097 63.9498 290.378 60.7221 297.487 57.9894C294.306 63.0725 291.493 68.4006 289.074 73.9284M269.993 82.2692C276.151 79.2604 282.672 76.3754 289.065 73.9379C286.5 79.8095 284.306 85.853 282.5 92.0287M265.628 99.3791C271.062 96.7321 276.858 94.1806 282.5 92.0382C280.595 98.6012 279.068 105.278 277.926 112.033M263.21 118.47C267.956 116.156 273 113.947 277.917 112.081C276.717 119.208 275.883 126.397 275.418 133.618M262.821 139.046C266.887 137.075 271.216 135.189 275.436 133.609C274.947 141.045 274.838 148.843 275.065 156.289M264.424 160.859C267.856 159.203 271.497 157.622 275.056 156.299C275.282 164.011 275.907 172.066 276.867 179.731M276.867 179.731C273.924 180.816 270.917 182.121 268.074 183.473M276.867 179.731C277.772 187.586 279.149 195.746 280.743 203.487M273.643 206.505C275.934 205.401 278.379 204.363 280.752 203.487C282.382 211.342 284.374 219.474 286.684 227.148M286.684 227.148C284.8 227.833 282.853 228.662 281.042 229.528M286.684 227.148C288.929 234.765 291.583 242.592 294.435 250M284.247 54.8092C287.094 51.1719 290.3 47.8621 293.811 44.9354C284.981 49.2772 275.934 54.1998 267.431 59.2177C269.133 57.706 270.951 56.3431 272.864 55.1425M259.987 67.9393C267.802 63.3405 276.115 58.8178 284.229 54.8283C281.204 58.7289 278.536 62.9211 276.26 67.349M276.26 67.349C268.889 70.9577 261.327 75.0709 254.227 79.2509M276.26 67.349C273.804 72.1477 271.72 77.1468 270.03 82.2977M250.251 92.9618C256.591 89.2199 263.41 85.5446 270.03 82.3073C268.199 87.9072 266.741 93.6339 265.665 99.4458M248.168 108.853C253.81 105.54 259.814 102.293 265.674 99.4362C264.515 105.729 263.707 112.087 263.256 118.479M248.168 108.853C242.182 112.366 236.061 116.261 230.31 120.184M248.168 108.853C247.789 114.783 247.732 120.731 247.996 126.668M247.978 126.677C252.896 123.821 258.139 120.964 263.247 118.479C262.776 125.333 262.64 132.206 262.839 139.074M249.744 146.072C253.973 143.606 258.465 141.188 262.848 139.065C263.057 146.253 263.627 153.737 264.46 160.869M253.43 166.753C256.989 164.677 260.774 162.649 264.469 160.869C265.375 168.343 266.606 176.103 268.092 183.482M258.954 188.338C261.897 186.634 265.031 184.968 268.083 183.492C269.613 191.109 271.533 199.031 273.634 206.524M266.253 210.428C268.635 209.048 271.171 207.696 273.643 206.515C275.798 214.132 278.343 222.083 281.042 229.547M275.164 232.642C277.057 231.556 279.067 230.49 281.033 229.557C283.749 237.098 286.892 244.858 290.143 252.17C291.393 251.58 292.733 251.009 294.019 250.514M285.57 254.56C287.046 253.722 288.612 252.894 290.143 252.161L291.049 254.189M259.996 67.9393C262.113 64.7162 264.611 61.7888 267.431 59.2272C258.438 64.5307 249.228 70.4149 240.571 76.3183C241.592 75.3309 242.689 74.4329 243.849 73.6332M235.291 83.6784C243.242 78.2416 251.718 72.8334 259.987 67.9489C257.688 71.4926 255.757 75.2846 254.227 79.2604M254.227 79.2604C246.71 83.6974 239.022 88.6105 231.777 93.5426M254.227 79.2604C252.532 83.6989 251.204 88.2831 250.26 92.9618M230.084 105.787C236.586 101.36 243.496 96.9511 250.251 92.9809C249.198 98.2194 248.496 103.53 248.15 108.872M232.42 136.456C237.437 133.047 242.78 129.648 248.005 126.592C248.277 132.999 248.911 139.665 249.762 146.006M236.387 154.461C240.688 151.538 245.28 148.634 249.753 146.015C250.659 152.861 251.963 159.955 253.43 166.696M242.155 173.79C245.778 171.333 249.654 168.886 253.43 166.686C254.997 173.847 256.907 181.245 258.963 188.262M249.626 194.137C252.633 192.099 255.83 190.09 258.954 188.272C261.109 195.613 263.618 203.192 266.244 210.371M266.244 210.371C263.718 211.866 261.128 213.494 258.692 215.132M266.244 210.371C268.961 217.769 272.022 225.386 275.164 232.585M275.164 232.585C273.163 233.746 271.098 235.032 269.178 236.327M275.164 232.585C278.37 239.888 281.938 247.419 285.57 254.484M285.57 254.484C284.003 255.379 282.4 256.388 280.888 257.398M285.57 254.484C285.977 255.265 287.154 257.56 287.553 258.293M213.665 95.8847C222.323 89.1627 231.56 82.412 240.58 76.2421C238.457 78.3798 236.675 80.8615 235.3 83.5927M210.532 101.683C218.501 95.5039 226.996 89.3056 235.291 83.5927C233.737 86.716 232.557 90.0292 231.777 93.4569M209.264 109.9C216.509 104.283 224.234 98.6364 231.786 93.4855C230.877 97.5024 230.313 101.598 230.102 105.72M209.871 120.469C216.382 115.432 223.31 110.357 230.093 105.73C229.858 110.534 229.928 115.35 230.301 120.145M230.301 120.145C224.297 124.24 218.148 128.724 212.388 133.19M230.301 120.145C230.729 125.63 231.43 131.087 232.402 136.494M216.78 147.843C221.807 143.949 227.177 140.045 232.411 136.475C233.471 142.445 234.856 148.615 236.378 154.47M222.957 164.173C227.267 160.831 231.877 157.508 236.378 154.423C238.053 160.84 240.054 167.477 242.146 173.751M242.146 173.751C238.352 176.332 234.449 179.103 230.826 181.959M242.146 173.751C244.401 180.512 246.982 187.491 249.626 194.089M240.263 200.869C243.278 198.555 246.475 196.213 249.617 194.099C252.416 201.069 255.531 208.257 258.673 215.046M258.673 215.046C256.129 216.76 253.53 218.617 251.084 220.521M258.673 215.046C261.943 222.111 265.547 229.385 269.151 236.27M269.151 236.27C267.132 237.622 265.076 239.116 263.138 240.602M269.151 236.27C272.837 243.287 276.867 250.552 280.87 257.36M276.179 260.73C277.673 259.588 279.312 258.397 280.87 257.35C281.621 258.626 283.134 261.159 283.894 262.435M215.286 94.3424C214.7 94.7981 214.152 95.3045 213.647 95.8562M213.647 95.8562C204.736 102.807 195.626 110.319 187.095 117.756M213.647 95.8562C212.221 97.5158 211.155 99.4819 210.523 101.617M210.523 101.617C202.3 107.977 193.914 114.89 186.072 121.726M210.523 101.617C209.74 104.282 209.311 107.047 209.246 109.834M187.023 128.134C194.159 121.916 201.784 115.632 209.237 109.843C209.154 113.373 209.364 116.902 209.862 120.393M209.862 120.393C203.206 125.592 196.359 131.238 189.939 136.818M209.862 120.393C210.469 124.681 211.311 128.927 212.379 133.114M212.379 133.114C206.466 137.713 200.38 142.711 194.693 147.653C192.999 144.149 191.333 140.445 189.902 136.818C183.391 142.492 176.735 148.624 170.523 154.661M212.379 133.114C213.611 137.998 215.096 143.026 216.762 147.786M201.367 160.459C206.321 156.146 211.619 151.795 216.762 147.777C218.619 153.223 220.756 158.841 222.939 164.154M209.681 175.037C213.937 171.343 218.483 167.601 222.929 164.163C225.366 170.076 228.082 176.179 230.808 181.949M219.642 191.109C223.265 187.986 227.068 184.844 230.817 181.94C233.788 188.224 237.03 194.708 240.254 200.84M240.254 200.84C237.156 203.287 233.987 205.886 231.016 208.457M240.254 200.84C243.695 207.372 247.426 214.17 251.121 220.511M251.121 220.511C248.612 222.454 246.04 224.549 243.64 226.643M251.121 220.511C254.97 227.177 259.099 234.08 263.165 240.602M263.165 240.602C261.164 242.135 259.135 243.811 257.224 245.458M263.165 240.602C267.34 247.267 271.805 254.198 276.197 260.73M271.569 264.539C273.063 263.253 274.648 261.949 276.206 260.73C277.32 262.377 279.058 264.948 280.181 266.576M187.675 117.089C187.476 117.285 187.292 117.495 187.122 117.717M187.122 117.717C178.465 125.268 169.617 133.418 161.358 141.455M187.122 117.717C186.404 118.917 186.054 120.32 186.117 121.736M162.417 143.568C170.024 136.18 178.157 128.667 186.126 121.726C186.17 123.89 186.475 126.04 187.032 128.124M165.451 147.996C172.37 141.264 179.778 134.447 187.023 128.124C187.811 131.079 188.773 133.979 189.902 136.808M177.487 163.468C182.984 158.108 188.879 152.69 194.648 147.653C196.712 151.928 199.004 156.318 201.277 160.469M186.298 174.256C191.107 169.581 196.26 164.849 201.286 160.459C203.939 165.306 206.819 170.295 209.644 175.027M196.776 186.882C200.896 182.873 205.307 178.807 209.635 175.037C212.823 180.378 216.246 185.891 219.597 191.119M219.597 191.119C215.929 194.289 212.207 197.717 208.73 201.097M219.597 191.119C223.219 196.832 227.168 202.782 230.971 208.419M230.971 208.419C227.956 211.038 224.877 213.865 222.006 216.665M230.971 208.419C235.046 214.456 239.357 220.692 243.568 226.643M243.568 226.643C241.141 228.757 238.642 231.042 236.323 233.308M243.568 226.643C247.969 232.87 252.624 239.326 257.152 245.458M251.438 250.818C253.249 249.028 255.259 247.21 257.197 245.524C261.852 251.828 266.779 258.378 271.542 264.567M267.014 268.709C268.454 267.31 269.993 265.853 271.542 264.586C272.918 266.386 274.911 268.957 276.296 270.737M161.394 141.321C161.359 141.371 161.34 141.431 161.34 141.493M136.762 166.734C144.622 158.222 153.063 149.595 161.34 141.502C161.571 142.267 161.923 142.985 162.381 143.625M162.381 143.625C154.747 151.043 146.986 159.012 139.741 166.848M162.381 143.625C163.341 145.111 164.419 146.625 165.46 148.043M144.885 169.172C151.469 162.04 158.532 154.794 165.469 148.043C167.099 150.252 168.847 152.538 170.541 154.708M152.066 173.685C157.98 167.277 164.328 160.764 170.55 154.699C172.805 157.555 175.259 160.659 177.55 163.506M161.177 180.359C166.411 174.646 172.044 168.934 177.55 163.544C180.348 167.01 183.527 170.895 186.361 174.332M186.361 174.332C181.544 179.017 176.599 184.054 172.071 189.005M186.361 174.332C188.345 176.722 194.965 184.711 196.848 186.948M184.568 199.555C188.49 195.299 192.719 190.985 196.839 186.948C200.344 191.157 205.252 196.974 208.811 201.173M198.46 211.78C201.766 208.191 205.316 204.544 208.802 201.154C212.995 206.115 217.858 211.809 222.051 216.731M213.502 225.51C216.219 222.54 219.171 219.521 222.051 216.722C226.452 221.873 231.913 228.224 236.36 233.375M229.432 240.497C231.641 238.098 234.014 235.651 236.35 233.385C240.552 238.25 247.218 245.962 251.438 250.809M246.004 256.446C247.752 254.541 249.626 252.637 251.492 250.799C256.274 256.303 262.314 263.234 267.095 268.7M272.411 274.774L267.086 268.709C265.647 270.109 264.179 271.613 262.812 273.108C257.496 267.786 251.365 261.682 245.995 256.455C244.256 258.359 242.499 260.359 240.869 262.349M136.345 167.029C136.476 166.913 136.615 166.808 136.762 166.715M113.787 193.09C119.22 186.529 125.206 179.569 130.885 173.247C132.343 171.619 135.313 168.353 136.798 166.744C137.783 166.439 138.835 166.479 139.796 166.858M118.587 191.119C125.333 182.949 132.605 174.637 139.759 166.867C141.536 167.467 143.253 168.249 144.885 169.2M125.632 191.242C131.763 183.816 138.383 176.246 144.894 169.191C147.321 170.543 149.757 172.133 152.066 173.694M152.066 173.694C146.216 180.036 140.276 186.843 134.77 193.509M152.066 173.694C155.109 175.789 158.225 178.074 161.168 180.359M161.168 180.359C155.988 185.987 150.726 192.004 145.854 197.917M161.168 180.359C164.79 183.13 168.53 186.072 172.035 189.014M158.686 204.334C162.934 199.174 167.534 193.918 172.044 189.014C176.137 192.375 180.529 196.079 184.55 199.555M173.104 212.732C176.726 208.305 180.692 203.782 184.568 199.574C189.178 203.544 193.941 207.753 198.469 211.818M188.798 222.92C191.877 219.178 195.191 215.37 198.46 211.818C203.305 216.17 208.712 221.111 213.502 225.558M205.533 234.718C208.069 231.633 210.813 228.49 213.511 225.548C218.773 230.423 224.252 235.584 229.441 240.535M222.966 247.971C225.021 245.467 227.24 242.916 229.432 240.535C234.865 245.743 240.561 251.228 245.959 256.503M258.782 277.755C260.05 276.203 261.426 274.622 262.776 273.146C264.053 274.432 267.068 277.459 268.363 278.773M112.881 193.908C113.081 193.689 113.515 193.28 113.742 193.09M92.6412 220.15C97.5767 213.427 103.056 206.296 108.263 199.812C109.866 197.984 112.419 194.346 114.213 192.737C115.537 191.876 117.023 191.324 118.568 191.119M99.1887 215.979C105.329 207.619 111.985 199.079 118.577 191.1C120.92 190.802 123.292 190.846 125.623 191.233M125.623 191.233C119.628 198.488 113.57 206.258 107.991 213.865M125.623 191.233C128.717 191.736 131.769 192.494 134.751 193.499M134.751 193.499C129.372 200.021 123.939 207 118.922 213.827M134.751 193.499C138.464 194.727 142.268 196.27 145.836 197.879M131.817 215.894C136.255 209.838 141.073 203.658 145.836 197.888C150.129 199.793 154.53 202.049 158.686 204.315M158.686 204.315C154.53 209.352 150.328 214.751 146.461 220.035M158.686 204.315C163.486 206.924 168.422 209.809 173.085 212.685M162.599 226.186C165.913 221.654 169.517 217.017 173.076 212.694C178.302 215.913 183.69 219.417 188.779 222.873M188.779 222.873C185.782 226.567 182.748 230.49 179.959 234.299M188.779 222.873C194.34 226.681 200.081 230.709 205.506 234.689M205.506 234.689C203.024 237.707 200.525 240.935 198.216 244.106M205.506 234.689C211.311 238.945 217.279 243.487 222.957 247.933M222.957 247.933C220.955 250.371 218.918 252.98 217.061 255.551M222.957 247.933C228.888 252.58 235.01 257.541 240.815 262.358M236.142 268.414C237.627 266.376 239.23 264.301 240.815 262.368C246.774 267.319 252.932 272.594 258.764 277.726M258.764 277.726C257.55 279.278 256.292 280.897 255.142 282.487M258.764 277.726C260.349 279.126 262.703 281.211 264.279 282.62M90.8209 222.216C91.3797 221.486 91.9846 220.795 92.6321 220.15M73.8138 247.476C78.1698 240.707 83.0417 233.518 87.6965 226.977C91.5001 221.778 92.8948 218.474 99.1524 216.008M81.8463 241.145C87.2799 232.708 93.2298 224.092 99.1434 216.017C101.978 214.915 104.936 214.204 107.946 213.904M81.8463 241.145C76.6844 249.171 71.5497 257.74 66.9221 266.119M81.8463 241.145C85.1376 239.274 88.6189 237.798 92.2246 236.746C97.1601 229.128 102.567 221.235 107.946 213.894C111.585 213.551 115.246 213.551 118.885 213.894M118.885 213.894C114.059 220.483 109.205 227.519 104.776 234.413M118.885 213.894C123.221 214.297 127.528 214.987 131.781 215.96M119.302 234.127C123.214 228.024 127.516 221.749 131.781 215.951C136.653 217.055 141.679 218.502 146.425 220.093M135.557 235.946C138.972 230.623 142.712 225.177 146.425 220.083C151.795 221.883 157.292 224.015 162.562 226.234M153.235 239.859C156.16 235.279 159.366 230.614 162.553 226.243C168.331 228.69 174.326 231.48 179.914 234.308M179.914 234.308C177.224 237.993 174.525 241.982 172.071 245.791M179.914 234.308C185.99 237.365 192.257 240.754 198.17 244.153M191.704 253.675C193.733 250.485 195.961 247.229 198.18 244.153C204.455 247.752 210.912 251.694 217.025 255.579M211.782 263.282C213.421 260.702 215.223 258.064 217.016 255.589C223.355 259.664 229.912 264.082 236.097 268.452M231.967 274.546C233.262 272.489 234.684 270.395 236.106 268.433C242.445 272.908 248.947 277.717 255.123 282.468M251.89 287.229C252.905 285.629 254.01 284.001 255.114 282.468C256.464 283.515 258.827 285.324 260.159 286.41M70.0554 252.389C71.1691 250.637 72.4364 248.999 73.8408 247.495M57.6398 274.622C61.3437 267.957 65.5365 260.787 69.5664 254.284C70.635 252.58 72.7994 249.152 73.8861 247.467C76.2688 244.969 78.9727 242.835 81.9188 241.125M57.6398 274.622C55.3002 277.335 53.2447 280.304 51.5088 283.477M57.6398 274.622C52.9125 283.191 48.2939 292.275 44.264 301.187M57.6398 274.622C60.4386 271.402 63.5771 268.527 66.9946 266.053M78.7492 259.435C82.9422 251.818 87.615 244.03 92.3333 236.736C96.4456 235.558 100.648 234.764 104.894 234.365M92.7589 254.741C96.5172 247.895 100.701 240.907 104.903 234.356C109.721 233.913 114.562 233.821 119.393 234.08M119.393 234.08C115.68 239.916 111.976 246.105 108.661 252.17M119.393 234.08C124.835 234.38 130.259 234.99 135.639 235.908M126.293 251.647C129.182 246.362 132.406 240.964 135.639 235.898C141.507 236.85 147.584 238.26 153.334 239.812M145.329 253.332C147.801 248.79 150.554 244.153 153.325 239.821C159.583 241.497 166.004 243.563 172.162 245.743M172.162 245.743C169.825 249.438 167.507 253.361 165.433 257.169M172.162 245.743C178.691 248.095 185.429 250.799 191.795 253.599M186.244 263.034C187.955 259.864 189.866 256.636 191.786 253.608C198.478 256.56 205.37 259.873 211.863 263.263M207.408 270.88C208.784 268.319 210.333 265.7 211.881 263.263C218.61 266.757 225.529 270.633 232.058 274.527M228.508 280.602C229.595 278.564 230.817 276.488 232.049 274.536C238.687 278.516 245.515 282.877 251.972 287.229M251.972 287.229C251.066 288.781 250.106 290.399 249.255 291.989M251.972 287.229L256.092 290.085M54.6966 290.485C58.4095 282.296 62.6568 273.917 66.9855 266.072C70.6873 263.441 74.6313 261.208 78.7583 259.407M67.6013 281.611C70.9702 274.175 74.8461 266.567 78.7492 259.426C83.2687 257.459 87.9367 255.891 92.7046 254.741M67.6013 281.611C64.477 288.476 61.5248 295.788 59.0434 302.92M67.6013 281.611C72.4546 278.876 77.5017 276.54 82.6976 274.622M82.7428 274.632C85.7675 267.967 89.2088 261.13 92.7046 254.732C97.9498 253.47 103.273 252.595 108.634 252.113M75.0635 293.732C77.2731 287.333 79.9264 280.782 82.7066 274.622C88.2975 272.585 94.0132 270.947 99.8135 269.719C102.53 263.806 105.528 257.76 108.634 252.094C114.501 251.579 120.39 251.42 126.275 251.618M145.284 253.303C139.08 252.437 132.542 251.837 126.266 251.637C123.567 256.579 120.923 261.844 118.605 267.005C112.298 267.519 106.027 268.426 99.8226 269.719C97.3684 275.193 95.032 280.954 93.0849 286.619C86.9389 288.578 80.9194 290.95 75.0635 293.722M145.284 253.303C142.983 257.55 140.719 262.073 138.745 266.491M145.284 253.303C151.94 254.256 158.868 255.56 165.397 257.112M159.882 268.233C161.539 264.501 163.441 260.692 165.379 257.122C172.288 258.75 179.434 260.787 186.208 263.006M181.68 272.185C183.038 269.1 184.605 265.948 186.208 262.996C193.253 265.301 200.498 268.005 207.362 270.852M203.74 278.297C204.836 275.803 206.094 273.251 207.362 270.861C214.399 273.784 221.644 277.117 228.463 280.554M228.463 280.554C227.448 282.449 226.488 284.477 225.583 286.457M228.463 280.554C235.381 284.029 242.481 287.933 249.147 291.913M249.147 291.913C248.35 293.398 247.58 294.979 246.91 296.522M249.147 291.913L251.863 293.551M35.5884 315.06L36.3854 313.432C37.1914 311.661 38.8485 308.119 39.6907 306.367M25.2737 340.968C27.6373 334.208 30.4629 327.009 33.2883 320.439C35.9737 313.475 39.6599 306.985 44.2187 301.197M33.9312 326.743C36.9197 318.173 40.4967 309.414 44.2278 301.187C47.3727 297.28 50.873 293.706 54.6784 290.513M45.224 313.993C47.9408 306.129 51.2371 298.083 54.6693 290.523C58.7193 287.157 63.0472 284.178 67.6013 281.62M75.0635 293.722C73.0231 299.614 71.2999 305.622 69.9016 311.718M75.0635 293.722C69.5164 296.367 64.1594 299.431 59.0344 302.891M112.755 281.754C114.439 276.812 116.504 271.766 118.596 267.005C125.299 266.466 132.025 266.297 138.745 266.5M133.773 279.135C135.204 274.898 136.943 270.566 138.754 266.491C145.727 266.7 152.99 267.31 159.909 268.224M155.734 278.888C156.939 275.317 158.379 271.67 159.9 268.243C167.145 269.195 174.589 270.566 181.689 272.194M152.963 288.857C153.701 285.471 154.627 282.133 155.734 278.859C163.169 279.173 170.894 279.907 178.265 280.963C179.253 278.021 180.439 275.003 181.689 272.166C189.006 273.851 196.568 275.974 203.722 278.278M203.722 278.278C202.753 280.573 201.802 283.02 201.005 285.41M203.722 278.278C210.967 280.649 218.519 283.458 225.592 286.438M223.428 292.084C224.052 290.18 224.804 288.276 225.601 286.429C232.728 289.447 240.091 292.894 246.928 296.502M246.294 298.016C246.466 297.569 246.738 296.94 246.928 296.493L247.698 296.902M21.2982 350.461C22.4597 347.211 23.793 344.033 25.2918 340.939M25.2918 340.939C22.2986 349.447 19.7648 358.126 17.7028 366.933M25.2918 340.939C27.757 335.934 30.6519 331.176 33.9403 326.724M26.9219 350.832C28.8307 342.662 31.1739 334.609 33.9403 326.714C37.3546 322.13 41.1389 317.865 45.2512 313.965M45.2512 313.965C42.7111 321.207 40.5643 328.595 38.8214 336.093M45.2512 313.965C49.5579 309.894 54.1669 306.191 59.0344 302.891M59.0344 302.891C56.742 309.465 54.8038 316.169 53.2293 322.972M88.5476 302.52C89.7705 297.135 91.2819 291.826 93.0759 286.619C99.5409 284.579 106.116 282.938 112.764 281.706M108.842 295.569C109.89 290.872 111.196 286.244 112.755 281.706C119.71 280.438 126.727 279.567 133.773 279.097M130.432 290.98C131.325 286.958 132.438 282.994 133.764 279.107C141.076 278.635 148.405 278.55 155.725 278.85M176.01 289.209C176.615 286.412 177.371 283.652 178.274 280.944C185.791 282.039 193.588 283.563 200.978 285.381M200.978 285.381C200.249 287.564 199.644 289.789 199.167 292.046M200.978 285.381C208.449 287.219 216.165 289.523 223.437 292.046M222.006 297.474C222.38 295.678 222.854 293.907 223.428 292.17C230.12 294.522 237.066 297.283 243.55 300.225M10.1866 388.613C10.4492 387.509 11.0197 385.29 11.3276 384.186C11.717 382.491 12.559 379.101 12.9937 377.426M7.13455 409.856C8.53823 395.183 11.2369 380.244 17.6938 367.009M13.7907 391.022C14.5538 382.921 15.8609 374.887 17.7028 366.981C20.3518 361.36 23.4321 355.975 26.9128 350.88M13.7907 391.022C13.1285 398.218 13.0859 405.462 13.6639 412.665M13.7907 391.022C16.5381 384.831 19.7195 378.864 23.3087 373.169M26.9128 350.88C25.2086 358.205 23.9981 365.647 23.2905 373.15M26.9128 350.88C30.5136 345.648 34.4951 340.716 38.8214 336.131M53.2205 322.963C48.1235 326.965 43.3081 331.351 38.8123 336.083C37.2616 342.801 36.1691 349.626 35.5433 356.507C31.0973 361.732 27.0117 367.285 23.3177 373.122C22.711 379.787 22.6836 386.495 23.2361 393.165M50.2861 341.482C50.8415 335.246 51.8223 329.06 53.2205 322.972C58.5326 318.846 64.1024 315.098 69.8925 311.756M50.2861 358.154C49.8016 352.625 49.8016 347.06 50.2861 341.53C55.6869 336.756 61.3705 332.349 67.3024 328.333M67.3024 328.333C67.7863 322.749 68.6488 317.21 69.8834 311.756C75.9105 308.287 82.1382 305.218 88.5298 302.568M67.3024 328.333C66.8858 333.282 66.904 338.26 67.3567 343.205M67.3024 328.333C73.4203 324.222 79.7714 320.508 86.3199 317.212C86.725 312.283 87.4726 307.391 88.5568 302.577C95.1796 299.826 101.95 297.486 108.833 295.569M108.833 295.569C107.903 299.762 107.264 304.02 106.922 308.309C99.8887 310.834 92.9998 313.788 86.2928 317.155C85.9333 321.522 85.9638 325.914 86.3834 330.275M108.833 295.569C115.949 293.622 123.163 292.089 130.441 290.98M128.838 301.892C129.12 298.215 129.659 294.565 130.45 290.97C137.917 289.868 145.436 289.179 152.972 288.904M151.641 298.093C151.868 295 152.31 291.929 152.963 288.904C160.643 288.619 168.333 288.742 176.001 289.276M176.001 289.276C175.474 291.785 175.12 294.331 174.942 296.893M176.001 289.276C183.654 289.809 191.605 290.799 199.158 292.132M199.158 292.132C198.735 294.154 198.457 296.207 198.324 298.273M199.158 292.132C206.746 293.484 214.598 295.303 222.006 297.436M221.372 302.301C221.464 300.664 221.679 299.037 222.015 297.436C227.756 299.102 233.851 301.111 239.448 303.253M3.22231 431.727L3.79294 426.014M3.28576 453.769C2.00526 438.996 3.31598 424.102 7.15268 409.827M7.15268 409.827C6.44037 417.52 6.38891 425.263 6.99879 432.964M7.15268 409.827C8.91016 403.386 11.1355 397.096 13.8089 391.013M35.5433 374.845C35.0134 368.742 35.0134 362.601 35.5433 356.497C40.1341 351.143 45.0625 346.121 50.2953 341.463M107.04 319.735C106.663 315.939 106.62 312.114 106.913 308.309C114.099 305.745 121.416 303.606 128.829 301.901M128.983 311.661C128.637 308.417 128.585 305.146 128.829 301.892C136.361 300.174 143.976 298.887 151.641 298.035M151.641 298.035C151.446 300.771 151.5 303.519 151.804 306.243M151.641 298.035C159.381 297.185 167.159 296.772 174.942 296.798M175.096 303.586C174.833 301.337 174.779 299.068 174.933 296.807C182.743 296.841 190.544 297.316 198.306 298.226M198.469 303.691C198.255 301.873 198.203 300.036 198.315 298.207C206.06 299.124 213.754 300.471 221.363 302.244M221.363 302.244C221.272 303.696 221.318 305.154 221.499 306.595M221.363 302.244C225.891 303.31 230.935 304.681 235.391 306.053M2.90547 479.82C2.80586 478.515 2.65184 475.906 2.5975 474.602L2.38017 471.555M6.90815 497.101C2.38016 483.2 1.63758 468.184 3.28576 453.683M7.39721 475.097C5.25267 468.147 3.87017 460.963 3.2767 453.683C4.02519 446.666 5.26323 439.715 6.98066 432.888M10.9108 453.074C8.8737 446.522 7.55817 439.747 6.98973 432.879C8.75629 425.95 10.9927 419.163 13.682 412.569M17.3769 431.431C15.4576 425.315 14.2146 418.986 13.6729 412.569C16.4332 405.88 19.6254 399.396 23.2271 393.165M23.2271 393.165C23.7346 399.102 24.9019 404.956 26.7046 410.608M23.2271 393.165C26.931 386.795 31.0335 380.691 35.507 374.893M35.507 374.893C35.9855 380.329 37.0736 385.685 38.7489 390.851M35.507 374.893C40.094 368.981 45.0365 363.383 50.3043 358.135M50.3043 358.135C50.758 363.054 51.7612 367.898 53.2928 372.57M50.3043 358.135C55.6937 352.785 61.3917 347.79 67.3659 343.177M67.3659 343.177C67.7878 347.572 68.6996 351.898 70.0827 356.069M67.3659 343.177C73.4559 338.492 79.8064 334.193 86.3834 330.304M86.3834 330.304C86.7764 334.182 87.6032 337.998 88.8466 341.672M86.3834 330.304C93.0732 326.369 99.9729 322.844 107.049 319.744C107.411 323.12 108.152 326.437 109.259 329.628M107.076 319.754C114.236 316.634 121.56 313.944 129.01 311.699M129.01 311.699C129.323 314.585 129.964 317.42 130.921 320.144M129.01 311.699C136.515 309.446 144.133 307.638 151.831 306.281M151.831 306.281C152.106 308.707 152.66 311.088 153.479 313.375M151.831 306.281C159.544 304.932 167.323 304.042 175.132 303.615M175.132 303.615C175.366 305.619 175.831 307.585 176.518 309.471M175.132 303.615C182.916 303.196 190.716 303.234 198.496 303.729M198.496 303.729C198.698 305.358 199.085 306.957 199.647 308.49M198.496 303.729C206.228 304.239 213.926 305.209 221.553 306.633M222.459 310.394C222.017 309.186 221.712 307.927 221.553 306.643C224.65 307.233 228.436 308.033 231.515 308.795M13.2655 534.559C11.7142 529.389 10.4323 524.136 9.42576 518.82M9.42576 518.82C8.28498 515.123 7.34158 511.363 6.60017 507.556M9.42576 518.82C11.6004 525.783 14.6751 532.399 18.5633 538.482M9.42576 518.82C8.09128 511.685 7.24686 504.458 6.89909 497.196M6.89909 497.196C8.99075 503.88 11.9497 510.227 15.6924 516.058M6.89909 497.196C6.56073 489.859 6.72116 482.506 7.37908 475.192M15.7831 493.121C12.2023 487.583 9.37088 481.55 7.37002 475.192C8.05302 467.778 9.22415 460.422 10.8748 453.179M18.862 470.06C15.4621 464.857 12.7736 459.177 10.8748 453.188C12.5646 445.83 14.7247 438.599 17.3407 431.546M24.8752 447.275C21.6799 442.422 19.1496 437.121 17.3588 431.527C20.0338 424.362 23.1497 417.386 26.6864 410.646M24.8752 447.275C28.015 451.95 31.8103 456.098 36.1318 459.577M24.8752 447.275C27.3815 439.725 30.3303 432.344 33.7048 425.176C30.7287 420.7 28.3661 415.805 26.6864 410.637C30.3029 403.792 34.3257 397.193 38.731 390.879M38.731 390.879C40.2927 395.6 42.4752 400.068 45.215 404.152M38.731 390.879C43.2198 384.474 48.0798 378.365 53.2837 372.589M59.1973 384.586C56.6893 380.909 54.692 376.876 53.2656 372.608C58.5455 366.762 64.1553 361.254 70.0645 356.116M70.0645 356.116C71.3568 359.932 73.1621 363.533 75.4256 366.809M70.0645 356.116C76.0455 350.94 82.3076 346.133 88.8194 341.72M93.6192 351.127C91.6088 348.241 89.9958 345.071 88.8284 341.71C95.4132 337.279 102.235 333.249 109.259 329.637M109.259 329.637C110.283 332.556 111.701 335.303 113.47 337.797M109.259 329.637C116.299 326.027 123.531 322.847 130.921 320.116M130.921 320.116C131.81 322.607 133.03 324.954 134.543 327.085M130.921 320.116C138.306 317.403 145.835 315.146 153.47 313.355M153.47 313.355C154.236 315.452 155.282 317.424 156.576 319.211M153.47 313.355C161.072 311.585 168.764 310.279 176.509 309.442M179.117 314.27C178.036 312.798 177.161 311.173 176.518 309.442C184.202 308.625 191.925 308.288 199.647 308.433M201.766 312.337C200.884 311.151 200.167 309.84 199.638 308.442C207.271 308.6 214.888 309.236 222.45 310.347M224.08 313.365C223.404 312.447 222.852 311.434 222.44 310.356C223.735 310.556 226.353 310.985 227.62 311.223M39.6454 592.04C37.3361 588.346 34.9273 584.089 32.944 580.186C31.5856 578.081 29.8924 575.101 28.7513 572.864M47.3974 596.667C41.8226 591.953 36.9402 586.399 32.9078 580.186C29.5984 573.661 26.7355 566.896 24.3409 559.943C20.8521 554.467 17.9975 548.573 15.8375 542.385M38.4774 576.015C33.0382 571.423 28.2745 566.01 24.3409 559.952C21.9402 552.931 20.0126 545.741 18.5724 538.434M32.2921 553.935C27.01 549.512 22.3858 544.284 18.5724 538.424C17.1323 531.027 16.173 523.536 15.7015 516.001M28.9233 530.836C23.8375 526.611 19.3836 521.608 15.7105 515.992C15.2546 508.353 15.2881 500.69 15.8102 493.054M28.4342 507.137C23.5764 503.138 19.318 498.394 15.8012 493.064C16.3463 485.312 17.3748 477.605 18.8801 469.993M30.8612 483.209C26.2578 479.463 22.2213 475.004 18.8892 469.984C20.4251 462.266 22.4276 454.659 24.8843 447.209M44.1916 436.449C40.1749 433.251 36.6423 429.43 33.7139 425.119C37.1452 417.88 40.9889 410.866 45.224 404.114M45.224 404.114C47.9304 408.054 51.1881 411.54 54.8867 414.455M45.224 404.114C49.5167 397.305 54.1886 390.768 59.2155 384.538M59.2155 384.538C61.6914 388.087 64.6619 391.223 68.0269 393.841M59.2155 384.538C64.2929 378.282 69.7145 372.342 75.4528 366.752M83.3949 375.026C80.3616 372.707 77.6833 369.913 75.4528 366.742C81.2213 361.153 87.293 355.921 93.6374 351.07M93.6374 351.07C95.6288 353.856 98.0105 356.309 100.701 358.345M93.6374 351.07C99.991 346.223 106.61 341.771 113.461 337.74M113.461 337.74C115.208 340.158 117.293 342.284 119.646 344.043M113.461 337.74C120.286 333.743 127.333 330.176 134.561 327.057M139.886 332.437C137.858 330.945 136.058 329.134 134.552 327.066C141.731 323.978 149.079 321.345 156.558 319.183M156.558 319.183C157.843 320.916 159.369 322.433 161.086 323.686M156.558 319.183C163.966 317.054 171.491 315.4 179.09 314.231M182.848 317.945C181.422 316.917 180.152 315.668 179.08 314.241C186.582 313.108 194.143 312.472 201.72 312.337M201.72 312.337C209.139 312.208 216.559 312.57 223.935 313.422M201.72 312.337C202.599 313.486 203.633 314.493 204.79 315.326C197.422 315.703 190.087 316.587 182.83 317.973C184.337 319.044 185.976 319.893 187.702 320.497M72.1746 632.801C67.6466 627.26 62.9103 621.452 58.7718 615.568C53.8487 611.387 49.4542 606.562 45.6949 601.209M78.1605 627.641C71.212 624.59 64.6967 620.547 58.7989 615.625C54.5731 609.607 50.7541 603.286 47.3702 596.705M66.4603 608.484C59.6131 605.499 53.1917 601.532 47.3793 596.696C43.9681 590.028 40.997 583.121 38.4865 576.025M57.1507 587.451C50.4516 584.573 44.1667 580.727 38.4774 576.025C35.9477 568.822 33.8812 561.448 32.2921 553.954M50.404 564.98C43.9091 562.211 37.8132 558.503 32.2921 553.963C30.695 546.349 29.5697 538.633 28.9233 530.864M28.9233 530.864C34.25 535.2 40.1308 538.726 46.3922 541.338M28.9233 530.864C28.2878 522.981 28.1275 515.062 28.4433 507.156M28.4433 507.156C33.538 511.264 39.1523 514.607 45.1243 517.087M28.4433 507.156C28.7821 499.139 29.5895 491.151 30.8612 483.238M46.6729 492.531C41.0154 490.221 35.6932 487.089 30.8612 483.228C32.1701 475.225 33.9363 467.31 36.1499 459.529M50.9745 468.156C45.6734 466.042 40.6804 463.158 36.1409 459.587C38.3862 451.735 41.0745 444.031 44.1916 436.516M54.9048 414.474C50.9292 421.584 47.3549 428.935 44.2006 436.487C48.4279 439.784 53.0735 442.44 58.0019 444.381C55.2341 452.169 52.8908 460.116 50.9835 468.184C56.8589 470.506 62.9702 472.102 69.1952 472.945M67.5923 421.691C63.0684 419.936 58.8007 417.522 54.9139 414.521C58.9106 407.394 63.2981 400.518 68.0541 393.926M68.0541 393.926C71.6037 396.63 75.4965 398.797 79.6186 400.363M68.0541 393.926C72.8354 387.35 77.9758 381.071 83.4493 375.121M93.8547 380.834C90.1544 379.445 86.6556 377.523 83.4583 375.121C88.889 369.201 94.6462 363.621 100.701 358.411M109.92 363.429C106.639 362.209 103.535 360.521 100.692 358.411C106.729 353.255 113.055 348.486 119.637 344.129M119.637 344.129C122.126 345.952 124.841 347.407 127.706 348.452M119.637 344.129C126.153 339.832 132.912 335.956 139.877 332.522M146.841 336.188C144.378 335.3 142.042 334.063 139.895 332.513C146.782 329.137 153.863 326.215 161.095 323.762M166.955 326.847C164.873 326.11 162.899 325.075 161.086 323.772C168.207 321.381 175.467 319.472 182.821 318.059M208.739 317.45C207.337 316.965 206.005 316.28 204.781 315.412C209.88 315.174 215.413 315.174 220.502 315.46M91.7175 645.008C87.1349 639.419 82.3624 633.582 78.1333 627.631M101.924 634.61C93.765 633.266 85.7838 630.924 78.1424 627.631C73.8358 621.532 69.924 615.135 66.433 608.484M89.8791 615.301C81.8346 614.003 73.9624 611.718 66.424 608.493C62.8926 601.711 59.7829 594.695 57.1144 587.489M80.0895 594.039C72.2207 592.799 64.5162 590.597 57.1325 587.479C54.4397 580.152 52.1894 572.653 50.395 565.027M50.395 565.027C57.566 568.025 65.0457 570.131 72.6818 571.302M50.395 565.027C48.5957 557.257 47.2499 549.377 46.3651 541.433M67.8368 547.356C60.485 546.261 53.2793 544.271 46.3651 541.424C45.4839 533.361 45.0635 525.25 45.1062 517.134M67.8368 547.356C69.0192 555.426 70.64 563.417 72.6909 571.293C81.342 572.584 90.088 573.03 98.8174 572.626M67.8368 547.356C76.1705 548.559 84.5921 548.951 92.9944 548.527M67.8368 547.356C66.6591 539.182 65.9184 530.946 65.6181 522.685M45.1062 517.134C51.7111 519.821 58.5921 521.688 65.609 522.695M45.1062 517.134C45.163 508.928 45.6742 500.732 46.6368 492.588M46.6368 492.588C52.8972 495.09 59.4129 496.818 66.0528 497.739M46.6368 492.588C47.6268 484.379 49.0691 476.237 50.9565 468.203M67.565 421.672C63.9548 429.056 60.7499 436.65 57.9659 444.419C63.4302 446.535 69.1102 447.977 74.8914 448.713C72.5598 456.667 70.649 464.75 69.1679 472.926C76.2358 473.841 83.3682 474.077 90.4767 473.631M83.1232 425.528C77.8131 424.872 72.5927 423.575 67.565 421.662C71.1749 414.317 75.1843 407.195 79.5732 400.334M93.7007 403.772C88.8791 403.203 84.1356 402.054 79.5642 400.344C83.9294 393.547 88.6707 387.027 93.7641 380.815M106.443 383.824C102.121 383.328 97.8674 382.316 93.7641 380.806C98.811 374.68 104.199 368.873 109.902 363.419M109.902 363.419C113.543 364.743 117.317 365.622 121.149 366.038M109.902 363.419C115.534 358.058 121.474 353.066 127.688 348.471M137.523 350.708C134.176 350.353 130.881 349.599 127.697 348.461C133.819 343.958 140.207 339.867 146.823 336.217M155.254 338.121C152.382 337.822 149.55 337.183 146.814 336.217C153.317 332.636 160.039 329.512 166.936 326.866M166.936 326.866C169.247 327.673 171.639 328.203 174.063 328.447M166.936 326.866C173.715 324.279 180.653 322.18 187.702 320.582M193.606 321.868C191.598 321.671 189.617 321.236 187.702 320.573C194.64 319.021 201.672 317.974 208.748 317.44M208.748 317.44C210.298 317.979 211.903 318.33 213.529 318.488M208.748 317.44C211.392 317.259 214.752 317.107 217.396 317.088M115.652 652.149C111.016 646.522 106.189 640.609 101.924 634.658M129.771 636.391C120.457 636.717 111.134 636.133 101.924 634.649C97.5278 628.481 93.5106 622.025 89.8972 615.32M117.382 616.948C108.195 617.302 98.9967 616.757 89.906 615.32C86.2229 608.459 82.9475 601.364 80.0986 594.078M106.995 595.572C98.005 595.95 89.0013 595.453 80.0986 594.087C77.205 586.65 74.7343 579.038 72.6997 571.293M89.6345 523.695C81.6163 524.132 73.5767 523.791 65.6181 522.676C65.3297 514.355 65.4809 506.024 66.0709 497.72M88.7922 498.577C81.2064 499.025 73.5976 498.739 66.0618 497.72C66.6651 489.398 67.7051 481.118 69.1771 472.917M94.6788 449.265C88.0832 449.707 81.4635 449.519 74.9005 448.703C77.2302 440.817 79.9783 433.073 83.1322 425.509M83.1322 425.509C89.1624 426.235 95.243 426.384 101.299 425.957M83.1322 425.509C86.2596 418.049 89.7945 410.784 93.7189 403.752M110.201 404.105C104.705 404.51 99.1859 404.395 93.7098 403.762C97.5803 396.856 101.838 390.199 106.461 383.824M121.267 384.053C116.337 384.431 111.385 384.349 106.47 383.805C111.021 377.568 115.932 371.632 121.177 366.028M134.253 366.219C129.895 366.568 125.515 366.507 121.168 366.038C126.305 360.569 131.771 355.452 137.532 350.718M137.532 350.718C141.324 351.107 145.142 351.148 148.942 350.842M137.532 350.718C143.17 346.106 149.097 341.897 155.272 338.121M165.071 338.197C161.808 338.464 158.53 338.435 155.272 338.111C161.32 334.433 167.605 331.204 174.082 328.447M182.332 328.514C179.582 328.747 176.818 328.728 174.072 328.457C180.426 325.771 186.957 323.575 193.615 321.887M200.453 321.887C198.18 322.091 195.897 322.091 193.624 321.887C200.177 320.245 206.836 319.112 213.548 318.497M214.372 318.573L213.557 318.497L214.725 318.411M143.672 653.949C138.972 648.283 134.09 642.332 129.753 636.362M161.222 632.744C150.829 634.75 140.312 635.957 129.753 636.353C125.273 630.136 121.152 623.644 117.409 616.91M117.409 616.91C127.835 616.484 138.215 615.259 148.471 613.244M117.409 616.91C113.559 609.988 110.091 602.838 107.022 595.496M137.423 591.811C127.385 593.818 117.222 595.053 107.013 595.506C103.9 588.019 101.179 580.359 98.8626 572.559M128.394 568.874C118.647 570.852 108.778 572.086 98.8626 572.568C96.5172 564.649 94.5737 556.606 93.0397 548.47M121.475 544.794C112.093 546.739 102.59 547.964 93.0397 548.46C91.5083 540.251 90.3867 531.961 89.6796 523.628M116.848 520.038C107.885 521.919 98.8056 523.122 89.6796 523.638C88.9871 515.286 88.706 506.903 88.8375 498.52M88.8375 498.52C97.4635 497.992 106.043 496.821 114.511 495.016M88.8375 498.52C88.9936 490.176 89.559 481.847 90.5311 473.564M90.5311 473.564C98.6145 473.038 106.652 471.911 114.584 470.193M90.5311 473.564C91.5164 465.373 92.9156 457.243 94.7241 449.208M94.7241 449.208C102.222 448.701 109.675 447.631 117.029 446.009M94.7241 449.208C96.519 441.318 98.7268 433.536 101.335 425.899M121.81 422.881C115.064 424.391 108.225 425.4 101.344 425.899C103.913 418.427 106.889 411.115 110.255 404M128.838 401.201C122.716 402.585 116.51 403.521 110.264 404C113.56 397.106 117.253 390.428 121.321 384.005M137.957 381.463C132.472 382.721 126.911 383.575 121.312 384.014C125.274 377.776 129.612 371.81 134.299 366.152M149.024 363.857C144.174 364.975 139.257 365.738 134.308 366.143C138.853 360.681 143.749 355.553 148.96 350.794M161.756 348.794C157.534 349.77 153.252 350.438 148.942 350.794C154.021 346.182 159.407 341.959 165.062 338.159M176.065 336.397C172.445 337.239 168.775 337.822 165.08 338.14C170.595 334.455 176.368 331.215 182.35 328.447M182.35 328.447C185.463 328.179 188.556 327.686 191.605 326.971M182.35 328.447C188.214 325.759 194.27 323.556 200.462 321.858M208.087 320.639C205.569 321.235 203.015 321.645 200.444 321.868C204.452 320.785 208.511 319.923 212.606 319.287M175.368 650.407C170.667 644.751 165.623 638.667 161.249 632.744M195.807 623.775C184.461 627.474 172.919 630.472 161.24 632.754C156.642 626.502 152.372 619.992 148.444 613.254M148.444 613.254C159.975 610.969 171.368 607.977 182.567 604.294M148.444 613.254C144.419 606.324 140.737 599.179 137.414 591.849M137.414 591.849C148.704 589.575 159.858 586.612 170.821 582.975M137.414 591.849C134.072 584.48 130.966 576.615 128.358 568.903M160.806 560.191C150.158 563.753 139.325 566.664 128.358 568.912C125.714 561.124 123.35 552.849 121.439 544.842M152.673 536.339C142.423 539.804 131.991 542.643 121.43 544.842C119.528 536.787 117.925 528.284 116.775 520.086M146.588 511.869C136.809 515.207 126.855 517.947 116.775 520.076C115.643 511.907 114.837 503.309 114.466 495.054M142.648 487.208C133.404 490.388 123.994 493.01 114.466 495.064C114.104 486.913 114.122 478.382 114.539 470.232M140.937 462.795C132.28 465.793 123.47 468.275 114.548 470.232C114.967 462.132 115.784 454.059 116.993 446.047M116.993 446.047C125.261 444.207 133.424 441.88 141.444 439.077M116.993 446.047C118.186 438.253 119.782 430.532 121.774 422.919M144.206 416.483C136.85 419.073 129.36 421.224 121.774 422.929C123.712 415.577 126.055 408.351 128.793 401.286M149.132 395.383C142.458 397.744 135.665 399.715 128.784 401.286C131.432 394.495 134.48 387.884 137.912 381.491M156.133 376.159C150.16 378.285 144.08 380.062 137.921 381.482C141.224 375.358 144.919 369.476 148.978 363.876M148.978 363.876C154.423 362.606 159.795 361.016 165.071 359.116M148.978 363.876C152.891 358.519 157.171 353.469 161.784 348.766M161.784 348.766C166.519 347.66 171.193 346.281 175.784 344.634M161.784 348.766C166.232 344.254 171.01 340.116 176.074 336.388M188.073 332.817C184.142 334.237 180.139 335.426 176.083 336.378C181.002 332.784 186.2 329.631 191.623 326.952M201.711 323.953C198.394 325.157 195.017 326.17 191.596 326.99C196.913 324.376 202.437 322.254 208.105 320.649M211.039 319.897C210.133 320.144 208.974 320.459 208.096 320.658C208.775 320.468 210.559 319.982 211.22 319.84M210.142 641.495C205.334 635.782 200.335 629.774 195.816 623.794M232.864 609.559C220.91 614.834 208.204 619.786 195.816 623.842C191.161 617.672 186.624 610.969 182.576 604.361M182.576 604.361C194.811 600.352 207.389 595.439 219.162 590.202M182.576 604.361C178.41 597.543 174.38 590.221 170.803 583.033M206.629 569.074C195.073 574.235 182.775 579.081 170.794 583.033C167.172 575.711 163.74 567.874 160.769 560.238M195.562 546.594C184.333 551.631 172.406 556.382 160.769 560.248C157.772 552.545 154.983 544.347 152.619 536.396M152.619 536.396C163.83 532.683 175.322 528.036 186.126 523.161M152.619 536.396C150.282 528.455 148.191 520.048 146.533 511.917M146.533 511.917C157.219 508.298 168.186 503.88 178.492 499.205M146.533 511.917C144.903 503.88 143.536 495.406 142.594 487.246M172.796 475.154C163.051 479.601 152.691 483.8 142.594 487.256C141.688 479.267 141.073 470.888 140.873 462.843M169.164 451.417C160.045 455.607 150.346 459.558 140.891 462.843C140.692 455.045 140.891 446.894 141.417 439.125M141.417 439.125C150.174 436.106 159.166 432.384 167.616 428.489M141.417 439.125C141.94 431.545 142.848 424 144.133 416.521M168.141 406.733C160.398 410.322 152.157 413.721 144.124 416.53C145.376 409.403 147.021 402.358 149.051 395.431M149.051 395.431C156.296 392.869 163.767 389.765 170.785 386.509M149.051 395.431C150.98 388.872 153.315 382.454 156.042 376.216M175.503 368.199C169.228 371.132 162.553 373.912 156.042 376.207C158.631 370.324 161.615 364.641 164.971 359.201M182.178 352.108C176.626 354.698 170.731 357.164 164.971 359.211C168.166 354.08 171.746 349.224 175.675 344.691M190.763 338.416C185.936 340.673 180.801 342.815 175.811 344.605C179.555 340.317 183.648 336.382 188.046 332.846M190.763 338.416C187.531 342.67 184.67 347.221 182.214 352.013M190.763 338.416C195.997 335.988 201.349 333.132 206.384 330.275M190.763 338.416C193.776 334.429 197.168 330.777 200.887 327.514M200.833 327.543C196.703 329.447 192.311 331.351 188.037 332.856C192.307 329.457 196.869 326.487 201.666 323.981M212.434 319.506H212.379C208.929 321.125 205.261 322.667 201.684 323.943C204.626 322.427 207.65 321.091 210.74 319.944M247.372 627.212C242.509 621.499 237.41 615.472 232.828 609.502M271.714 590.202C259.19 597.086 245.859 603.751 232.837 609.502C228.073 603.342 223.373 596.677 219.126 590.107M257.523 570.969C245.153 577.786 231.985 584.404 219.126 590.117C214.752 583.356 210.468 576.091 206.629 568.988M244.229 550.155C232.112 556.82 219.217 563.361 206.62 568.988C202.717 561.762 198.913 554.04 195.553 546.508M232.076 528.132C220.303 534.663 207.788 541.014 195.562 546.508C192.184 538.939 188.942 530.893 186.126 523.076M221.272 505.309C209.943 511.621 197.89 517.763 186.117 523.076C183.328 515.316 180.683 507.089 178.492 499.12M211.999 482.076C201.195 488.122 189.703 494.007 178.492 499.11C176.318 491.293 174.362 483.038 172.796 475.059M172.796 475.059C183.427 470.193 194.285 464.585 204.492 458.872M172.796 475.059C171.283 467.327 170.015 459.187 169.173 451.341M198.832 436.107C189.277 441.486 179.108 446.742 169.182 451.341C168.34 443.828 167.797 435.954 167.634 428.394M167.634 428.394C176.826 424.148 186.244 419.263 195.091 414.264M167.634 428.394C167.467 421.13 167.655 413.862 168.195 406.618M193.362 393.641C185.211 398.23 176.626 402.724 168.195 406.628C168.715 399.842 169.604 393.093 170.858 386.414M193.652 374.607C186.316 378.778 178.501 382.853 170.867 386.404C172.047 380.199 173.617 374.082 175.567 368.095M195.934 357.526C189.368 361.268 182.35 364.924 175.558 368.104C177.376 362.567 179.602 357.188 182.214 352.013M182.214 352.013C188.227 349.194 194.394 345.967 200.19 342.663M200.887 327.514C205.361 325.41 209.943 323.01 214.254 320.544M200.887 327.514C204.463 324.404 208.349 321.712 212.479 319.487M215.676 317.907L212.959 319.145M213.91 318.716L212.099 319.497M221.589 314.831C218.664 316.46 215.513 318.069 212.488 319.497C213.258 319.078 214.815 318.307 215.612 317.935M286.566 607.893C281.648 602.18 276.523 596.134 271.814 590.202M311.787 566.189C298.927 574.568 285.216 582.852 271.805 590.221C266.932 584.08 262.069 577.463 257.614 570.978M297.125 547.175C284.447 555.477 270.863 563.685 257.632 570.978C253.05 564.313 248.495 557.144 244.338 550.164M283.016 526.77C270.573 534.921 257.306 542.957 244.329 550.174C240.118 543.08 235.943 535.511 232.176 528.151M269.749 505.299C257.668 513.24 244.782 521.095 232.185 528.103C228.408 520.724 224.704 512.869 221.381 505.252M257.532 483.247C245.905 490.865 233.498 498.482 221.381 505.261C218.103 497.739 214.924 489.77 212.126 482.048M212.126 482.048C223.69 475.564 235.517 468.308 246.611 460.977M212.126 482.048C209.409 474.516 206.81 466.566 204.591 458.863M204.591 458.863C215.531 452.693 226.715 445.818 237.193 438.868M204.591 458.863C202.463 451.465 200.498 443.628 198.913 436.126M229.395 417.397C219.588 423.9 209.128 430.356 198.904 436.126C197.401 428.994 196.106 421.481 195.164 414.226M195.164 414.226C204.627 408.866 214.344 402.877 223.4 396.83M195.164 414.226C194.258 407.485 193.679 400.401 193.434 393.593M219.298 377.616C210.985 383.167 202.092 388.661 193.443 393.584C193.204 387.236 193.301 380.878 193.733 374.541M217.143 360.049C209.608 365.076 201.585 370.065 193.733 374.531C194.135 368.771 194.903 363.045 196.033 357.392M216.943 344.443C210.215 348.937 203.034 353.412 196.015 357.411C197.046 352.343 198.469 347.373 200.271 342.548M218.737 331.123C212.805 335.103 206.466 339.035 200.28 342.548C201.921 338.217 203.973 334.07 206.402 330.17M222.431 320.211C217.27 323.667 211.773 327.095 206.393 330.17C208.635 326.607 211.277 323.339 214.263 320.439M214.263 320.439C218.854 317.812 223.554 314.879 227.965 311.927M214.263 320.439C216.746 318.051 219.48 315.967 222.413 314.231M226.036 312.108C224.442 313.06 222.585 314.146 220.955 315.06M218.238 316.536C217.333 316.983 216.264 317.488 215.377 317.954M326.765 583.718C321.794 578.005 316.614 571.978 311.805 566.084M311.805 566.084C325.353 557.248 339.181 547.489 352.14 537.729M311.805 566.084C306.833 559.972 301.843 553.44 297.134 547.041M297.134 547.041C310.51 538.291 324.184 528.636 336.98 518.972M297.134 547.041C292.334 540.472 287.499 533.464 283.034 526.637M283.034 526.637C296.138 518.067 309.532 508.546 322.065 499.082M283.034 526.637C278.506 519.715 273.978 512.355 269.758 505.213M269.758 505.213C282.491 496.844 295.495 487.618 307.666 478.391M269.758 505.213C265.583 498.082 261.39 490.512 257.55 483.171M294.001 457.435C282.273 466.337 269.758 475.24 257.505 483.314C253.747 476.097 249.989 468.451 246.638 461.043M281.449 436.287C270.274 444.8 258.329 453.302 246.647 461.043C243.36 453.883 240.118 446.304 237.211 438.953M270.102 415.54C259.534 423.586 248.259 431.641 237.22 438.953C234.503 431.974 231.786 424.595 229.441 417.454M260.231 395.497C250.351 403.038 239.801 410.589 229.441 417.397C227.249 410.732 225.175 403.676 223.446 396.859M251.909 376.521C242.753 383.51 232.982 390.508 223.428 396.878C221.834 390.622 220.403 384.033 219.316 377.664M219.316 377.664C228.073 371.817 237.021 365.4 245.406 358.992M219.316 377.664C218.347 371.951 217.577 365.914 217.161 360.116M240.779 343.196C233.19 349.004 225.094 354.812 217.17 360.116C216.788 354.933 216.727 349.729 216.989 344.538M238.071 329.409C231.288 334.607 224.052 339.806 216.971 344.548C217.212 340.059 217.817 335.599 218.782 331.218M237.392 317.888C231.397 322.468 225.04 327.057 218.791 331.218C219.588 327.454 220.794 323.8 222.386 320.325M238.533 308.728C233.326 312.708 227.802 316.707 222.377 320.325C223.818 317.284 225.686 314.489 227.919 312.032M231.668 308.633C229.767 309.871 227.584 311.261 225.655 312.441M241.721 302.111C237.283 305.51 232.547 308.918 227.919 312.022C229.241 310.6 230.697 309.324 232.266 308.214M239.991 302.806C237.012 304.977 233.779 307.224 230.709 309.252M367.227 555.354C362.265 549.688 356.913 543.576 352.068 537.805M391.968 505.661C379.172 516.639 365.489 527.694 352.068 537.815C346.978 531.759 341.78 525.323 336.908 519.077M391.968 505.661C405.009 494.454 418.294 482.324 430.664 470.317M391.968 505.661C386.77 499.682 381.418 493.359 376.347 487.256C363.668 498.129 350.175 509.051 336.917 519.077C331.909 512.631 326.792 505.804 322.002 499.177M322.002 499.177C334.997 489.351 348.255 478.62 360.644 467.965M322.002 499.177C317.166 492.512 312.221 485.38 307.603 478.496M345.122 448.151C333.086 458.511 320.218 468.946 307.594 478.506C303.011 471.66 298.33 464.423 294.01 457.406M294.01 457.406C306.154 448.142 318.552 438.125 330.134 428.147M294.01 457.406C289.754 450.551 285.425 443.305 281.404 436.278M281.404 436.278C292.996 427.471 304.814 417.863 315.871 408.342M281.404 436.278C277.546 429.537 273.652 422.415 270.057 415.512M302.604 389.08C292.162 398.106 280.987 407.171 270.048 415.521C266.652 409.018 263.256 402.191 260.15 395.526M260.15 395.526C270.392 387.718 280.842 379.216 290.614 370.77M260.15 395.526C257.288 389.375 254.435 382.872 251.881 376.578M280.046 353.65C270.99 361.468 261.318 369.351 251.845 376.597C249.545 370.884 247.317 364.905 245.334 359.078M271.153 338.054C262.866 345.214 254.01 352.441 245.325 359.078C243.622 353.955 241.992 348.547 240.688 343.291M240.688 343.291C248.54 337.273 256.563 330.732 264.062 324.248M240.688 343.291C239.539 338.749 238.633 334.143 237.971 329.494M258.864 312.46C252.162 318.259 244.999 324.105 237.981 329.485C237.439 325.656 237.2 321.787 237.265 317.916M237.265 317.916C243.441 313.175 249.753 308.014 255.667 302.901M237.265 317.916C237.309 314.823 237.729 311.748 238.515 308.766M238.515 308.766C243.885 304.653 249.364 300.168 254.49 295.722M238.515 308.766C239.154 306.37 240.234 304.128 241.693 302.168M254.761 291.142C249.771 295.388 244.519 299.549 239.248 303.406M255.341 291.028C250.958 294.836 246.285 298.645 241.684 302.177C242.365 301.317 243.136 300.54 243.985 299.864M407.318 523.133C402.31 517.487 396.913 511.402 391.923 505.709M414.563 452.341C402.328 464.214 389.206 476.221 376.311 487.304C371.14 481.076 365.643 474.335 360.598 468.013M398.099 433.736C386.1 445.371 373.231 457.139 360.607 468.013C355.455 461.548 350.13 454.75 345.095 448.18M381.509 414.855C369.854 426.157 357.347 437.601 345.086 448.18C340.087 441.658 334.934 434.793 330.053 428.185M365.144 396.078C353.915 406.971 341.88 417.978 330.062 428.175C325.325 421.72 320.417 414.921 315.799 408.361M349.251 377.73C338.547 388.128 327.055 398.678 315.744 408.37C311.325 402.096 306.779 395.488 302.495 389.108M290.587 370.789C294.445 376.873 298.574 383.167 302.586 389.147C313.236 379.958 324.085 370.008 334.209 360.182C338.837 365.59 344.669 372.408 349.306 377.768C360.046 367.295 370.977 356.088 381.128 345.014M290.587 370.789C300.557 362.172 310.691 352.879 320.173 343.672M290.587 370.789C287.046 365.219 283.423 359.363 280.055 353.65M280.055 353.65C289.274 345.671 298.674 337.045 307.449 328.533M280.055 353.65C277.048 348.575 273.987 343.234 271.162 338.045M271.162 338.045C279.602 330.742 288.214 322.839 296.247 315.041M271.162 338.045C268.726 333.57 266.28 328.837 264.062 324.239M286.756 303.386C279.511 310.442 271.696 317.593 264.053 324.21C262.241 320.401 260.43 316.374 258.873 312.432M258.873 312.432C265.701 306.529 272.656 300.121 279.158 293.817M258.873 312.432C257.632 309.326 256.564 306.147 255.676 302.91M273.561 286.486C267.838 292.056 261.698 297.683 255.685 302.901C255.035 300.563 254.643 298.154 254.517 295.722M254.517 295.722C259.742 291.161 265.076 286.267 270.039 281.439M254.517 295.722C254.412 294.102 254.709 292.482 255.377 291.018M287.526 258.369C277.842 269.67 267.378 280.204 256.219 289.885C255.891 290.208 255.61 290.58 255.386 290.99C259.851 287.124 264.397 282.944 268.644 278.821C269.014 279.757 269.494 280.641 270.075 281.449M256.201 289.856L254.616 291.218M446.195 487.608C441.812 482.724 435.084 475.23 430.674 470.317M430.674 470.317C443.089 458.263 455.713 445.276 467.423 432.46M430.674 470.317L414.599 452.303M450.941 414.883C439.349 427.547 426.879 440.391 414.599 452.312C410.071 447.266 402.6 438.782 398.126 433.698M433.743 397.03C422.387 409.408 410.198 422.024 398.117 433.707C393.028 427.937 386.589 420.606 381.545 414.845M416.175 379.187C405.136 391.241 393.245 403.476 381.554 414.836C376.673 409.246 370.017 401.62 365.181 396.05M398.516 361.772C387.875 373.379 376.437 385.167 365.172 396.097C360.263 390.461 354.169 383.415 349.297 377.749M364.284 329.19C354.685 339.663 344.361 350.28 334.2 360.144C330.17 355.383 324.112 348.309 320.163 343.634M348.337 314.66C339.344 324.448 329.681 334.388 320.182 343.624C316.278 339.006 311.307 333.151 307.449 328.485M333.521 301.673C325.199 310.737 316.242 319.944 307.449 328.495C303.926 324.277 299.742 319.24 296.247 315.003M320.136 290.428C312.511 298.73 304.306 307.157 296.256 314.993C293.24 311.327 289.744 307.052 286.774 303.367M286.774 303.367C294.073 296.283 301.49 288.647 308.391 281.144M286.774 303.367C284.347 300.349 281.558 296.855 279.176 293.846M298.529 273.946C292.362 280.659 285.733 287.476 279.212 293.808C277.401 291.485 275.364 288.838 273.607 286.467M273.607 286.467C279.348 280.887 285.198 274.879 290.632 268.966M273.607 286.467C272.411 284.848 271.18 283.134 270.075 281.449M270.075 281.449C275.065 276.574 280.136 271.347 284.863 266.215M281.268 265.843C277.229 270.223 272.9 274.689 268.59 278.831C268.544 278.712 268.544 278.578 268.59 278.459M483.044 449.618C478.082 444.162 472.367 437.897 467.368 432.479M467.368 432.479C462.378 427.08 455.931 420.215 450.886 414.902M467.368 432.479C478.942 419.825 490.642 406.219 501.455 392.841C506.653 398.278 512.159 404.267 517.267 409.78M484.611 375.721C473.916 388.937 462.333 402.381 450.896 414.902C445.571 409.304 439.059 402.524 433.689 397.03M416.102 379.197C421.708 384.814 428.147 391.336 433.68 397.03C444.9 384.767 456.266 371.589 466.762 358.64C472.693 364.162 478.815 370.065 484.593 375.721C494.989 362.867 505.422 349.061 515.057 335.56M448.251 341.92C438.054 354.498 427.006 367.295 416.102 379.206C410.334 373.436 404.284 367.438 398.452 361.744M429.424 325.848C419.589 337.959 408.948 350.28 398.443 361.744C392.81 356.25 386.725 350.375 381.038 344.967M410.642 310.689C401.242 322.239 391.081 333.989 381.056 344.967C375.695 339.863 369.654 334.198 364.221 329.18M392.186 296.807C383.302 307.719 373.693 318.821 364.212 329.18C359.059 324.419 353.462 319.316 348.246 314.66M374.436 284.391C366.186 294.617 357.193 304.996 348.337 314.669C343.51 310.356 338.438 305.891 333.53 301.682M357.8 273.67C350.084 283.115 341.744 292.713 333.53 301.692C329.165 297.95 324.583 294.074 320.136 290.456M308.364 281.173C312.276 284.153 316.297 287.352 320.136 290.466C327.68 282.258 335.296 273.47 342.369 264.805C347.513 267.576 352.801 270.633 357.764 273.679C365.262 264.482 372.833 254.636 379.779 244.972M328.486 257.959C322.092 265.786 315.174 273.756 308.354 281.182C305.158 278.745 301.771 276.25 298.456 273.984M316.46 253.227C310.736 260.235 304.56 267.338 298.465 273.975C295.93 272.242 293.231 270.499 290.569 268.985M290.569 268.985C295.948 263.139 301.39 256.865 306.435 250.695M290.569 268.985C288.727 267.902 286.796 266.993 284.8 266.272M284.8 266.272C289.464 261.187 294.2 255.75 298.583 250.399M284.8 266.272C283.668 265.811 282.441 265.67 281.241 265.862M293.014 252.294C290.297 255.674 287.182 259.254 284.284 262.511C283.206 263.606 281.802 265.558 280.489 266.319M532.245 352.27C522.555 365.962 511.978 379.882 501.455 392.917C496.021 387.204 490.217 381.339 484.611 375.778M559.133 311.375C550.756 325.124 541.51 339.149 532.236 352.251C526.721 346.652 520.826 340.949 515.03 335.617M496.637 319.345C487.228 332.598 476.95 346.1 466.753 358.697C460.757 353.108 454.409 347.366 448.26 341.968M477.339 303.758C468.174 316.621 458.177 329.732 448.251 341.968C442.147 336.597 435.691 331.075 429.433 325.895M429.433 325.895C439.023 314.117 448.659 301.492 457.506 289.114M429.433 325.895C423.329 320.839 416.881 315.641 410.633 310.775M437.429 275.688C428.98 287.505 419.77 299.492 410.642 310.766C404.656 306.1 398.326 301.33 392.204 296.864M417.56 263.729C409.564 274.889 400.852 286.257 392.204 296.874C386.444 292.684 380.359 288.4 374.463 284.439M398.208 253.427C390.719 263.901 382.559 274.498 374.463 284.429C369.03 280.782 363.306 277.079 357.737 273.689M362.491 238.526C356.152 247.372 349.188 256.388 342.314 264.805C337.786 262.406 333.095 260.045 328.468 257.95M328.468 257.95C334.689 250.333 340.974 242.154 346.743 234.146M328.468 257.95C324.583 256.217 320.462 254.551 316.432 253.189M316.432 253.189C321.993 246.372 327.617 239.088 332.778 231.937M316.432 253.189C313.155 252.086 309.803 251.239 306.407 250.657M320.815 231.928C316.288 238.24 311.316 244.658 306.398 250.657C303.803 250.213 301.166 250.111 298.547 250.352M311.062 234.089C307.105 239.564 302.803 245.144 298.538 250.361C296.568 250.544 294.664 251.195 292.968 252.266M298.538 244.477C294.915 249.238 291.103 254.084 287.218 258.626M303.682 238.364C299.679 243.668 295.794 249.428 291.076 254.027M548.157 368.923C542.968 363.381 537.552 357.602 532.236 352.194M541.691 295.198C533.405 308.785 524.231 322.62 515.057 335.579C509.125 330.085 502.813 324.515 496.655 319.306M522.872 279.764C514.722 293.094 505.72 306.633 496.71 319.316C490.479 314.051 483.85 308.699 477.402 303.72M502.868 265.31C494.935 278.231 486.169 291.399 477.411 303.71C470.982 298.759 464.172 293.732 457.543 289.066M482.12 252.104C474.459 264.539 466.001 277.212 457.552 289.066C451.059 284.505 444.176 279.897 437.493 275.641M460.975 240.411C453.649 252.275 445.58 264.358 437.484 275.641C431.045 271.547 424.226 267.443 417.56 263.682M417.56 263.682C425.204 252.98 432.865 241.554 439.802 230.357M417.56 263.682C411.285 260.121 404.656 256.579 398.208 253.389M419.127 222.254C412.607 232.728 405.425 243.42 398.298 253.408C392.312 250.447 385.982 247.524 379.833 244.963M399.195 216.113C393.146 225.815 386.517 235.708 379.842 244.963C374.246 242.63 368.332 240.383 362.582 238.507M362.582 238.507C368.685 230.033 374.789 220.978 380.34 212.094M362.582 238.507C357.474 236.831 352.077 235.308 346.833 234.156M362.926 210.257C357.891 218.302 352.348 226.5 346.824 234.165C342.217 233.137 337.553 232.405 332.86 231.975M347.259 210.609C342.731 217.788 337.795 225.12 332.851 231.975C328.874 231.618 324.874 231.618 320.897 231.975M320.897 231.975C325.226 225.929 329.591 219.464 333.575 213.142M320.897 231.975C317.577 232.274 314.304 233 311.153 234.137M322.219 217.76C318.76 223.263 314.974 228.871 311.162 234.127C308.489 235.109 305.991 236.554 303.772 238.402M304.786 235.822C302.794 238.764 300.603 241.859 298.447 244.706M313.19 224.406C310.229 229.109 306.978 233.927 303.736 238.393C302.478 239.484 301.347 240.727 300.367 242.097M575.18 327.876C570.027 322.439 564.494 316.602 559.178 311.356M564.086 255.408C557.258 268.785 549.597 282.439 541.754 295.227C535.705 289.961 529.221 284.667 522.872 279.792M522.872 279.792C530.534 267.233 538.105 253.856 544.824 240.754M522.872 279.792C516.434 274.851 509.569 269.89 502.877 265.339M524.258 227.481C517.711 240.202 510.33 253.189 502.868 265.339C496.175 260.806 489.048 256.265 482.111 252.142M502.768 215.713C496.429 227.957 489.311 240.468 482.102 252.151C475.274 248.086 468.02 244.058 460.975 240.43M460.975 240.43C467.866 229.271 474.695 217.35 480.753 205.677M460.975 240.43C454.138 236.917 446.893 233.461 439.856 230.414M439.856 230.414C446.395 219.864 452.861 208.6 458.611 197.574M439.856 230.414C433.137 227.491 426.028 224.701 419.127 222.263M436.723 191.547C431.289 201.868 425.249 212.399 419.118 222.273C412.634 219.997 405.779 217.874 399.15 216.132M415.514 187.672C410.488 197.193 404.846 206.991 399.159 216.122C393.019 214.522 386.553 213.123 380.304 212.104M395.319 186.072C390.691 194.822 385.52 203.763 380.295 212.133C374.529 211.19 368.719 210.573 362.89 210.285M376.528 186.682C372.344 194.603 367.635 202.697 362.899 210.276C357.678 210.024 352.447 210.138 347.241 210.619M347.241 210.619C351.488 203.811 355.69 196.613 359.448 189.529M347.241 210.619C342.632 211.057 338.066 211.904 333.593 213.151M344.379 194.546C341.056 200.792 337.334 207.172 333.584 213.151C329.634 214.261 325.809 215.812 322.174 217.779M331.547 201.592C329.428 205.591 327.019 209.828 324.673 213.694C323.623 215.16 322.681 217.845 320.906 218.455C318.119 220.112 315.523 222.103 313.172 224.387M309.061 229.081C307.657 231.347 306.063 233.842 304.533 236.041M308.065 230.604C309.539 228.342 311.242 226.254 313.145 224.377C315.934 219.931 318.696 215.198 321.169 210.552C347.214 182.94 391.805 183.197 425.973 189.291C457.534 195.108 487.989 207.067 516.252 222.835C546.479 239.677 573.985 261.432 597.756 287.295M321.214 210.552C317.175 214.827 314.078 220.073 311.252 225.301M311.814 224.301C310.791 226.091 309.631 228.11 308.554 229.814M314.811 218.579C314.322 219.531 313.616 220.959 313.1 221.93M315.952 216.122C315.472 217.169 314.938 218.322 314.422 219.359M316.333 215.218C316.016 215.951 315.635 216.798 315.309 217.522M210.994 319.897L210.179 320.144M211.175 319.84L210.405 320.097M211.664 319.649L210.758 319.973M212.497 319.373L211.356 319.811M626.363 94.3434C622.635 87.1322 617.91 80.5416 612.345 74.7862C607.672 70.0922 602.8 65.2648 597.855 60.961C580.275 44.3169 560.127 30.9417 538.276 21.4088L537.37 21.0184C527.899 16.8931 518.18 13.4325 508.273 10.659C505.421 9.84971 502.541 9.107 499.661 8.41193C479.495 3.59728 458.832 1.47945 438.162 2.10872C435.554 2.17854 432.951 2.28965 430.356 2.442C423.376 2.8419 416.433 3.51475 409.527 4.46055H409.409C400.054 5.72691 390.772 7.47887 381.571 9.64975H381.472C378.085 10.4496 374.713 11.3065 371.356 12.2206C359.837 15.3531 348.472 19.1236 337.287 23.4464L336.617 23.713C328.207 26.982 319.9 30.5463 311.695 34.4056C309.368 35.4815 307.04 36.6051 304.731 37.7381L304.287 37.9571C293.574 43.2416 283.06 48.9735 272.8 55.0387C262.947 60.8563 252.976 67.2262 242.969 74.0817C233.461 80.6134 223.946 87.5958 214.425 95.0289C205.308 102.132 196.252 109.619 187.257 117.49C178.514 125.107 169.879 133.06 161.348 141.351C152.817 149.641 144.495 158.17 136.381 166.935C95.8642 210.734 60.102 261.274 35.6871 314.823L35.6238 314.947C30.5464 326.087 25.9792 337.351 21.9221 348.738C18.5291 358.26 15.5375 367.876 12.9475 377.588C12.8841 377.845 12.8118 378.103 12.7484 378.36C12.685 378.617 12.6577 378.702 12.6125 378.883C11.9333 381.435 11.2993 383.987 10.6926 386.501C10.6926 386.605 10.6927 386.71 10.6202 386.805C0.866938 427.843 -1.15262 469.642 7.36905 510.737C8.57651 516.526 9.98016 522.303 11.5801 528.066C13.3551 534.414 15.4048 540.762 17.7292 547.109C20.9503 555.888 24.6357 564.47 28.7683 572.817C28.9947 573.265 29.2211 573.712 29.4566 574.16C30.5252 576.149 31.8474 578.435 32.9522 580.139V580.196C34.6638 583.557 36.6833 587.175 38.6847 590.47L38.748 590.575C41.6761 595.234 44.7522 599.786 47.9761 604.228C53.1018 611.35 58.5534 618.215 64.1953 624.861C66.6426 627.68 69.295 630.293 72.1283 632.679C78.0737 637.676 84.6509 641.782 91.6713 644.876C97.353 647.401 103.247 649.361 109.276 650.731C111.377 651.188 113.49 651.592 115.615 651.941C124.899 653.466 134.295 654.103 143.689 653.845C166.111 653.321 188.525 648.275 210.078 641.324C216.291 639.325 222.44 637.163 228.489 634.907C234.828 632.431 241.109 629.819 247.334 627.07C260.616 621.212 273.666 614.792 286.483 607.808C329.499 584.424 369.708 555.221 407.254 522.972C417.234 514.403 427.02 505.637 436.613 496.674C439.789 493.665 442.967 490.608 446.149 487.504C458.556 475.422 470.908 462.749 483.034 449.418C527.119 401.249 568.16 345.91 597.701 287.115C604.21 274.179 610.126 261.087 615.451 247.839C618.554 240.064 621.434 232.247 624.09 224.388C625.521 219.945 626.897 215.384 628.22 210.705C631.432 199.385 633.934 187.856 635.709 176.19C639.857 147.902 638.906 118.461 626.363 94.3434Z" stroke="black" stroke-opacity="0.5" stroke-width="3" stroke-linecap="round" stroke-linejoin="round"/>
</svg>
