<svg width="24" height="24" viewBox="0 0 24 24" fill="none" xmlns="http://www.w3.org/2000/svg">
<path d="M12 -0.000976562C9.62663 -0.000976562 7.30655 0.702808 5.33316 2.02138C3.35977 3.33996 1.8217 5.21411 0.91345 7.40682C0.00519838 9.59953 -0.23244 12.0123 0.230582 14.3401C0.693605 16.6679 1.83649 18.8061 3.51472 20.4843C5.19295 22.1625 7.33115 23.3054 9.65892 23.7684C11.9867 24.2315 14.3995 23.9938 16.5922 23.0856C18.7849 22.1773 20.6591 20.6393 21.9776 18.6659C23.2962 16.6925 24 14.3724 24 11.999C23.9964 8.81754 22.7309 5.76738 20.4813 3.51773C18.2316 1.26808 15.1815 0.00264004 12 -0.000976562ZM23.0116 11.5107H18.1035C18.0702 9.7247 17.735 7.95722 17.1121 6.28305C18.1501 5.79342 19.1122 5.15703 19.969 4.39345C21.8136 6.31817 22.8951 8.84824 23.0116 11.5117V11.5107ZM12.488 1.40157C13.2276 2.01204 13.8906 2.70978 14.4625 3.47956C14.9933 4.19264 15.4487 4.95892 15.8212 5.76607C14.7515 6.16081 13.6271 6.38702 12.488 6.43661V1.40157ZM13.6378 1.09738C15.7259 1.4116 17.6791 2.32102 19.2636 3.71673C18.5015 4.38544 17.6506 4.94556 16.7351 5.38119C15.9967 3.76239 14.9439 2.30656 13.6378 1.09836V1.09738ZM9.58725 3.4802C10.1464 2.72784 10.7925 2.04412 11.512 1.44323V6.43726C10.3879 6.38867 9.27788 6.16779 8.2208 5.78234C8.5949 4.96949 9.05286 4.19792 9.58725 3.4802ZM7.30561 5.40169C6.37426 4.96331 5.50908 4.39634 4.73539 3.71738C6.33487 2.30886 8.30961 1.39616 10.4188 1.09055C9.10385 2.30561 8.04532 3.77156 7.30561 5.40201V5.40169ZM11.512 7.4133V11.5126H6.92268C6.95964 9.86339 7.27137 8.23186 7.84503 6.68517C9.02171 7.11835 10.2591 7.36384 11.512 7.4133ZM11.512 12.4887V16.5184C10.2884 16.5664 9.07949 16.8019 7.92734 17.2166C7.31656 15.7119 6.97645 14.1111 6.92268 12.488L11.512 12.4887ZM11.512 17.4944V22.4566C10.2016 21.2071 9.12304 19.7354 8.32622 18.1096C9.35187 17.748 10.4255 17.5405 11.512 17.4938V17.4944ZM10.5815 22.9303C8.39575 22.6473 6.34571 21.7132 4.69798 20.2494C5.50697 19.5312 6.41756 18.9364 7.40029 18.4841C8.19657 20.1382 9.27283 21.6422 10.5815 22.9296V22.9303ZM12.488 22.5031V17.4928C13.5896 17.5401 14.6778 17.7529 15.7161 18.124C14.9099 19.7644 13.8167 21.2472 12.488 22.5024V22.5031ZM16.6401 18.5033C17.6073 18.9533 18.504 19.5415 19.302 20.2494C17.6689 21.7001 15.6403 22.6309 13.4754 22.9228C14.7762 21.6419 15.8467 20.1467 16.6401 18.5027V18.5033ZM12.488 16.5187V12.488H17.1265C17.0728 14.1167 16.7307 15.723 16.1159 17.2322C14.9509 16.8077 13.727 16.5667 12.488 16.5177V16.5187ZM12.488 11.513V7.41361C13.756 7.36325 15.0079 7.11166 16.1969 6.66825C16.7748 8.21965 17.0886 9.85688 17.1255 11.512L12.488 11.513ZM4.03102 4.39475C4.89936 5.1689 5.8759 5.81236 6.92984 6.30484C6.31212 7.97305 5.97974 9.73338 5.94665 11.512H0.988402C1.10529 8.84894 2.18671 6.31931 4.03102 4.39475ZM0.988402 12.488H5.94665C5.99645 14.2379 6.35507 15.9653 7.00597 17.5904C5.90816 18.0941 4.89287 18.761 3.99458 19.5685C2.17169 17.6479 1.10409 15.1334 0.988402 12.488ZM20.0038 19.5688C19.1176 18.7716 18.1173 18.1113 17.036 17.6096C17.6916 15.9789 18.0528 14.2448 18.1028 12.488H23.0116C22.8954 15.1337 21.8273 17.6483 20.0038 19.5688Z" fill="currentColor"/>
</svg>
