<svg width="576" height="272" viewBox="0 0 576 272" fill="none" xmlns="http://www.w3.org/2000/svg">
<path d="M473 226C433.7 226 392.2 200.3 371.8 181.6C349.5 161.2 288.3 94.8 288 94.5C247.8 49.7 193.9 0 140 0C75.1 0 18.6 44.9 3.80005 104.4C5.00005 100.5 25.6 46 103 46C142.3 46 183.8 71.7 204.2 90.4C226.5 110.8 287.7 177.2 288 177.5C328.2 222.3 382.1 272 436 272C500.9 272 557.4 227.1 572.2 167.6C571 171.5 550.4 226 473 226Z" fill="#29ABE2"/>
<path d="M288 177.5C287.9 177.3 270.2 158.2 250.5 137.4C239.8 150.1 224.4 167.4 206.7 182.9C173.7 211.8 152.3 217.9 140 217.9C93.7 217.9 56 181.2 56 136.1C56 91.3 93.7 54.6 140 54.3C141.7 54.3 143.7 54.5 146.2 54.9C132.3 49.5 117.5 46 103 46C25.6 46 5 100.5 3.8 104.4C1.3 114.6 0 125.1 0 136C0 211 61.9 272 139 272C171.2 272 207.2 255.5 244.3 223C261.8 207.6 277 191.2 288.5 178L288 177.5Z" fill="url(#paint0_linear_793_708)"/>
<path d="M288 94.5C288.1 94.7 305.8 113.8 325.5 134.6C336.2 121.9 351.6 104.6 369.3 89.1C402.3 60.2 423.7 54.1 436 54.1C482.3 54.1 520 90.8 520 135.9C520 180.7 482.3 217.4 436 217.7C434.3 217.7 432.3 217.5 429.8 217.1C443.7 222.4 458.5 225.9 473 225.9C550.4 225.9 571 171.4 572.2 167.5C574.7 157.4 576 146.8 576 135.9C576 61 513.1 0 436 0C403.8 0 368.8 16.5 331.7 49C314.2 64.4 299 80.8 287.5 94L288 94.5Z" fill="url(#paint1_linear_793_708)"/>
<defs>
<linearGradient id="paint0_linear_793_708" x1="212.578" y1="254.208" x2="23.135" y2="58.034" gradientUnits="userSpaceOnUse">
<stop offset="0.22" stop-color="#ED1E79"/>
<stop offset="0.892" stop-color="#522785"/>
</linearGradient>
<linearGradient id="paint1_linear_793_708" x1="363.301" y1="17.909" x2="552.744" y2="214.084" gradientUnits="userSpaceOnUse">
<stop offset="0.21" stop-color="#F15A24"/>
<stop offset="0.684" stop-color="#FBB03B"/>
</linearGradient>
</defs>
</svg>
